<svg width="222" height="166" viewBox="0 0 222 166" xmlns="http://www.w3.org/2000/svg" xmlns:xlink="http://www.w3.org/1999/xlink"><title>Hand_Illustration</title><defs><path id="a" d="M6.312 6.225H.17V.081h6.143z"/><path id="c" d="M37.413.414V51.19H.024V.414z"/><path id="e" d="M0 33.286V.229h61.325v33.057z"/><path id="g" d="M.357.395h9.225v9.226H.357V.395z"/></defs><g fill="none" fill-rule="evenodd"><path d="M119.876 159.46a1.537 1.537 0 0 1 0-3.071 1.537 1.537 0 0 1 0 3.072m0-6.144a4.613 4.613 0 0 0-4.607 4.608 4.613 4.613 0 0 0 4.607 4.607 4.612 4.612 0 0 0 4.607-4.607 4.613 4.613 0 0 0-4.607-4.608" fill="#FFA63A"/><g transform="translate(129.465 159.38)"><mask id="b" fill="#fff"><use xlink:href="#a"/></mask><path d="M3.24 4.177a1.025 1.025 0 1 1 .003-2.05 1.025 1.025 0 0 1-.002 2.05m0-4.096A3.075 3.075 0 0 0 .169 3.153a3.075 3.075 0 0 0 3.072 3.072 3.075 3.075 0 0 0 3.071-3.072A3.075 3.075 0 0 0 3.241.08" fill="#FFA63A" mask="url(#b)"/></g><path fill="#FF4489" d="M206.802 74.854l10.563-11.724 3.675 4.923zM207.944 67.842l-.663-8.59 3.284.382z"/><path d="M184.471 82.88c-13.485 2.635-22.281 15.704-19.647 29.19 2.635 13.487 15.701 22.284 29.187 19.65 13.484-2.635 22.28-15.704 19.647-29.19-2.635-13.487-15.702-22.284-29.187-19.65" fill="#FFA63A"/><g transform="translate(184.24 80.53)"><mask id="d" fill="#fff"><use xlink:href="#c"/></mask><path d="M36.948 20.529C34.313 7.043 21.246-1.754 7.76.879L.024 2.392l.208-.04C13.717-.284 26.784 8.514 29.418 22c2.634 13.486-6.162 26.554-19.647 29.189l7.53-1.471c13.484-2.635 22.28-15.703 19.647-29.19" fill="#FFD43A" mask="url(#d)"/></g><path d="M182.32 115.37c3.761 1.692 7.366 1.074 8.675.692 1.667-.452 2.885-1.946 2.413-3.486-.44-1.63-1.833-2.111-3.556-2.362-4.84-.77-9.32-2.28-10.264-7.118-.796-4.073.946-7.804 4.361-9.602l-.756-3.87 5.12-1 .71 3.629c1.118-.052 2.553.002 4.405.27l.361 5.706c-3.437-.668-5.244-.275-6.122-.06-2.035.522-2.67 2.195-2.233 3.785.476 1.58 2.03 2.03 3.791 2.272 4.8.778 9.175 2.603 10.073 7.199.787 4.033-.916 7.756-4.652 9.615l.764 3.912-5.121 1-.717-3.668a18.535 18.535 0 0 1-6.797-.724l-.456-6.19z" fill="#FF4489"/><path d="M209.1 86.367s-.688.769-1.175 1.92c-.32.676-.552 1.491-.7 2.354-.86.149-1.673.381-2.348.7-1.151.485-1.92 1.17-1.92 1.17s.769.685 1.92 1.17c.676.32 1.491.552 2.354.7.148.864.38 1.678.7 2.354a7.606 7.606 0 0 0 1.17 1.92s.685-.768 1.17-1.92c.32-.675.55-1.488.7-2.349.863-.146 1.678-.378 2.354-.699 1.151-.487 1.92-1.176 1.92-1.176s-.769-.688-1.92-1.176c-.675-.32-1.488-.551-2.35-.699-.147-.86-.378-1.674-.698-2.348-.487-1.152-1.176-1.92-1.176-1.92M213.602 99.084s-.345.383-.588.96c-.16.338-.277.745-.35 1.176-.43.075-.836.19-1.174.35-.576.243-.96.585-.96.585s.384.343.96.586c.338.16.745.276 1.176.35.075.431.19.838.35 1.176.243.576.586.96.586.96s.342-.384.585-.96c.16-.337.275-.743.35-1.174.431-.074.838-.19 1.176-.35.576-.243.96-.588.96-.588s-.384-.344-.96-.588a4.566 4.566 0 0 0-1.174-.349 4.588 4.588 0 0 0-.35-1.174c-.243-.577-.587-.96-.587-.96" fill="#FFF"/><g transform="translate(0 72.645)"><mask id="f" fill="#fff"><use xlink:href="#e"/></mask><path d="M.332 27.721c2.468 6.83 18.049 7.46 34.8 1.405 16.752-6.055 28.33-16.501 25.861-23.332-2.468-6.831-18.049-7.46-34.8-1.405C9.44 10.444-2.137 20.89.332 27.72" fill="#525161" mask="url(#f)"/></g><path d="M50.602 71.717a28.887 28.887 0 0 1 7.555-19.52 4.605 4.605 0 0 0-6.883-6.118 38.288 38.288 0 0 0-6.397 9.672 4.608 4.608 0 1 1-8.504-3.554 46.709 46.709 0 0 1 1.63-3.26 4.605 4.605 0 1 0-7.974-4.61 56.392 56.392 0 0 0-2.515 5.124 4.607 4.607 0 1 1-8.578-3.372C23.591 35.104 31.14 25.644 40.62 18.661a4.603 4.603 0 1 0-5.557-7.34C16.554 25.006 4.529 46.981 4.529 71.717c0 41.393 33.671 75.07 75.06 75.07a74.652 74.652 0 0 0 29.317-5.963 8.928 8.928 0 0 1 3.47-.697 8.936 8.936 0 0 1 6.646 2.95l.016.02c4.168 4.586 10.18 7.464 16.863 7.464 3.48 0 6.777-.78 9.726-2.174 6.783-3.583 34.812-.898 34.812-.898a9.215 9.215 0 0 0 9.214-9.215c0-5.09-4.126-9.216-9.214-9.215-12.724 0-23.037-10.316-23.037-23.04 0-12.724 10.313-23.039 23.037-23.039 1.788 0 3.53.204 5.202.59a7.68 7.68 0 1 0 3.817-14.878c-2.894-.7-5.724-1.062-13.224-1.062-9.212 0-26.095 5.975-37.11 11.827-23.225 12.34-28.435 24.323-59.535 21.25-15.932-1.573-28.987-12.98-28.987-28.99" fill="#FFD43A"/><path d="M187.733 81.138a28.683 28.683 0 0 0-5.456-.932c-16.788-1.235-27.995 12.438-24.863 26.058 0-.082-.012-.162-.012-.245 0-12.724 10.313-23.04 23.036-23.04 1.79 0 3.531.205 5.203.591 2.983.765 5.991-.345 7.828-2.575a9.382 9.382 0 0 1-5.736.143M79.59 146.786a74.807 74.807 0 0 0 20.984-3.008 74.268 74.268 0 0 0 2.291-.703c.432-.14.858-.292 1.287-.439.565-.196 1.131-.387 1.69-.596a70.504 70.504 0 0 0 3.064-1.216 8.94 8.94 0 0 1 3.47-.698c.493 0 .971.055 1.44.133.315.052.615.142.917.225.204.057.414.1.612.17.439.153.866.333 1.27.55.025.013.05.024.075.038.408.223.794.48 1.16.762.057.045.112.091.168.137.356.288.696.596 1.003.936l.017.02c4.167 4.586 10.18 7.465 16.863 7.465 3.48 0 6.777-.78 9.726-2.175 6.782-3.583 34.812-.898 34.812-.898a9.164 9.164 0 0 0 3.822-.838c-.857.208-1.757.3-2.685.253 0 0-28.108-4.125-35.126-.899a23.089 23.089 0 0 1-9.913 1.67c-6.735-.345-12.41-4.117-16.826-8.305-1.536-1.457-5.279-4.368-6.575-8.496l.622 5.215c-.132-.013-.26-.035-.394-.042-7.206-.368-10.738.906-13.508 2.585a6.775 6.775 0 0 0-1.33 1.054 76.292 76.292 0 0 1-18.543 1.318" fill="#FFA63A"/><path d="M79.59 100.708a37.429 37.429 0 0 1-4.912-.841c-4.662 4.472-7.71 15.057-7.347 27.522.207 7.097 1.494 13.645 3.468 18.865 2.886.338 5.815.532 8.79.532a74.636 74.636 0 0 0 28.216-5.525c.364-5.213-.144-11.351-1.674-17.767-2.34-9.809-6.51-17.978-11.02-22.6-4.413.433-9.473.41-15.522-.186" fill="#FFA63A"/><path d="M42.446 28.99a4.62 4.62 0 1 0 5.577 7.365 4.62 4.62 0 0 0-5.577-7.365" fill="#FFD43A"/><g transform="translate(51.87 .02)"><mask id="h" fill="#fff"><use xlink:href="#g"/></mask><path d="M3.647.59a4.611 4.611 0 1 0 2.645 8.835A4.611 4.611 0 0 0 3.647.59" fill="#FFD43A" mask="url(#h)"/></g><path d="M79.59 100.708c-10.612-1.048-19.923-6.476-24.975-14.703-1.387 2.01-3.417 4.078-5.977 6.093a4.608 4.608 0 0 1-6.606-1.069 4.607 4.607 0 1 0-8.043 4.499 47.77 47.77 0 0 0 4.562 6.51 4.607 4.607 0 0 1-7.264 5.667l.011.018a56.712 56.712 0 0 1-8.74-14.579 4.62 4.62 0 0 0-5.769-3.074 4.626 4.626 0 0 0-3.075 5.773 65.301 65.301 0 0 0 1.457 3.407l-.011.007a4.605 4.605 0 0 1-2.523 6.332c12.4 24.417 37.746 41.197 66.952 41.197a75.55 75.55 0 0 0 6.838-.326c2.892-5.83 4.68-13.852 4.68-22.713 0-8.804-1.768-16.776-4.627-22.596a98.77 98.77 0 0 1-6.89-.443M18.907 78.124a4.609 4.609 0 1 0-9.13 1.263 4.609 4.609 0 0 0 9.13-1.263" fill="#FFA63A"/><path d="M97.721 147.734c7.065-1.686 10.077-14.432 6.73-28.459-3.345-14.027-11.784-24.032-18.849-22.347-1.93.461-3.943.707-6.013.707-7.262 0-13.15 11.691-13.15 26.111 0 14.421 5.888 26.111 13.15 26.111 6.24 0 12.312-.735 18.132-2.123" fill="#FFF"/><path d="M104.423 140.114c-1.507 1.611-3.453 3.177-5.727 3.89-1.217.38-2.429-.637-2.188-1.89.805-4.196 1.254-8.792 1.254-13.62 0-13.658-3.553-25.516-8.768-31.497-1.147-.28-2.286-.332-3.391-.069-1.931.46-3.944.708-6.014.708-7.262 0-13.15 11.69-13.15 26.11 0 14.422 5.888 26.112 13.15 26.112 4.053 0 8.026-.334 11.911-.94 2.099-.322 4.18-.697 6.222-1.184 3.056-.73 5.348-3.543 6.7-7.62" fill="#F2F2F2"/><path d="M23.514 79.66a4.609 4.609 0 1 0-9.13 1.263 4.609 4.609 0 0 0 9.13-1.263M15.723 105.89a4.608 4.608 0 0 0 4.045-6.632l.01-.007a64.943 64.943 0 0 1-1.456-3.408 4.626 4.626 0 0 1 3.075-5.773 4.621 4.621 0 0 1 5.77 3.074 56.72 56.72 0 0 0 8.739 14.579l-.012-.018a4.608 4.608 0 0 0 6.467.798 4.605 4.605 0 0 0 .797-6.465 47.77 47.77 0 0 1-4.562-6.51 4.608 4.608 0 1 1 8.043-4.499 4.607 4.607 0 0 0 6.606 1.07c6.026-4.743 9.15-9.784 7.749-13.66 2.756 7.605 10.05 13.053 18.595 13.053 8.906 0 16.126 14.44 16.126 32.254s-7.22 32.255-16.126 32.255c-36.416 0-67.512-23.22-79.262-55.634 1.444 3.994 7.374 5.866 15.396 5.522" fill="#78788D"/><path d="M90.082 148.2c.03-.051.061-.099.091-.151a30.48 30.48 0 0 0 .904-1.72 36.064 36.064 0 0 0 1.4-3.259c.084-.225.172-.445.254-.674h-.012c1.878-5.264 2.996-11.685 2.996-18.65 0 2.458-.295 4.912-.827 7.326-1.51 6.85-7.756 11.61-14.757 11.2-22.284-1.307-51.09-8.966-69.345-36.481-5.458-.487-9.327-2.307-10.454-5.426 11.75 32.414 42.84 55.636 79.257 55.636 3.492 0 6.716-2.235 9.353-6.012l.072-.107c.367-.532.725-1.09 1.068-1.681" fill="#6E6E82"/><path d="M64.764 142.49a4.608 4.608 0 1 0-9.129 1.263 4.608 4.608 0 0 0 9.13-1.263M77.882 144.906a4.608 4.608 0 1 0-9.128 1.262 4.608 4.608 0 0 0 9.128-1.262" fill="#FF4489"/><path d="M92.542 104.593c-.012.051-.044.093-.05.146 0 0-.123.89-.433 2.465-.324 1.551-.78 3.858-1.75 6.26-.246.58-.543 1.179-.866 1.591a1.55 1.55 0 0 1-.338.342c-.099-.05-.306-.228-.453-.415-.24-.32-.543-.675-.74-.979-.438-.606-.89-1.342-1.316-2.075-1.707-2.977-3.285-6.444-5.142-9.754a66.573 66.573 0 0 0-2.946-4.849c-.132-.194-.24-.383-.43-.62a1.812 1.812 0 0 0-.388-.368c-.154-.118-.51-.266-.858-.146-.625.29-.64.631-.778.873-.1.258-.163.5-.218.737-.205.945-.289 1.843-.374 2.73l-.394 5.073c-.074.8-.156 1.576-.281 2.314-.154.717-.238 1.497-.678 1.848-.443.276-1.124-.18-1.582-.538-.488-.393-.912-.83-1.295-1.25a29.689 29.689 0 0 1-1.858-2.3 39.257 39.257 0 0 1-1.473-2.124s.462.821 1.374 2.194c.459.685 1.028 1.51 1.76 2.401.37.444.778.907 1.27 1.344a4.4 4.4 0 0 0 .847.594c.308.16.767.294 1.187.054.102-.05.184-.148.272-.229l.157-.221c.123-.216.18-.365.25-.554.134-.361.23-.731.318-1.11.173-.754.302-1.537.422-2.34l.683-5.039c.132-.86.27-1.747.5-2.565.055-.191.118-.375.189-.533.084.128.178.297.274.463a65.125 65.125 0 0 1 2.568 4.924c1.613 3.367 2.928 6.86 4.52 10.118.41.819.812 1.594 1.317 2.4.246.42.476.719.71 1.077.34.461.687.86 1.3 1.235.586.384 1.639.505 2.335.17.7-.299 1.103-.719 1.434-1.093.645-.765 1.014-1.494 1.356-2.193.65-1.394 1.07-2.669 1.42-3.805a46.74 46.74 0 0 0-1.822-6.253" fill="#A1A1BD"/><path d="M116.668 40.179a2.64 2.64 0 1 1 1.497 5.063 2.64 2.64 0 0 1-1.497-5.063zm8.978-2.655a2.64 2.64 0 1 1 1.497 5.064 2.64 2.64 0 0 1-1.497-5.064zm8.976-2.654a2.64 2.64 0 1 1 1.497 5.065 2.64 2.64 0 0 1-1.497-5.065zm-9.924-1.193l-11.328-8.262-7.392 2.186 6.643 9.647-16.166 4.78h-.001L85.668 34.16l-4.618 1.365 6.325 9.188-1.987.588 1.235 4.176 21.182 1.918 9.21-2.724-.06 2.167-2.927.866a1.266 1.266 0 0 0-.852 1.564l.565 1.908c.197.664.9 1.05 1.565.851l1.515-.448-.222 7.943 7.388-2.185 3.406-8.883 4.447-1.316c.664-.195 1.046-.9.85-1.565l-.563-1.908a1.264 1.264 0 0 0-1.566-.85l-1.137.337.928-2.424 17.375-5.137c3.217-.951 5.069-4.362 4.12-7.58l-.002.001c-.952-3.219-4.36-5.073-7.578-4.121l-19.57 5.786z" fill="#FF4489"/><path d="M112.989 40.642c.223.77-.221 1.576-.992 1.8l-11.683 3.382a1.453 1.453 0 0 1-.808-2.79l11.683-3.384a1.453 1.453 0 0 1 1.8.992" fill="#FFF"/></g></svg>