<svg width="76" height="65" viewBox="0 0 76 65" xmlns="http://www.w3.org/2000/svg"><title>Group 10</title><g fill="none" fill-rule="evenodd"><path d="M40.508 17.54l-.087.031-.135-.103.006-.103.184-.119.099-.103.14.157-.063.124-.033.036.032-.023.04-.072.056-.069.22-.131.098-.022.078.139-.007.104-.087.056-.092.01-.082.038-.08.08-.01.019.068.011-.085.174-.21.069-.177.157-.09-.06-.005-.145.09-.158.132-.096zm14.41 7.775l-.033-.106-.002-.001-.008-.03-.018-.06.003-.007-.003-.011.038-.119.025-.031.006-.016.05-.07.087-.007.003.004.013-.004.05.051.024.016.033.012.1.011-.07.094.019.025.031.108-.016.126-.029.094-.006.06.07.102-.17.158-.017-.022-.006.012-.149-.1-.019-.006h-.003l.017.02.018.039-.042.154-.004.04.005.033.027.062.024.11-.142-.07-.028-.005-.007.003.014.027.138.14-.04.068-.036.011-.028.007-.019.043.004.09-.028.043-.048-.014-.042-.022-.015.008-.019.033-.03.097-.144.236-.036.123.085.09-.06.059-.066.033-.023.021-.012.032-.019.089-.022.044-.16.22-.066.057-.129.001.047.03-.006.125-.1.297-.01.05-.007.058-.01.022-.048.079-.033.092-.156.199-.079.16-.06.193-.092.502-.006.1-.012.05-.047.102-.015.063-.03.09-.006.042.022.144.132.191.022.078-.02.11-.041.088-.06.083-.07.07-.186.097-.04.033-.046.073-.167.389-.023.088-.009.107-.013.053-.054.093-.01.04-.027.337.003.104.029.07.072.13.011.052.004.053-.015.054-.02.032.017.046-.016.04.024.03-.089.224-.2.362-.033.084-.014.093.033.144-.049.183-.206.41-.022.131-.091.333.003.152.013.043.028.075.028.117-.012.076-.025.074-.01.087.01.028.06.056.02.033-.003.063-.01.04-.067.161-.012.063.015.036.086.024.059.108.03.109.01.362.01.038.03.056.135.182.04.106.004.08-.036.308-.068.14-.028.078-.002.034v.057l.005.053.026.075-.007.054-.02.092.023.367-.032.439-.028.046-.01.032-.004.043.012.323.03.165.051.145.108.207.018.046.008.052.011.04.027.035.034.038.023.039.12.057.022.028.02.04.028.086.02.083.041.38.095.216.078.32.054.132.265.38.095.07.134-.053-.015.133.017.04.041.028.065.023.293.05.287-.03.548-.197.728-.407.033-.04.037-.055.189-.11.205-.218.17-.272.353-.813.37-.549.243-.608.094-.323.173-1.032-.01-1.104-.04-.116h-.08l.103-.053-.033-.048-.046-.104-.037-.11-.03-.18-.164-.45-.014-.095.063-.037.056-.02.059-.042.04-.05-.16.052-.057.067-.09-.1-.48-1.241-.029-.14-.07-.151-.025-.107.013-.187.06-.15.177-.232.076-.14.016-.16-.054-.375-.02-.065-.006-.062.027-.097-.017-.034-.034-.043-.035-.094-.096-.13-.04-.084.013-.186.1-.139.246-.221.1-.16.139-.342.149-.27.077-.174.04-.18-.047-.145.016-.07.002-.144.016-.056.021-.052.057-.294.001-.106-.025-.103-.052-.102-.04-.15.06-.133.102-.084.114-.037.048-.04.036-.02.044.008.05.024.026.004.044-.004.031-.008.025-.02.02-.038-.02-.07.002-.005.042-.404-.014-.142.018-.08.08-.036.114.003.018.008.037.021h.01l.027-.024.11-.181.007-.019.004-.035.015-.036.053-.015.04.008.036.018.02.003.064.027.093.083.038.014.032-.013.035-.044.166-.357.02-.084.03-.039.143-.14.047-.058.168-.327.046-.045.048-.009.049.003.031-.004.093-.095.116.023-.015.098-.04.082-.027.079-.034.044-.058.015-.033.033-.002.116.058.15.024.103-.04.057-.053.035-.055.085-.05.12.038-.015.05.022.028.069.004.065-.015.07-.125.297-.042.129.017.084.055.124.021.035.022.015.004-.009.014-.077.041-.061.017-.064.014-.13.018-.052.08-.067-.027-.012-.077-.012.107-.118.023-.034.01-.047.013-.119.013-.071.024-.059.06-.031.063.011.048.05.017.069-.011.064-.03.05-.005.046-.005.103-.016.105-.029.099-.046.095-.072.075-.008.021-.003.097-.013.062-.045.076-.005.03.006.014.014.007.018-.004.022-.025.21-.375.142-.322.1-.357.047-.41-.07-.57.029-.186.082-.138.115-.105.524-.283.146-.03h.004l.286.02.172-.017.149-.054.055-.086-.027-.012-.3-.05-.062-.039-.1-.111-.068-.114-.051-.154-.022-.178.025-.181.075-.149.091-.09.191-.147.133-.2.02-.014-.106-.114-.054-.046v-.087l.158.054.42.02.051-.019.028-.036.024-.052.04-.048.082-.028.072.032.102.094.423.225.244.222.12.044.298-.025.16.013.16.059.15.087.106.099.1.129.046.084.017.073.012.082.029.075.043.06.051.027.5.018.156.085.11.135.055.051.106.033.095.045.034.006.113-.006.056.012.069.05.078.113.043.02.042.007.133.058.041.006.11-.007.158.044.145.09.141.128.147.172-.082.075-.013.023-.005.042.007.04.055.119.101.165.029.01.049.014.04.023.02.047.026.124.006.051.018.041.004.04-.02.04-.04.017.015.057.12.062.05.13-.161-.003-.059-.01-.067-.029-.043-.038-.07-.095-.017-.01-.092.015-.05.04-.025.07-.007.11-.013.051-.032.025v.019l.02.013.034.028.015.048.002.08.008.033.017.03.032.038.039.038.086.06.06.068.05.027.034.034.011.03.006.044.008.02.034.073.028.085.019.095.013.218.03.18.01.1-.013.105-.064.17-.012.089-.02.968-.024.185-.015.063-.018.042-.058.085-.049.017-.082.002-.006.006-.029.052-.149.193-.15.147.065-.16.017-.056-.058-.002-.02.003-.112.078-.065.147-.031.194-.019.31-.01.065-.035.033-.022.012-.003.03.006.054-.012.063-.084.045-.152.008-.043.026-.01.031-.029.126-.029.037-.053-.006-.09-.026-.026.007-.05.036-.044.02-.05-.005-.078-.025-.024-.002-.117.057-.08.132-.108.322.053.051-.008.064-.042.046-.029.041-.01.06.01.146-.011.049-.044.109.018.112.056.113.062.078.069.047.162.065.06.05.167.05.13.085.113.021.113-.061.11-.12.22-.338.062-.04.046.06.02.07.029.005.04-.062.071-.194.152-.212.022-.094.03-.093.06-.084.099-.11-.018-.025-.046-.01-.07-.003-.175-.06.4-.06.034-.025.012-.025.099-.14.031-.033.038-.024.04-.012.228-.007.031-.01.08-.066.04-.014.108-.014.047-.03.12-.137.049-.027.166-.056.073-.012.096.015.361.196.123.093.107.112.175.272.03.08.012.098.016.058.116.263.185 1.256.103.338.07.775.16.76.022.038.028.036.092.2.022.064.01.012.017-.003.009.19-.054.145-.073.142-.036.15-.01.083-.048.133-.007.059.045.126v.048l-.02.085-.02.182-.102.35-.038.091-.08.136-.096.09-.113.048-.106.013-.042.042-.004-.097.041-.046.05-.025-.071-.08.041-.08-.007-.025-.03-.032-.024-.041.018-.073.026-.063v-.017l-.044-.004-.137-.059-.027-.02-.058.042-.058.057-.076.053-.078.02-.053.027v.063l.047.078.09.056-.023.09-.038.03-.042.002-.037.01-.133.056-.026.026-.031.077-.023.094-.005.075.007.037.031.068.006.05-.01.056-.03.089-.005.049-.027.077-.051.068-.061.06-.057.043-.031.011-.108.02-.192.076-.058.055-.2.25-.065.15-.026.115.035-.039.007.325-.014.144-.063.1-.074-.082.003-.042-.01.023.01.04-.012.04-.018.036-.007.049.004.01.03.046.01.03.01.092.011.023.058.138-.148-.147-.05.135-.065.05-.055.007.007.013.015.06-.005.07-.032.082-.103-.047-.052.026-.047.076-.036.142-.072-.013-.043.042-.13.21-.024.067-.008.081-.002.14h-.065l-.028-.022-.013.003-.018.02-.01.046.005.063.008.017.238.076.04.004.051-.007.075-.027.057.008.075.048.157.165.08.056.196.083.105.027.09-.001.092.085.163.203.088.04.047.008.113.043.055.002.105-.024.04-.02.034-.03.012-.031.014-.056.006-.045-.018-.075.12.047.044.055.038.073.011.012.026.032.047-.024.034-.004.142.02.04.026.023.048.034.112-.259.01-.096.025-.08.065-.086-.044-.063.004-.146.034-.087.006-.028.007-.016.008-.02.023-.017.043-.048.036-.017-.012.014.05.02-.01.047-.046.114.1.135-.054.166-.104.145-.024.093.058.033.003.028-.004.052-.02.044-.004.09.02-.071-.158.114.046.023.026.025.041.026.033.018.012.054.024.034.02.228.186.123.062.138.008.058-.021.138-.09.041-.041.066-.04.229-.01.134-.038.243-.137.434-.124.15-.005.393.094.07.003.031-.01.067-.056.046-.022.038.009.104.052.06-.007.111-.068.113-.035 1.047-.89 1.046-.501.217-.04.088-.054.108-.022.013-.012.036-.046.041-.032.06-.018.121-.017.105-.075.88-.295v5.776l-.067.018-.156.111-.064-.037-.068.002-.074.025-.048.036-.027.067.02.058.103.142.075.145.03.078.014.071-.017.1-.066.167-.004.065.004.001.038.02.02.021.004.03-.004.052.002.015.02.09.006.07-.017.03-.034.136-.024.03-.087.073-.024.026-.066.16-.029.094-.023.145-.028.081-.07.15-.035.1-.01.075.003.168-.013.106-.025.058-.03.054-.02.06.005.02.012.037.005.048-.033.063-.066.008-.048-.025-.006.03.007.038.017.044.014.055-.015.054-.06.074-.018.031-.02.046-.009.038-.013.08-.022.058-.074.048-.013.018.01.03.048.053.04.063.013.061-.021.096-.066.056v.007l.004.043-.002.026-.039.12-.007.052-.235.135-.355.28-.1.114-.07.132-.057.073-.132.049-.053.045-.089.098-.055.038-.07.03-.074.021-.068.008-.057.023-.115.108-.098.013-.082-.063-.042-.078-.03-.07-.018-.02h-.118l-.04.019-.234.225-.024.068-.027.168-.057.077-.05-.041-.003.001-.047.04-.028-.038-.059.02-.076.003-.046.014-.05.135-.152.177-.022.056-.004.047.01.15-.013.112-.03.046-.168.069.01.035.01.02.035.038.016.007.059.043.007.087-.016.149.019.062.031.072.002.071-.096.029-.054-.026-.053-.055-.019-.007-.012.007-.017.04-.027.105-.039.059-.073.076-.084.044-.084-.043-.033-.065.015-.04.012-.018.012-.057.012-.021.028-.012.003-.009-.003-.021-.016-.035-.018-.071-.026-.056-.036-.04-.104-.046-.05-.047-.049-.031-.057-.001-.09.069-.107.139-.09.156-.049.123-.022.17-.017.037-.043.076-.038.1-.07.047-.042.04-.008.078.021.065.028.051.028.079.011.11-.022.065-.004.028.026.064.015.056.01.06-.004.055-.062.084-.088.017-.146-.021-.03.024-.033.082-.067.355-.028.083-.053.08-.075.028-.238.02-.269.097-.156.017-.132-.061-.04-.059-.055-.137-.032-.055-.227-.23-.119-.074-.143-.049-.153-.085-.101-.171-.078-.272-.011-.085v-.085l-.008-.043-.018-.013-.067.01-.201.1-.082.013-.056.019-.045.044-.043.054-.059.053-.082.031-.017.014-.015.026-.032.083-.037.055-.065.041-.076.004-.15-.028-.065.006-.042.026-.048.036-.127.03-.044-.023-.04-.044-.098-.154-.037-.026-.088-.038-.036-.009-.118.003-.044-.026-.054-.053-.056-.038-.057-.022-.06-.006-.218.07-.023.017-.017.075-.046.074-.067.055-.072.023-.159-.037-.127-.088-.224-.224-.052-.07-.045-.076-.041-.049-.128-.036-.132-.062-.066-.01-.288.057-.076-.01-.375-.14-.078-.058-.035-.09-.004-.098-.01-.082-.02-.07-.028-.06-.03-.036-.042-.036-.047-.06-.017-.058-.007-.077-.019-.072-.03-.06-.041-.045-.132-.07-.075-.027-.067-.012-.05-.05-.034-.075-.04-.067-.053-.03-.127.025-.278.128-.156-.015-.17-.173-.044-.024-.027-.024-.037-.055-.011-.006-.022.006-.025.02-.055.058-.24.148-.086.096.007.11.082.087.055.076.02.08-.044.09-.114.114-.013.018.021.028.04.02.143.01.091.033-.01.096-.043.07-.043.054-.02.066.05.151-.073.04-.274-.03-.1.016-.202.084-.476.293-.143.031-.08-.052-.107-.122-.045-.022-.2-.01-.36.035-.04.023v.056l.024.08.025.063.027.25.07.163-.022.098-.052.067-.172.127-.04.047-.053.075-.057.043-.146.014-.052.014-.085.106-.078.362-.078.15-.115.089-.068.038-.133.041-.06-.002-.023-.047-.007-.007-.034-.015-.04-.009h-.012l-.032.036-.073.172-.04.043-.047.026-.04.065-.027.084-.013.08-.03.387-.034.112-.023.042-.028.036-.033.032-.053.032-.157.028-.058.023-.033.066-.05.05-.09-.072-.12-.128-.064-.017-.17-.015-.064-.037-.056-.044-.124-.065-.063-.057-.034-.07-.005-.064.01-.166-.02-.035-.163-.13-.049-.021-.051-.005-.006.004.024.047.057.035.068.02.05.056-.085.092-.145.06-.082.009-.059-.019-.02-.046-.009-.009-.028-.015h-.01l-.004.009.008.027.059.068.02.052-.015.106-.075.064-.074.023-.066.006-.027.024-.014.076.01.26-.01.078-.055.053-.165.035-.013.04.001.08-.03.097-.084.054-.098-.001-.07-.06.03-.09.024-.053-.02-.005-.142.028-.132-.03-.106-.087-.073-.12-.026-.1-.035-.05-.09.035-.12.092-.079.075-.054.025-.183.02-.053.023-.037.025-.035.042-.034.061-.087.251-.064.11-.118.079-.052-.034-.031-.027-.057-.075-.017-.043-.01-.052-.007-.019-.022-.008-.055-.005-.052-.012-.039-.02-.118-.079-.213-.084-.064-.042-.06-.053-.07-.045-.072-.033-.056-.014-.13.033-.133.073-.141.03-.13-.124-.014-.053.004-.064-.009-.014-.006-.003-.01.002-.012.012-.008.037.012.081.06.122.017.09-.042.13-.094.1-.111.043-.1-.065-.009-.08.034-.134-.005-.037-.022-.018-.036.003-.041.021-.035.034-.04.004-.121.043-.075.01-.086-.018-.06-.032-.057-.05-.05-.064-.052-.043-.05-.008-.036.021-.018.067.011.047.103.253-.161.18-.025.042-.09-.025-.115-.073-.044-.016-.045.006-.01.034-.001.084-.04.1-.05.055-.182.155-.035.052-.039.085-.018.083.02.07.053.106.013.018.1.108.074.183-.03.136-.125.079-.589.106-.184.105-.07.018-.145-.001-.058.009-.044.023-.04.04-.03.049-.057.16-.015.15.028.139.068.13.095.138.062.138.002.134-.077.18-.103.1-.136.023-.142-.043-.233-.153-.877-.42-.148-.029-.14.017-.127.056-.108.09-.029.038-.107.2-.114.13-.063.111.006.09.056.092.115.137.016.076v.005l-.022.174.005.123-.01.057-.017.026-.033.039-.024.035-.01.035.011.079.049.142.005.094-.026.11-.13.283-.08.228-.074.121-.106.055-.124-.044-.085-.08-.08-.094-.058-.053-.013.007-.014.015-.03.066-.044.146-.008.056-.052.19-.032.08-.073.09-.061.058-.053.028-.116-.031-.008-.086.054-.163-.035-.138-.087-.041-.077.034-.022.113.023.04.044.054.032.068-.026.085-.003.048.07.167.012.097-.041.102-.08.05-.076.01h-.08l-.038.019.005.046.043.072.053.05.084.03.047.04-.02.071-.052.037-.039.01-.303.012-.016.006.153.224.093.177-.04.1-.065.016-.056.03-.043.032-.017.029-.016.07-.096.16-.03.155h-.039l-.008-.03v.029l-2.078.058-.038-.013-.012-.039v-.022l.01-.042.117-.227.034-.044.051-.087.042-.049.033-.045.02-.017.024-.01.083-.024.024-.016.013-.025.01-.037.01-.055.01-.024.013-.021.016-.019.038-.026.022-.01.045-.014.069-.03.109-.064.014-.024.005-.017.012-.074.012-.032.018-.02.024-.015.093-.032.022-.02.015-.026.009-.032-.001-.016-.014-.113.002-.03.023-.121-.005-.034-.013-.027-.021-.023-.014-.01-.11-.07-.013-.016-.013-.022-.011-.053-.007-.082-.041-.035-.01-.014-.034-.095-.016-.03h-14.39v-2H6.509l-.04-16.511-6.46-.002.006-2.163-.002-.535V37.23l-.008-5.503.003-1.114-.005-1.68v-1.121L0 26.646h.057l.002-.027-.03-18.755h28.645l.014-.007.012-.017.007-.046L28.703 6l.222.092.386-.012.194.057.239.145.053.048.041.088.028.216.026.09.014.097-.015.219.023.094.036.094.263 1.047-.007.444.01.078.024.07.039.051.302.247.23.104.12.017.542-.064.074.013.038.02.026.021.04.046.024.045.007.027.013.111.04.018 1.157.077.142.104.086.36.088.104.055.01.456-.071.048.021.107-.054.232-.019.089-.062.02-.06-.005-.063.01-.072.019-.01.11-.032.105-.053.413-.075.925.067.073.026.226.154.507.15.257.062.071.097.012.11-.082.035-.148.038-.044.025-.02.086.033.05.074.014.061.015.286-.04.146.009.126.065.057.118.025.09.004.215.012.092.034.076.103.142.11.24.03.034.038-.001.079-.03.068-.042.031-.037-.003-.085-.029-.094-.007-.115.086-.119.082-.04.337-.051.286.016.102.069.046.111.03.129.047.121.042.058.051.051.054.037.33.15.289.045.074.043.053.054.117.167-.065.118.053.046.23.039.005-.001.064-.004.038.015.038.05.006.062-.021.068.013.007.28-.025.093.032.052.035.04.013.2-.1.28-.032.118-.082.105-.116.433-.308.143-.07.06-.043.285-.162.172-.038.128.083.013.066-.005.013-.031.051-.003.03.017.048.02.017.037.02.044.045.032.075.02.144.028.064.101.069.145-.002.305-.092.079-.006.05.04.037.041.051.02.021-.003.102-.047.041-.011.04.016.026.015.935-.126.204.007.164.077.04.049.18.306.032.041.043.036.024-.054.026-.023-.031.003-.056-.083.31-.214.448-.22.116-.08.068.011.072-.021.07-.04.064-.064.09.003.136-.066.145-.098.147-.136v.07l.206-.152.044.022.1-.04.048.019.052-.042.24-.123.033.043-.07.053.03-.008.032-.017.19-.225-.119.236-.016.024-.043.049-.088.075-.229.128-.063.077v.012l.024.116-.024.032-.128.106-.166.096-.815.311-.012.028-.124.072h.25v.078l-.186.027-.019.008.045.024.024.008.11-.025.072.004.211.056.007-.001.091.002-.084.087-.077-.007-.083-.03-.019.009-.055.09-.091.045-.099.117-.062.054-1.11.575-.654.209-.129.082-.061.021-.168.022-.437.144-.825.45-.515.497-.198.088-1.613 1.757-.221.115-.03.046-.017.061-.055.038-.044.015-.021.013-.013.02-.031.068-.028.038-.183.143-.11.05-.17.2-.206.14-.116.041-.186.166-.298.196-.145.135-.053.128.026.055.065.081.075.071.049.028.044.014.203.106.071.004.466-.076.714-.27.262-.04.255-.108.037.031.135-.13.257-.169.17-.149.14-.035-.03.13.013.007.052-.02.11-.117.007.114-.003.012.028.018.02-.016.052-.108.037-.021.04-.014.07-.007.005-.013.006-.035.022-.039.043-.035.135-.064.01-.009.01-.016.03-.03.045-.011.028.005.05.021.024.004.061-.006.046-.016.004-.01.009-.03.018-.045.04-.026.084.01.027.011.044.024.01.031.007.055.099-.008.042.04.05-.075.013-.03.025-.076.063.047.06.029.027.026.05.089.008.061-.049.047-.087.05-.049-.068-.102-.085.012.084.02.026.045.038.016.07-.07.035.018.058-.06.074-.082.215-.061.05-.055.034-.034.077-.018.095-.006.07.012.042.023.04.02.06-.026.073-.207.253-.053.089-.025.063.05.027.084-.018.377-.16.077-.06.026-.038h-.085v-.075l.042-.028.037-.017.02-.003-.024-.03-.018-.014.035-.048.066.043.244.24.288.168.238.061.132.077.044.002.147-.104.086-.042.092-.024.112-.01.03-.007.172-.109.573-.187.13-.077.59-.553.142-.072 1.274-.157.285-.137.257-.197.232-.26.083-.074.082-.006.155.036.03-.006.123-.054.108-.019.021-.008.049-.053.111-.19.032-.064.071-.144.023-.018.094-.05.536-.464.094-.054.104.006.024.082.028-.082.064-.066.136-.086.055-.057.312-.427.108-.078.26-.133.082-.078.039-.025.056.01.037.02.018.005.02-.011.045-.054.057-.043.234-.095.278-.053.766.002.064.02.127.075.054.052.066.107.049.048v.072l-.093.009-.118.072-.071.02-.079-.01-.136-.047-.063-.009-.062.008-.176.057-.146-.007-.046.009-.008.012.054.014.128.056.073.085-.225.188-.08.048-.063.015-.011.01-.054.112-.041.027-.081.033-.029.023-.129.158-.05.043-.05.005-.042-.002-.029.01-.04.045-.036.08-.01.074.034.06v.07h-.092l-.044.006-.026.022-.014.06-.035.072-.124.063-.024.036-.098.252-.069.128-.053.072-.072.036-.022-.037.009.046-.01.106-.026.118-.037.112-.036.072.015.042.003.048-.012.048-.023.05-.008.033.009.039.064.132.01.03.16-.228-.05-.06.065-.056.113-.014.042-.02.1-.11.097-.044.137-.139.152-.112.062-.028.144.01-.055.13-.102.1-.172.089-.06.106-.054.127-.044.064.012-.003.08-.075.065-.093.035-.104.059-.065.264-.077.184-.018.526.047.361.102.05.053.007.019.013.001.036-.004.047.017.031.052.032.083.021.021.021.003.082-.027.05.012.038.133.01-.006.093-.032.062.113.054.206.04.059.145.16.039.057.02.075.05.077.062.063.068.051-.006.073.021.029.162.075.045.027.019.051.016.23.039.082.069.038.378.064.14-.07.159.032.062-.006.02-.02.05-.077.032-.033.096.009.029-.004.023-.016.038-.038.058-.015.06.012.047.026.044.042.014.033.004.029.015.038.09.133.016.009.037-.002.055.013.02.055.027.052.056.007.078-.02.057-.034.106-.12.082-.033.084.073.062.086.048.036.063.014h.126l-.022.08.052-.015.068-.068-.02.008-.113-.011.007-.034-.005-.01-.009.041-.052.007-.053-.032-.003-.032.002-.034-.013-.056-.054-.107-.013-.057.01-.115.042-.07.08-.03.096.033.04.034.022.036.04.113-.055.09-.015.034v.012l.003.001.044-.009.066.011.022.085.108-.164.045-.052.157-.135.05-.02.114-.021.13-.11.367-.167.454-.33.1.062.078.014.52-.109.108-.067.028.039.086-.018h.005l1.088.116.14-.025.585-.302.304-.1.256-.022.273.034.065-.009.13-.043.128-.019-.045.135-.056.05-.055.038-.038.049-.016.063-.056.539.044.16-.041.098-.08.095.02.055.024.05.032.032.048.017.04-.007.11-.052.054-.01.05.037.042.06.013.01.125.03.132.085.041.01.102-.012.114-.031.101-.051.093-.084.12-.034.143.1.085.134-.026.086.077.047.114-.026.107-.066-.003-.045.008-.01.043-.043.039-.051.059-.058.082-.105.124-.045.13-.013.146.095.188-.107.153-.098.182.029.142.081-.162.45.034.147.07.127.07.117-.01.037-.028.004h-.003l-.004.021-.034.064-.09-.072-.013-.004.056.062.067.112.049.139-.022.121-.124.068-.078-.075-.1.009-.106.097-.055.018v.023l.055.094.051.052.016-.011.042-.05.101-.008.104.015.079.027.036.094.006.001.047-.006.037.007.072.045.026.01h.09l-.054.102-.034.048-.018.04-.002.055.016.031.113.15.044.047.042.015.046.006.079.024.042.03.043.047.035.029.06.017.049-.078.103.039.067.069.04.024.014-.007.052-.087.03-.025.055-.006.035-.013.075-.041.08-.033.022-.016.014-.03-.001-.057-.017-.013-.052-.013-.053-.04.004-.108.117-.026.223.017.15.088.063.077.05.203.056.032.084.017.081.07-.013.07-.117.263-.072.052-.101.014-.1-.011-.083-.03-.131-.084h-.05l-.074.067-.041.018-.05-.026-.037-.029-.023-.01-.116.004-.04.025-.05.006-.007-.038-.014-.036-.077-.054-.022-.026-.022-.035-.02-.026-.012.04-.045-.005-.035-.014-.013-.025-.005.017-.008.093-.08-.043-.164.025-.027.01-.027.022-.044.026-.056-.016-.02-.014-.642-.133-.21.009-.047-.016-.062-.04-.027-.007-.013.005-.036.033-.005.034-.067-.023-.003.01.006-.001.058.028.035.044.035.095-.188-.01-.058-.018-.12-.063.048-.037-.045-.009v-.07l.032-.026.02-.02-.075-.009-.008.013-.03.15-.116-.121-.07.057-.057.005-.024-.05-.004-.061-.018-.075-.04-.056-.042-.017-.068.043-.113-.071-.073-.014-.048.041-.035.244-.037.032-.035.005-.031.026-.025.051-.003.042.013.03.05.046-.06.08-.009.082.02.072.081.048-.13.12-.175-.03-.15-.092-.066-.094-.024-.074-.053-.044-.071-.028-.067-.008-.046-.044-.068-.128-.027-.026-.041-.031-.116-.14-.046-.042-.314-.099-.166-.104-.068-.019-.222-.007-.077-.03-.113-.104-.048-.018-.062.045-.047.019-.051-.039-.043-.042-.02-.013-.014.003-.103.059-.257-.025-.052.033-.206.27-.063.14-.05.082-.07.04-.422-.01-.334.05-.045.027-.018.052.02.162-.244-.15-.2-.069-.112-.011-.542.086-.139.12-.028.052.02.033-.004.05-.024.093.015.06.052.114.001.075-.106.104-.18.07-.203.032-.027-.004-.008.01-.143.064-.078.006-.02.005-.007.013v.044l-.011.059-.022.043-.106.039-.04.053-.067.172-.033.017-.027-.003-.003.012.003.021.015.035.013.047.014.059v.065l-.06.038-.055-.02-.034-.027-.056-.057-.104-.08-.034-.05-.044-.097.014-.07.025-.023-.03-.02-.255-.29.066-.057.066-.004.045.022.11.07.094.087.018.035.028-.1.022-.023.039-.009.013-.063.015-.037-.004-.019.012-.04.053-.006h.082l.035.007.037.018-.005-.007-.007-.006-.01-.062.003-.007.1-.29-.03-.054-.021-.025-.024-.005-.06.016-.06.025-.047.034-.043.044-.052.068-.084.046-.092-.038-.116-.085h-.05l-.056.011-.023.026.028.09-.021.064-.026.047-.034.038-.032.024v.061l-.089.136-.021.069-.024.053-.054.039-.06.026-.09.016-.111.038-.017.02-.022.075-.07-.035-.039-.07-.015-.078.027-.226-.006-.066-.018-.048-.025-.053-.023-.078v-.087l.02-.058.069-.112.023-.057.007-.04.001-.054-.01-.024h-.017l-.026.045-.06.232-.037.068-.047.035-.04.086-.046.177-.021.209-.01.012-.048.15-.072.055-.135.047-.05.042-.129.27-.075.08-.11.171-.033.069-.06.223-.027.038-.062.07-.015.038-.019.106-.018.054-.71 1.073-.125.071-.01.081.03.202-.02.056-.083.129-.01.03-.001.047.003.095-.018.113-.047.07-.056.042-.075.034-.295.067-.135.058-.08.104.035.126-.066.14-.178.208-.017.037-.021.052-.015.055-.006.046-.022.065-.036.041-.073.068-.03.045-.016.036-.021.102.002.02.02.072-.022.041-.017.013-.027.053-.024.034-.013.03-.012.096-.032.147-.02.016.019.033.062.06.047.031.068.017.074-.005.054-.037.026-.095.037-.09.069-.075.148-.111.23-.102.03-.03.026-.05.057-.073.025-.056-.029-.07.11-.23.118-.187.058-.069.085-.08.103-.06.125.008-.006.028.121-.132.076.051.049-.04.096-.059.121.106.094.156.052.054.048.017-.1-.097-.084-.18-.023-.184.043-.197.08-.168.2-.252.03-.01.025.006-.004-.043.007-.034.044-.07.012-.034.014-.147.024-.091.043-.086.054-.054.058.01.061.022.027.002.014-.03.03-.052.11-.042.016-.028.008-.059.06-.217.04-.02.04-.007.003-.008.001-.037.007-.04.014-.037.047-.069.065.069.023.011zm4.899-2.853l.011.083.03.041.142.074-.061.138-.063.22-.055.084-.055.03-.077.01-.075-.008-.075-.038-.054-.061-.113-.213-.157-.225-.072-.136.118-.118.101.01.237.098.077.074.007-.029.01-.11.04-.1.084.176zm-17.893-5.135l-.047.036-.02.041.053.167-.19-.108-.078-.022-.09-.005-.318.016-.091-.06.125-.121.088-.034.277-.041.223-.053.144.018-.002.12-.074.046zm-.353-1.041l-.002.06-.03.037.023.154-.139.096-.28.081.026-.194.067-.144.117-.09h.218z" fill="#FFD43A"/><path d="M39.643 34.354c-.87 1.002-2.29 1.002-3.16 0 0 0-11.483-13.252-11.483-21.29C25 5.85 30.849 0 38.063 0c7.215 0 13.064 5.85 13.064 13.063 0 8.039-11.484 21.29-11.484 21.29zM33.666 17.7l-.379 3.13a8.93 8.93 0 0 0 3.228 1.001l-.007 1.897 2.582-.016.008-2.022c1.993-.575 3.18-2.27 3.19-4.355.009-2.377-1.937-3.699-4.191-4.54-.832-.286-1.542-.657-1.62-1.49-.057-.834.413-1.608 1.45-1.676.448-.025 1.363-.05 2.966.607l.378-2.88c-.873-.307-1.564-.47-2.112-.55l.008-1.875-2.582.015-.008 2.001c-1.832.574-3.039 2.27-3.047 4.376-.01 2.5 2.017 3.677 4.291 4.517.812.287 1.44.659 1.497 1.513.08.812-.657 1.442-1.51 1.51-.672.067-2.48.036-4.142-1.163z" fill="#FF4489" fill-rule="nonzero"/></g></svg>