<svg width="64" height="56" viewBox="0 0 64 56" xmlns="http://www.w3.org/2000/svg"><title>Group 12</title><g fill="none" fill-rule="evenodd"><path d="M20.108 23.81l.041.005-.023.118-.066.164-.07.087-.23.185-.021-.302.018-.04-.018-.02-.01-.076.03-.085-.017-.052-.068-.066-.085-.028-.079-.056-.03-.171.05-.115.01-.007.815-.597.61-.28.165-.145-.053.012-.061-.098.006-.087-.002-.03-.063-.021v-.117l.072-.015h.045l.022-.031.05-.033.06-.018h.08l.055-.09.11-.089.021.081.038-.042.068-.035.11-.007-.004.094-.008.016.221-.092.01-.019.022-.113.308-.205.038-.07-.01-.102-.028-.108-.073-.116.024-.025.171-.201.255-.353 2.02-1.864.678-.415.253-.068.073-.035.196-.159.082-.047.28-.104.172-.116.093-.03.085-.005.603.075.127-.003.087.009 14.916-.104-.008-.108.011-.124.036-.09.194-.303.021-.062.044-.19.135-.239.024-.096-.055-.059-.172-.09.113-.095.201-.058.048-.046.154-.197.083-.065.117-.04.112.02.405.253.095.034.094.014.064-.032.137-.22.092-.108.056-.026.095-.018.034-.016.078-.08.036-.067.065-.074.132-.037.141.027.097.108.207.563.034.038.041-.037.012-.043-.008-.124.02-.083.06-.069.072-.055.024-.04.014-.117-.017-.29.01-.148.043-.127.076-.1.095-.052.14.008.101.059.158.162.084.05.077-.001.084-.036.039-.059-.032-.095-.07-.066-.195-.126-.078-.11-.047-.145.013-.133.211-.443.456-.529.094-.08.266-.128.146-.123.074-.03.1-.002.038-.01.08-.063.05-.094.02-.105-.01-.133-.016-.055-.022-.036-.022-.064.015-.093.025-.042.1-.105.367-.29.127-.143.094-.212.026-.148-.015-.023-.077-.018-.12-.069-.07-.116-.002-.12.056-.266.02-.03.04-.044-.003-.017-.01-.019-.017-.019-.058-.079-.01-.083.078-.088.163-.112.06-.082.022-.12-.022-.132-.058-.12-.114-.067.026-.177.129-.268.084-.256.068-.096.09-.03.007-.039.016-.163.041-.15.113-.074.067-.032.355-.306.055-.163.177-1.46.082-.312.084-.12 3.387-4.934.091-.102.084-.048.08-.007.007.002.728.196.092.117-.001.217-.056.417.011.256.028.138.072.125.608.392.053-.002.59-.315.223-.062.237.013.095-.01.078-.062.076-.094.112-.093.221-.124.109-.038.134-.022.144.021.133.09.036-.008.053-.027.1-.032-.006-.058.022-.107.17-.224.25-.072.273.058.232.132.068.063.133.183.046.032.132.06.071.044.298.288.22.156.144.175.05.096.017.088.023.044.21.182.131.21.07.062.197.11.033.079.017.268.096 7.312.007.051.025.044.037.039.048.073.01.075-.061.117-.1.122-.031.053.024.09.08.13.018.1-.006.013-.032.08-.07.118-.055.113-.019.087.003.035-.036.056-.021.109-.062.026-.127-.024.024.06.095.128.192.18.277.157.048.043.025.01.081-.059.165.225.068.049.208.034.2.066.086.013.438-.061.02-.025.04.028.054.053.047.217-.02.256-.092.087-.217.179.045.22.254.462-.034.274-.122.233-.036.085-.026.115.014.084.202.196.174.289.15.167.143.066.13-.084.016-.042.014-.118.063-.068.082-.024.083.025.104.067.055.016.397.2-.338-.053-.035.007-.008.014.016.048.007-.002.08-.005.058.027.026.05.015.055.035.085.018.063.025.01.039.033.05.055.099.157.049.093-.054.109.023.078.058.067.064.035.032.054.091.203.073.09-.037.052.07.117.071.072-.035-.056-.046-.115-.014-.122.066-.082.076-.081.092-.126.096-.063.128.03-.009.123-.026.088-.014.118-.076.15-.102.23-.021.04.027.035-.029.139-.168-.02-.033-.071-.138-.134v-.025l-.003.011-.143.059-.072-.071-.049-.075-.028.081.063.058.007.109-.063.087-.11.037-.078-.045-.162-.137-.012.034.043.068.086.09.056.092.008.045.01-.052.112-.02.046.07.048-.03-.028-.067-.051-.067.18-.066.088.159.036.174.003.071.022-.017.006-.106-.102-.354.164.05.058.074.092.167.056-.004.043.022-.043-.107.13-.04.014-.054-.002-.066.04-.11.031-.072.033-.111.066-.053.15-.097.005.212.057.08-.008.13-.047.127-.074.077-.046.037.04.11.009.139-.162-.021-.08-.052-.1-.106-.002.08.068.203-.045.088-.161.198-.078.066-.065.008-.1-.016-.007.002-.037.118-.056.11-.03-.042-.063.133-.291.323-.03.016-.079.027-.01.011.046.12-.213-.003-.04-.017-.087-.066-.022-.001v.02l.078.168-.157-.014.08.056-.043.12-.158.055-.14-.065.03-.113.093-.11.072.029-.046-.038-.062-.066-.105-.058v-.088l.073-.114-.01-.085-.047-.032-.045.023.052.033-.125.095-.079-.003.029.043.034.1-.046.12.072.067-.038.084-.076.013-.006-.003-.049.05-.02.03-.056.159-.085-.176-.127.047-.091.01-.087-.012-.12-.048.035-.116-.013-.028-.041.069h-.093l-.027-.14-.016.003-.09.089h.006l.053.083-.006.216-.012.06-.02.061-.004.04.018.047.014.08-.097.045-.068.022-.007.004.093.028.012.032.018.142.057.08v.147l-.137.178-.075-.147-.109-.33.01-.097.01-.004h-.005l-.051-.013-.062-.034-.013-.058.003-.02-.006-.103-.014-.043-.011.003-.036.029-.065.08-.006.018-.146.317-.117-.034-.068-.06-.046-.09-.016-.113.002-.006.043-.264-.111.247.01.024-.035.176-.138-.186.026-.117.051-.105.024-.086-.001-.01-.01.018-.058.148-.084-.096h-.015l-.018.02-.043.178-.084.05-.042.008.007.038.093.145.025.087-.029.128-.09.036-.066-.02.009.056-.07.302-.02.254-.157-.163-.016.063-.1-.077-.061-.058.008.016.01.013v.02l-.004.047-.013.06-.03.07-.04.042h-.095l-.019-.047-.028.065-.227.372-.102-.116-.005-.013-.017-.08.017-.099-.05.036-.063-.16-.048-.202-.025-.179.02-.145-.011-.075-.121-.044-.023-.022-.002.008-.012.037v.022l.016.037.01.082-.08.03-.092-.003-.052-.038-.014-.063-.003-.193-.01-.082-.032.072-.01.09.003.093-.042.117-.202-.24.014.023-.074.125.006.007.083.135-.066.002.158.112.015.134.266.322.045.209-.134.157-.212.096-.218.015-.094-.088-.017.085.043.077.066.068.001.104-.067.091-.095.093-.124.026-.027-.097-.036.018-.038.023-.031-.032-.05-.08-.162-.08-.069-.16.095-.038-.01-.013-.075-.026-.05-.048.007-.1.025-.097.089-.229.055-.095.056-.04.055-.016.036-.03.006-.022-.058-.061-.1.032-.095-.005-.017-.033-.019-.085v-.005l.015-.344-.03-.079-.06-.033h-.057l.064.159.01.094-.014.058-.016.03.008.02.042.04.018.039-.006.075-.023.06-.048.084-.09.097-.055-.09-.005-.209-.054.065-.11.055-.136-.003.048.13.04.083.004.032.07-.15.084-.017.06.048.02.092.024.188.068.082-.085.134-.094-.065-.041-.013h-.078l-.057-.081.004-.102-.046.123-.011.046.013.05.024.013.056.012.012.01.05.046.028.118-.015.1-.056.026v.002l.039.03.124.069-.24.105-.442-.394-.134-.01-.091.028-.114-.083-.131-.15-.08-.028-.159.112-.204.017.052-.298.042-.134.096-.07.08.025.05.063.004-.003-.002-.036-.066-.143-.062.078-.099.019-.066-.11.01-.119.036-.115.068-.118.05-.032.015-.019.01-.031.016-.14.14-.33-.014-.076-.12-.035h-.058l-.021.143-.086.324.058.032.072.017-.151.14-.111.055-.118-.032.041-.108-.003-.001-.066.04-.115.119-.08.059-.209.06-.064.046.004.01.013.014.01-.012.116.108.051.183-.047.074.034.06.041.133-.048.123-.097.07-.062.028-.03.057-.09.275-.073.01-.004.01-.064.093-.08.304-.068.175-.055.104-.038.043v.02l.026.102-.031.114.004.023.187-.02-.08.208-.064.117-.083.064-.118.018-.02.038-.026.135-.075.118-.111-.05-.005.021-.028.056-.06.017-.024-.007-.017.03-.015.064.007.043.073.08-.21.138-.061.027-.113.03-.068-.033.027-.214.143-.232.017-.042-.27.356-.118.122-.033-.177.044-.153-.007-.005-.043.012-.123.075-.158-.003.116-.231.012-.035-.007-.004-.09-.016-.008-.088.04-.049-.097.05.034.153-.099.08-.09.019-.007-.002-.032.047-.027.08-.144.564-.082.207-.159.191-.012-.24-.032-.09-.03-.064-.007.07v.363l-.136-.208.004.031-.03.13-.103.176-.05-.153.003-.122-.005.004-.097.01-.053-.03-.01.145-.017.19-.116.018-.12-.184-.018-.107v.004l-.113.34-.085.142-.12-.01-.05-.218.007-.07.027-.046-.003-.014-.036-.008-.023-.01-.034-.34-.015-.064-.015-.038.014.107.006.234.041.215.043.109.014.078-.04.189-.023.042-.064.024-.045.047-.033.064-.05.15-.11-.15-.011-.196-.052-.055-.025-.045-.001-.118.016-.167.02-.055.036-.035.007-.047-.01-.035-.062-.056-.006.126-.039.102-.063.085-.108.028-.012-.041-.147.198-.043.032-.032.013-.02.104-.032.05-.05.029-.115.015.081-.175-.064.062-.182.017.12-.244.219-.35.033-.112-.024.003-.162.134-.15-.024-.039.032-.123.066-.068.025-.053.008-.033.015-.247.26-.092.057-.12.268-.134.092.002.06.021.082.01.08-.073.092.038-.003.124.055.07.197-.001.07-.037.27-.03.015-.066.012-.115.057-.16.038.015-.036-.069.095-.134.09-.016-.177-.016-.001-.067.05-.054.074-.048.143-.012.1.025.189.036-.024.066-.028.103-.015v.118l-.081.042-.051.047-.083.11-.012.03-.017.08-.02.048-.048.037-.064.007-.027.013-.084.078-.067.084-.094.093-.13.055-.172.016-.043.042-.15.202-.033.013-.043.127-.006.137.073.155-.088.124-.037.071.098.063-.141.072-.049.05-.087.161-.145.35-.08.078-.114-.074-.081-.13-.03-.038-.016.003v.011l-.086.281.027-.007.141-.016.044.072v.024l-.019.088-.038.09-.02.035-.036.097-.255.406-.098.22-.039.127-.013.132.037.227-.014.088-.076.026-.107-.007.005.004.09.04.033-.007.043.013.03.04.028.07-.017.078.14.419-.061.082.267.129-.17.085.023.03.28.027.007.096.018.01-.009-.171.056-.08.059-.047.206-.107-.016.164.008.025.018.01.067.006.078.032-.022.127.021.055v.083h-.091l-.015.016-.021.048-.044.058-.099.07-.128-.018-.01-.024-.024.017-.047.07-.02.04-.045.053-.488.124-.229.097-.038.029.032.04.042-.03.034.113.049.065.02.074-.11.04-.019.016-.028.036-.123.11-.014.004-.043.009-.064-.007-.005.004-.009.047.025.045.056.047.132.087-.232.073-.122-.149-.049.03-.039.065-.002.036.034.093.029.196.078.132-.176-.022-.17.029-.017-.014.053.12-.121.012-.035.024-.012.034.028.062.034.03.015.002.183-.11-.034.229.031.01.115-.004.07.123-.03.07-.033.033.008.005.012-.02.046.006.06-.024.07-.04.084-.07.059.094.008-.003.026-.045-.055-.038-.06-.1-.036-.107.007-.189.273.297.102.08.226.066.105.066.099.09.131.171.014.054.002.168.075.069.083.125.117.219.116.117-.027.118.035.09.133.213.033.033.012.032-.01.025-.036.052-.056.045-.071.013-.072-.024-.104-.072-.01.072-.098-.052-.02-.005-.02.005-.062.041.232.238.13.011.086.016.197-.02.125.125.071.214.03.256-.038.174-.005.136.12.147.302.21.164.062.773.072-.262.099-.161.001.051.013.172.001.138-.053.25-.145.424-.119.142-.046.212-.102.085-.136-.016-.173.009-.217-.124-.213.117.001.038-.012-.024-.002-.068-.053-.045-.05-.017-.008-.026.017-.025.186-.13.17-.06-.755-.019-.1-.067-.141-.165-.115-.1-.032-.083.072.024.001.062-.007.01.133-.132.095-.025-.017-.074-.065-.126-.182-.097-.04.03-.097.035-.045.052-.043.076-.029.11-.008.254.04.113.039.18.1.155.13.174.258.152.29.183.604.101.142-.04.054-.03.02-.017.005-.047.005-.075-.063-.02-.007-.004.003-.015.15.034-.022.11.013.05.124.008.326-.033.475-.226-.058-.222.04.004.05-.087.137-.126.379-.197.041.224-.575-.331.059h-.225l-.151.077-.052.011-.038.014-.033.04-.077.126-.126.11.02-.178.028-.095-.143.06-.064.011-.153-.016-.047.011-.073.061-.087.041-.077-.134-.015-.004-.03.032-.146.254-.107.117-.126.068-.133.028-.16.007-.129.03-.308.207-.202-.095.144-.158.041-.162.001-.466-.022-.092-.007-.107.043-.081.057-.056.018-.026-.008-.019h-.081l-.16-.12-.073-.039-.014.17.006.061.074.151-.177-.02-.027.038-.04.112-.124.153-.071-.116-.01.002-.017.023.005.05-.022.026-.076.047-.106.046.02.11-.009.114-.115.01-.051-.069-.048-.147-.026-.025-.044-.03-.011.103-.077.135-.029.064.032.197-.123.105-.085.044-.095.002-.156.114-.13.036-.243-.11-.116.065-.337.313-.093-.227-.013-.062.03-.074.001-.033-.051-.227-.018-.283.003-.089-.02.075-.01.536-.012.063-.002.045.041.14-.2-.06-.081.071-.092.113-.095-.016-.052.053-.075.038-.076-.045-.02-.126-.004.005-.041.051-.062.054-.072.022-.024-.096.027-.14-.021-.094.058-.056.004-.01-.043-.049.015-.12.085-.268.1.03.041.04.018.05.007.055.003.135-.016.143-.032.147-.021.063-.015.025.05-.05.141-.064.017-.013-.042-.063-.022-.083.024-.09.054-.085.004-.037-.003-.098.016-.024-.088.04-.062-.08.002-.092.028-.102-.016-.064-.1-.033-.018-.098.021-.133.108-.128.091.212.052.074.08.049-.01.176-.045.137.058-.037.025-.072.023-.154.039-.095.046-.048-.107-.048h-.094l-.05-.106.01-.1.047-.182-.029-.006-.056-.025-.083-.053-.103-.096-.044-.101-.008-.112-.02-.083-.032-.061-.004.108.006.146.016.09.02.029.058.05.032.035.02.095-.015.063-.066.134-.047.145-.107-.17-.025-.016-.034-.003-.037.016-.04.032.082.042.055.122.016.124-.013.15-.063.13-.062.064-.01.025.055.11.027.115.005.327-.012.117-.143.412-.096.12-.038.04-.023.064-.073.044-.065-.016-.103-.05-.108.01-.195.045-.724.226-.355.088-.229.104-.069-.126.104-.07-.01-.021-.038-.035-.047-.025-.054-.01-.29.007-.037.01-.08.043.09.006-.076.146-.123.048-.083.014-.137.155-.13-.014-.128.05.024-.174.051-.044.026-.09.106.01.006.01.018-.055.04-.005-.143-.138-.01.006-.03.145-.06.093-.156-.01-.146-.063-.077-.005-.03.192-.16-.105-.282.17-.182-.084-.029-.026-.07-.033-.026-.023-.004.012.033.023.055.028-.147.139-.13-.012-.19-.072-.079.011-.095.04-.08.058-.087.126-.099-.107-.051.042-.22-.105-.09-.026-.244.055-.035.033-.041.049-.048.032-.095-.007-.045-.025-.082-.056-.051-.01-.166.012-.037.013-.09.07-.043-.015-.057.018-.061-.01-.059.078-.228.004-.024-.107.002-.057-.036-.077-.008-.092-.044.078-.175.17-.115.165-.046.049-.062.106-.152.013-.054-.032-.035.029-.103.048-.026.024-.053.09-.013.066.015.12-.182.015-.178-.144-.003.043-.164.044-.021-.015.002.02-.022.05-.033.048-.063.066-.083.05-.09.032-.035-.083-.015.025-.048.047-.154.023-.089.044-.054.004-.04.024-.03.01-.2.135-.073.033-.186.117-.037.004-.074.058-.114.167-.084-.077-.014.004-.096.065-.15.032-.022-.04-.022.046-.054.023-.067.011-.042.038.005.01-.03.081-.125.198h-.13l-.037.007-.037.03-.2.223-.054.088-.026.118-.048.05-.075-.005-.022.003-.013.028-.01.115.064.078.058.135-.175.017.222.034.058.075.007-.023-.067-.116.055-.186.092-.011.02-.108.064-.091.1-.004.173.073.042.114-.023-.156.11-.227.335-.098.249-.024.058.123-.012.03.097.014v.019l.03-.015-.008-.016-.117-.158.064-.185.15.077.184.024.02-.072.04-.065h.069l.094.06.025.061.088.027.108.007.17.033.139.069.12.03.04-.002.197-.062.077-.06.04-.072-.025-.123.114-.052.123-.037.106.039.01-.007.056-.024.137.058.173-.024.517.023.323-.035.23.024.392-.097.32-.017.097-.037.295-.205.321-.196.079-.108.046-.081.043-.01.119-.02.131-.111.108-.131.078-.066.275-.137.071-.01.094.017.073.039.04.085-.04.103-.063.064-.082.056-.106.04-.066-.109-.109.065.044-.006.03.086.067.052.145.04-.016.092.021.067-.017.06.029.046v.115l-.122-.037-.014-.012.014.053.01.062.066.012.024-.064.026-.01.047-.01.037-.115.045-.054.032.002.108.03.071.106.019-.134.09-.086.093.018.168.259.018.053.016.013.078-.017.165-.074.175-.148.116-.062.086.042.03-.007.004-.14.108-.043-.007-.01.202-.057.144.06.135.04-.064.109-.11.12-.221.05-.362.186-.371.15-.337.173-.282.136-.876.44-.17.047-.19.032.102-.169.002-.032-.026-.018-.098-.01-.028.01-.007.02.007.044.034.072.005.078-.083.072-.178.11-.305.122-.57.194-.056.004-.058-.048-.002.099-.256.065-.5.231-.644.265-.459.16-.463.127-.274.01-.063-.08-.016.002-.318.11-.953.283.031-.081-.582.01-.216-.017-.074-.023-.197.034-.386.176-.26.103v-.178l.225-.085-.01-.013-.088-.002-.021.028-.067.028-.218.031-.104-.008-.08-.118.083-.034-.013-.019-.12-.052-.06-.115.023-.144.064-.073.04-.074-.014-.087.077-.09v-.001l-.09.041.017-.135-.088.095-.099.076-.078.1-.02.06.015-.002.051.008.035.06.01.055-.015.025.007.037.048.054.049.098-.244.319-.177.16-.044-.021h-.017l-.139.085-.062.055-.084.013-.085.042-.089.024-.071-.024-.012-.044-.013.022-.029.022.038.053.058.132.155.05.07.05.024.008.235-.041.129.016.42.147.129.081-.014-.036-.013-.113-.134-.351.252.144.058.14.017.124.022.213-.007.417-.035.296-.057.33-.127.548-.031.161-.022.191-.076.502-.065.321-.055.422-.1.62.005-.004-.015.06-.003.025-.002-.002-.05.21-.112.17-.081.207-.173.31-.43.716.02-.254-.001-.066.003-.018.081-.197.365-.647.011-.017-.046.032-.07.084-.062.168-.158.046-.021.04.02.06-.011.022-.05.072-.108.032-.062.01-.064.055-.088.098-.004.051.116.12.072.13-.048.13-.121.022-.044-.09-.015-.07-.144-.101-.057.034-.095-.014-.027-.017.002.127.02.084.044.035.062.066-.02.116.102-.042.301.042-.05.1-.053.036-.063.163-.147.16-.173.08-.12-.022.02.042.056.152-.184.077-.268.171-.195.072.005-.116.042-.085.062-.086.094-.095-.054-.035-.128.16-.048.087.019.073v.08l-.34-.012-.108.03-.02.024.011.003.08.04.04.025.037.013.3-.102v.125l-.146.1-.207.275-.095.052-.046.067-.242.508-.08-.066-.027-.003-.013.008.054.007.01.01.042.052.012.094-.034.053-.11.125-.047.105-.062.049-.033.018-.094.028v.008l.03.108-.111.191-.155.146-.188.118-.28.113-.068.016-.079-.024-.072-.068-.011-.087.036-.144.044-.23.042-.113.231-.494.031-.218-.08-.175-.058-.043-.064-.02-.183-.005-.027.005-.076.025-.06.008-.078-.023-.01-.061v-.048l-.007-.02-.036-.013-.089.005-.131.033-.06.04-.045.04-.082.043-.142.005.014-.052-.054-.04-.041-.07-.011-.055.015-.078-.003-.015-.033-.038-.162-.13h-.003l-.054-.021-.059-.04-.037-.117-.012-.01-.183-.004-.089-.045-.052-.1-.035-.095-.034-.043-.012-.002-.064.038-.038.004-.022-.01-.044-.036-.042-.066-.473-.525-.136-.094-.127-.15-.127-.515.17.311.003-.03.052-.272-.012-.065-.15-.156-.063-.095.006-.077.123-.126.101-.068.011-.046.014-.096.019-.077.067-.055.016-.035.041-.062.048-.022.013-.188.109-.184.1-.098-.057-.044-.171-.082-.115-.047-.152-.026-.2-.004-.123.005-.232.074-.115.06-.108.078-.132.115-.122.178-.089.19-.014.017-.074-.003H.003L0 37.105l.257-.087.068-.058.09-.051.29-.06.768-.431.144-.12.035-.012.034-.022.06-.146.13-.083.077-.081.107-.064.177.076-.033.042.166-.062.221-.182.186-.06.2-.149.647-.27.09-.075.14-.069.356-.283.312-.12.076-.068.083-.094.254-.143.23-.305.132-.068.044-.046.034-.054.047-.054.048-.03.24-.1.231-.155.102-.142.324-.098.047-.027.02-.021.05-.086.076-.167.042-.048.09-.042.068-.1.1-.238.143-.172.175-.109.371-.17.087-.061.06-.07.04-.1.015-.148v-.144l-.009-.049-.024-.074-.097-.186-.028-.074-.036-.283-.012-.023-.095-.095-.025-.07.02-.066-.084.134-.124-.026-.086-.086-.069-.09-.054-.043-.008-.067.063-.218-.01-.128.13-.009.064-.018-.24-.032-.204-.136v-.13l.02-.065.03-.059.017-.047.012-.141-.025-.572-.03-.15.044-.01.318-.055.595-.238.508-.091.31-.15 1.457-.225h.007l.712.104.565-.091.008.001 1.689.322.14.069.002.062.074.02.04.02.331.303.18.084.195.002.58-.215.227-.048h.005l1.858.09-.045.125.015.022.026.023.025.007.05-.008v-.008l.023-.065-.004-.033.006-.072.041-.072.042-.027.484-.102.285-.134.013-.014.04-.1.118.033.072.051.196-.37.163-.165.185-.135.496-.241.081-.067.25-.255.11-.02.206.08.105.02.307-.066.077-.038.176-.218.057-.054-.108-.08.035-.187.018-.026-.053-.248-.02-.16.01-.166.038-.11-.025-.066-.045-.183-.063-.13-.018-.133-.018-.024-.053-.04-.032-.036-.065-.061-.075-.035-.048-.078.073-.136.074-.07.326-.157-.085.245.057.04.037-.06.205-.174.06-.087.018-.072.006-.084.044-.114.073-.073.16-.028.057-.03.042-.062.007-.046-.015-.026-.049-.013-.054.02-.138.125-.101.031h-.312l-.062-.077.067-.102.096-.09.117-.061.061-.062.05-.081h-.002l-.035.026-.141.15.062-.254.022-.032-.02-.022-.196.036-.036-.078-.13.065zm35.46-.291l.031.147.015.164-.054.183-.154.04-.143.067-.06-.11.015-.097.034-.13.017-.097.051-.084.092-.11.155.027zm-.862.022l.065.026.008.035-.009.145-.077.082-.053.03-.034.06-.056.052-.122-.03-.195-.104.05-.129-.026-.065-.072-.056-.143-.048.063-.192.11.002-.07-.039-.059.04-.131.195-.055-.173.015-.063.07-.133.182-.144.166-.12.206.02.062.087v.178l-.088.036-.063.035-.057.089-.078.047-.025-.014.116.083.092.035.208.033zm1.685-.647l.107.073.062.096-.007.137-.072.099-.183.046-.06-.124-.03-.024-.018.004-.141.069-.094-.078-.026-.116.101-.09.057.012.006-.04.092-.076.111.04.018.03.013-.003.064-.055zm-.913.152l-.205.11-.12.032-.186-.111-.035-.06.047-.124-.008-.053-.08-.182.113.012.054-.006-.006-.036-.005-.046.01-.094.03-.073.066-.076.084-.005.129.071.103.077.036.095.011.09.04.103-.088.047-.132.042.005.013.025.025.112.055v.094zm-6.44 17.896l.139.248.088.18-.053.201-.19.075-.205-.026-.247.009-.209-.037-.56-.29-.14-.127.081-.066.113.024.064.046.1.02.257.027.006-.002.157-.017.101.005.031.022.205-.341.027-.112-.08-.124.026-.081.11.024.069.074.048.107.038.1.01-.004-.005.017.018.048zm-3.836.49l.066-.03.048.046.059.03v.147l-.115-.003-.086-.03-.077-.066.033-.092.072-.002zm1.716-1.081l.072.17.005.195-.014.113-.044.079-.099-.015-.083-.064-.065-.083.019.123-.13.034-.656.012-.132.033-.123.052-.099.069-.137.172-.075.002-.019-.006-.094-.06-.047-.05-.089-.118-.069-.05v-.112l.326-.001.116-.103.051-.07.133-.229.058-.045.062-.034.149-.151.267-.114.117.03-.004.01.041-.048.111.053.06.115-.004.088-.068.068-.042.025.011.01.052.02.176.009.019.126.056-.05.078-.111.114-.094zm-1.792.044l-.065.069-.117.045h-.141l-.082.023-.059.054-.129-.051.077-.087.086-.065.07-.005.072-.042.107-.012.087-.1.025.055.095-.073.023.002.046.008.13-.13.352-.268.105.022.143.08-.166.088-.082.06-.166.092.004.036-.073.076-.12.07-.082.014-.14.034-.064-.099.013.03.051.074zm-3.329 1.528l.035.045.046.103-.034.11-.133.018-.149.027-.097-.085.006-.098.026-.102.053-.047.033-.063.03-.032.015-.128.019-.021.06-.039.132.131-.041.122-.017.024.016.035zm-2.406.586l-.027.028v.02l.02.065-.03.058-.075.094-.077.09-.002-.2-.007-.075-.014-.03-.046-.01-.072.002-.074-.071.037-.031.035.026-.031-.029.042-.05-.033-.169.192.155.076.028.093.017-.007.082zM20.38 22.463l-.066-.044-.014-.079.01-.066.03-.072.066-.055.112-.037.074-.065.06.041.021-.007.04-.028.068.009.048.1.002.054-.133.072-.187.144-.13.033z" fill="#FFD43A"/><path d="M33.643 34.354c-.87 1.002-2.29 1.002-3.16 0 0 0-11.483-13.252-11.483-21.29C19 5.85 24.849 0 32.063 0c7.215 0 13.064 5.85 13.064 13.063 0 8.039-11.484 21.29-11.484 21.29zM27.666 17.7l-.379 3.13a8.93 8.93 0 0 0 3.228 1.001l-.007 1.897 2.582-.016.008-2.022c1.993-.575 3.18-2.27 3.19-4.355.009-2.377-1.937-3.699-4.191-4.54-.832-.286-1.542-.657-1.62-1.49-.057-.834.413-1.608 1.45-1.676.448-.025 1.363-.05 2.966.607l.378-2.88c-.873-.307-1.564-.47-2.112-.55l.008-1.875-2.582.015-.008 2.001c-1.832.574-3.039 2.27-3.047 4.376-.01 2.5 2.017 3.677 4.291 4.517.812.287 1.44.659 1.497 1.513.08.812-.657 1.442-1.51 1.51-.672.067-2.48.036-4.142-1.163z" fill="#FF4489" fill-rule="nonzero"/></g></svg>