<svg width="96" height="63" viewBox="0 0 96 63" xmlns="http://www.w3.org/2000/svg"><title>Group 13</title><g fill="none" fill-rule="evenodd"><path d="M74.495 54.978L74.5 55l-.006-.007V55l-.118-.04-.067-.109-.042-.134-.035-.058-.036-.096-.008-.01.001-.007-.018-.047-.092-.17-.016-.182-.002-.006-.061-.08.02-.016L74 54l.12.002.015-.002.006.007.086.033.09.094.048.103-.04.155.044.086.062.088.038.08.031.223-.005.11zm6.796 4.442v.003l-.054.074-.041.003-.041-.002-.004.002-.004-.003-.066-.003-.028-.033-.053-.014.029-.014-.022-.026.017-.108.026-.02-.05-.012v-.109l.111-.073.049-.085h.15l-.003.063.023-.024.136-.039.034.07-.027.064-.022.086-.063.102-.097.098zm-5.27 1.635l-.021.023.034.087.03.041.069.048.108.148.033-.078.024.025.01.151.192-.1-.079-.156-.154-.15-.03-.016-.041-.052-.022-.019-.1-.007-.001.002-.002-.002-.071.033.021.022zm2.05.335L78 61.5l.306-.03.083-.03.07-.071.025-.044.014-.04.002-.115h-.07l.02-.17-.064.06-.018-.06-.203.158-.053.026-.068.061-.044.14.071.005zm15.312-46.615l-.093-.066-.005.037.026.113-.05.004-.027.137-.104-.062-.013-.126.01-.094-.073.019-.013-.268-.041-.114.063-.078.124-.004.067.04-.02-.022-.159-.081-.01-.118.181-.092.08.04.027.064.107.057.04.216-.051.147-.032.19.014-.024.057-.037.057-.011.037-.002-.01-.028.006-.048.09-.101h-.056v-.07l.077-.063.028-.032v-.03l-.07-.07.057-.086.06.01.04.033.019.01.12-.016-.017-.049.004-.06.024-.051.041-.01.051.009-.016-.045v-.042l.018-.028-.006-.034-.042-.033-.074-.018-.104.018v-.07l.081-.068.089-.052.1-.02.036-.015.008-.008-.027-.013-.053-.014-.27-.023h-.002l-.055.007-.06.044-.088.084-.08.052-.054-.037-.006-.032-.007-.01-.014-.028.01-.054.025-.035h-.05v-.029l-.018.015-.216-.086L93 13.4l.04-.226.12-.106.087-.037.035-.031.125.119.093.1-.042.1.005.02.014-.022.016-.046.027-.04.091-.012.009-.006.027-.041.107-.104-.055.024-.081-.003-.032.005-.051.031-.033-.038-.014-.008v-.064l.048-.02.025-.02.019-.024.007-.017-.029-.039.07-.033.089-.02-.002-.007-.023-.007-.051.006-.037-.007-.07.027-.139-.015-.047.012-.007.02-.012.067-.052.026-.041-.026-.014-.049-.003-.08.044-.161.114-.076.122-.035.053-.026-.128-.011-.065-.037-.035-.093.016-.103.034-.082.103-.172.026-.056.016-.081h-.005l-.005.005-.006.024-.008.04-.02.051-.155.18-.016.025-.072.225-.046.082-.047-.066V12.398l.004-.04-.003-.023-.014-.018-.026-.025-.033-.043-.015-.047.026-.07.084-.037.014-.038-.015-.045-.043.025-.084.101-.039.07.016.01.029.054.005.05v.062l-.04.113-.046.058-.062-.052-.098-.173-.02-.021-.081-.023-.032-.04-.025-.067-.176-.224-.029-.02-.005.005.041.164-.013.114h-.07l-.017-.123-.184-.298-.02-.048-.02-.083-.022-.025-.024-.016-.028-.033-.003-.107.068-.044.078.013.04.058.007.051.007-.013.012-.092.029-.079.064-.038.07-.022.037-.018-.014-.033.048-.052-.008-.025-.008-.004-.035-.003-.017.002-.004.02-.023.04-.043.031-.045.012-.103.001-.064-.042.037-.084.06-.073-.007-.005-.019-.02-.07-.114.076.02.126.023h.041l.041-.01.075-.032.11-.018-.064-.028v-.055l.065-.048-.012.002-.078-.002-.024-.044-.054.095-.058-.082-.054-.058-.036-.066.037-.115.027.005-.011-.013-.016-.011-.039.02-.066.152-.096-.046-.008-.057-.042.059-.001.06.016.04-.017.07-.092.033-.024-.1.003-.019.006-.08.01-.057.03-.074.058-.224.017-.042.005-.033.008-.01.083-.071.063-.082.063.035-.022.068.047.05.06.03.033.039v.075l.096.1.104-.052.035-.04.008-.019-.067.042-.113.022-.066-.137.022-.15.12-.064.083-.022.015-.011-.08-.034-.041-.028-.035.033-.099.086.02-.257-.007-.015-.027-.026-.054-.027-.036.006-.016.017-.018.032-.003.012-.05.027-.02.005-.11.013-.017.014-.007.029.002.04.013.052-.005.08-.066.04-.044.042-.092.038.031-.261.033-.212.104-.226.022-.1.057-.013.056.022.006.092.02.055.11.036.074.016.045-.016.097-.074.031-.03.008-.053-.015-.012-.022-.03-.013-.03-.018-.069.09-.017-.008-.01.07-.106.114-.12-.035.027-.08.04-.108-.039-.005.003-.03.113-.056.054-.023.097.03.17-.082.01-.068-.06-.032-.044.038-.106-.013-.15-.023-.066.001-.036-.016-.013-.075-.085v-.083l.056-.087.063-.16.07-.132.092-.095.005-.067.013-.042.007-.01.037-.033.07-.014.017-.01.013-.023.025-.086.016-.024.043-.037.15.01.099.029h.081l.1-.005-.135-.014-.11-.064.078-.116.124-.139.07-.06.067-.042.073-.008.005.002.12.04-.01-.006-.057-.058-.04-.087-.165.138-.153.167.007-.213.03-.08.087-.13.021-.04.021-.063.024-.099-.025.031-.052.092-.1.082-.1-.034-.076.004-.046-.007-.015.015-.077.197.017.02.11.04.04.027-.014.077-.02.036-.157.159-.186.11-.078.071-.02.013-.071-.075-.013-.09.02-.172.022-.079v-.015l-.009-.008-.05.066-.038.274.037.06.029.058-.009.04-.028.021-.13.165-.011-.081-.021-.168-.055-.162-.021-.01-.169.043.001.001.077.019.089.041-.006.06h.042l-.064.094-.04.012-.03.004-.01.008.017.042-.023.05-.166-.041.012.025.104.138-.004.046-.055.06-.074-.052-.028-.038-.049-.089-.016-.013-.034-.012.022.05.056.096.07.062.106.002-.042.087-.142.131-.049.04.005-.11-.022.026-.053.001-.079-.007.017-.087-.033-.023-.069-.037-.113-.09-.005.004-.046.02-.025.002v.001h.044l.064.02.026.075v.038l.073.015.029.053.005.044.01.022.027.032.043.037.048-.026.047.068.082.072.031.02.01.106.036.07-.027.083-.044.05-.061-.068v-.035h-.003l-.036.024-.028.01-.027.005.03.007.215.11.059.065-.023.068-.071.024-.064.003-.01.006-.036.084-.08-.04.03.048.017.073.07.051-.05.055.025.122-.188-.09-.027-.035.04.056.065.06-.015.11-.066.007-.023-.016.012.017-.018.058-.025.014.004.015.01-.003.049-.006.072-.001-.008.113-.033.077-.091.102-.046.022.002.055.03.057.06.058-.021.126-.005.072.023.095.039.086-.01.227v.163l.047.114.18.22.118.179.054.032-.004.022-.037.128-.09.137-.13-.011-.071-.06.007-.118-.014-.036-.006-.037-.015-.019-.045-.027-.03-.014-.1-.022-.072-.067-.116-.074-.108-.127-.035-.122-.026-.206-.001.215.004.054.047.127.208.193.192.093.045.034.016.08.035.07.01.012.04.048.067.066.03-.002.026-.028.062-.028.079.009.064.05-.056.083-.023.05.009.074.016.064.018.026.14.216.052.117-.013.014-.05.057.04.208.014.153-.087-.085-.049-.016-.134-.176-.06-.02-.069-.11.024-.11-.01-.058-.01.044-.068.133-.074-.05-.027-.033-.013.053-.034.052-.026-.012-.051-.034-.007-.041-.022-.044-.023-.092-.043-.05-.067-.042-.08-.045-.096-.013-.103-.035-.039-.009-.178.042-.08-.044-.096-.074.01-.096-.02-.045-.01-.04-.013-.145-.034-.094-.058-.07-.012-.007.046.113.02.064.023.113v.235l-.125-.088-.183-.08-.004-.095-.066-.054-.08-.055-.044-.11-.102-.336-.01.024-.013.022-.055.078-.116.085-.067-.02.002-.032-.038.078-.044.046-.07.03-.025.021-.088.047-.018-.003-.095-.044-.076-.082-.024-.134.013-.1-.025-.085-.003-.09.034-.072.033-.057.065-.138.053.005.009-.058.064-.123.052-.031-.035.02-.06-.017-.044-.048.044-.1-.005-.009h-.016l-.028.022-.016.049-.01.06-.024.067-.041.07-.02.019.012.022.03.04-.093.063v.01l-.011.086-.055.108-.06.187.05.234-.099-.066.093.087.042.052.034.098-.017-.001.104.033.242-.07.098-.073.141-.004.082-.098.075-.01.078.055.022.062-.006.069.008.04-.001.065-.04.063-.016-.003.087.113.07.023.04.018.024.041.015.058-.004.048-.013.057.01.014.126.045.09.082.144.04.098-.014.078.011.068.028.021.056.02.027.05-.014.107-.071.058.014.059.043h.026l.077-.026.039.05.02.05-.015.068.023.019.052.033.046.023.091.062.053.109-.04.043.003.04.05-.004.073.01.045.022.026.005.051.065-.026.018.138.091.103.033.253.14.095.045.049.048.018.092.021.09-.016.106-.04.066-.083-.01-.1-.106-.024-.012-.004.005.017.062.059.12.014.067v.043l-.012.044-.027.066-.033.013-.008-.002.004.009.1.085.008.072-.04.03-.013.004-.038.002-.02-.004.004.013-.035.043-.024.02.006.02.047.067.09-.005-.11.116-.1-.018-.182-.069-.017-.028-.036-.04-.01.015-.039-.016-.028-.036-.026-.055-.007-.035-.012-.017-.004.007-.036.156-.083.01-.05-.069-.022-.072-.002-.044-.03-.056-.114-.15-.021-.07-.008-.012-.094-.079-.023-.056-.03.029-.046-.025-.037-.037-.015-.038-.005.002-.05.006-.056-.03-.036-.04-.117-.188-.053-.067-.194-.113-.054-.147-.086-.033-.058-.08-.027-.11-.01.143.009.041.035.014.046.008.048.023.01.06.03.05.101.085.046.057.069.05.022.034.075.177.032.057.033.047.068.073.025.003.045-.01h.013l.014-.002.038.01.006.036-.005.05.002.01.012.03.108.021.065.053.036.076.068.086.008.041.02.13.05.09.075.038.17-.014h.059l.06-.03.082.128.102.035.122.012.18.06-.103.082-.052.019-.149.016-.055.019.028.018.07.017.103.078.038.016.012-.015.007-.079.106.013.03.077-.006.076-.011.024-.027.038v.018l.012.01.036.002.052.022-.003.215-.012.135-.028.12-.098.075-.077-.078-.065-.145-.004-.03h-.004l-.05.022-.076-.024-.096-.178-.023-.02-.013.03.014.004.033.04.014.037.028.094-.088-.044-.024-.007-.018.001-.016.012-.008.024.006.013.073.055.028.012.023.022.01.067-.026.015.029.008.01.008.028.035.028.053.019.064-.029.088h-.02l-.235.042-.136.053-.05-.096-.089-.087-.052-.067-.015-.043-.036-.01-.03-.027-.18-.295-.043-.032-.075-.042-.059-.084-.09-.171-.14-.14-.008.014-.007.034v.03l.004.009.02.01.03.011.04.023.13.23.096.064.044.061.067.123.144.252.215.15.093.093.094.057.097-.028.091-.045.073.007.057.073-.015.022-.008.041-.004.038v.025l.016.026.026.027.017-.053.12.083.068.07.029.08-.06.027-.06.04-.012.015.006.003.126-.032.057.04.002.122-.015.086-.03.087-.046.063-.075.026-.073.002-.047.01-.037.02-.088.077-.058.028-.067-.023-.036-.16-.032-.045-.216-.105-.06-.109-.047.012-.162-.146-.027-.054-.003-.056.005-.023.022-.083-.018-.09-.046-.073-.043-.035-.039.02-.126.011-.042.011-.009.014-.013.042-.032.046-.06-.042-.017-.038-.026-.067-.007-.005-.049-.01-.118-.056-.049-.016-.048-.039-.003-.054-.017.034-.033.037-.067.053-.094.011-.053-.06-.027-.067-.086-.144-.017-.02-.02-.005-.024.012-.095.081.039-.03.033-.018.09.037.032.084.014.074.016.022.068.02.11.083.052.02h.28l.057.033.074.135.104.04.086-.143.1.023v.023l.011.14.035.166-.053.141.03.067.052.013.224.047v.062l-.035.025.025.003.04.014.029.021.035.034.075.083.062.046.012.085.03.045.02.063-.029.053-.043.042-.052.038.02-.002.059-.034.055-.046.078-.044.083-.016.088.006.095.027.07.044.009-.036.032-.049-.001-.002-.075-.048-.008-.11.09-.05.131-.008.31.129.128.045.132.015.056-.02.067-.069.12.012.06.099.086.398.293.814.158.785.044.15.015.081.005.094.013.056.086.18.132.39.457.882.03.155.11.266.054.05.039.09.025.103.017.162.055.188.011.16-.058.294-.06.624-.084.303-.034.06-.067.045-.037.005-.088-.004-.108.05-.069.013-.12.056-.054.015-.047.036-.033.01-.067-.022.018-.057.032-.03.044-.024.022-.006.01-.02.013-.018.012-.045.042-.02.032.026.172-.09.209-.075.067-.056-.002-.102.002-.008.019-.046.035-.177.013-.137.032-.156.005-.062-.004-.035-.015-.069-.002-.048.003-.016.01-.035.043-.087.006-.03-.002-.086-.02-.15-.075-.27-.006-.073-.056-.142-.02-.075.038-.026-.037-.022-.055-.024-.033-.02-.013-.045-.001-.046-.065-.041-.023-.097-.006-.115-.043-.094-.195-.267-.041.025-.069-.023-.04-.063.025-.144-.032-.03-.025-.066-.015-.072-.023-.069v-.025l.012-.09-.03-.11-.041-.108-.034-.126-.08-.16-.044-.05-.014-.032.011-.034.006-.003-.016-.08-.019-.249-.01-.047-.042-.094-.01-.06-.043-.095-.023-.128-.042-.134.002-.02-.017-.056.006-.05.012-.043v-.032l-.009-.022-.04-.054-.013-.028-.052-.209-.028-.092-.016-.017-.032-.018-.006.016-.038.384.018.154.07-.045.092-.036.022.135.003.11.022.07v.046l-.06.018-.133-.002-.074-.029-.007-.015-.012-.054-.005-.042-.082-.054-.021-.033-.001.047-.019.073v.048l.023.07.05.07.062.06.103.065-.074.038.026.063.02.027-.005-.038.03.008.014-.04.023-.073.086-.006.009.128-.015.163.11.132-.072-.05.082.126.024.066.011.05.165.443.011.051.023.07.04.08.022.095-.091.037-.07-.039-.051-.057-.08-.113-.021-.048.007-.041.02-.057-.006-.032-.017-.036-.032-.053-.09-.088-.008-.032-.002-.048-.005-.013-.037-.027-.048-.02-.003-.007.005.032.022.068.006.083-.023.013.052.053.048.03.048.02v.084l-.258-.081-.052-.007-.075-.026-.056-.058-.077-.12-.013-.008-.059-.019-.025-.019-.058-.067-.053-.047-.049-.029-.174-.05-.001.007.06.016.068.04.063.053.045.049.08.132.077.042.03.088.026.014.066.023-.05.063-.066.043-.048.017-.064.006v.055l-.122.005-.044-.007-.028-.011-.11-.071-.05-.087-.011-.01-.03-.013-.1-.083.006.015.021.028.021.017.033.015.035.032.11.155.06.054v.059l-.103.021-.08-.018-.324-.144-.097-.065-.04-.064-.04.011-.078-.051.009.014.017.02.11.063.02.037.027.032.073.045.08.037.074.016v.073l-.033.007-.29.047.046-.002-.113.129-.096.065-.103.048-.078.02-.109.01-.071-.007-.044-.021-.089-.142-.04.069h-.098l-.076-.081-.044-.212-.07-.164-.018-.111.047-.186.018-.038.061-.08.006-.02-.024.038-.049.049-.047.067-.025.061-.01.071-.003.244.001.004.008.031.043.087.018.1.02.028.023.023.031.046.01.054-.003.036.003.01.062.012-.033.09-.094.133.393.003.085.022.092-.058.164-.067.172-.036.122.037.018.057-.004.044-.009.036v.004l.03-.025.043-.018.073.014.13.06-.057-.037-.04-.06.098-.08.27-.076.3-.025.077.02.096.049.067.065-.009.117-.086-.048-.013.014-.013.072.057-.022.096-.021-.043.13-.048.089-.06.062-.042.008.054.045.041.122-.02.122-.114.031-.014-.005.014.006.047.011.038.001v.01l.026.026.03.046.022.065-.034.038-.013.01.007.023.026.036.042.027-.074.08.043-.01-.009.05.004.014.093-.256.015-.12v-.463l.035-.05.1-.069.024-.027.04-.025.06.062.06.083.07.038.005-.005-.002-.007-.06-.03-.034-.04-.03-.055-.036-.101.122.033.052-.088.008-.03.006-.081.148.106.086.105.151.243v.05l.047.07.018.035-.004.086-.022.054-.028.053v.003l-.01.04.006.024.043.071.014.053.004.092-.022.044-.02.004-.076-.002-.04.004.026.057.07.115.005.049-.071.112-.028.016-.033.009-.002.014.005.031-.01.042-.062.029-.031.006-.127.002v-.068l-.005.002-.072-.044-.036-.074v.022l.002.06-.017.053-.18.187-.023.012-.035.006.017.065-.006.032-.026.036-.026.016-.047.016.015.037-.029.053-.025.022-.01.02-.005.054-.016.043-.049.012-.063-.051.02-.023-.009-.006-.024.028-.012.065.032.052v.056l-.07.007-.115.04-.02.015-.036.047-.036.032-.224-.008-.066-.02-.03-.065-.006.025-.026.068-.068-.019-.1-.067-.044-.105-.019-.028-.041-.02-.005.005v.04l.001.015.021.024.013.066-.02.071-.087.042-.028-.057-.035-.028-.016-.006-.022.003-.037-.013-.032-.09h.127l-.015-.017-.014-.069-.004-.12-.02-.052-.02-.008-.005.004.022.063-.086.166-.055-.036-.02-.002-.02.012.019.019.017.026.036.1-.17-.087-.052-.046-.06-.096.069-.017-.1-.038-.075-.07.058-.047-.052-.04-.04-.062.024-.07.099-.022.148.024.034-.017.019-.043-.028.006-.073-.003-.146-.04-.07-.005-.058.025-.07.045.042.037.02.024.028.052-.006.013-.033.084.03.035.047.033v.054l-.03.022h.002l.035.024.021.028.02.05-.094.05-.105-.02-.081-.072.006-.06-.005.002-.018.017-.016.027-.102-.025-.168.044-.085-.044-.06-.06-.052-.026-.152-.02-.089-.027-.147-.084-.111-.028.002.001.038.064.018.078.071-.04.144.038.124.074.097.077.039.024.185.047.188.112.246.058.277.092.087.006.012.055.018.032.048.06.01.034-.035.074-.01.041-.037.061h-.085l-.03-.007.01.006.025.055-.035.061-.072-.014-.072-.031-.036.006-.088.068-.053.004-.046.012-.037.019.13.011.037.02.025.021v-.054l.084-.052.068.14-.02.112-.082.084-.07.025.014.055-.123.091-.137.08-.059.044-.052.09-.135.047-.135.007h-.004l-.103-.023-.115-.068-.077-.063-.137-.153-.037-.022-.12-.055-.139-.201-.019-.009.086.147.004.024.052.026.053.075.072.162.103.137.114.053.134.024.158.052.113.085.023.036.03-.037.082-.03.05-.046.068-.076.036-.033.067-.048.038-.013.05.004.041.032.025.036.02.043.043.024.065.047-.003-.014-.067-.11-.009-.076.092-.031h.045l.061.012.055.037.008.011.001-.042-.003-.047.004-.056.019-.051.049-.09.039-.056.046.022.011.027.038.064-.004.044-.018.081.048.068.028.055-.037.042-.087.047-.025-.003h-.001l-.009.02v.02l.004.01.014.012.038-.002.137-.044.012.003.025-.055.089-.028.059-.005-.005-.027-.048-.073-.051-.115.162.047.046.06.022-.032.009-.044.028-.03.04.02.05.038.052-.084.015-.047.026-.138.068.03.055-.032.123-.126.224-.13L93 24l-.065.145-.018.027-.04.037-.05.067-.211.11-.287.292-.025.042-.025.014-.047.048.048.03v.058l-.038.026-.048.063-.04.025-.062.002-.014-.005-.008.019h-.019l-.003.009.004.023.021.03.009.04-.045.078-.032.025-.144.066-.012-.026-.003.02-.014.043-.013.025-.023.027-.05.046-.124.146-.04.027-.013.023.008.018.008.042-.027.048-.036.025-.035.01-.08-.003-.075-.028-.058-.054-.02-.079.041-.043-.054-.051-.015-.023-.018.267-.045.111.209.077.032.025.048.055.011.033.345-.56.317-.333.129-.088.041-.058.05-.038.055-.032.124-.047-.114.18-.082.052-.155.166-.067.035-.053.038-.164.183-.372.63-.056.169-.055-.15.001-.016.033-.084-.05.023-.028-.028-.104-.08-.15-.053-.053-.034v-.07l.1.002.008.003-.114-.07-.024-.082-.007-.103-.011-.073-.024-.02-.057.012-.072.037-.064.059.008-.003.038-.03.025-.024.084.134.038.093-.04-.003.088.026v.077l-.396-.028-.073.008-.913.217.118-.124-.019.008-.052-.043v-.069l.042-.031-.04-.061-.004.058-.023.068-.037.05-.048.026-.036-.019.012.03-.034.032-.085.045-.163.21-.084.047-.038.012-.082.055-.07.014-.094-.082-.146-.034.074-.089.132-.102.021-.049-.013-.025-.115-.148-.055-.043v-.065l.049-.001-.002-.004-.028-.019h-.015l-.034.009-.029-.008.013.11.007.022.024-.015.06.046.03.05.023.066-.005.102-.058.057-.067.015-.04-.013-.008-.01h-.006l-.017.013-.005.012.006.018.023.034.03.035.016.01.058.017.059.036.037.066-.042.045.02.022.081-.021.005.07-.02.014-.02.005-.073.063-.259.14-.1.025-.033.015-.31.276-.185.208.15-.302-.119.1-.185.218-.168.258-.096.088-.043.049-.025.084.066-.035.006.075-.019.014-.01.004-.056.158-.05.096-.058.06-.034.248-.062.212-.071.077-.082.29-.04.055-.056-.036-.045-.016-.056-.031-.026-.057.017-.04-.027.008-.057-.006-.279-.08-.053-.004-.171.005-.045-.021-.065-.013-.247.055-.15-.037.01-.015v.001l-.08.048-.19.051-.3.112.022.063-.16.01-.123.05-.318.192-.312.267-.212.226-.282.391-.308.423-.059.13.023.025-.03.054-.08.419-.002.107h-.065l-.022-.05v.006l.006.036.019.055.008.009.082.03-.075.063-.054.036-.023.02-.037.092-.062-.068-.024-.054-.014.005v.007l.016.031.047.047-.028.04-.017.017-.027.017-.045.014-.01-.03-.007.057-.061.061-.1.045.03.025.004.023-.011.02-.007.006-.005.048-.065.16h-.07v-.065l-.009.019-.09.021-.075.006-.062.015-.057.025-.066.047-.026-.073-.039-.067-.01-.033-.01-.018-.032.01-.108.067-.027.012-.033.042-.073.154-.003.03.013.036.01.015.026-.023.029-.015.096-.026-.05.114-.03.034-.15.085-.041.014-.027.053-.022.015-.074.028-.053.065-.045.078-.06.075-.165.096-.095.039-.083.019-.053-.035-.027-.043-.026-.035-.052-.019-.038-.045.034-.073.013-.017-.095-.063.002.011.028.087.008.068-.019.07-.058.007.02.017.11.025.032.033.019.032.01.006.002-.01h.074l-.018.15-.055.08-.177.126-.047.02-.077.002-.1-.018h-.001l.06.045.033.057-.052.048-.173.03-.132.045-.07.011-.06.02-.043.042-.064.016-.037-.032v.002l-.013.032-.031.045-.03.019-.035.017-.221.161-.031.011-.03.024-.038.015-.061-.054-.018-.04-.006.028-.031.06-.06.031-.069-.014-.035-.032-.026-.03-.04-.025-.052-.013-.036-.001-.05-.012-.122-.11.007.017.038.066-.122.016-.22-.036h-.082l-.018.01-.008.012.016-.008.274.053.032-.004.051-.014.043-.005.055.014.073.044.055.024v.076l-.113-.009-.105.01.148.013.088.035.044.087-.02.084.02-.026.016-.035h.074l-.017.103-.026.097-.045.08-.001-.002.003.002-.057.085-.26.161-.038.007-.053-.007h-.01l-.125.062-.058-.027-.02-.109v-.098l.031-.177-.077.036-.004-.005.001.008.004.017.031.064.008.041-.018.088-.063.015-.007-.003-.042-.026-.217-.197-.076-.2-.037-.135-.003-.092.032-.047-.02-.005-.054-.029v.002l.026.042v.04l-.023.074.037.121.056.13.034.1-.037.092v.026l.04.022.023.028.083.15.04-.019.067.019.036.03.032.04.047.079-.002.057-.085.09-.107.146-.31.193.027-.128-.028.059-.154.195-.003.031.013.041.015.007h.044l.064.02.051.094-.072.095-.166.125-.053-.039-.02-.033-.013-.029-.005.003-.01.012-.014.032-.025.018-.018.018.004.045.03.045.118.026-.14.142-.079.057-.062.005-.056-.038-.13-.025-.07-.034.006.048-.13.035.123.022.018.013.057.054.037-.002.026.005.034.011-.048.079-.036.092-.092.12-.055.052-.052.02-.159.003-.1-.016.055.043-.011.09-.129.136-.036.054-.018.048-.135.23-.055.02-.032.048.04.079-.025.075.001.006.002.05-.016.082-.1.1.003.061.123.255-.06.041-.3-.04-.066-.03-.065-.04.042.038.126.052.124.031.116.012.057.023.131.097.056.056.009.072-.029.098-.057.07-.055-.032-.093.153-.082.104-.064.049-.03-.003-.009.142-.062.273h-.059l-.03-.056.015.036-.023.091-.067.046-.099.019.019.008h.106l.077.032-.054.081-.092.106-.003.008.136-.11.029-.125h.071v.101l-.006.09-.028.12-.01.1-.032.135-.045.093v.046l.02.106-.016.086-.037.052-.058-.03-.017-.155-.006.069-.02.086.005.05.047.019.01-.003.038-.015.037-.006.042.015.02.047.023.035-.007.07-.023.098-.01.293.017.164-.108-.087-.028-.058-.008-.065-.002-.084-.004-.028-.013-.029-.015-.018-.011-.005-.003.002-.002.01.002.077-.007.066.003.053.017.035.055.021.003.02.08.067.019.029.033.08.013.013.01.006.027.025.015.033.014.055-.002.016-.009.094.004.008.017.014.03.037.011.04-.02.162.003.14.097.378.025.06.08.42.124.446-.01.063.015-.013.037.076.012.08.023.093.019.178.02.079.03.098.04.092.048.154.063.145.015.078.018.06.147.341.175.432.331.731.09.17.063.057-.023.068.037.034.045.034.03.07.017.066.481.817.116.188.16.227.182.323.075.228.052.079-.044.087-.065.076-.022.007-.02.034-.035.038-.018.012-.005.341-.012.027.017.02-.009.086.015.184.064.346.042.092.012.061.061.141.247.379.002.154.006-.002.036-.012v.05l.017.019.005.012.024.14.008.016.05.117.122.213.046.132.014.076.006.073.01.052.516 1.394.03.178.022.011.023.066.01.05.072.146.063.187.06.13.005.05-.032.055-.041.013-.037.005.012.005.067.022.036.031.023.042.079.325v.109l-.046.055.04.058.018.105.007.438-.022.124-.044.006-.025.437-.032.125-.004.03.003.112-.008.067-.015.043.009.072v.004l-.076.499-.032.113-.047.039.049.076-.05 1.025h-.076v-.168l.02-.156-.002-.087-.087.115-.02.122-.036.083-.003.144-.054.078-.05.018-.045.003-.022.02-.008.022-.007.087-.069.152-.082.08-.01.075-.003.152-.023.064-.052.076-.019.046-.005.058.009.058.006.009.026.02.02.031-.032.061-.015.044.01.01.042.027.03.036-.007.064-.118.104-.135.155-.01.022-.003.019-.017.044-.046.052-.01.084.03.04.036.034.092-.101.024-.058-.005-.032-.043-.037-.019-.062.036-.038.1-.026.032-.02.087-.123.064-.04.108.044-.041.068-.039.033-.054.133-.091.12-.1.142-.03.068.01.043v.04l-.26.258-.044.023-.022-.007-.01.017-.029.08-.028.04-.094.082-.108.142-.08.081L79.1 60l-.035-.076.058-.035.064-.019.038-.114.024-.028.052-.006.012-.01.041-.066.076-.08.013-.027-.016-.063.092-.013.021-.012.013-.02-.009-.02-.004-.045.045.001-.004-.008-.015-.005-.088.035.044-.14.017.003-.011-.088-.036-.03-.037-.004-.073.046-.022-.055-.02-.021-.039-.02.035-.07.006-.003-.12.002-.032.01-.024.044-.02.068-.041.076-.094-.032-.04.009.002.01.01.026.003.03-.031.049h-.043l-.04-.024-.021.009-.062.06-.045.01-.065-.004-.057-.02-.007-.008v.003l-.01.039-.071-.046-.021.02-.029-.005-.05-.018v-.051l-.065-.014-.034-.033-.079.049-.071.078-.066.013-.12.002-.093.021-.126.012-.144.035-.061-.015-.155-.15-.05-.106-.038-.11.005-.11.033-.137.06-.126.096-.076-.08-.066-.029-.048-.003-.036-.016-.066-.003-.036-.007-.017-.034-.1-.094-.108-.05-.094.088-.065.006-.014-.008-.004-.068.016-.055-.023-.016-.044-.032-.151-.064-.126v-.036l-.024-.03-.012-.045-.002-.035-.117-.012-.027-.039-.046-.102-.063-.028.055-.072.055-.042-.003-.003-.058-.09-.027-.024.008.019.012.03-.032.007-.024.011-.023.003-.02.02.004.049-.062-.034-.012-.01-.03-.038-.017.017-.06.008-.003-.079-.034.017-.038-.036-.033-.054-.048-.005-.007.03-.054.042-.004-.06-.025-.032.015-.063.062-.03.08-.019-.02-.026-.036.038-.06-.028-.026-.026-.013.007.006.01.01.03-.012.038-.05.104-.04-.06v-.015l.006-.05-.002-.008-.014-.01-.02-.025-.01-.027.014-.05-.031.024-.095.037.042-.08-.002-.003-.003.002-.055-.02-.038-.04-.021.042-.046.028-.043.008-.05-.01-.03-.017-.023.024.001.01h.023l.04-.008.06.023.017.06-.042.075-.03.036-.063-.01-.028-.014-.017-.043-.025-.029-.009-.029.008-.033-.03-.005v-.009l-.009-.008-.03-.038-.012-.026-.027-.127.078-.032.049.03.035.036.017.009.01-.006.025-.033.02-.04h-.01l-.07.008-.044-.013-.04-.032-.032-.05-.01-.052.015-.022-.071-.058-.05-.094-.018-.082h-.07l-.06-.264-.028-.273.02-.118-.002-.02-.09-.17-.019-.09h.046l-.004-.159-.014-.06-.036-.074-.017.04-.033.022-.046-.023-.014-.015-.067-.003-.153-.086-.04.02-.022-.01-.037.05-.02-.094-.001-.058.012-.062.021-.037-.006.003-.045.03h-.055l-.012-.01-.052-.061-.03-.066.008-.05.016-.053.003-.068-.014-.058-.052-.116-.017-.06.003-.08.074-.4.006-.073-.008-.073-.017-.019-.03-.015-.079-.065.007-.071.07-.053.162-.097.063-.013.018-.01.013-.019.013-.036-.055.052-.13.028-.048.02-.067.015-.048-.014-.01.041-.05.017-.03.004-.018.028-.033.026-.05-.044-.068-.077.004-.022-.022.01.024.03.04.1.016.018.019.03.05.13.028.156.003.055-.002.011-.023.055-.073.038-.013-.122-.023.025-.04.03-.026-.02-.025-.03-.018.012-.025.005-.035-.008-.032-.032-.02-.013-.055-.016-.033-.001-.103-.071-.005-.011-.047-.151-.102-.064-.017-.017-.007-.016-.018-.062-.274-.545-.032-.126-.072-.143-.017-.077.036-.01-.003-.015h-.066l-.044-.089-.047-.063-.045-.076v-.146l.062.056v-.02l-.064-.133-.031-.157-.034-.035-.054-.028-.115-.087-.06-.01.026.012.044.038.073.136.115.144.031.13-.118-.092-.132-.156-.03-.058-.017-.022-.04-.061-.016-.05-.012-.042-.032-.013-.04-.057-.061-.16-.018-.093h.073l.065.149.027.02.084.04.012.013.01-.02.003-.015-.006.004-.04-.005-.026-.02-.04-.045.08-.09.04.011.03-.016.067-.117.04.012.015-.015-.02-.05.077-.053.027-.056.02-.066.05-.084.077-.063.019-.066.04-.027.024-.009.011-.007.069-.124.08-.055.018-.03.099-.112.02-.04-.008-.068-.058-.14-.032-.143-.02-.023-.033-.003-.05.027-.02.032-.01.044-.004.12.017.043.007.044-.001.011-.022.053-.128-.004-.045-.011-.047-.09-.004-.084.006-.059-.05.04-.085.052.002.022.017.07-.002.057-.017.042-.041.053-.042.127.02.053-.016.081-.038.057-.069.026h-.064l-.032-.013-.022-.021-.01-.041.002-.067-.056-.01-.046-.031-.054-.084-.052-.059-.12-.097.002.004.178.196.04.066.046.123.022.082-.005.08-.082-.018-.04-.071-.03-.101-.007-.041-.039-.103-.185-.185-.046-.09-.006-.046-.028-.094-.008-.076.015-.073.027-.06.036-.051.088-.087.065-.31.004-.087.01-.054.019-.022-.018-.031-.02-.057-.018-.09-.002-.05.004-.079.026-.081.04.026.02-.023.017-.041.026-.102.065-.097.015-.03-.063.021.136-.355.029-.032v-.01l-.005-.032.067-.118.004-.179.007-.045.03-.103.014-.305.024-.048-.005-.01-.011-.035-.003-.044.013-.03.024-.034v-.01l-.006-.016-.008-.04-.004-.13h-.035l-.022-.033-.004-.01-.034.03-.096-.004.024-.062-.006-.01-.01-.03.02-.044.029-.002-.01-.037.065-.084.08.05-.002-.026.002-.021.02-.148-.006-.04-.024-.033-.01-.004-.063-.01-.028-.013-.023-.018-.136-.174-.017-.067.012-.045-.011-.003-.043-.019-.031-.048.024-.058.005-.02v-.102l-.106-.088-.05-.083.046-.028-.014-.008-.032-.058-.008-.082-.02.01-.042.031-.03-.042-.032-.031-.045.032-.09-.004-.068-.03-.046-.028-.03.008-.087.003-.04.007-.048.02-.026.005-.048.003-.07-.027-.02-.06-.001-.032-.004-.004-.042-.009-.04-.037.004-.057.025-.023-.008-.01-.023-.054-.021-.033-.036-.016-.04-.007-.06-.026-.059-.038-.032-.037-.014-.03-.007-.035-.01-.071-.052-.103-.091-.124-.05-.055-.05-.042-.075.013-.093-.075-.147-.175-.025.003-.047-.024-.1-.075.022-.047-.003-.04-.012-.04-.025-.051.04-.048.018-.064.004-.075-.003-.01-.009-.05-.025-.032-.044-.013-.057-.01-.073-.03-.027-.02-.057-.051-.104-.049-.05-.042-.057-.064-.05-.077-.02-.06-.003-.04-.016-.081-.01-.024-.021-.018-.034-.022-.017-.026-.024-.07-.11-.116-.029-.05-.026-.03-.13-.097-.03-.017-.06-.018-.037-.03-.057-.064-.066.013-.144-.063-.29-.184-.216-.178-.044.004-.101.042-.211.018-.063.04-.054.021-.032-.067-.008-.025-.038-.034h-.001l-.017.032-.038.015h-.097l.004-.021-.02.023-.017.027-.026.067-.115-.007-.027.006-.099.055-.01.015v.093l-.023-.012.109.139-.027.05-.06-.011-.072-.03-.003.004-.002-.006-.006-.003-.107-.032-.054-.036.017.072.012.007.18.024.115.039.027.099-.047.1-.222.131.12-.154-.088-.03-.114-.01-.056.012-.063.02-.06.005-.028-.029-.146.086-.132.106-.143.04-.088.063-.156.15-.048.023-.08.01-.037.013-.069.052-.06.035-.054.011-.038.02-.049.042-.063.02-.023-.1.017-.037.076-.124-.009-.004-.025.012-.044.035-.047.017-.03.017-.057.094-.077.012-.063.092-.048.028-.01-.001-.24-.026-.115.006-.21.069.065.01.04-.005.05-.04.086.014.045.015.045.008.01.006.007.016.01.052-.027.027-.03.049-.006.028-.01.025.065.015.075.046.059-.005.129-.032.635-.309.005-.02.013-.02.014-.005.048-.014.016-.024.023-.011.036-.012.06-.064.08-.044v.024l.067-.08.12-.064.07-.045.029-.011.009-.01.067.025-.046.105-.084.045-.233.05v.05l-.041.028.002.02-.085.036-.182.141-.299.13-.06.051-.189.11-.079.024h-.18l-.08-.025-.078-.054-.02-.018-.044-.002-.104-.045-.023-.03-.038-.051-.028-.016-.064-.027-.044-.037-.051.017-.07-.002-.075-.013-.057-.002-.122.055-.08-.04-.05-.052-.035-.065-.058-.293-.01-.192.093-.157.01.084.008.034v.004l-.008.24.008.077.02.075.032.069.074.112.011.008h.027l.022-.012.036-.038-.004-.006-.004-.05.013-.242-.026-.066-.097-.13-.027-.069-.013-.045-.04-.06-.052-.053-.047-.038-.348-.165-.09-.077-.034-.056-.008-.021-.014-.066h.004l-.122-.101-.045-.023-.163-.168-.04-.06.068-.02.045.009-.009-.016-.025-.02-.1-.049-.03-.021-.032-.038-.033-.047-.016.024.011.02.05.032.07.064-.038.085.028.04-.157-.041-.364-.27-.256-.126-.352-.186-.38-.117-.521-.143-.373-.047-.063-.041-.053.03-.036.007-.046-.008-.026-.012-2.055.263-.167-.021v.001l-.087.04-.434.092-.059.035-.028-.01-.061.018-.066.031v-.089l.048-.02.074-.06.054-.013-.086-.03.113-.045.077.001.027-.006.027-.02.015-.024v-.013l-.039-.027v-.048l.096-.116.072-.053.067-.015.013-.009v-.023l-.012-.038-.017-.023-.013-.004-.05.007.085.048h-.105l-.003.02-.134.128-.03.053-.024.061-.043.053-.085.02-.032.015-.023.037-.043.053-.078.018-.088.149-.211.087-.4.054h-.38l-.263.046-.17-.001.093-.089.068-.03.117-.029.018-.01.02-.028.045-.018.072.065.105.02.104-.035.137-.037.064-.044-.028-.09-.144-.14-.027-.05.01-.049.025-.075-.007-.014-.029.036.005.015-.019.03-.063-.003-.038-.007-.04-.017-.032-.022-.022-.022-.033-.045-.013-.03-.01-.042-.012-.08-.018-.035-.02-.027-.017-.032.007-.067.026-.074.034-.066.028-.04.008-.04-.016-.065-.088-.26-.029-.037-.064-.032-.025-.004-.041-.004-.034-.018-.012-.06-.02.031-.023.016.015.04-.023.046-.027.038-.014.054-.002.065-.017.06-.039.056-.018.024-.005.012-.003.028.003.063-.012.042-.026.04-.04.197v.003l-.005.056.005.143-.032.268-.023.051-.057.037-.038-.026-.006-.024-.032-.001-.003.003-.064-.007-.053-.018-.008-.058.019-.055-.063-.023-.19-.043-.046-.025-.022.057h-.054l-.054-.08h-.039l-.082.038-.054.016.002.03-.004.06-.052.03-.03.005-.011.01-.01.02-.035.04-.08.033-.063-.025-.057-.038-.078-.02-.032.001-.053-.01-.036-.025-.02-.075-.041-.032-.004-.012-.042.065-.153.061-.15.016-.107-.015-.295-.226-.03.03-.058.052-.103.009-.185-.007-.037.012-.09.046-.048.012-.054.007-.21.07-.194.054-.187.058-.047.006-.015-.002-.063-.015-.015-.058.041-.05-.007-.004-.097-.074-.05-.011-.019.007-.037.03-.02.022h.001l.076.004.033.024.002.08-.008.057-.043.044-.253.145.016.033-.022.057-.046.057-.009.032-.003.034-.02.036-.057.043.008.041-.083.139-.166-.074.081-.14-.003-.001-.03-.02-.036.047-.097.063-.108.03-.093-.08-.042.01-.055-.01.053.061.052.034-.062.09-.04.034-.024.033-.014.097-.102.035-.014.01-.005.02.008.025.005.052-.063.058-.073-.073-.069-.03-.068-.001-.054.027-.032.044-.014.042.005.052.047.12.024.025.043.011h.014l.058.002.043-.014.115-.053.058.036-.02.05-.04.054-.006.02.063.073.05.048.057.02.061.002.058-.014.044-.033.044-.06.03-.068.013-.072v-.127l.027-.06.05-.04.03-.013.062-.016.026-.015.017-.016.04-.08-.005-.047.016-.034.041-.024.04.016.011.013.024.005.075.031.039.024v.041l.064-.044.032-.01.062.023.03.032-.012.052-.055.043-.045.01-.081-.006-.024.015-.01.02.003.02.012.03.002.043-.032.031.02.002.087-.015.06.015.066.091-.052.079.043.011.016.066-.014.02.02.013.132.055-.095.057.044.069h-.053l-.029.004-.02.012-.023.026.015.025.02.045.018.029.034.022-.02-.018.006-.033v-.033l.124.03.027-.004.023-.012.057-.011.005.056-.001.01-.057.16-.097-.086-.115-.01-.076-.019h-.003l-.014.013-.034.073-.064.055.003.011.017.057-.103-.041-.039-.067-.03.079-.088.055-.015-.197-.017.018-.035.065-.025.024-.045.02-.033.003-.066-.009-.014.003-.036.042-.006.05.017.047.024.026.047.008.067-.008.079.004.097.118-.038-.01.075.069v.065l-.091-.007-.048-.033-.04-.04-.026-.018-.09-.019-.079-.005-.098-.025-.02-.012-.026.008.017.007.004.038-.001.004v.002l.104.105-.107.044-.244-.066.008.005.055.085-.051-.002.087.106.016.041.02.081.01.023.021.015.08.027.068.043.073-.008.095.04-.028.023.01.003.082.047.075.006v.058l-.033.05-.005.023.068-.034-.018.124-.044.034-.019.003.013.006.03.002.178-.038h.08l.075.041.017-.003.037.004.018.013.029-.017.036-.007.106.018-.002.057-.044.028-.025.003h-.033l-.02.007-.009.011.026.01.04.029.021.005.02-.003.04-.014.068-.011.029-.01.028-.002.012.003.044.025.024.04.013.072.016.004.04-.016.04-.038.032-.072.043-.004.02.025.012-.002.016.05v.027l.021-.016.031.058.018.018.025.042.027-.02.05.07.014.043.06-.035.046-.052.024-.128.062-.015.014.021.02.013-.002.033.008.053-.033.155-.092.093-.05.018.017.042.028.02.032.009-.013-.04.091-.012.06.011.045.033.06.091h-.048l.06.093-.13-.037h-.001l-.014.036-.022.005h-.052l.002-.047-.002-.015-.05.037-.03.036.24.004-.112.222-.086.084-.004-.11-.012-.028-.007-.004.006.014.012.05-.001.097-.085-.069-.039.05-.077.08-.006.045.069.134-.083.04-.046-.034-.097-.12-.022-.042-.018-.043-.073-.13-.022-.024.003.024.01.027.002.03-.025.044-.058.023-.076.012-.047.016-.02.041-.007.04-.02.052-.15.222-.065.053-.107.03.026-.193.021-.025.054-.045.018-.03.066-.08.01-.026v-.033l-.005-.032.002-.037.048-.037.08-.02.049-.11.022-.039-.035.014-.025-.03-.001.031-.052.071-.08.044-.083.016-.048-.048-.037-.1.006-.04.01-.022-.005-.005-.07-.025-.173-.317.01.024.027.06-.237-.087-.078-.006-.096-.024-.036-.063-.014-.045-.028-.02-.059-.02-.018.02-.068-.008-.142-.035-.187-.022-.142-.024.06-.04.083-.045.054-.015.04-.029.02-.038.016-.04-.004-.04-.004-.007-.012-.002-.022.018-.037.071-.038-.112.017-.043.016-.024v-.001l-.009.001-.074.042-.043-.025-.03-.05-.028-.054.002-.032.009-.02.016-.023.021-.02.005-.015-.058-.015-.003.023-.03.112-.09-.035-.08-.084-.095.04-.107-.038-.097-.065.015.025.035.021h.001l.009.005.02.045v.043l-.033.033-.025-.005-.01.01v-.009l-.042.006.035.033-.083.035-.015.013-.007.025-.001.038.03.036.011.031.004.034-.006.157.002.002.06.032v.06l-.097.042-.043-.06-.016.015.033.058-.089.003.005.007-.037.033-.004.033.036.072.124-.017-.034.099-.07.138-.025.033-.044.035-.038.044-.063.05-.05.018-.15.097-.107.047-.099-.037.046-.043.003-.024-.009-.072-.017-.026-.067-.067-.016-.042.016-.045.022-.042.008-.03.002-.036.014-.054.004-.037-.002-.033-.012-.04-.019.05-.05.084-.039-.057-.027-.058-.114-.128-.005-.038-.014.01-.01.02-.004.04-.016.051-.123.165v-.271l-.016-.042-.089-.139-.007.028-.004.02.011.082-.099.07-.015.024-.093.295-.049-.295-.015.008-.115-.039-.039-.019-.003.016-.053-.02-.006.001v.014l.088.014-.01.098-.045.063.04.054-.057.075-.052-.028-.03-.048-.012.027-.02.062.019.02-.023.146v.196l-.082-.192-.013-.003-.013.006.003.026-.004.061h-.02l-.03.018-.025.033-.047.014-.027-.022-.039-.019h-.023l-.022.048-.045.003-.112-.037-.076-.005.055-.09.055-.016.011-.007-.004-.015-.038.017-.062-.024-.046-.031v.002l-.002.013-.016.041-.074.038-.006.021-.016.023-.057.01-.15-.14-.068-.045-.07-.016-.114.043-.003-.084.014-.04.024-.02-.039-.013-.022-.001-.004.003-.01.05-.039.04-.052.009-.066-.008-.028-.017-.072-.064-.03-.012-.32-.054-.178-.082-.137-.124-.08-.35.12.21.036.01.043-.01.036-.027.033-.057.028-.061.042-.045.012-.003.102-.01-.005-.005-.038-.033-.011-.036.004-.06-.006-.012-.043-.014-.027-.023-.05-.09-.015-.098.006-.047-.034.065-.024.067-.097-.064-.125-.052-.07-.02-.067-.002-.052-.01-.03-.045.019-.051.024-.041-.012-.01-.062.042-.124.042-.134.021-.14-.028.081-.067.01-.056-.01-.07-.03-.059-.013-.054-.004-.056-.004-.002-.021.004-.078.032-.03.007-.1-.006-.024-.06.021-.068.013-.077.01-.142-.015-.03-.059-.025-.066-.007-.275.016-.047.02-.12.067-.094.019-.04-.059-.003-.053-.007-.017-.027-.037.013-.077.039-.082.054-.047.051.057.001-.005-.005-.038-.02-.027-.02-.011-.136-.022-.023.002-.086.065-.06-.018-.028-.023-.024-.01-.024.002.005.023-.025.062-.038.028-.263.098-.036.022-.066.068-.049.036-.13-.003.09-.073.003-.019-.01-.017-.025-.007-.027.048-.028.022-.038-.01-.01-.007.023.073.025.061.012.013.003-.001.05-.036.138-.025.074.042-.14.092.071.15.012.04.042-.029.082-.024h.078l.012.007.072.067.033-.01.065-.007.063-.02.012-.011.032-.045.02-.016.044-.004h.01l.18.043.046.03.078.078.098.046.079.017.07.006.057.015.036.051-.041.073-.118.066-.03.027-.013.047v.043l-.011.045-.044.018-.044.002-.123.023-.184-.121-.036-.018-.027-.027-.313-.139-.058-.056.004-.057-.051.054-.096.003h-.128l-.108.037-.2.104-.12.044-.115-.001-.463-.09-.148-.022-.098-.019-.417-.113-.363-.15-.347-.162-.337-.139-.203-.064-.316-.073-.16-.012-.16.024-.116.026-.127-.02-.103-.002-.1-.008-.131.005-.183.02-.248.045-.295.045-.161.068-.081.027-.047.052-.081-.108-.027-.029.055.123-.066.085-.053.002-.094-.026-.36-.007-.064.008-.122.037-.086.04-.254.143-.366.14-.967.439-.105.078-.162.19-.07.032-.095-.017-.012-.031-.068.02.002.016.02.003.331.083-.556.412-.17.109-.39.276-.104.094-.082-.005.066-.116.073-.096.143-.094.2-.154.075-.053.041-.05.036-.061.123-.098.022-.048.024-.03.076-.022.02-.015.014-.032-.003-.015-.057-.01v-.08l.023.002v-.002l-.03-.022-.051-.013-.035.01-.02.054-.015.08-.039.073-.07.043-.047-.039-.012.027-.028.03-.09.058-.007-.001.001.008v.014l-.008.013-.2.233-.075.058-.115.066-.034-.085-.024-.012-.027-.004.026.06-.03.082.003.069.024.142.002.063-.008.06-.03.054-.222.174-.086.049-.16.18-.184.158-.032.017-.064.007-.05.02-.2.145-.35.227-.133.065-.139.035-.141.01-.144-.008-.108.011-.374.14.01.022-.005.042-.012.036-.008.065-.004.008.031-.011.417-.24.129-.05.22-.02-.452.301-.201.1-.312.075-.189.148-.174.06-.19.118-.12.055v.011l-.032.004-.008.003.002.005-.053.034-.05.038-.027.036-.076.021-.072.074-.067.042-.09.01v-.07l.185-.163.121-.073.166-.047v.01l.07-.086.102-.074.447-.23.059-.012.02-.014.007-.035-.017-.04-.036-.02-.045.008-.115.067-.04.017-.064.012-.176.083-.157.045-.1-.003.023-.1.075-.037.013-.001-.06-.01-.03-.049.021-.05.074-.123-.048-.002-.046.01-.03.014-.14.09.02-.05-.07.084-.07.042-.06.02-.01-.006-.223.136-.11.044-.19.031.12-.114.065-.006.025-.008.012-.043-.009-.023-.116.08-.04-.124-.01.001-.041.012-.056-.02-.04.001-.029-.01-.023-.045-.003-.022v-.024l-.02-.098-.008-.015-.021-.027-.027-.02-.03-.008-.03.004-.056.033-.024-.034.004.044.008.041.024.05.084.113.015.03.01.049-.002.035-.017.086v.01l.01.014.035-.037.059.022.089.06.059.028.026.021.03.036.014.023.035.092-.184.092.003.009h.022l.046-.027.039-.03.1-.028.132.05.096.085.012.112-.241.13-.055.013-.106.066-.048.014-.341.193-.057-.045-.05.016-.05-.046-.02-.062-.007-.133-.006-.023-.02-.01-.049-.004-.032-.024-.013-.085-.008-.008-.026-.013.017.03.01.066-.046.066-.022-.013-.055-.025-.09-.062-.016.015.05.08.084.1.052.102-.022.07-.03.061-.01.049.06.135-.047.066-.106.066-.048.05-.11.152-.007.002-.051.035-.098.026-.102.048.052-.185.029-.06.033-.044-.04-.059.022-.075.028-.055v-.011l-.03.036-.057.09.03.026.01.063-.017.066-.034.074-.048.08-.052.022-.175-.058.068-.046.006-.01-.017-.03.017-.107-.004-.01-.039.055-.106.068-.122.05-.106.028.004.002-.153.156-.046.06.006.007.062.01.07.034.042.038.034.056v.023l.011-.021.014-.052.007-.038.036-.066.15-.063.03-.036-.004-.012-.004-.012.011-.025.018-.011.042-.019.051.044.013.054-.021.138.01.07-.016.03-.05.058-.055.112-.039.006-.09.162-.246.353-.076.058-.116-.015v-.079h.041l-.009-.015-.035-.046-.037-.03-.04-.013-.061.008-.129.054-.156.01.02.067-.026.098.008.029.053.114.04.039.274.117.033.062-.015.072-.01.018.094.039.048.036.005.008.155-.34.083-.101.127-.119.017-.031.026-.1.076-.02.021.021.006.007-.036-.086.044-.114.113-.17.108-.127.007-.015-.056-.012v-.049l.187-.323.046-.01.018-.026.037-.068.058-.028.06.029.037.05.008.03-.008.031.009-.022.036-.06.03-.035-.022-.042-.01-.07.018-.08.013-.005.058-.028.062-.007.092-.032.05-.008.034-.014.13-.082.026-.057.011-.01.124-.067.025-.03.028-.023.141-.065.065-.065.046-.028h.007l.063-.008.113.01.022-.01.03-.051v-.017l-.003-.083.024-.032.062-.02.037.012.018.053.003.091-.003.033-.013.04-.031.058-.232.115-.104.03-.087.056-.164.143-.286.152-.073.079-.166.124-.081.078-.031.044-.029.074h-.072l-.26.293-.121.186-.11.13-.038.059-.037.144-.008-.02-.04.044-.37.585-.245.533-.185.471-.08.301-.014.12-.06.052h-.006l-.03.1.022.867.101.59.317 1.056-.003.037.025.043.025.107.075.386.047.148.017.092.02.084.02.166.003.066-.023.094.052.009.03.11.02.252-.01.057-.221.02-.147-.01-.017.005-.007.045-.075.066-.084.027-.047-.035-.052.041.007.052.022.077-.002.087-.088.04-.051-.015-.025-.05v.01l-.032.03-.09-.016-.042-.066-.025-.059-.051-.001-.056-.01-.054-.022-.06-.04-.137-.141-.09-.04-.037-.052-.027-.059-.024-.036-.054-.043-.05-.024-.054-.012-.27-.018-.056-.016-.006-.052-.038-.01h-.227l-.193.023h-.003l-.175-.026-.03.002-.09.047-.08.028-.051-.026-.022-.077-.038-.009-.14.037-.11-.005-.121-.036-.249-.13-.029-.032-.081-.121-.077-.003-.054-.018.002-.063.014-.041-.055-.016-.103-.059-.06-.019-.057.074-.08-.1-.08-.03-.092-.025-.082-.044-.175.068-.058-.014-.033-.022-.061-.059-.018-.005-.04-.004-.017-.05.032-.038-.008-.007-.026-.01-.035-.004-.075.008.017-.082-.02-.027-.108-.07-.05-.059h-.01l-.021.012-.034.01-.025-.014-.009.011-.041.01-.046-.013-.019-.013-.07.014-.102-.075-.058.058-.041-.082-.013-.01-.06-.001-.045.019-.033.007-.034-.012-.025-.036-.053-.002-.056.008-.069-.012-.077-.063-.012-.058.052-.097.008-.026-.005-.037-.032-.085-.028-.035-.07-.017-.089-.038-.024-.104-.003-.033.083.006v-.072l-.015.025-.044-.1-.001-.044.029-.127.054.033v-.004l-.068-.06.094-.043-.001-.008-.075-.077-.03.07h-.067l.002-.1-.004-.047-.015-.025-.073-.023.027-.106.008-.054-.009-.051-.01-.02-.02.06-.054-.14-.014-.09.026-.091-.057.035-.074.002-.042-.036-.043-.094-.022-.027-.027-.017-.018-.004-.025.015h-.041l-.053-.08-.013-.047.008-.116-.014-.016-.184-.076-.055-.052-.052-.022.078-.156-.004-.021-.035-.065.006-.075.046-.153.01-.059-.006-.062-.02-.054-.03-.05-.044-.05-.042-.025-.012-.021-.005-.023-.014-.009-.11-.043.035-.065.055-.067.007-.018.001-.03.018-.051.007-.063.029-.083.007-.037-.003-.121.002-.015-.015-.058-.01-.005-.05-.004-.035-.03-.002-.047.01-.083-.001-.128-.019-.04-.053-.05-.058-.027-.058-.02-.024-.024-.032-.058-.013-.006-.024.006-.073.038-.05.002-.02-.027-.038-.065h-.106l-.03-.026-.053-.08-.023-.015-.028-.103-.01-.007-.051-.016-.042-.025-.037-.043-.027-.047-.03-.027-.09-.018v-.031l-.028-.031-.034-.027-.027-.008-.007-.055.009-.078-.003-.018-.016-.02-.058-.04-.014-.059.036-.08-.043-.024-.053-.051-.05-.066-.04-.07.028-.04-.01-.007-.059-.014-.055-.02-.049-.059-.033-.05-.02-.045-.023-.066.008-.047-.01-.006-.042-.037-.048-.058-.012-.033-.002-.043-.02-.065-.047-.049-.29-.148-.058-.014-.033-.026-.013-.055-.01-.062-.008-.003-.09-.02-.053-.036-.062-.07-.032-.076.02-.069-.004-.049-.04-.065-.09-.124-.027-.121-.014-.123-.006-.01-.022-.018-.03-.037-.006-.057.025-.04.04-.022-.068-.027-.08-.06-.04-.077-.004-.041.005-.078-.008-.02-.025-.02-.074-.037-.043-.03.005-.066-.105-.137-.04-.082-.078-.336-.052-.095-.008-.005-.05-.005-.029-.015-.018-.045.019-.044-.002-.008-.01-.006-.054-.033-.01-.018-.014-.048-.032-.033-.04-.03-.02-.03-.007-.084-.009-.02-.03-.03.03-.085-.01-.065-.06-.138-.028-.202-.014-.027-.019-.007-.031-.004-.049-.013-.027-.048-.164-.138-.027-.058.023-.073-.058-.109-.034-.043-.058-.044-.146-.07-.024-.02-.063-.081-.065-.058-.216-.1-.041-.027-.03-.028-.026-.035-.022-.042-.014-.054-.011-.099-.018-.043-.014-.003.013-.057.029-.045.07-.034.118.015.04-.014.046.022.014-.017.012-.02-.053-.003-.03-.053-.004-.033-.003.013-.056.03-.057-.02-.02-.06.013-.017h-.044l-.014.008-.005.015-.023.12-.04.047-.08.009-.086-.015-.053-.028-.029-.023-.042-.021-.025-.02-.042-.05-.026-.042-.01-.007-.035-.052-.003.01-.019.102-.085-.13.032-.18-.024-.055-.057-.022-.054.022-.172.138.006-.09-.003-.045.007-.065-.005-.003h-.079l-.052-.028-.026-.025-.024-.038-.04-.087-.02-.061-.047-.075-.025-.052-.009-.046-.008.003-.038.005-.051-.007-.038-.02-.019-.044-.005-.002-.044.016-.042.037-.064.037-.104-.029.02-.056.03-.07-.01-.024-.014.057-.047.047-.047.017-.167.022h-.004l-.505-.076-.034-.025-.005-.02-.026.018-.119-.002-.077-.022-.017.01-.02.018-.027.012-.034.008-.04.002-.047-.023-.044-.037-.026-.008-.046.045-.092-.023-.29.031-.123-.055-.036-.03-.13-.07-.114-.013-.054-.028-.011-.047-.039.01-.05-.039-.037-.036-.039-.01-.01.006-.03.066-.058.022-.02.004-.012.012-.007.021-.01.102-.013.04-.085.133-.345-.027-.008.003-.026.042-.052.047-.032.005-.013-.003-.026-.013-.01-.028-.044.018-.107.059-.061.013-.113-.003-.008.001-.013.015-.02.091-.088.157-.015.058-.016.005-.04.077-.004.015-.029.057-.032.035-.013.006.012.031-.018.033-.014.007.012.037-.031.046-.021.016-.094.25-.034.062-.006.04.007.034.012.04-.001.054-.03.055.022.053.003.03-.054.028-.022.003h-.017l-.007.002-.03.025-.012.016-.005.03-.002.068-.041.131v.029l.014.021.076.053.047.068-.064.028-.082.017-.127.097-.027.047-.074-.04-.038.036-.08.17-.034.047-.025.02-.126.069-.015.012-.012.028-.029.098-.03-.022-.013.106-.045.102-.093.049-.129-.02-.165-.045-.185.003-.07-.041.01-.04-.029.019-.04-.067-.028.03-.047.029-.066-.03-.085-.08-.02-.015-.033-.01-.141-.079-.156-.155-.027-.05-.012-.028-.016-.013-.013-.003-.082.005H9.36l-.275-.069-.088-.05-.145-.122-.025-.012-.043-.015-.035-.031.028-.085-.009-.02-.018-.016-.026-.008-.206-.012-.198-.04-.28-.097-.128-.073-.142-.158-.1-.05-.072-.06-.107-.122-.056-.123-.007-.006-.021-.01-.078-.057-.016-.017-.033-.044-.065-.018-.073.002-.07.037-.044-.063-.242-.154-.018-.007-.03-.021-.036-.087-.039-.038-.14-.097-.053-.061-.015-.045V43.8l-.005-.042-.019-.047-.055-.106-.026-.14-.038-.049-.047-.037-.065-.075-.011-.03-.043-.16-.057-.074-.02-.048-.037-.043-.017-.033-.007-.038.007-.06v-.022l-.056-.189-.008-.081-.005-.008.005-.011.008-.065.044-.13.011-.077.006-.123-.008-.067-.039-.048-.06-.127-.025-.023-.046-.023-.033-.028-.047-.093-.03-.076-.04-.076-.051-.032-.028-.026-.014-.105-.012-.015-.042-.026-.022-.025-.032-.05-.007-.026.008-.074-.005-.026-.03-.052-.009-.044.006-.03.017-.048-.003-.004-.055-.033-.01-.048-.006-.078-.007-.026-.033-.058-.092-.108-.015-.032-.008-.005-.09-.012-.045-.014-.029-.05-.019-.107-.033-.046-.055-.044-.06-.028-.05-.01-.074-.035-.118-.143-.02.027-.057-.066-.031.018-.009-.074-.006-.01-.01-.004-.035-.004-.04-.015-.03-.053-.011-.006-.015-.003-.024-.008-.02.023-.019.013-.03.002-.047-.024-.02-.02-.014-.02-.015-.014-.17-.085-.094-.02-.002-.007-.037-.033-.123-.155-.242-.186-.104-.124-.078-.04-.034-.056-.042-.132-.035-.061-.039-.031-.049-.026-.065-.05-.075-.087-.019-.012-.046-.017-.244-.162-.032-.052-.02-.059-.23-.27-.048-.038-.065-.023v-.018l-.025-.018-.061-.035-.024-.039-.024-.064-.015-.023-.037-.032-.126-.088-.047-.018-.076-.009-.058-.022-.105-.064-.122-.036-.082-.034-.032-.046-.108-.064-.023-.032-.023-.074-.027-.05-.125-.147-.038-.067-.081-.25-.056-.114-.081-.124-.093-.092-.101-.04-.132.011-.078-.022-.04-.04-.143-.15-.03-.019-.046-.01-.042-.026-.027-.03-.035-.064.021-.025-.062-.091-.026-.07-.01-.088-.016-.073-.064-.134-.003-.09 10.914-.005.073-16.408-.002-.095.128-.002-.002-1.89h25.493v1.89h13.511l.032.063.034.092.044.04.01.035.005.083.016.031.115.075.029.032.011.019.009.023.005.024.001.026-.002.027-.02.112.012.106v.023l-.012.046-.022.039-.016.016-.037.026-.086.03-.005.006-.004.012-.012.07-.017.045-.015.02-.018.015-.1.057-.07.03-.055.019-.034.027-.013.027-.02.09-.008.02-.016.022-.017.015-.041.02-.076.022-.016.017-.018.027-.038.044-.047.081-.031.04-.105.205-.007.027v.005l1.943-.054.024-.114.09-.151.015-.066.028-.044.05-.037.062-.033.04-.01.017-.044-.074-.141-.184-.27.098-.032.282-.012.025-.006.02-.015.004-.015-.012-.01-.081-.03-.063-.06-.049-.09-.009-.088.089-.041h.078l.061-.008.043-.029.027-.067-.009-.074-.068-.159.005-.065.02-.066-.02-.042-.037-.044-.035-.061.03-.157.124-.054.128.062.044.17-.025.089-.027.071.003.03.05.014.025-.014.046-.046.064-.079.023-.06.047-.174.008-.054.044-.146.036-.076.026-.027.052-.03.088.08.075.09.073.069.078.026.064-.034.06-.095.072-.213.122-.264.021-.09-.004-.077-.045-.13-.013-.09.017-.059.028-.04.04-.051.005-.031-.005-.116.02-.164-.012-.056-.1-.115-.062-.11-.008-.108.07-.125.107-.122.1-.188.034-.044.116-.097.135-.058.145-.018.159.032.831.401.218.144.11.032.097-.016.08-.079.06-.144-.002-.109-.051-.11-.09-.13-.069-.136-.028-.143.016-.16.058-.161.034-.057.051-.051.06-.029.063-.009.137.001.048-.013.18-.102.552-.1.083-.054.02-.089-.062-.152-.103-.116-.054-.109-.025-.085.023-.098.04-.09.042-.062.172-.147.04-.044.029-.077v-.072l.02-.075.095-.014.06.024.11.07.03.007.005-.007.131-.149-.084-.21-.016-.063.027-.1.072-.042.083.015.064.054.048.061.045.04.046.025.06.012.055-.008.115-.04.025-.003.028-.027.058-.028.062-.005.058.046.007.07-.032.124.005.04.047.03.07-.027.07-.077.027-.092-.013-.069-.056-.116-.014-.091.013-.061.035-.037.045-.008.04.018.025.044-.004.068.006.026.09.085.098-.02.122-.068.141-.037.072.018.077.036.072.046.058.05.052.036.2.079.113.076.028.014.038.01.059.005.047.018.018.047.01.049.012.031.044.057.036.028.074-.05.046-.083.081-.238.038-.067.044-.051.042-.03.068-.028.171-.018.033-.016.066-.066.126-.095.13-.051.066.097.024.096.06.097.085.069.093.018.136-.027.095.027-.048.107-.015.046.021.019h.054l.048-.03.02-.064v-.076l.024-.077.171-.037.026-.026.008-.049-.01-.247.016-.098.056-.047.074-.006.057-.019.04-.037.01-.065-.013-.03-.057-.07-.014-.05.028-.063.066.006.042.024.022.024.01.025.02.006.06-.006.12-.05.032-.038-.003-.003-.056-.018-.074-.044-.05-.1.06-.047.085.01.055.026.17.136.031.053-.01.17.004.051.023.046.044.038.115.061.053.042.051.03.146.01.082.021.12.13.043.034.008-.008.033-.07.081-.031.147-.027.03-.02.025-.024.021-.028.017-.03.028-.095.027-.362.015-.082.029-.09.047-.08.054-.029.023-.027.07-.163.05-.056h.043l.048.011.049.022.022.023.008.019h.013l.11-.034.055-.031.099-.079.061-.122.077-.35.096-.12.072-.02.126-.012.037-.028.043-.063.044-.051.163-.122.036-.05.012-.057-.063-.15-.025-.236-.021-.05-.027-.093.002-.09.082-.043.35-.034.207.012.062.033.101.117.047.03.107-.024.438-.274.204-.084.105-.015.246.026.013-.007-.037-.115.029-.094.042-.053.035-.057.002-.03-.042-.015-.139-.01-.058-.032-.05-.065.04-.055.107-.108.024-.054-.012-.05-.041-.055-.09-.095-.008-.148.105-.116.225-.14.048-.05.04-.031.048-.013.044.022.04.06.013.012.047.027.148.151.11.011.255-.117.146-.03.082.047.046.079.031.069.025.022.05.01.08.028.139.076.05.056.032.066.02.077.007.073.013.044.032.039.039.034.038.046.029.065.02.074.012.083.004.091.023.056.057.043.335.126.056.006.272-.053.084.013.123.058.133.038.053.064.043.073.045.06.203.206.111.076.12.026.048-.015.045-.04.033-.054.015-.079.051-.035.22-.073.08.01.064.025.063.043.05.05.019.01.103-.002.047.011.091.041.05.036.02.027.075.123.03.033.01.004.093-.023.032-.026.061-.034.075-.007.143.027.05-.003.042-.027.02-.034.03-.076.026-.041.031-.025.076-.028.04-.038.039-.05.061-.057.063-.02.077-.012.189-.095.09-.014.055.04.012.067v.082l.01.072.07.25.084.139.125.07.137.048.122.077.228.233.032.055.05.128.026.037.096.044.124-.012.257-.094.224-.018.041-.017.038-.057.022-.065.064-.337.043-.1.052-.044.153.022.052-.01.035-.047.002-.032-.007-.046-.012-.047-.03-.07.007-.048.018-.055-.008-.088-.023-.06-.026-.05-.025-.077.01-.108.06-.054.053-.037.032-.082.041-.072.012-.03.022-.163.048-.12.088-.154.11-.143.105-.08.09.002.063.042.047.044.1.046.046.053.028.061.017.067.008.015.008.025.005.037-.01.037-.035.022-.013.058-.014.022.012.024.036.018.048-.025.056-.06.031-.047.022-.089.023-.059.051-.032.061.026.05.053.018.008.029-.01v-.017l-.027-.055-.022-.074.015-.147-.004-.051-.03-.023-.021-.01-.022-.022-.024-.029-.014-.029-.018-.06.005-.044.037-.002.14-.058.015-.022.006-.082-.009-.142.006-.06.029-.07.142-.167.05-.141.083-.023.07-.002.082-.033.016.022.009-.005.027-.01.039.015.013-.017.02-.145.033-.086.236-.226.06-.026h.142l.042.048.029.07.035.065.046.033.051-.007.109-.099.069-.026.063-.008.062-.018.057-.025.039-.026.084-.092.065-.054.113-.042.04-.053.068-.126.102-.116.34-.27.201-.117.004-.027.037-.112v-.013l-.004-.04.004-.031.02-.023.044-.037.013-.06-.008-.042-.028-.04-.052-.061-.023-.062.041-.052.06-.039.012-.032.011-.072.011-.043.021-.05.02-.036.056-.069.004-.02-.01-.036-.015-.043-.011-.05.02-.092.068.01.033.018.014-.002.01-.018-.003-.029-.01-.025-.008-.038.025-.075.03-.053.02-.048.009-.086-.003-.16.011-.08.035-.103.066-.141.024-.07.022-.135.029-.096.07-.166.029-.031.082-.069.011-.016.031-.126.01-.015-.005-.045-.02-.108.004-.048-.004-.007-.026-.009-.037.003.01-.134.061-.156.013-.08-.01-.052-.025-.065-.067-.132-.102-.141-.025-.078.038-.098.07-.05.086-.029.085-.002.042.025.13-.09.083-.024.001 3.68 14.347.001.046-.103.09-.13.088-.078.076-.054.082-.042.166-.053.085-.003.135.003.109.019.081.033.118.057.046.036-.03.042-.104.073-.035.04-.035.161-.04.069-.167.202-.1.037-.008.014-.008.037-.029.081.004.02.082.081.028.038.035.085.004.075-.024.083-.04.067-.025.082-.01.067.05.078.123.143.116.2.006.019.008.005.076.067.082.058.019.096.063.086.03.08.013.108-.001.004-.032.205-.003.076.004.08.022.11-.012.095.02.074.085.071.07.069.087.15.012.068.002.147.037.05.157.207.148.172.083.076.096.04.068-.015.003-.013-.015-.048.068-.027.04.077.057.494.005.199.01.006.006.042.007.073-.003.135.014.093.017.202.011.091-.001.003-.002.105-.02.148-.05.138-.085.159h.019l-.041.15-.11.215-.099.268-.06.233-.119.162-.04.085-.214.406-.04.107-.05.064-.04.04-.04.018-.024.016v.042l-.096-.077-.037-.06-.016.028-.07.031-.07.06-.063.074-.117.164-.086.165-.116.171-.09.104-.075.116-.163.239-.03.074-.051.092-.082.11-.042.075-.032.022-.018.032-.076.063.024.039-.021.04-.022.028.001.004.042.019.048.05-.03.05-.04.007-.027.026-.046.007-.028-.022-.03-.004-.054.092-.033.046-.039.116-.033.13-.036.175-.01.123-.01.073.05.005.038-.012.02-.052.074-.038.008.106-.022.082-.009.015-.046.047-.074.07-.084.121-.045.085-.054.034-.07.03L93 17l.03-.105.05-.005.014-.01.014-.03.031-.047-.004-.085-.024-.069-.007-.04-.064-.108v-.114l.013-.057-.064-.068.01-.114.058-.097-.073.032.088-.205.015-.06-.02-.064.064-.034.03-.037.005-.015h-.054l.012-.096.027-.08.04-.06.077-.04v-.01l-.002-.002-.094.045.02-.171.048-.09.068-.062.02-.01-.113-.047.075-.066.023-.026.001-.008-.054-.042.093-.061.066-.017-.038-.047.002-.003zM53.396 42.408l.069-.025.083-.05.112-.089.096-.123.098-.084.136-.037.01.065v.076l-.101.059-.059.048-.146.162-.045.072.034.025.122.056-.022.113.006.014.008-.009.023-.032.024-.062h.112l.009.165-.029.112-.081.079-.065-.019-.035.076-.093-.035-.105-.155-.033-.071-.008.003-.021.023-.01.021-.011.044-.103-.017-.034-.029-.005.002-.036.048-.01.023-.027.009-.128.025-.069-.043-.062-.164.126-.018.066-.02.036-.021.026-.05.028-.01.036-.006.06-.002-.02-.059-.079-.03-.035-.046-.02-.04.028-.028-.04-.067-.038-.016-.174.007v-.148l.262.013.084-.029.057-.114h.09l.007.11-.037.027.003.051-.017.077-.053.143zm-4.104 3.683l.041-.053.053-.027.034-.011.08.002v.163l-.054.034.024.023.021.038.009.121-.072-.004-.17-.062-.258.157.163-.213-.163-.107.022-.152.27.09zm-1.912.104L47 46l.555.077.209.08L48 46l-.128.197.128.049-.16-.001-.012.02-.075.057-.105.051-.462.125-.106.002h-.042L47 46.348l.2-.054.036-.036.144-.063zm7.023-4.15l.018.006.089.093.076.06.25.006.164.1-.15.128-.02.004-.83-.221v-.146l.038-.02.007-.025.075-.017.016-.008h.023l.018-.005h.323l-.097.046zM77.221 37h.158l.072.076-.02.111.002.146.038.2-.077.126-.073.164-.1.177-.206-.048.061-.221-.064-.075-.012-.191.055-.12.08-.125.085-.22zM55 42.18V42l.5.078-.102.168-.194-.014-.204-.053zm39.219-19.543l-.024-.097-.106-.202-.029-.085-.046-.084-.014-.071.06-.082.04-.016.046.017.031.024.03.036.046.032.03.033.036.055.006.078.04.112.135.29-.039.159v.08l-.025.073-.095.011-.076-.07-.029-.143-.017-.15zM53.266 44.342l-.044.041L53 44.5l.347-.447L53.5 44l-.085.147-.15.195zm-.08-.96l-.059.07L53 43.5l.11-.17.024-.047.02-.055.04-.093.067-.135h.087l-.047.154-.044.108.006-.007.065-.035.172-.052-.045.12.026.057-.066.041h-.053l-.062.016-.095.05-.02-.07zm1.701-.111l.077.086.036.316-.052.378-.046.109-.273.393.018-.075-.056.07-.187.192-.04.026.086-.04-.272.217-.089.057-.03-.026-.012-.006-.036.023.027-.027-.038-.017.124-.07.467-.47.064.034.032-.14-.006-.029-.031-.04.162-.25.026-.066.003-.23-.003-.084.023-.02-.061-.103-.027-.09.02-.041-.027-.032-.05-.157-.04-.057-.07-.043.056-.059.126.06.06.107.04.104zm39.46-26.93l-.062.128-.05.034.069.01v.027l-.02.098-.085.122-.139.24-.06-.078.066-.125.081-.164.028-.082.026-.041-.026-.077.052-.101.058-.123.036-.107.042-.055.046-.047.091.026-.017.095-.137.22zm-2.905-6.947l.035.038-.025-.061-.067-.102-.006.002-.007.014.001.032-.005.05.074.027zM56.784 42.058l.048-.058.168.178v.136l-.066.051-.03.012-.904.073.167-.195.324-.102.2-.001.04-.014.026-.03.027-.05zm17.328 19.963l.09-.021.102.037.07.078.011.078-.008.035.123-.029-.145.118-.046.183-.022-.129-.131.04.02-.12.03-.018.062-.018-.004-.02-.035-.066-.06-.035-.018-.002-.02.004-.131.016.112-.131zm3.016-1.014l.105-.007.042.099-.025.04-.068.064-.115.062-.067-.1.127-.158zm-1.417.01L75.74 61l.014.02.015.006.024.026.03.064.007.07.005-.01.02-.078.042.011.006.02.012.004-.007.017.011.045.007.068.028-.046.046.063-.029.132-.043-.064-.006-.019-.005.046-.044-.002-.01-.044-.029-.057v-.006l.002.052-.03.114-.027-.113-.01-.019-.017.025.019.05v.086l-.068.107-.083.079-.184.117.002.021-.192.123.002.029-.02-.017-.092.06.051-.098-.005-.01-.004.003-.01.03-.029.041-.035.023L75 62l.02-.185.038-.024.031.024h.013l.01-.01.051-.1.004-.026.007.024h.006l.008-.043.01.05.031.056.005.026.012-.022-.01-.022-.007-.056.01-.059.019-.054h.033l.022.04.019-.002.074-.047.016.065.001.011.058-.107.037-.032.023.03.048-.057.013-.034-.013-.019-.017-.032-.056-.16.097.059.002-.04-.038-.01.028-.212h.053v.044l.01.009.02.076.007.017.003-.079.013-.083zm1.848.193l.278-.175L78 61v.08l-.03.026-.03.013-.037.007-.058.048-.282.112-.019-.033-.021.019-.085.031-.029.026-.021.04-.048.131-.047-.145-.022-.012-.271-.001.225-.099.206-.061.133-.02-.005.048zm.792-1.116l.115-.094.034.12-.011.049-.054.078-.16.153-.275.1.35-.406zm-3.729-4.43l.05-.094.328.221-.189.05-.123.122-.091.037-.095-.029-.279-.2-.056-.056-.05-.077-.046-.139-.037-.172L74 55l.132.129.026.05.07.266.048.086.061.059.086.045.137.037.062-.008zm-2.616-9.57l.107-.094.105.078.028.041.039.028.127.067-.184.064-.111.056-.117-.07.006-.17z" fill="#FFD43A"/><path d="M49.643 34.354c-.87 1.002-2.29 1.002-3.16 0 0 0-11.483-13.252-11.483-21.29C35 5.85 40.849 0 48.063 0c7.215 0 13.064 5.85 13.064 13.063 0 8.039-11.484 21.29-11.484 21.29zM43.666 17.7l-.379 3.13a8.93 8.93 0 0 0 3.228 1.001l-.007 1.897 2.582-.016.008-2.022c1.993-.575 3.18-2.27 3.19-4.355.009-2.377-1.937-3.699-4.191-4.54-.832-.286-1.542-.657-1.62-1.49-.057-.834.413-1.608 1.45-1.676.448-.025 1.363-.05 2.966.607l.378-2.88c-.873-.307-1.564-.47-2.112-.55l.008-1.875-2.582.015-.008 2.001c-1.832.574-3.039 2.27-3.047 4.376-.01 2.5 2.017 3.677 4.291 4.517.812.287 1.44.659 1.497 1.513.08.812-.657 1.442-1.51 1.51-.672.067-2.48.036-4.142-1.163z" fill="#FF4489" fill-rule="nonzero"/></g></svg>