<svg width="62" height="71" viewBox="0 0 62 71" xmlns="http://www.w3.org/2000/svg"><title>Group 16</title><g fill="none" fill-rule="evenodd"><path d="M21.076 67.087l-.002.043.048.104-.002.026-.005.003-.004-.003-.019-.075-.033-.074-.012-.022-.269.024-.008-.062-.014-.079-.013-.156-.034-.094-.04-.066-.05-.036-.098-.007.003.08-.074-.06-.03-.062-.006-.033.01-.208-.01-.058-.056-.123-.017-.063.046-.075.022.014.015-.09-.057-.35-.028-.09-.035-.045-.065-.235-.107-.184-.397-.55-.236-.179-.161-.171-.042-.032-.18-.111-.113-.147-.142-.111-.136-.092-.048-.018.09.078.086.065.085.082.062.08-.106.018-.07-.03-.034.01-.009.028-.048.022-.044.027-.044-.008-.032-.054-.035-.007-.09-.08-.051-.025-.044-.03-.033-.075-.005-.033-.039-.037-.037-.064-.018-.008-.043-.074-.004-.07-.009-.023-.022-.027-.064-.068-.017-.084-.023-.057-.013-.023-.066-.002.003-.048-.018-.01-.042-.01-.025.015.01.026.008.056-.059.006-.034-.032-.012.009-.027-.056v-.001l-.026.008.02.073-.034.014.02.046-.084-.013.002.007.033.028-.087-.005-.032.022-.037-.031-.04-.012-.043-.022-.068-.022-.019-.028-.032-.005-.014-.006-.016.007-.042.009-.014-.022-.025-.007-.01-.052-.018-.027-.02-.048.024-.05.03-.02v-.02l.01-.01.029-.02.008-.03v-.047l-.015-.027-.007-.023-.122-.322-.104-.16-.078-.07-.071-.049-.033.003-.032-.01-.033.016-.028-.01-.023.001-.016.01-.09-.003-.076-.008-.006.004-.015.027-.048-.007-.037.008-.07-.01-.037.004-.017.017-.076.012-.003.013-.01.01-.002.017-.027.012-.003.01-.015.01-.02.019-.014-.023-.06-.069-.054-.037-.021-.002-.04-.011-.045-.002-.028-.006h-.002l-.033-.001-.02-.014-.01-.002-.02.009-.057-.018-.07-.041-.045-.017-.033-.002-.083-.058-.066-.01-.078-.047-.027.025-.087-.032-.169-.13-.036-.012-.032.002-.016-.038-.015-.02-.03-.06-.019-.042-.046-.096-.012-.042.004-.007-.017-.073-.027-.038-.017-.011-.032.01-.11-.075-.028-.042-.05-.045-.03.007-.031-.003-.013-.023-.016-.023-.045-.038-.036-.037-.029.005-.033-.057-.012-.012-.008-.001-.013.01-.028-.003-.032-.033-.008-.004-.015-.001-.053-.01-.012-.017-.016-.009-.023-.002-.066-.061-.034.007-.023-.005-.034-.018-.044-.004-.01.006-.024.001-.028.01-.058-.004-.046.005-.017.008.006.02-.039.013-.002.005-.03.018h-.04l-.048-.01-.024-.015-.028-.007-.08-.036-.005.01-.005.068-.088-.024-.03-.047-.01.022-.015.02-.042-.025-.031-.002-.01.004-.02.011-.017-.016-.026-.033-.029-.008-.052-.04-.03-.006-.039.006-.03-.008-.02-.018-.046-.027-.017.001-.053-.035-.03.01-.043-.02-.15.015-.114-.046-.099.009-.333.004-.356.057h-.046l-.032.035-.076-.038-.056-.146-.046-.091-.066-.042-.06-.021-.049-.037-.038-.003-.08.008-.055-.048-.024-.044-.01-.045.017-.058.032-.092.045-.105.022-.065.006-.07-.064-.125-.04-.057.033-.09.028-.122.009-.118-.01-.017-.03-.017-.026-.037-.01-.043-.011-.008-.043.01-.025-.05v-.015l.018-.08.065-.233.024-.113.007-.123-.013-.115-.023-.09-.02-.017-.007-.01h-.027l-.034-.016-.066-.064-.099-.01v.03l-.027.033-.043-.012-.067-.061-.164-.083-.073-.07-.029-.036-.037-.063.01-.099.023-.041.05-.146.013-.092-.007.003-.015-.148-.04-.083-.046-.04-.102.005-.05-.037-.05-.01-.066-.002-.179-.2-.095-.114-.076-.163-.032-.014-.048-.082-.02-.024-.019-.006.002.007-.042.024-.068-.06-.093-.031-.044-.022-.071-.003-.001-.075-.024-.048-.046-.057-.024-.174-.034-.066-.086-.08-.05-.038-.064-.084-.008-.024-.029-.013-.045-.036-.067-.069.001-.059-.025-.035-.017-.061-.031-.17-.039-.06-.037-.02-.047-.015-.077-.019-.048-.06-.033-.063-.004-.035-.029-.024-.036-.05-.03-.092-.03-.031-.045-.07-.051-.062-.045-.033-.029-.036-.064-.05-.179-.117-.032.008-.054-.034-.034-.042-.028-.078-.01-.013-.03-.013-.033-.03-.015-.024-.067-.021.017-.053-.004-.051.01-.015v-.007l-.01-.019-.017-.063-.007-.053.004-.027-.002-.006-.006-.025-.018-.029-.01-.048.006-.024-.006-.017-.03-.065-.006-.043L7.64 54l-.025-.092.011-.018-.004-.021v-.01l-.038-.021.013-.054.041-.005.021.003.007-.001-.001-.004-.006-.001-.016-.046.008-.01-.005.002-.008-.02-.01.015-.066-.046-.03-.027-.018-.067.047-.005v-.003l.022-.078.03-.03.007.006.007-.02.007-.035.02-.03.048.01.032.022.002.017.009.007.035.014.036.058.023-.015.04-.041.037-.045.061-.155.012-.119.018-.091-.002-.001.016-.117.021-.085-.036-.095-.152-.31-.07-.09-.045-.043-.07-.025-.027.016-.036.043-.025.012-.008.008-.102-.028h-.016l-.008.046-.044-.012-.03.016-.057-.005-.046-.007-.078-.018-.04-.025-.038-.008-.01-.01-.013-.023-.027-.006-.069-.065-.082-.082-.045-.02-.017-.058-.07-.067-.08-.133-.035-.04-.018-.01-.014.001-.037.014-.054-.035.004-.06-.057-.051-.005-.045-.017-.031-.027-.02-.042.002-.033-.066-.016-.105-.016-.025-.006-.077.023-.059.025-.294-.019-.013-.01-.047-.047-.106-.043-.113-.013-.13-.031-.056-.031-.016h-.013l-.002.015-.052.037-.01-.06-.031-.035-.025-.08.015-.1-.014-.045.003-.05-.025-.034.042-.014.015-.014H6.1l.018-.082v-.005l.003-.12-.02-.128-.017-.073-.015-.097-.005-.116.043-.03.025-.003.018-.007.028-.075H6.17l-.047.02-.026-.015-.012.004-.032.038-.044-.065-.025-.02-.068-.072-.045-.023-.03-.037-.053-.014-.067-.075-.061-.022-.027.006-.019.013-.019.046-.057-.046-.048-.012-.02-.068-.031-.034-.049-.02-.047-.045-.04-.09-.04-.035-.027-.04-.044-.027-.182-.087-.035-.01.007.016h-.04l-.034.004-.028.012-.035.032-.006.02.012.002.094.052-.108.02-.068-.014-.05.002-.074-.01.05-.066h.011l.063-.151.11-.326-.002-.063-.01-.03-.03-.026v-.06l-.019-.025-.027-.045-.03-.034-.019-.107.085.05v-.025l-.013-.045-.031-.036-.041-.06-.064-.053-.023.001-.004.008-.005.034-.016.007-.048.013-.05-.121.022-.087-.005-.037-.02-.039.022-.013-.025.006-.018-.056-.024-.016-.018-.06-.03-.03-.031-.06-.012-.04-.107-.096-.228-.116-.054-.063-.084-.067-.03-.03-.066-.038-.013-.071-.03-.029-.034-.015-.015-.05-.083-.106-.033-.078-.054-.042-.005-.035-.149-.162-.089-.038-.04-.092-.057-.038-.02-.041-.076-.04-.061-.076-.09-.083-.039-.077-.091-.096-.036-.045-.049-.019-.003-.062-.053-.1.066-.024.053-.096.037-.122-.015-.105-.07-.25-.049-.039.007-.06-.086-.124-.028-.1-.033-.162-.04-.037.016-.067-.022-.023.002-.072-.052-.082.012-.214.011-.138.05-.17.067-.156.01-.033.001-.06-.047-.121v-.205l-.01-.037v-.04l-.014-.05-.03-.059-.04-.02-.024-.05-.001-.055-.02-.071.001-.076-.042-.163-.068-.038-.08-.085-.06-.145-.07-.064-.062-.132-.057-.05-.062-.091-.028-.034-.028-.02-.023-.01-.034.009-.036-.04-.013-.039v-.083l-.017-.056-.071-.098-.056-.028-.133-.05-.102-.135-.09-.063-.181-.154-.017-.035-.043-.022-.064-.079.01-.082.031-.128-.043-.095-.004-.11-.086-.14-.033-.11.04-.086.024-.084.006-.03-.006-.037.047-.106.056-.151.073-.138.009-.044.021-.03.005-.002-.01-.017.057-.124.057-.097.052-.112.052-.127.005.007.042-.07.109-.22.116-.318.062-.283-.003-.083-.005-.008-.011-.002-.028.008-.04-.037-.013-.033-.006-.054-.015-.036-.016-.051v-.056l-.01-.067.005-.04.037-.025.018.004.05-.13.03-.139.06-.25.024-.187.04-.21.014-.13-.037-.194-.018-.125.029-.05-.006-.002-.03-.024-.027-.032-.022-.05-.003-.035.004-.093-.03-.048-.072-.18.004-.061-.02-.093-.033-.098-.056-.027-.007.003-.027.035-.106-.105-.093-.057.011-.075.04-.02.034-.065.039-.13.02-.148.024-.254-.004-.035-.023-.081-.01-.035-.048-.037-.067-.061-.033-.037-.051-.004-.121-.172-.042-.025-.031-.07.014-.07-.032-.066.007-.093-.034-.082-.007-.08-.038-.062-.056-.042.009-.052.002-.129-.033-.068-.013-.008-.019-.048.007-.08.012-.048-.003-.124.006-.082-.045-.08.05-.063.003-.04.005-.096.042-.119.028-.153-.01-.066-.014-.036.01-.08-.039-.163-.024-.025-.037-.023-.046-.042-.037-.067-.014-.091-.034-.018-.046.006-.037-.068-.046-.206-.016-.038-.024-.03-.073-.047.074-.062.148-.31.13-.373.019-.094.007-.068.03-.176.02-.02-.006-.055v-.004l.087-.45-.022-.131-.021-.047.08-.135.05-.009.055-.041.06.021.007.024.008-.042.029-.039.03-.021.012-.04-.086.117-.072-.028.115-.223.166-.498.035-.134.038-.27.033-.035.069-.035.02-.032-.036.031-.079.034.084-.36.068-.45.04-.425.037-.023.007-.022-.036-.098v-.046l.053-.561v-.221l.019-.146-.002-.013-.016-.04-.001-.022.001-.01.01-.03.028-.048.042-.321.008-.189-.008-.134.058-.434-.023-.034.012-.054.013-.037.01-.043.002-.032-.005-.012-.026-.004-.035-.031.03-.03.014-.047.021-.126-.003-.072-.015-.063-.024-.057.02-.114.006-.077.032-.06.017-.07.032-.077.008-.108.027-.026.01-.015v-.027l-.022-.033.004-.04.027-.097.01-.112.016-.168-.03-.042.007-.055.027-.07.054-.088.022-.104.013-.08.006-.19-.021-.047.031-.172.013-.153-.027-.107-.029-.013-.057-.007v-.067l.064-.023.016-.034.013-.113.029-.096.01-.027.057.03-.013.037-.004.034.022-.04.021-.028-.083-.054-.048-.08.001-.065-.026-.047-.042-.017-.015-.085L2 21l.032.029.055-.017-.007.05.01.067.006.005.029-.074.013-.13.022-.052-.037-.04.02-.072.02-.117.008-.113.013-.013-.007-.047.005-.127-.011-.102-.012-.026-.045-.03-.02-.05.001-.007-.029.01-.007-.07.006-.009.033-.048.004-.05.021-.082.007-.22-.009-.092-.025-.075-.064-.086.038-.062.02-.015.024-.057.081-.049.012-.041.013-.077-.036-.265-.037-.148-.107-.313-.097-.132.032-.04.063-.015.064.07-.02.028.01.013.035-.001.054.024.086.068.012.023.002-.001.04.012.01.046.073.028.044-.005-.017-.016-.033-.017-.03-.053.07-.025.044-.003.041.002.055-.014.05-.03.052-.017.044.044.069.093.045-.002.22-.055-.01-.003-.002-.067.058-.027.067.01.036-.032.06-.037.018-.037.064-.007.064.01.021.007-.01-.046.01-.057.058.01.045.044.022.026-.028-.044-.025-.03-.051-.028-.336.062-.18-.045-.017-.037-.02-.065-.034-.03-.01.003-.046.012-.005.035-.045.016-.026-.007-.027.046-.02.02-.056-.005-.036-.035h-.02l-.017.028-.01.029h-.047l-.018.026-.022.005-.008.025-.026.017-.036.042-.06-.01-.053-.018-.06-.029-.039-.05-.027-.026-.05-.097-.04-.048-.06-.015-.019-.002-.023.028-.02.007-.014.02-.004.019.023.015.014.036-.024.04-.054-.007-.011-.005-.044.04-.037-.042.01-.102.023-.114.013-.13.005-.124.003-.207-.005-.62-.028-.19.048-.091.057.066.054.076-.027.034.013.052.032.06.024.1-.007.093.01.004.003.002.006.003.019.018.02.013.013.006.004.036.009.029.049.033-.045-.017-.023-.037-.008-.01-.051-.009-.007.048-.003-.063-.011.158.01.286.02.12.035.012.043-.01.035.012.02-.065-.035.03-.036-.165-.069-.058.023-.094v-.062l.047-.067.047.043.007.033.015.013.033.05.002-.101.044-.039.04-.024.014-.014.009-.023.003-.037-.004-.044-.017-.036-.046-.103-.065-.097-.057-.122.11.032.044.033-.022-.043-.019-.123.002-.007.035-.107.102-.045.105-.021.025.009-.037-.05-.07-.056-.047-.02-.029-.026-.007.005-.002.063-.14.016-.041-.04-.006.027.012.021.057.03-.065.06-.05-.023-.043-.003-.037-.02-.036-.009-.015-.033-.175-.093-.023-.09-.002-.189-.035-.157-.046-.152.016-.067.057-.077.09.077-.02.092.053.078.003.012.008-.079.026-.074.05-.036.075-.006.036-.016.076-.055.225-.097.093-.034-.051-.03-.229.006-.063-.063-.114.002-.028-.066.017-.06-.03-.058-.095-.034-.063-.013-.064-.007-.047.023-.016.03.004.019.026.062-.005.106.005.032.025.06.026-.004.037.028-.006.105-.079-.056-.032-.01-.013.004-.004.005v.04l-.042.017-.084.017.015-.075-.002-.024.002-.049.01-.111v-.241l-.02-.26-.06-.342-.028-.137-.048-.157-.036-.095-.02-.031-.067-.005-.017-.057-.053-.144h-.007l-.04-.03-.086-.587-.006-.194-.065-.241-.024-.117-.074-.209-.015-.158-.014-.049-.03-.01-.037-.033-.025-.046-.058-.068-.018-.136-.155-.085-.071-.143-.053-.02-.055.006-.09-.156-.049-.189-.043-.15-.031-.153-.03-.196.012-.102-.089-.198L0 10.42l.057-.033.046-.057.026-.08v-.012l-.012-.022-.033-.096.012-.037.04-.011.012-.029-.002-.085.014-.048.039-.063.004-.02L.18 9.81l.002-.03-.045-.02-.083-.086-.037-.066.01-.094.11-.018.171.036.052.06.012.003.04-.035.07.027.118.084.2.136.16.095.139.05.043.026.098.056.048.014.063-.024.071.02.191.109.139.072.032.065.125.088.145.02.067.027h.069l.073.014.127.003.03.02.115-.018.08.031.12-.026.122-.022.175.062.02.038.11.02.046-.043.051-.023.067.037.026.035.04.008.071-.004.113-.037.057.002.135.05-.162.02-.032.011.046.018.197.005.069.008.095-.015.107.012.052-.023.14-.169.064-.06.257-.061-.178.12-.04.047.092.01.065.089.074.046.068.147-.013.101.033.046.043.02-.02-.139.024-.073.13-.027.051-.002.053.016.022.055.007.054.006.005h.024l.015.005.034.015.043.057.047.095.007.057.028-.074-.027-.05-.112-.128-.014-.055.014-.074.029-.058.045-.028.089-.027.086-.043h.082l.072.131-.043.034-.066.037-.01.015-.002.042.018.035.025.03.012.028.019.063.113.203.017.02.054.037.024.033.008.033.009.09.01.024.144.2.02.06-.042.032-.101.008-.016.024-.02.073-.024.049-.123.16-.036.076-.048.146-.018.082-.006.057-.014.055-.03.037-.038.023-.04.007-.067-.029-.002-.066.032-.082.048-.257v-.008l.002-.108-.002-.018v.003l-.01.086-.087.077.046.104-.072.063-.039.097-.03.088-.043.055-.017.096-.037.033-.029.01-.027.025-.213.278-.03.06-.09.233-.042.059-.06.058-.043.057-.037.146-.068.163-.006.044.065.05.14-.015.457-.202.088-.058.051-.053-.024-.006-.1.047-.185.13-.216.102-.128-.001-.071-.116.012-.074.03-.06.079-.114.02-.036.11-.266.21-.313.038-.023.169-.115.21-.086.055-.033.026-.027.016-.049.038-.178.026-.068.273-.401.04-.04.037-.016.073.019.008.052-.007.033.005.012.02.005.005-.03-.012-.088-.046-.192-.01-.027-.052-.104-.015-.095.21.132.079.07.03.107.004.066.017.133.013.034.031.042.013.051-.028.047.034.02.03.03.02.043.002.053-.016.04-.031.057-.031.008-.002.008.004.064.016.05.014.026-.003.033-.02.059-.062-.245-.094-.022-.017.004.004.03-.007.018.045.016.03.022.03.031.023.042.014.132.014.05.037.04-.05.065.015.018-.001.034.01.019.008.048.006.009.049.023-.049.048-.033.051-.087-.016-.053-.078.032.083.004.1.016.041.078.032-.003.035.08-.042-.026-.04.015-.021.024.025.044-.009.011.003-.106.07-.044.043-.003.033-.015.037.016.02h-.01l-.012-.006-.015.035-.028.11-.013.064-.037.1-.01.074.041.071.012-.024.022-.308.017-.048.043-.067.06-.062.094-.046-.031.104.005.012.026.023.023.044.006.043.003.085.007.034.03.06.04.03.047.024.117.087-.086.004-.11.047-.083.09-.083.07-.014-.035-.012-.043v.008l-.02.045-.027.03-.04-.006-.028-.027-.031-.048-.008-.027-.03.04-.043.03-.019.006.058.122.01.067v-.013l.004-.007-.001-.16.09.081.091.06.1.087.028.009.026-.013.024-.022-.02-.015-.038-.039-.007-.049.028-.058.034-.037.054-.038.056-.028.084-.026.022-.031.012-.054-.005-.066-.02-.05-.076-.106-.017-.058v-.175l-.008-.038-.029-.05-.02-.045-.053-.187-.006-.048.018-.035.043-.058.06-.018.05.074.012.025.004-.035.002-.043-.012-.043-.031-.04-.117-.053-.036-.026-.034-.055-.015-.037.02-.037.03-.01.008-.018.007-.038.018-.035.042-.068.007-.037-.016-.12-.029-.044-.023-.066.007-.097.012-.059.022-.06.033-.057.078-.067.03-.058.017-.158.024-.058.002-.036.017-.042.021-.022.06-.047.012-.015.037-.027.09-.02.019-.018.05-.032.008-.042.005-.066.036-.041-.014-.01-.01-.008L6.902 11l-.053.057-.209-.176-.095-.11-.063-.141-.015-.152.005-.127-.022-.078-.102-.045-.018-.013-.024-.02h-.001l-.008.023.008.092-.008.008-.05.038-.006.047.01.07.019.056.024.036.042.045.042.037.037.016.055.037.04.065.075.167-.097.003-.044-.04-.051-.086-.022-.021-.227-.173-.064-.08-.043-.096-.021-.11v-.016l.005-.087-.009-.14.024-.007.095-.013.088-.028.061-.006.055.01.042.043.026.044-.008-.024.012-.055.036-.073-.007-.018-.007-.044-.01-.024-.013-.02-.088-.079-.083-.052-.062-.069-.028-.018-.038-.01-.047-.005-.043-.037-.052-.106-.042-.04v-.052l.033-.035v-.001l-.047-.011-.008.006-.041.07-.033.036-.047.02-.05.008-.053-.013-.043-.044-.03-.078.022-.054.023-.023.01-.027-.012-.057-.025-.018-.04-.01-.037-.033.012-.08.057-.012.042.004.028-.014.089-.067.073.091.04.095v-.034l.06-.036.067.047.065.088.027.022.022.006.016-.009.016-.027.001-.015-.013-.065-.01-.119-.014-.057-.024-.055-.03-.05-.11-.08-.056-.068.103-.025.074.03.106.094.032.015.035-.02.016-.061-.01-.085-.034-.076-.016-.015-.055-.032-.027-.043-.012-.042-.007-.046-.05-.042-.02-.009L6 8.227l.05-.034.056-.114-.02-.052-.052-.047-.062-.033-.042-.01-.037.019-.04.059-.085.154-.049.03-.048-.037-.022-.046-.009-.053.016-.036.039-.047-.019-.045-.046-.06-.023-.014-.08.176.03-.259-.007-.055-.024-.037-.124-.118-.028-.042-.013-.058.016-.06.054-.07-.023-.05-.139.006-.022-.105.048-.06.079-.013.086.016-.012-.032L5.4 7H56.52l.024 16.026-.003.075h-.046l.002 1.419v.483l.003 1.912-.002.476.008 4.702-.001.465v3.23l.001.457-.003 1.798h5.464L62 52.204h-2.623l.001 1.707-.113.002v.036l-.065 14.88-9.816.006v.022l.056.112.017.074.007.077.018.047.077.113-.022.025.011.023.019.02.024.013.043.01.036.023.133.14-.022.023-.007.018-.025-.01-4.604-.012v1.447h-2.298L40.223 71h-2.722l-.169-.02-1.204-.456-6.702-2.448-2.384-.878.056-.059.037-.127.002-.06-.025-.072.069-.127.08-.075.029-.052.021-.053.011-.048-6.246.562zM1.008 29.02l-.008.01.005-.018L1 29l.007.008.016-.008-.01.014.007.007.007-.013.027-.008-.004.042-.023.004.017.088.047.043-.058-.016-.018-.002-.008-.023v-.087h-.002L1 29.05l.007-.004.001-.024v-.001zm4.368-14.498l-.02.029-.003.009.007.01.024.05.02.03.068.034.037.04.031.061.067-.04.087-.09.22-.327.056-.13.035-.142v-.026L6 14.038v.004l-.04.106-.069-.004-.211-.095-.087-.067.013-.06.04-.039.02-.048.024-.072.04-.057.018-.042-.026.026-.09.047-.019.02-.016.026-.032.035-.028.015-.007.062-.015.045-.041.072-.009.04.012.047.07.12-.006.041-.022.026-.034.07.008.03-.001.04-.114.104-.003-.007zm-.082-.151l-.003-.006-.011-.046-.054-.041-.021.065-.002.075-.037.07.013-.01.03.078-.004.05-.006.014.017-.009.012-.01-.004-.068.034-.05.018.011.004-.014.014-.109zm-.048-.23v-.078l.013-.006.009-.058.018.045.018-.009.02-.05.006-.073-.001-.109-.004-.028-.013-.049-.014-.022-.025-.022-.036.16-.032.087-.026.026.052-.038-.04.133-.037.027-.003.029v.05l-.003.043.058.092v.006l.035-.12.005-.036zM6.22 2.017L6.187 2l-.112.048-.058.082L6 2.238l.067.147-.045.09L6 2.6l.02.13.062.053.078.024.027.02-.024.12.248.052.058-.075.031-.113-.008-.107-.066-.151-.065.102-.01-.002-.02-.047-.01-.087v-.03l.009-.002.073-.04.014-.071.031-.039.052-.05-.132-.13-.018-.04-.039-.053-.038-.02L6.259 2l-.04.017zM6.192 4l-.041-.084-.01-.01-.019-.008-.036-.024-.032-.03-.025-.035L6 3.711l.013-.093.194-.442.032-.102.07.002.024-.014.03-.037L6.405 3l.034.073.006.033.01.013.002.01.003.07.145.137-.005.13-.04.052-.05.013-.05-.024-.042-.056-.018-.017-.017.017-.024.062-.034.117-.03-.075v.026l-.009.061-.05.041-.101.025.006.01.019.003.074-.025.042.014.053.036.024.008.059.03.04.079.023.087.029.178.01.218.018.184.01.018.008-.005.022-.074-.028-.085-.003-.095.04-.074.072.065.038.056.038.044.19.157.036.065.014.09.031.107-.013.034-.012.013-.065.136L6.892 5l-.04-.002-.009-.047-.033.018-.048.012-.027-.037-.005-.092-.015-.084-.022-.062-.024-.023-.01.002-.049.057-.027.02-.043-.006-.026-.023-.023-.033.009.094L6.435 5l-.173-.007-.116-.164-.085-.199-.034-.123L6 4.317l.02-.13.088-.007-.065-.079.12-.101h.03zm.079.014l.063.066.022.063.007-.045-.014-.08-.024-.025L6.29 4l-.02.015zM5.105 2.627l-.055-.169L5 2.141l.101-.104L5.257 2l.142.072.039.067.07.07.077.056.146.054.087.126.134.051-.024.072-.064.07-.062.035-.033-.013-.004.018.002.003.078.13.029.023.032.02.094.033V3l-.11-.047-.032.002-.043.013-.08.011-.077-.016-.044-.037-.032-.039-.035-.033-.049-.029-.087.007-.054-.009L5.29 2.8l-.063-.032-.048-.037-.048-.059-.026-.045zM5 .001L5.5 0l-.15.203-.325.16-.014-.29L5 .002zM5 1.59l.023-.055.088-.147.04-.037.022-.015.161-.3.056-.03L5.46 1l.147.032.393.345-.031.122-.021.034-.144.158-.006.017-.005.057-.017.061-.067.027-.053-.047-.034-.06-.085-.217-.053-.245-.005-.054-.01-.036-.008-.007-.005.002-.008.04.005.072.007.034.004.056-.013.052.165.423-.068.093-.054.03L5.389 2l-.07-.04-.033-.087-.017-.094-.015-.056-.056-.075-.004.101-.015.113-.045.1-.069-.099-.046-.103L5 1.675V1.59zm1.152-.043l-.075-.148-.057-.07L6 1.208 6.032 1l.117.072.142.344.055.06.052.073.045.102.016.049.026.096.015.148L6.428 2l-.087-.095-.072-.102-.03-.057-.087-.199zm9.784 60.732l.063.07.001.07-.061.051-.059.005-.063.02-.076-.002-.032.007-.107-.02-.046.007-.048-.022-.08-.007-.053-.034-.128-.02-.17-.11v-.032l-.05-.04.012-.042-.039-.066.03-.084.125.05.057-.037h.051l.082-.043.151.074.076.047.054-.006.051.027.134.047.125.09zM1.033 39l.005.018-.006.016-.018.007-.014.01.033-.051zm-.03 0l.003.002-.006.005.004-.007zm.01.132L1 39.124l.029-.08.025-.044.007.02-.01.036.023.047v.01l-.01.002-.017.022-.034-.005z" fill="#FFD43A"/><path d="M33.643 43.354c-.87 1.002-2.29 1.002-3.16 0 0 0-11.483-13.252-11.483-21.29C19 14.85 24.849 9 32.063 9c7.215 0 13.064 5.85 13.064 13.063 0 8.039-11.484 21.29-11.484 21.29zM27.666 26.7l-.379 3.13a8.93 8.93 0 0 0 3.228 1.001l-.007 1.897 2.582-.016.008-2.022c1.993-.575 3.18-2.27 3.19-4.355.009-2.377-1.937-3.699-4.191-4.54-.832-.286-1.542-.657-1.62-1.49-.057-.834.413-1.608 1.45-1.676.448-.025 1.363-.05 2.966.607l.378-2.88c-.873-.307-1.564-.47-2.112-.55l.008-1.875-2.582.015-.008 2.001c-1.832.574-3.039 2.27-3.047 4.376-.01 2.5 2.017 3.677 4.291 4.517.812.287 1.44.659 1.497 1.513.08.812-.657 1.442-1.51 1.51-.672.067-2.48.036-4.142-1.163z" fill="#FF4489" fill-rule="nonzero"/></g></svg>