<?xml version="1.0" encoding="UTF-8"?>
<svg width="222px" height="166px" viewBox="0 0 222 166" version="1.1" xmlns="http://www.w3.org/2000/svg" xmlns:xlink="http://www.w3.org/1999/xlink">
    <!-- Generator: Sketch 46.2 (44496) - http://www.bohemiancoding.com/sketch -->
    <title>Hand_Illustration</title>
    <desc>Created with Sketch.</desc>
    <defs>
        <polygon id="path-1" points="6.31218617 6.225 0.169217944 6.225 0.169217944 0.081423 6.31218617 0.081423"></polygon>
        <polygon id="path-3" points="37.4134318 0.413516289 37.4134318 51.1900425 0.0241917757 51.1900425 0.0241917757 0.413516289"></polygon>
        <polygon id="path-5" points="0 33.2857701 0 0.228882907 61.3249414 0.228882907 61.3249414 33.2857701"></polygon>
        <polygon id="path-7" points="0.357335263 0.395495 9.58225606 0.395495 9.58225606 9.621258 0.357335263 9.621258 0.357335263 0.395495"></polygon>
    </defs>
    <g id="Index" stroke="none" stroke-width="1" fill="none" fill-rule="evenodd">
        <g id="1920_AVCO_Vacations_by_State" transform="translate(-340.000000, -705.000000)">
            <g id="Content" transform="translate(280.000000, 92.000000)">
                <g id="Subheader" transform="translate(60.000000, 613.000000)">
                    <g id="Hand_Illustration">
                        <path d="M119.876224,159.460845 C119.028889,159.460845 118.340482,158.77236 118.340482,157.92493 C118.340482,157.0775 119.028889,156.389015 119.876224,156.389015 C120.723559,156.389015 121.411966,157.0775 121.411966,157.92493 C121.411966,158.77236 120.723559,159.460845 119.876224,159.460845 M119.876224,153.31677 C117.335465,153.31677 115.268583,155.383885 115.268583,157.92493 C115.268583,160.46556 117.335465,162.53226 119.876224,162.53226 C122.416568,162.53226 124.48345,160.46556 124.48345,157.92493 C124.48345,155.383885 122.416568,153.31677 119.876224,153.31677" id="Fill-1" fill="#FFA63A"></path>
                        <g id="Group-5" transform="translate(129.465421, 159.379505)">
                            <mask id="mask-2" fill="white">
                                <use xlink:href="#path-1"></use>
                            </mask>
                            <g id="Clip-4"></g>
                            <path d="M3.24070206,4.177058 C2.67595065,4.177058 2.21701234,3.718068 2.21701234,3.152838 C2.21701234,2.588023 2.67595065,2.129033 3.24070206,2.129033 C3.80586841,2.129033 4.26480673,2.588023 4.26480673,3.152838 C4.26480673,3.718068 3.80586841,4.177058 3.24070206,4.177058 M3.24070206,0.081423 C1.5468628,0.081423 0.169217944,1.459223 0.169217944,3.152838 C0.169217944,4.846868 1.5468628,6.225083 3.24070206,6.225083 C4.93454131,6.225083 6.31218617,4.846868 6.31218617,3.152838 C6.31218617,1.459223 4.93454131,0.081423 3.24070206,0.081423" id="Fill-3" fill="#FFA63A" mask="url(#mask-2)"></path>
                        </g>
                        <polygon id="Fill-6" fill="#FF4489" points="206.802461 74.853965 217.364681 63.130215 221.040338 68.05253"></polygon>
                        <polygon id="Fill-8" fill="#FF4489" points="207.943997 67.8423325 207.281317 59.2518325 210.564842 59.6344625"></polygon>
                        <path d="M184.47117,82.880397 C170.986018,85.514817 162.189839,98.583582 164.823962,112.070252 C167.458501,125.556922 180.525379,134.354092 194.01053,131.719672 C207.495267,129.084837 216.291861,116.016487 213.657738,102.529817 C211.0232,89.043147 197.955906,80.245562 184.47117,82.880397" id="Fill-10" fill="#FFA63A"></path>
                        <g id="Group-14" transform="translate(184.239252, 80.529505)">
                            <mask id="mask-4" fill="white">
                                <use xlink:href="#path-3"></use>
                            </mask>
                            <g id="Clip-13"></g>
                            <path d="M36.9475637,20.5290125 C34.3130254,7.0427575 21.245732,-1.7544125 7.76099551,0.8795925 C3.52681234,1.7071025 1.21095813,2.1594525 0.0241917757,2.3914375 C0.147432897,2.3669525 0.231668411,2.3507675 0.231668411,2.3507675 C13.7168198,-0.2836525 26.7841133,8.5135175 29.4182366,22.0001875 C32.05236,35.4868575 23.2561806,48.5552075 9.77144411,51.1900425 L17.3003563,49.7188675 C30.7850927,47.0844475 39.5816871,34.0156825 36.9475637,20.5290125" id="Fill-12" fill="#FFD43A" mask="url(#mask-4)"></path>
                        </g>
                        <path d="M182.319388,115.370747 C186.081354,117.062287 189.685639,116.443522 190.994816,116.061722 C192.661683,115.609787 193.879571,114.116202 193.408184,112.575722 C192.967089,110.945602 191.574921,110.464617 189.85245,110.214372 C185.01285,109.444132 180.532599,107.933532 179.587751,103.095877 C178.792285,99.023067 180.534259,95.291802 183.949324,93.494437 L183.192865,89.624147 L188.313803,88.623582 L189.022958,92.252757 C190.141257,92.201297 191.576166,92.255247 193.427687,92.522092 L193.789111,98.228757 C190.352468,97.560607 188.545347,97.954442 187.666891,98.168997 C185.63196,98.691067 184.997496,100.363932 185.434442,101.953797 C185.909979,103.534532 187.463149,103.984392 189.22504,104.226337 C194.02522,105.004462 198.399657,106.828802 199.297616,111.424927 C200.084782,115.458312 198.382229,119.180862 194.64599,121.040062 L195.409919,124.952267 L190.288981,125.952417 L189.572356,122.283817 C187.760255,122.428237 185.399586,122.346067 182.775422,121.560057 L182.319388,115.370747 Z" id="Fill-15" fill="#FF4489"></path>
                        <path d="M209.100887,86.3673515 C209.100887,86.3673515 208.412065,87.1355165 207.925324,88.2875565 C207.604566,88.9631765 207.372607,89.7782365 207.225713,90.6414365 C206.3651,90.7900065 205.552207,91.0219915 204.877493,91.3402965 C203.725997,91.8262615 202.957919,92.5114265 202.957919,92.5114265 C202.957919,92.5114265 203.725997,93.1961765 204.877493,93.6817265 C205.553452,94.0012765 206.368005,94.2332615 207.230693,94.3818315 C207.379246,95.2446165 207.611205,96.0592615 207.930719,96.7348815 C208.416214,97.8869215 209.100887,98.6546715 209.100887,98.6546715 C209.100887,98.6546715 209.78556,97.8869215 210.27147,96.7348815 C210.590154,96.0600915 210.821698,95.2471065 210.970667,94.3863965 C211.833769,94.2399015 212.648738,94.0079165 213.324696,93.6871215 C214.476192,93.2003265 215.24427,92.5114265 215.24427,92.5114265 C215.24427,92.5114265 214.476192,91.8225265 213.324696,91.3353165 C212.649567,91.0149365 211.836674,90.7837815 210.975646,90.6364565 C210.828338,89.7753315 210.596794,88.9619315 210.276865,88.2875565 C209.78971,87.1355165 209.100887,86.3673515 209.100887,86.3673515" id="Fill-17" fill="#FFFFFF"></path>
                        <path d="M213.601761,99.0836155 C213.601761,99.0836155 213.25735,99.4674905 213.013772,100.043511 C212.853185,100.381736 212.737413,100.788851 212.663966,101.220451 C212.23366,101.294736 211.827836,101.410521 211.490064,101.569881 C210.914108,101.813071 210.530277,102.155446 210.530277,102.155446 C210.530277,102.155446 210.914108,102.498236 211.490064,102.741011 C211.82825,102.900371 212.23532,103.016571 212.666456,103.090856 C212.740733,103.522041 212.85692,103.929156 213.016677,104.267381 C213.259424,104.843401 213.601761,105.227276 213.601761,105.227276 C213.601761,105.227276 213.944097,104.843401 214.186845,104.267381 C214.346187,103.929986 214.461959,103.523701 214.53665,103.092931 C214.968202,103.019476 215.375271,102.903691 215.713458,102.743086 C216.289413,102.499896 216.673245,102.155446 216.673245,102.155446 C216.673245,102.155446 216.289413,101.810581 215.713458,101.567391 C215.375686,101.407201 214.969447,101.291416 214.53914,101.218376 C214.465279,100.787191 214.349921,100.380906 214.18975,100.043511 C213.946172,99.4674905 213.601761,99.0836155 213.601761,99.0836155" id="Fill-19" fill="#FFFFFF"></path>
                        <g id="Group-23" transform="translate(0.000000, 72.644505)">
                            <mask id="mask-6" fill="white">
                                <use xlink:href="#path-5"></use>
                            </mask>
                            <g id="Clip-22"></g>
                            <path d="M0.331589159,27.721004 C2.80014617,34.551904 18.3808116,35.181044 35.1324751,29.125779 C51.8837237,23.070929 63.4621649,12.624549 60.9931929,5.793649 C58.5250508,-1.037251 42.9439705,-1.666391 26.1927219,4.388874 C9.44147327,10.444139 -2.13696785,20.890104 0.331589159,27.721004" id="Fill-21" fill="#525161" mask="url(#mask-6)"></path>
                        </g>
                        <path d="M50.6017256,71.716731 C50.6017256,64.198176 53.4632434,57.348186 58.1567798,52.196791 C59.8456396,50.295676 59.6742639,47.385281 57.7737779,45.695816 C55.872877,44.006766 52.9623948,44.178576 51.273535,46.079276 C48.6796621,48.942361 46.513606,52.200526 44.8766153,55.751266 C43.8944209,58.100166 41.1963948,59.210291 38.8477593,58.227986 C36.4991237,57.246096 35.3911985,54.545691 36.3729779,52.196791 C36.8750714,51.086666 37.4186602,49.999366 38.0029144,48.936966 C39.275991,46.734976 38.5240957,43.917956 36.3215237,42.644321 C34.1193667,41.371101 31.301834,42.123911 30.0287574,44.326731 C29.108391,45.985901 28.2672807,47.695286 27.5141406,49.451151 C26.5829854,51.820386 23.9090265,52.986536 21.5400583,52.055276 C19.1710901,51.124016 18.0054864,48.448511 18.9362265,46.079276 C23.5907574,35.103771 31.1395873,25.643846 40.6196097,18.661056 C42.6470714,17.125971 43.0470864,14.239646 41.5121742,12.212371 C39.9772621,10.184681 37.0900172,9.786281 35.0629705,11.320951 C16.5539798,25.005576 4.52863402,46.981486 4.52863402,71.716731 C4.52863402,113.110491 38.2004321,146.786081 79.5891163,146.786081 C89.9853555,146.786081 99.8944396,144.661281 108.90598,140.823776 C109.97324,140.374746 111.145898,140.126991 112.376234,140.126991 C115.012432,140.126991 117.38223,141.264921 119.021711,143.076811 L119.038309,143.097561 C123.205684,147.682896 129.217113,150.561336 135.900765,150.561336 C139.380148,150.561336 142.677782,149.781136 145.62727,148.386736 C152.410096,144.803626 180.438944,147.489091 180.438944,147.489091 C185.527516,147.489091 189.653397,143.363161 189.652982,138.273601 C189.652982,133.184041 185.527101,129.058111 180.438529,129.058526 C167.715232,129.058526 157.401984,118.743286 157.401984,106.018971 C157.401984,93.295071 167.715232,82.980246 180.438529,82.980246 C182.227393,82.980246 183.968952,83.184011 185.640799,83.569961 C189.749666,84.624061 193.936129,82.150661 194.990111,78.041331 C196.043677,73.932001 193.567236,69.745896 189.457954,68.692211 C186.563655,67.992106 183.733673,67.630226 176.234223,67.630226 C167.021845,67.630226 150.138641,73.604566 139.124122,79.456896 C115.899187,91.796921 110.688619,103.779631 79.5891163,100.707386 C63.6574004,99.133706 50.6017256,87.727846 50.6017256,71.716731" id="Fill-24" fill="#FFD43A"></path>
                        <path d="M187.733242,81.138144 C185.992928,80.662554 184.166304,80.344664 182.277021,80.205639 C165.489257,78.971429 154.282199,92.644019 157.414266,106.263904 C157.413436,106.181734 157.401818,106.101639 157.401818,106.019054 C157.401818,93.295154 167.715481,82.979914 180.438363,82.979914 C182.227227,82.979914 183.969201,83.184094 185.640633,83.570044 C188.623732,84.335304 191.632143,83.225179 193.468726,80.995384 C191.714304,81.607509 189.696801,81.718729 187.733242,81.138144" id="Fill-26" fill="#FFA63A"></path>
                        <path d="M79.5892822,146.785956 C86.6567664,146.785956 93.4902168,145.782901 99.9784262,143.948186 C100.177604,143.892161 100.375951,143.835721 100.574299,143.778036 C101.342793,143.553936 102.107551,143.322366 102.865256,143.074612 C103.297222,142.934756 103.723379,142.783281 104.151611,142.635956 C104.716778,142.439661 105.283189,142.249176 105.841716,142.040016 C106.873705,141.656141 107.896979,141.253591 108.905731,140.823651 C109.973406,140.375036 111.146064,140.126452 112.3764,140.126452 C112.868535,140.126452 113.346976,140.181231 113.816288,140.259251 C114.130822,140.310711 114.430834,140.400766 114.733335,140.483767 C114.937492,140.540621 115.146628,140.583366 115.344976,140.653502 C115.783581,140.807466 116.210568,140.986746 116.615148,141.203376 C116.640045,141.216656 116.665772,141.228276 116.689839,141.241971 C117.098153,141.465241 117.48406,141.722541 117.850049,142.004326 C117.907312,142.048732 117.962086,142.095212 118.01769,142.140861 C118.37372,142.429286 118.713981,142.737216 119.021462,143.076686 L119.03806,143.097436 C123.205436,147.682772 129.217279,150.561626 135.900931,150.561626 C139.380314,150.561626 142.677533,149.781426 145.627436,148.386611 C152.409432,144.803916 180.438695,147.488967 180.438695,147.488967 C181.803892,147.488967 183.095226,147.184356 184.26083,146.651496 C183.403536,146.858581 182.503503,146.951126 181.576497,146.904231 C181.576497,146.904231 153.467978,142.779132 146.449873,146.005341 C143.406606,147.245362 140.043824,147.854166 136.537469,147.675301 C129.802363,147.330436 124.126632,143.558087 119.711114,139.370321 C118.175372,137.913256 114.432079,135.002031 113.136179,130.874441 L113.758194,136.088916 C113.626239,136.076052 113.497604,136.054471 113.363989,136.047416 C106.158325,135.679311 102.625828,136.953361 99.856015,138.632452 C99.3178206,138.958641 98.8929084,139.315126 98.5265047,139.686136 C92.5495178,140.853116 86.3389121,141.329121 79.9830729,141.003761" id="Fill-28" fill="#FFA63A"></path>
                        <path d="M79.5892822,100.707552 C77.913286,100.541967 76.2783701,100.243997 74.6778953,99.866762 C70.0163103,104.338802 66.9676486,114.924207 67.3311477,127.388732 C67.5382093,134.486477 68.8253944,141.034347 70.7993271,146.253802 C73.6849121,146.592027 76.6140673,146.785832 79.5892822,146.785832 C89.5672486,146.785832 99.0875215,144.810847 107.80486,141.260937 C108.169189,136.048122 107.660871,129.909857 106.130938,123.494372 C103.791017,113.685017 99.6211514,105.515742 95.1110243,100.893472 C90.6979963,101.326732 85.6376411,101.304737 79.5892822,100.707552" id="Fill-30" fill="#FFA63A"></path>
                        <path d="M42.4456946,28.989576 C40.4120086,30.529226 40.0115787,33.425926 41.5510553,35.460256 C43.090532,37.494171 45.9873207,37.894646 48.0210067,36.354996 C50.0546927,34.815346 50.4555376,31.918646 48.9160609,29.884316 C47.3761693,27.850401 44.4793806,27.449926 42.4456946,28.989576" id="Fill-32" fill="#FFD43A"></path>
                        <g id="Group-36" transform="translate(51.869159, 0.019505)">
                            <mask id="mask-8" fill="white">
                                <use xlink:href="#path-7"></use>
                            </mask>
                            <g id="Clip-35"></g>
                            <path d="M3.64714879,0.590379 C1.20722355,1.320779 -0.178305421,3.890874 0.55242729,6.331074 C1.28274505,8.771274 3.85255065,10.156959 6.29247589,9.426144 C8.73198617,8.695744 10.1179301,6.125649 9.38719738,3.685449 C8.65687963,1.245664 6.08707402,-0.140436 3.64714879,0.590379" id="Fill-34" fill="#FFD43A" mask="url(#mask-8)"></path>
                        </g>
                        <path d="M79.5892822,100.707552 C68.9776822,99.659677 59.6669607,94.231892 54.6153196,86.004517 C53.2277159,88.015192 51.1977645,90.083137 48.6375028,92.097962 C48.0262766,92.565667 47.2889047,92.886462 46.4718617,92.999757 C44.6796785,93.247512 42.9858393,92.429132 42.0310318,91.029337 C40.7890766,88.808257 37.9815028,88.013947 35.7606729,89.256457 C33.539428,90.498967 32.7464523,93.306857 33.9888224,95.527937 C35.3287065,97.824547 36.8573944,100.006617 38.5508187,102.038042 C40.1160224,104.044567 39.7599925,106.937947 37.7536935,108.503327 C35.7473944,110.068707 32.8518505,109.711392 31.2866467,107.704867 L31.2982654,107.722712 C27.6977159,103.361477 24.7366093,98.453272 22.5589346,93.144177 C21.8145084,90.701072 19.2330841,89.324932 16.7894243,90.069857 C14.3465944,90.814367 12.9693645,93.399402 13.7142056,95.842922 C14.1698243,96.996207 14.6532449,98.129987 15.1711065,99.250487 L15.1599028,99.257127 C15.3690393,99.684992 15.5151028,100.152697 15.5835701,100.649867 C15.8848262,102.825712 14.6105047,104.849252 12.636572,105.589612 C25.0378654,130.006137 50.3827963,146.785832 79.5892822,146.785832 C81.8960075,146.785832 84.173271,146.664237 86.4272972,146.459642 C89.3191065,140.630137 91.1075551,132.607772 91.1075551,123.746692 C91.1075551,114.942882 89.3394393,106.971147 86.4804112,101.150772 C84.3251439,101.088522 82.0462206,100.950327 79.5892822,100.707552" id="Fill-37" fill="#FFA63A"></path>
                        <path d="M18.9068479,78.1237085 C18.5578721,75.6029985 16.2320591,73.8421535 13.7112179,74.1903385 C11.1903768,74.5393535 9.42931514,76.8658435 9.77829084,79.3869685 C10.1272665,81.9080935 12.4530796,83.6689385 14.9739207,83.3199235 C17.4947619,82.9717385 19.2558236,80.6448335 18.9068479,78.1237085" id="Fill-39" fill="#FFA63A"></path>
                        <path d="M97.7212049,147.733858 C104.785784,146.048128 107.797515,133.302233 104.451747,119.275233 C101.105979,105.247818 92.6666591,95.242998 85.6024946,96.927898 C83.672132,97.388963 81.6587787,97.635473 79.5894067,97.635473 C72.3268946,97.635473 66.4391226,109.326023 66.4391226,123.746443 C66.4391226,138.167278 72.3268946,149.857413 79.5894067,149.857413 C85.8290591,149.857413 91.9006553,149.122448 97.7212049,147.733858" id="Fill-41" fill="#FFFFFF"></path>
                        <path d="M104.422866,140.114334 C102.916171,141.725364 100.969625,143.291158 98.6956811,144.003714 C97.4790381,144.384683 96.2669596,143.366689 96.5076325,142.113804 C97.3134718,137.917739 97.7624512,133.321614 97.7624512,128.494334 C97.7624512,114.835853 94.2092064,102.978473 88.9940736,96.9966635 C87.8471428,96.7177835 86.7076811,96.6646635 85.6026606,96.9281885 C83.671883,97.3888385 81.6589447,97.6357635 79.5891578,97.6357635 C72.3266456,97.6357635 66.4392886,109.325898 66.4392886,123.746734 C66.4392886,138.167569 72.3266456,149.857704 79.5891578,149.857704 C83.6415914,149.857704 87.614769,149.524044 91.4999764,148.918559 C93.5988101,148.595688 95.6806307,148.220529 97.7217858,147.733734 C100.778332,147.004579 103.069704,144.191294 104.422866,140.114334" id="Fill-43" fill="#F2F2F2"></path>
                        <path d="M23.5142815,79.6597065 C23.1653058,77.1389965 20.8390778,75.3777365 18.3186516,75.7263365 C15.7973955,76.0749365 14.0367488,78.4018415 14.3857245,80.9229665 C14.7342852,83.4436765 17.0605133,85.2049365 19.5809394,84.8559215 C22.1021955,84.5077365 23.8628422,82.1808315 23.5142815,79.6597065" id="Fill-45" fill="#78788D"></path>
                        <path d="M15.7225379,105.889408 C15.899723,105.885258 16.0781529,105.871148 16.2582426,105.846248 C18.7786688,105.497648 20.5397305,103.171158 20.1911697,100.650033 C20.1222875,100.152863 19.9766389,99.685158 19.7675024,99.257293 L19.7782912,99.250653 C19.2604295,98.130153 18.777009,96.996373 18.3218052,95.843088 C17.5769641,93.399153 18.9537791,90.814533 21.3970239,90.069608 C23.8398538,89.325098 26.4212781,90.700823 27.1661193,93.144343 C29.343794,98.453438 32.3053155,103.361228 35.905865,107.722878 L35.8938314,107.705033 C37.4594501,109.711558 40.3545791,110.068458 42.3608781,108.503493 C44.3671772,106.937698 44.7232071,104.044733 43.1575884,102.038208 C41.4645791,100.006368 39.9358912,97.824713 38.5964221,95.527688 C37.354052,93.307023 38.1470277,90.499133 40.3678576,89.256623 C42.5886875,88.014113 45.3962613,88.808423 46.6386314,91.029088 C47.5934389,92.428883 49.2872781,93.247678 51.0790464,92.999508 C51.8965043,92.886628 52.6334613,92.565833 53.2446875,92.098128 C59.2710538,87.356338 62.3948221,82.314918 60.9935249,78.438403 C63.7500594,86.044108 71.0449379,91.491813 79.5892407,91.491813 C88.4953828,91.491813 95.7147398,105.932568 95.7147398,123.746443 C95.7147398,141.560318 88.4953828,156.001488 79.5892407,156.001488 C43.1725267,156.001488 12.0771735,132.780993 0.326526729,100.367418 C1.77056411,104.361378 7.70107626,106.233028 15.7225379,105.889408" id="Fill-47" fill="#78788D"></path>
                        <path d="M90.0818321,148.200733 C90.1117088,148.148858 90.1432452,148.101133 90.1731219,148.048843 C90.4868265,147.500628 90.7860079,146.923778 91.077305,146.329498 C91.1851929,146.110793 91.290591,145.889598 91.3951593,145.664668 C91.6179892,145.184513 91.8337649,144.691908 92.0420714,144.184778 C92.1914546,143.820823 92.3346135,143.447323 92.4765275,143.070503 C92.560763,142.844743 92.649148,142.625208 92.7313088,142.395713 C92.7271593,142.395713 92.7230097,142.395713 92.7192751,142.396128 C94.5969387,137.131853 95.7148228,130.710558 95.7148228,123.746443 C95.7148228,126.203658 95.419791,128.658383 94.8878209,131.072023 C93.377391,137.921183 87.1319293,142.681648 80.1308378,142.271213 C57.8470172,140.964793 29.041791,133.305968 10.7859219,105.790638 C5.32762654,105.304258 1.4590172,103.484483 0.331589159,100.365343 C12.081406,132.778918 43.1726097,156.001488 79.5893237,156.001488 C83.0807406,156.001488 86.3049275,153.765883 88.9415406,149.988968 C88.9664378,149.954108 88.9896751,149.917588 89.0141574,149.882313 C89.381391,149.350283 89.7386658,148.791693 90.0818321,148.200733" id="Fill-49" fill="#6E6E82"></path>
                        <path d="M64.7644127,142.490458 C64.415437,139.969333 62.0896239,138.208488 59.5687828,138.557088 C57.0475267,138.905688 55.28688,141.232593 55.6358557,143.753303 C55.9848314,146.274428 58.3106445,148.035273 60.8314856,147.686673 C63.3523267,147.338073 65.1133884,145.011583 64.7644127,142.490458" id="Fill-51" fill="#FF4489"></path>
                        <path d="M77.882455,144.906297 C77.5338942,142.385172 75.2076662,140.624327 72.686825,140.972927 C70.1659839,141.321942 68.4049222,143.648432 68.7538979,146.169142 C69.1024587,148.690267 71.4286867,150.451527 73.9495279,150.102512 C76.470369,149.753912 78.2314307,147.427422 77.882455,144.906297" id="Fill-53" fill="#FF4489"></path>
                        <path d="M92.5420071,104.592533 C92.5299735,104.643993 92.498437,104.685908 92.4913828,104.739443 C92.4913828,104.739443 92.3689716,105.629203 92.0590015,107.203713 C91.734923,108.755398 91.2793043,111.062383 90.3091436,113.464818 C90.0634912,114.044573 89.7655548,114.642588 89.4427211,115.055098 C89.2966576,115.251393 89.1435398,115.373403 89.1045342,115.397058 C89.0061903,115.347258 88.7991286,115.169223 88.6522351,114.982058 C88.4119772,114.661263 88.1090613,114.307268 87.9123735,114.003073 C87.4741828,113.397173 87.0214688,112.660963 86.5961417,111.928488 C84.888609,108.951278 83.3113716,105.483953 81.4540407,102.174328 C80.5328445,100.513083 79.5527249,98.879228 78.5078725,97.325053 C78.3759174,97.130833 78.2680295,96.942423 78.0779809,96.704213 C77.9746576,96.578053 77.8692594,96.462268 77.6899996,96.336523 C77.536052,96.219078 77.180852,96.071338 76.8322912,96.191273 C76.2069566,96.480113 76.1924333,96.822488 76.0538389,97.063603 C75.9534202,97.321733 75.8911772,97.563263 75.8355735,97.801058 C75.6310015,98.746013 75.5471809,99.643658 75.4621155,100.531343 C75.3255959,102.290528 75.1932258,103.991198 75.0683249,105.603888 C74.9944632,106.403593 74.9123024,107.180473 74.7869865,107.917513 C74.6326239,108.635048 74.5488034,109.414833 74.1085379,109.766338 C73.6661978,110.042313 72.9852594,109.586228 72.527151,109.228498 C72.038751,108.834663 71.6154987,108.398498 71.2324968,107.978933 C70.4685679,107.133993 69.8623211,106.338438 69.3735062,105.678588 C68.4012707,104.352663 67.901252,103.554203 67.901252,103.554203 C67.901252,103.554203 68.36268,104.375073 69.2747473,105.747893 C69.7336856,106.432643 70.3025865,107.257663 71.035809,108.149083 C71.4051174,108.592718 71.8126015,109.055858 72.305566,109.493268 C72.5566127,109.707823 72.8267473,109.919473 73.1516557,110.086718 C73.4603809,110.246908 73.9193193,110.381368 74.338837,110.141083 C74.4413305,110.091698 74.5234912,109.992513 74.6110464,109.912003 L74.7683136,109.690808 C74.8911398,109.475423 74.9471585,109.326438 75.0189454,109.136783 C75.1517305,108.775733 75.2475847,108.405553 75.3359697,108.027903 C75.5094202,107.273018 75.6376407,106.490328 75.7583921,105.686473 C75.9754127,104.084573 76.2044669,102.395523 76.4414052,100.647958 C76.5729454,99.787248 76.7115398,98.901223 76.9401791,98.082843 C76.9957828,97.891943 77.0592707,97.708098 77.1298127,97.549568 C77.2140482,97.677803 77.3078277,97.847123 77.4036819,98.012708 C78.3244632,99.595933 79.1763622,101.251783 79.9722426,102.937098 C81.585166,106.303993 82.9001529,109.796633 84.4923286,113.054798 C84.9018875,113.874008 85.3043921,114.648813 85.8093903,115.454743 C86.0546277,115.875138 86.2845118,116.173938 86.5185454,116.532498 C86.8592221,116.993148 87.205708,117.392793 87.819009,117.766708 C88.4053379,118.151413 89.4576594,118.272178 90.154366,117.936858 C90.8531473,117.638058 91.2573118,117.218493 91.5880295,116.844163 C92.2328669,116.079318 92.6017604,115.349748 92.9436819,114.651303 C93.5947436,113.257318 94.0134314,111.982023 94.3644819,110.846168 C93.8764968,108.613468 93.2586314,106.527678 92.5420071,104.592533" id="Fill-55" fill="#A1A1BD"></path>
                        <g id="Plane" transform="translate(81.000000, 25.000000)">
                            <path d="M35.6680542,15.1787645 C37.0668617,14.7650095 38.5353813,15.5642995 38.9486748,16.9624345 C39.3619682,18.3597395 38.5640131,19.8292545 37.1652056,20.2425945 C35.767643,20.6559345 34.2991234,19.8566445 33.8858299,18.4593395 C33.4725364,17.0612045 34.2709065,15.5916895 35.6680542,15.1787645 L35.6680542,15.1787645 Z M44.6455682,12.5244245 C46.0435458,12.1106695 47.5128953,12.9095445 47.9261888,14.3080945 C48.3390673,15.7058145 47.5402822,17.1753295 46.1423047,17.5886695 C44.745157,18.0015945 43.2758075,17.2027195 42.862929,15.8054145 C42.4496355,14.4068645 43.2484206,12.9377645 44.6455682,12.5244245 L44.6455682,12.5244245 Z M53.6222523,9.8700845 C55.0206449,9.4567445 56.4895794,10.2556195 56.9028729,11.6541695 C57.3157514,13.0514745 56.5173813,14.5205745 55.1189888,14.9343295 C53.7218411,15.3472545 52.2529065,14.5479645 51.840028,13.1506595 C51.4267346,11.7525245 52.2246897,10.2834245 53.6222523,9.8700845 L53.6222523,9.8700845 Z M43.697815,8.6765445 L32.3704206,0.4151395 L24.978443,2.6005295 L31.6214299,12.2476195 L15.4552654,17.0284195 L15.4536056,17.0275895 L4.66814019,9.1596045 L0.0501252336,10.5249545 L6.37484299,19.7134695 L4.38763178,20.3011095 L5.62336262,24.4772545 L26.8050673,26.3945545 L36.0153701,23.6713245 L35.9556168,25.8380395 L33.0277065,26.7037295 C32.3650262,26.9012695 31.9811944,27.6046945 32.1762224,28.2682795 L32.7413888,30.1760345 C32.9376617,30.8404495 33.6414224,31.2251545 34.3057626,31.0271995 L35.820757,30.5789995 L35.598757,38.5216845 L42.987,36.3371245 L46.3925215,27.4536345 L50.8395757,26.1384995 C51.5039159,25.9426195 51.8860879,25.2379495 51.6902299,24.5731195 L51.1267234,22.6653645 C50.9292056,22.0009495 50.2258598,21.6191495 49.5611047,21.8150295 L48.4241327,22.1515945 L49.3515533,19.7279945 L66.7268916,14.5907095 C69.9436093,13.6395295 71.7959607,10.2294745 70.8473776,7.0111495 L70.8448879,7.0119795 C69.8934,3.7932395 66.4849738,1.9394345 63.2670112,2.8906145 L43.697815,8.6765445 Z" id="Fill-57" fill="#FF4489"></path>
                            <path d="M31.9885806,15.6415725 C32.2118254,16.4122275 31.7678254,17.2181575 30.9968422,17.4414275 L19.3138329,20.8236775 C18.5432647,21.0465325 17.7374254,20.6033125 17.5141806,19.8322425 C17.2913507,19.0615875 17.7349357,18.2560725 18.5059189,18.0332175 L30.1889282,14.6501375 C30.9599114,14.4272825 31.7653357,14.8709175 31.9885806,15.6415725" id="Fill-59" fill="#FFFFFF"></path>
                        </g>
                    </g>
                </g>
            </g>
        </g>
    </g>
</svg>