<?xml version="1.0" encoding="UTF-8"?>
<svg width="92px" height="24px" viewBox="0 0 92 24" version="1.1" xmlns="http://www.w3.org/2000/svg" xmlns:xlink="http://www.w3.org/1999/xlink">
    <!-- Generator: Sketch 46.2 (44496) - http://www.bohemiancoding.com/sketch -->
    <title>Combined Shape</title>
    <desc>Created with Sketch.</desc>
    <defs></defs>
    <g id="Index" stroke="none" stroke-width="1" fill="none" fill-rule="evenodd">
        <g id="320_AVCO_Vacations_by_State_New_Table" transform="translate(-109.000000, -4002.000000)" fill="#FFD43A">
            <g id="Content" transform="translate(10.000000, 70.000000)">
                <g id="National-Overview" transform="translate(9.000000, 2612.000000)">
                    <g id="3rd" transform="translate(0.000000, 1283.000000)">
                        <g id="Group-15">
                            <path d="M102.302021,60.9962735 C102.319708,60.9987518 102.337524,61 102.355469,61 L177.492877,61 C179.981426,61 182,58.9792193 182,56.4866361 C182,53.9942361 179.981426,51.9729057 177.492877,51.9729057 L162.763545,51.9729057 C158.962941,48.8416026 162.480535,46.0259949 162.480535,46.0259949 L169.17033,46.0259949 C171.65888,46.0259949 173.67782,44.0055807 173.67782,41.5129975 C173.67782,39.0207807 171.65888,37 169.17033,37 L102.355469,37 C102.337521,37 102.319703,37.0012481 102.302015,37.0037264 C102.201644,37.001247 102.100968,37 102,37 C95.372583,37 90,42.372583 90,49 C90,55.627417 95.372583,61 102,61 C102.10097,61 102.201649,60.998753 102.302021,60.9962735 Z" id="Combined-Shape" transform="translate(136.000000, 49.000000) scale(-1, 1) translate(-136.000000, -49.000000) "></path>
                        </g>
                    </g>
                </g>
            </g>
        </g>
    </g>
</svg>