<?xml version="1.0" encoding="UTF-8"?>
<svg width="278px" height="24px" viewBox="0 0 278 24" version="1.1" xmlns="http://www.w3.org/2000/svg" xmlns:xlink="http://www.w3.org/1999/xlink">
    <!-- Generator: Sketch 46.2 (44496) - http://www.bohemiancoding.com/sketch -->
    <title>Combined Shape</title>
    <desc>Created with Sketch.</desc>
    <defs></defs>
    <g id="Index" stroke="none" stroke-width="1" fill="none" fill-rule="evenodd">
        <g id="AVCO_Vacations_by_State_1440" transform="translate(-897.000000, -1992.000000)" fill="#FFD43A">
            <g id="Content" transform="translate(110.000000, 92.000000)">
                <g id="National-Overview" transform="translate(45.000000, 1519.000000)">
                    <g id="2nd" transform="translate(0.000000, 305.000000)">
                        <g id="quote" transform="translate(742.000000, 4.000000)">
                            <path d="M14.1859177,95.9857863 C14.2243836,95.9952171 14.2634082,96 14.3029916,96 L272.921241,96 C275.725412,96 278,93.9792193 278,91.4866361 C278,88.9942361 275.725412,86.9729057 272.921241,86.9729057 L256.323799,86.9729057 C252.041167,83.8416026 256.004895,81.0259949 256.004895,81.0259949 L263.543153,81.0259949 C266.347323,81.0259949 268.622324,79.0055807 268.622324,76.5129975 C268.622324,74.0207807 266.347323,72 263.543153,72 L14.3029916,72 C14.2634033,72 14.2243739,72.0047827 14.1859034,72.0142131 C13.9659244,72.004774 13.744566,72 13.5219512,72 C6.05398377,72 3.41060513e-13,77.372583 3.41060513e-13,84 C3.41060513e-13,90.627417 6.05398377,96 13.5219512,96 C13.7445708,96 13.965934,95.9952257 14.1859177,95.9857863 Z" id="Combined-Shape" transform="translate(139.000000, 84.000000) scale(-1, 1) translate(-139.000000, -84.000000) "></path>
                        </g>
                    </g>
                </g>
            </g>
        </g>
    </g>
</svg>