<?xml version="1.0" encoding="UTF-8"?>
<svg width="92px" height="24px" viewBox="0 0 92 24" version="1.1" xmlns="http://www.w3.org/2000/svg" xmlns:xlink="http://www.w3.org/1999/xlink">
    <!-- Generator: Sketch 46.2 (44496) - http://www.bohemiancoding.com/sketch -->
    <title>Combined Shape</title>
    <desc>Created with Sketch.</desc>
    <defs></defs>
    <g id="Index" stroke="none" stroke-width="1" fill="none" fill-rule="evenodd">
        <g id="AVCO_Vacations_by_State_1440" transform="translate(-390.000000, -2251.000000)" fill="#FFD43A">
            <g id="Content" transform="translate(110.000000, 92.000000)">
                <g id="National-Overview" transform="translate(45.000000, 1519.000000)">
                    <g id="3rd" transform="translate(36.000000, 571.000000)">
                        <g id="Group-15">
                            <path d="M211.302021,92.9962735 C211.319708,92.9987518 211.337524,93 211.355469,93 L286.492877,93 C288.981426,93 291,90.9792193 291,88.4866361 C291,85.9942361 288.981426,83.9729057 286.492877,83.9729057 L271.763545,83.9729057 C267.962941,80.8416026 271.480535,78.0259949 271.480535,78.0259949 L278.17033,78.0259949 C280.65888,78.0259949 282.67782,76.0055807 282.67782,73.5129975 C282.67782,71.0207807 280.65888,69 278.17033,69 L211.355469,69 C211.337521,69 211.319703,69.0012481 211.302015,69.0037264 C211.201644,69.001247 211.100968,69 211,69 C204.372583,69 199,74.372583 199,81 C199,87.627417 204.372583,93 211,93 C211.10097,93 211.201649,92.998753 211.302021,92.9962735 Z" id="Combined-Shape"></path>
                        </g>
                    </g>
                </g>
            </g>
        </g>
    </g>
</svg>