<?xml version="1.0" encoding="UTF-8"?>
<svg width="92px" height="24px" viewBox="0 0 92 24" version="1.1" xmlns="http://www.w3.org/2000/svg" xmlns:xlink="http://www.w3.org/1999/xlink">
    <!-- Generator: Sketch 46.2 (44496) - http://www.bohemiancoding.com/sketch -->
    <title>Combined Shape</title>
    <desc>Created with Sketch.</desc>
    <defs></defs>
    <g id="Index" stroke="none" stroke-width="1" fill="none" fill-rule="evenodd">
        <g id="320_AVCO_Vacations_by_State_New_Table" transform="translate(-68.000000, -4067.000000)" fill="#FFD43A">
            <g id="Content" transform="translate(10.000000, 70.000000)">
                <g id="National-Overview" transform="translate(9.000000, 2612.000000)">
                    <g id="3rd" transform="translate(0.000000, 1283.000000)">
                        <g id="Group-15">
                            <path d="M61.3020214,125.996273 C61.3197078,125.998752 61.3375236,126 61.3554688,126 L136.492877,126 C138.981426,126 141,123.979219 141,121.486636 C141,118.994236 138.981426,116.972906 136.492877,116.972906 L121.763545,116.972906 C117.962941,113.841603 121.480535,111.025995 121.480535,111.025995 L128.17033,111.025995 C130.65888,111.025995 132.67782,109.005581 132.67782,106.512997 C132.67782,104.020781 130.65888,102 128.17033,102 L61.3554688,102 C61.3375213,102 61.3197034,102.001248 61.3020148,102.003726 C61.2016442,102.001247 61.1009677,102 61,102 C54.372583,102 49,107.372583 49,114 C49,120.627417 54.372583,126 61,126 C61.1009699,126 61.2016486,125.998753 61.3020214,125.996273 Z" id="Combined-Shape"></path>
                        </g>
                    </g>
                </g>
            </g>
        </g>
    </g>
</svg>