<?xml version="1.0" encoding="UTF-8"?>
<svg width="92px" height="24px" viewBox="0 0 92 24" version="1.1" xmlns="http://www.w3.org/2000/svg" xmlns:xlink="http://www.w3.org/1999/xlink">
    <!-- Generator: Sketch 46.2 (44496) - http://www.bohemiancoding.com/sketch -->
    <title>Combined Shape</title>
    <desc>Created with Sketch.</desc>
    <defs></defs>
    <g id="Index" stroke="none" stroke-width="1" fill="none" fill-rule="evenodd">
        <g id="AVCO_Vacations_by_State_1440" transform="translate(-216.000000, -2219.000000)" fill="#FFD43A">
            <g id="Content" transform="translate(110.000000, 92.000000)">
                <g id="National-Overview" transform="translate(45.000000, 1519.000000)">
                    <g id="3rd" transform="translate(36.000000, 571.000000)">
                        <g id="Group-15">
                            <path d="M37.3020214,60.9962735 C37.3197078,60.9987518 37.3375236,61 37.3554688,61 L112.492877,61 C114.981426,61 117,58.9792193 117,56.4866361 C117,53.9942361 114.981426,51.9729057 112.492877,51.9729057 L97.763545,51.9729057 C93.9629406,48.8416026 97.4805349,46.0259949 97.4805349,46.0259949 L104.17033,46.0259949 C106.65888,46.0259949 108.67782,44.0055807 108.67782,41.5129975 C108.67782,39.0207807 106.65888,37 104.17033,37 L37.3554688,37 C37.3375213,37 37.3197034,37.0012481 37.3020148,37.0037264 C37.2016442,37.001247 37.1009677,37 37,37 C30.372583,37 25,42.372583 25,49 C25,55.627417 30.372583,61 37,61 C37.1009699,61 37.2016486,60.998753 37.3020214,60.9962735 Z" id="Combined-Shape" transform="translate(71.000000, 49.000000) scale(-1, 1) translate(-71.000000, -49.000000) "></path>
                        </g>
                    </g>
                </g>
            </g>
        </g>
    </g>
</svg>