<?xml version="1.0" encoding="UTF-8"?>
<svg width="171px" height="24px" viewBox="0 0 171 24" version="1.1" xmlns="http://www.w3.org/2000/svg" xmlns:xlink="http://www.w3.org/1999/xlink">
    <!-- Generator: Sketch 46.2 (44496) - http://www.bohemiancoding.com/sketch -->
    <title>Combined Shape</title>
    <desc>Created with Sketch.</desc>
    <defs></defs>
    <g id="Index" stroke="none" stroke-width="1" fill="none" fill-rule="evenodd">
        <g id="320_AVCO_Vacations_by_State_New_Table" transform="translate(-135.000000, -2792.000000)" fill="#FFD43A">
            <g id="Content" transform="translate(10.000000, 70.000000)">
                <g id="National-Overview" transform="translate(9.000000, 2612.000000)">
                    <g id="1st" transform="translate(3.000000, 72.000000)">
                        <g id="quote">
                            <path d="M125.197548,61.9984068 C125.208382,61.9994673 125.219268,62 125.230205,62 L279.284428,62 C281.605959,62 283.489056,59.9792193 283.489056,57.4866361 C283.489056,54.9942361 281.605959,52.9729057 279.284428,52.9729057 L265.543655,52.9729057 C261.998127,49.8416026 265.279639,47.0259949 265.279639,47.0259949 L271.520449,47.0259949 C273.84198,47.0259949 275.725419,45.0055807 275.725419,42.5129975 C275.725419,40.0207807 273.84198,38 271.520449,38 L125.230205,38 C125.219266,38 125.20838,38.0005327 125.197544,38.0015931 C125.131823,38.0005324 125.065974,38 125,38 C118.372583,38 113,43.372583 113,50 C113,56.627417 118.372583,62 125,62 C125.065975,62 125.131826,61.9994676 125.197548,61.9984068 Z" id="Combined-Shape"></path>
                        </g>
                    </g>
                </g>
            </g>
        </g>
    </g>
</svg>