<?xml version="1.0" encoding="UTF-8"?>
<svg width="207px" height="24px" viewBox="0 0 207 24" version="1.1" xmlns="http://www.w3.org/2000/svg" xmlns:xlink="http://www.w3.org/1999/xlink">
    <!-- Generator: Sketch 46.2 (44496) - http://www.bohemiancoding.com/sketch -->
    <title>Combined Shape</title>
    <desc>Created with Sketch.</desc>
    <defs></defs>
    <g id="Index" stroke="none" stroke-width="1" fill="none" fill-rule="evenodd">
        <g id="320_AVCO_Vacations_by_State_New_Table" transform="translate(-33.000000, -3332.000000)" fill="#FFD43A">
            <g id="Content" transform="translate(10.000000, 70.000000)">
                <g id="National-Overview" transform="translate(9.000000, 2612.000000)">
                    <g id="2nd" transform="translate(7.000000, 547.000000)">
                        <g id="quote">
                            <path d="M20.7305998,126.9986 C20.7428712,126.999532 20.7551974,127 20.7675781,127 L208.921241,127 C211.725412,127 214,124.979219 214,122.486636 C214,119.994236 211.725412,117.972906 208.921241,117.972906 L192.323799,117.972906 C188.041167,114.841603 192.004895,112.025995 192.004895,112.025995 L199.543153,112.025995 C202.347323,112.025995 204.622324,110.005581 204.622324,107.512997 C204.622324,105.020781 202.347323,103 199.543153,103 L20.7675781,103 C20.7551958,103 20.7428682,103.000468 20.7305952,103.0014 C20.6611728,103.000468 20.5916235,103 20.5219512,103 C13.0539838,103 7,108.372583 7,115 C7,121.627417 13.0539838,127 20.5219512,127 C20.5916251,127 20.6611758,126.999532 20.7305998,126.9986 Z" id="Combined-Shape" transform="translate(110.500000, 115.000000) scale(-1, 1) translate(-110.500000, -115.000000) "></path>
                        </g>
                    </g>
                </g>
            </g>
        </g>
    </g>
</svg>