<?xml version="1.0" encoding="UTF-8"?>
<svg width="182px" height="24px" viewBox="0 0 182 24" version="1.1" xmlns="http://www.w3.org/2000/svg" xmlns:xlink="http://www.w3.org/1999/xlink">
    <!-- Generator: Sketch 46.2 (44496) - http://www.bohemiancoding.com/sketch -->
    <title>Combined Shape</title>
    <desc>Created with Sketch.</desc>
    <defs></defs>
    <g id="Index" stroke="none" stroke-width="1" fill="none" fill-rule="evenodd">
        <g id="AVCO_Vacations_by_State_1440" transform="translate(-302.000000, -1747.000000)" fill="#FFD43A">
            <g id="Content" transform="translate(110.000000, 92.000000)">
                <g id="National-Overview" transform="translate(45.000000, 1519.000000)">
                    <g id="1st" transform="translate(43.000000, 87.000000)">
                        <g id="quote" transform="translate(0.000000, 12.000000)">
                            <path d="M116.302021,60.9962735 C116.319708,60.9987518 116.337524,61 116.355469,61 L281.492877,61 C283.981426,61 286,58.9792193 286,56.4866361 C286,53.9942361 283.981426,51.9729057 281.492877,51.9729057 L266.763545,51.9729057 C262.962941,48.8416026 266.480535,46.0259949 266.480535,46.0259949 L273.17033,46.0259949 C275.65888,46.0259949 277.67782,44.0055807 277.67782,41.5129975 C277.67782,39.0207807 275.65888,37 273.17033,37 L116.355469,37 C116.337521,37 116.319703,37.0012481 116.302015,37.0037264 C116.201644,37.001247 116.100968,37 116,37 C109.372583,37 104,42.372583 104,49 C104,55.627417 109.372583,61 116,61 C116.10097,61 116.201649,60.998753 116.302021,60.9962735 Z" id="Combined-Shape"></path>
                        </g>
                    </g>
                </g>
            </g>
        </g>
    </g>
</svg>