<?xml version="1.0" encoding="UTF-8"?>
<svg width="76px" height="65px" viewBox="0 0 76 65" version="1.1" xmlns="http://www.w3.org/2000/svg" xmlns:xlink="http://www.w3.org/1999/xlink">
    <!-- Generator: Sketch 46.2 (44496) - http://www.bohemiancoding.com/sketch -->
    <title>Group 10</title>
    <desc>Created with Sketch.</desc>
    <defs></defs>
    <g id="Index" stroke="none" stroke-width="1" fill="none" fill-rule="evenodd">
        <g id="AVCO_Vacations_by_State_1440" transform="translate(-367.000000, -1371.000000)">
            <g id="Content" transform="translate(110.000000, 92.000000)">
                <g id="Anchors" transform="translate(213.000000, 1163.000000)">
                    <g id="Group-11" transform="translate(0.000000, 72.000000)">
                        <g id="Anchor1">
                            <g id="Name-of-City/Ranking/Titile" transform="translate(44.000000, 44.000000)">
                                <g id="Group-10">
                                    <g id="Midwest_Image" transform="translate(0.000000, 6.000000)" fill="#FFD43A">
                                        <path d="M40.5080711,11.5407078 L40.4213435,11.5714286 L40.2857143,11.4682668 L40.2920918,11.3647588 L40.4757653,11.2463651 L40.5748299,11.1428571 L40.7142857,11.3003693 L40.6517857,11.4243019 L40.618867,11.4599968 L40.6506966,11.43681 L40.6901467,11.3652991 L40.7469769,11.2960949 L40.9665732,11.1649366 L41.0653363,11.1428571 L41.1428571,11.2819245 L41.1356844,11.3857308 L41.0493356,11.4420827 L40.9566417,11.4526281 L40.8747069,11.4901961 L40.7941515,11.5702752 L40.7853235,11.5887296 L40.8526369,11.6002636 L40.7679434,11.7739331 L40.5577268,11.8428077 L40.3808911,12 L40.2901283,11.9396935 L40.2857143,11.7953534 L40.3756495,11.6371725 L40.5080711,11.5407078 Z M54.9181897,19.3152942 L54.8853095,19.209441 L54.882504,19.2078202 L54.8753898,19.177506 L54.8571429,19.1187624 L54.859885,19.1114384 L54.8571429,19.0997537 L54.8950241,18.9812192 L54.9204962,18.9495519 L54.9261858,18.9343555 L54.976705,18.8637141 L55.0625877,18.8571429 L55.0659084,18.8614597 L55.0789727,18.8571429 L55.1284109,18.9082512 L55.152809,18.9239532 L55.1861958,18.9359606 L55.2857143,18.9473522 L55.2169439,19.041088 L55.2346337,19.0657814 L55.2663486,19.173797 L55.2503508,19.2998836 L55.2214426,19.394346 L55.2149874,19.4534876 L55.2857143,19.556164 L55.1145102,19.7142857 L55.0980019,19.6921506 L55.0924968,19.7043553 L54.9432763,19.603494 L54.9239909,19.5975047 L54.9210981,19.5987025 L54.9377317,19.6178686 L54.9555707,19.6569193 L54.9138661,19.8107267 L54.9095269,19.8516941 L54.9148304,19.8840368 L54.9418299,19.9460868 L54.9659366,20.0553332 L54.8241892,19.9856167 L54.7959843,19.9810648 L54.7889934,19.9844189 L54.8034574,20.0112513 L54.9408656,20.1516425 L54.9018128,20.2187236 L54.8651706,20.2304628 L54.8372068,20.2374105 L54.8181625,20.2802945 L54.8215374,20.3706144 L54.7935737,20.4134984 L54.7458424,20.3988843 L54.7043789,20.3773225 L54.6891916,20.3849889 L54.6703884,20.4182899 L54.640255,20.5153179 L54.4960969,20.7508205 L54.4601779,20.8737226 L54.5447925,20.9647613 L54.4847668,21.0229781 L54.4187144,21.0555603 L54.3962952,21.0773617 L54.3835186,21.1085065 L54.3651975,21.1976285 L54.3425372,21.2417104 L54.1827098,21.4625989 L54.1173806,21.5188991 L53.9884098,21.5203366 L54.0354178,21.5505231 L54.0291501,21.6753418 L53.9288662,21.9716965 L53.9185003,22.0217678 L53.9115094,22.0795055 L53.9011435,22.1022651 L53.8543765,22.1808458 L53.8206271,22.2728428 L53.6653799,22.4716903 L53.5860689,22.6324454 L53.525561,22.8253036 L53.4344377,23.327214 L53.4279289,23.4266378 L53.4161166,23.4779069 L53.3688675,23.5787681 L53.3541624,23.6417764 L53.3230647,23.7323359 L53.3182434,23.7737825 L53.3401805,23.918486 L53.4722852,24.1094276 L53.4937402,24.1865708 L53.4746959,24.2972546 L53.4329913,24.3854184 L53.3736888,24.4678323 L53.3020919,24.5370696 L53.1167113,24.6345768 L53.0778995,24.6683569 L53.0311325,24.7414274 L52.863832,25.1295395 L52.8409306,25.2184219 L52.8324933,25.325033 L52.8194757,25.3782187 L52.7649945,25.4714135 L52.7546286,25.5119018 L52.7281113,25.8475468 L52.7305219,25.9522413 L52.7599321,26.0224369 L52.8320112,26.1525263 L52.8433413,26.2035558 L52.8467163,26.2572207 L52.8322522,26.310646 L52.8124847,26.3432283 L52.8291184,26.3889872 L52.8129669,26.429715 L52.8368325,26.4599015 L52.7483609,26.6834253 L52.5477931,27.0454237 L52.5147669,27.1292751 L52.5010261,27.2224699 L52.5340523,27.3662151 L52.4853568,27.5490111 L52.2790034,27.9598829 L52.2573073,28.0904514 L52.1657019,28.4227425 L52.1690768,28.5751124 L52.1816123,28.6184755 L52.2100582,28.6934626 L52.2377809,28.8103754 L52.2259686,28.8858417 L52.2011387,28.9596309 L52.1905318,29.0465967 L52.2001745,29.0751062 L52.2618876,29.1306877 L52.2809319,29.1639887 L52.277557,29.2267574 L52.2683964,29.2672456 L52.2008977,29.4280007 L52.1890854,29.491009 L52.2040315,29.5271849 L52.2900925,29.5511425 L52.3489128,29.6591909 L52.378323,29.7677186 L52.3884478,30.1299565 L52.399778,30.1682886 L52.4289471,30.2243492 L52.5644268,30.4059474 L52.6044439,30.5116001 L52.608301,30.5913787 L52.5721409,30.9004309 L52.5039189,31.0403429 L52.4764373,31.1182049 L52.4740266,31.1519851 L52.4735445,31.2085248 L52.4786069,31.2619502 L52.5048832,31.3371768 L52.4978922,31.3913209 L52.4776426,31.4828386 L52.500544,31.8498681 L52.4689642,32.2887702 L52.4412415,32.3352478 L52.4308756,32.3668718 L52.4270185,32.4095162 L52.439313,32.7334221 L52.4699285,32.8984895 L52.5203115,33.0434326 L52.6275863,33.249707 L52.6456663,33.295945 L52.6543448,33.3479329 L52.6651928,33.3884211 L52.6919512,33.4231595 L52.7259417,33.461252 L52.7490841,33.4998237 L52.8686534,33.556603 L52.8905905,33.5846333 L52.910358,33.624882 L52.939286,33.71065 L52.9585714,33.7935431 L53.000276,34.17327 L53.0950153,34.3898462 L53.1733621,34.710398 L53.2273611,34.8416853 L53.4918117,35.2214123 L53.5870331,35.2918474 L53.7213075,35.2393804 L53.7063613,35.3723447 L53.7225128,35.4123538 L53.7639763,35.4401446 L53.8288234,35.4633834 L54.1217198,35.5129755 L54.4093128,35.4830286 L54.956776,35.2863372 L55.6847985,34.8790591 L55.7178247,34.8388104 L55.7551901,34.7839476 L55.9437045,34.6747013 L56.1493347,34.4562085 L56.3185637,34.1842905 L56.6724502,33.3709321 L57.0415238,32.8223045 L57.2854836,32.2137831 L57.3790177,31.8905959 L57.5523449,30.859224 L57.54222,29.7545419 L57.502685,29.6385875 L57.4219276,29.6385875 L57.5248632,29.5858809 L57.491837,29.5379658 L57.4457932,29.4335109 L57.40891,29.3237854 L57.3797409,29.1445831 L57.2153331,28.6934626 L57.2011102,28.5990699 L57.2637876,28.5616962 L57.3197152,28.5425302 L57.3787766,28.4996462 L57.4187937,28.4507728 L57.2587252,28.5018023 L57.2018334,28.5688834 L57.1121564,28.4699388 L56.6319509,27.2279801 L56.6032639,27.0875889 L56.5335955,26.9366565 L56.5075603,26.830285 L56.5205779,26.6431766 L56.5813268,26.4922442 L56.758029,26.2612935 L56.8342061,26.1201836 L56.8501166,25.9613451 L56.7961176,25.5861701 L56.7765911,25.5210056 L56.7700823,25.4589556 L56.7968408,25.3621672 L56.7799661,25.3279079 L56.7462167,25.2847843 L56.7107798,25.1913499 L56.6148351,25.0607813 L56.5750591,24.9766904 L56.5875946,24.7910195 L56.6878785,24.6523053 L56.93449,24.4309377 L57.0340507,24.2713805 L57.1729053,23.9292669 L57.3218848,23.6585467 L57.3987851,23.4850941 L57.4380791,23.3058918 L57.3917942,23.1602299 L57.4079457,23.0900344 L57.4096332,22.9455704 L57.4257847,22.8899889 L57.4472396,22.8380011 L57.5041314,22.5442817 L57.5050957,22.4383894 L57.4802658,22.335372 L57.4279543,22.2333128 L57.3876961,22.0835782 L57.4479628,21.9501348 L57.5501752,21.8660438 L57.6637178,21.8293888 L57.7116902,21.7893797 L57.7478502,21.7690158 L57.7922066,21.7771613 L57.8411432,21.8006397 L57.8681427,21.8051917 L57.9122579,21.8008793 L57.9431145,21.7927337 L57.9677034,21.772849 L57.9874709,21.7354752 L57.9689087,21.6655192 L57.9696319,21.6602486 L58.0120597,21.2556058 L57.9980778,21.1142563 L58.0161578,21.0344777 L58.0966742,20.9983018 L58.2102168,21.0006976 L58.2280558,21.0088431 L58.2651801,21.0304049 L58.2745817,21.0304049 L58.3020633,21.0062078 L58.412231,20.8246097 L58.4187398,20.806402 L58.4225969,20.7709448 L58.4382662,20.7352481 L58.4910599,20.7201548 L58.5318002,20.7280608 L58.566996,20.746029 L58.5877278,20.749383 L58.6508873,20.776455 L58.7436982,20.8593481 L58.7815457,20.8734831 L58.8143308,20.8595877 L58.8488034,20.8162245 L59.0146575,20.4592573 L59.0346661,20.3749267 L59.0640763,20.3361155 L59.2084754,20.1964431 L59.2554835,20.1377471 L59.4232661,19.8112059 L59.4688278,19.7656866 L59.5168002,19.7573014 L59.5659778,19.7596972 L59.5973165,19.755864 L59.6901274,19.660513 L59.8055985,19.6839914 L59.7908934,19.7824568 L59.7511173,19.864152 L59.7241178,19.9427328 L59.6903684,19.9872938 L59.6317891,20.002387 L59.5987629,20.0349693 L59.5973165,20.1511633 L59.6549316,20.3018562 L59.6792793,20.4036758 L59.6392622,20.4606947 L59.5855043,20.4959123 L59.5312642,20.5812011 L59.4808812,20.7009888 L59.5189698,20.6863747 L59.5688706,20.7081761 L59.5973165,20.7769342 L59.6014147,20.8423383 L59.5862275,20.9120547 L59.4606315,21.2091282 L59.4189269,21.3375405 L59.4362838,21.4216315 L59.4914881,21.5462107 L59.5122199,21.5809491 L59.534398,21.5958028 L59.5384962,21.5871781 L59.5519959,21.5095557 L59.5934595,21.4487035 L59.609611,21.3847369 L59.6238339,21.2553662 L59.6423961,21.2033783 L59.7217071,21.1362972 L59.6947076,21.1235997 L59.6178072,21.1121001 L59.7250821,20.9935103 L59.7482245,20.9602093 L59.7581083,20.9127734 L59.7706437,20.7941836 L59.7843846,20.7225506 L59.8082502,20.6640942 L59.8675527,20.6327098 L59.9311944,20.644449 L59.9791667,20.6930828 L59.9962825,20.7625597 L59.9849523,20.827245 L59.9557832,20.8765975 L59.9497566,20.9230752 L59.9446941,21.0256134 L59.9290248,21.1312662 L59.9003378,21.2297316 L59.8538119,21.3246035 L59.7817328,21.3998301 L59.7742597,21.4213919 L59.7706437,21.5179408 L59.7576261,21.5799908 L59.7132698,21.6561758 L59.7082074,21.685404 L59.713993,21.7002577 L59.7277338,21.7074449 L59.7460549,21.702893 L59.7675099,21.6782167 L59.9774793,21.3025625 L60.1197088,20.981292 L60.2202338,20.6238455 L60.2665186,20.2144112 L60.1973324,19.6444614 L60.2260194,19.4583114 L60.3084643,19.3198368 L60.4227301,19.2149028 L60.9468098,18.9324434 L61.0931375,18.9020174 L61.0972357,18.9024965 L61.3829001,18.9211834 L61.5547809,18.9053714 L61.7035193,18.8509878 L61.7589647,18.7654594 L61.7322062,18.7527619 L61.4318367,18.703649 L61.3701235,18.6643586 L61.2695986,18.5527165 L61.2023409,18.4386786 L61.1509936,18.2848712 L61.1285744,18.1071063 L61.1543685,17.9255082 L61.2290993,17.777211 L61.3204637,17.6866515 L61.5111478,17.5400314 L61.6437346,17.3392672 L61.6647075,17.3260906 L61.5581558,17.2118131 L61.5039158,17.1660542 L61.5039158,17.0790884 L61.6620557,17.1332324 L62.0824766,17.1531172 L62.1331007,17.1339511 L62.1610645,17.0975357 L62.1851712,17.0462666 L62.2256705,16.9981119 L62.3073922,16.969842 L62.3789891,17.0017055 L62.4809605,17.0963378 L62.9040331,17.3208199 L63.1484751,17.5426667 L63.2675622,17.5869882 L63.5660032,17.5618328 L63.7260717,17.5745302 L63.8856581,17.6337054 L64.0351197,17.7211504 L64.1421534,17.8196158 L64.2417141,17.948747 L64.287999,18.0328379 L64.3053558,18.1056688 L64.316927,18.1878432 L64.345614,18.2625907 L64.3885239,18.3224845 L64.4401123,18.3495566 L64.9405675,18.3677643 L65.0958146,18.4532927 L65.2069465,18.5876945 L65.2611866,18.6394428 L65.3672561,18.6722646 L65.4619955,18.7170652 L65.4955038,18.7232941 L65.6092874,18.7168256 L65.665456,18.7288044 L65.7339191,18.7795943 L65.8120248,18.8921948 L65.8546937,18.9113608 L65.8973625,18.9187876 L66.0299494,18.9770045 L66.0711719,18.9832334 L66.1815806,18.9760461 L66.3385152,19.0196489 L66.4836376,19.1097292 L66.625385,19.2376625 L66.7721948,19.4101567 L66.6897499,19.4851438 L66.6767323,19.5083826 L66.6716699,19.5498292 L66.6789019,19.5900778 L66.7341062,19.7089072 L66.8353544,19.8739746 L66.8638003,19.8847555 L66.9127369,19.8976926 L66.9529951,19.921171 L66.9732447,19.9678882 L66.9985568,20.0915091 L67.0048245,20.1430178 L67.0226635,20.1842247 L67.0265205,20.2232755 L67.0069941,20.2632846 L66.9672181,20.2807736 L66.9816821,20.3377925 L67.1012513,20.399603 L67.1513933,20.5306507 L66.9908426,20.5270571 L66.9322633,20.5172345 L66.8650056,20.4884854 L66.8220957,20.4499138 L66.751222,20.3552815 L66.7353116,20.3452194 L66.6427418,20.3598335 L66.5921177,20.3991238 L66.5675289,20.469559 L66.5612612,20.5802428 L66.5475203,20.6310328 L66.5161816,20.6564278 L66.5152174,20.6746355 L66.5159406,20.6753542 L66.5364313,20.6878122 L66.5701806,20.716082 L66.5851268,20.763518 L66.5872964,20.8432966 L66.5950105,20.8773163 L66.6123674,20.9065445 L66.6441882,20.9451161 L66.6827589,20.982969 L66.7688199,21.0423837 L66.8298098,21.1111418 L66.8785054,21.1379743 L66.912978,21.1722335 L66.9243081,21.2017013 L66.9300937,21.2457832 L66.9375668,21.2668658 L66.9715573,21.3394572 L67.0000032,21.4235481 L67.0190475,21.5191387 L67.0320651,21.7373918 L67.0629217,21.9173129 L67.0716001,22.0169763 L67.0585825,22.1216707 L66.9954229,22.2915297 L66.9826463,22.3806517 L66.9623967,23.3487758 L66.9387721,23.5342071 L66.923826,23.5967363 L66.9064692,23.6393807 L66.8481309,23.7239508 L66.7994354,23.7412002 L66.7174726,23.7433564 L66.7109638,23.7488666 L66.6820357,23.8010941 L66.5332974,23.9944314 L66.3838358,24.1405724 L66.4477186,23.9810152 L66.4653165,23.9254337 L66.4074604,23.9230379 L66.3874518,23.9259128 L66.2748735,24.0040144 L66.2102676,24.1506345 L66.1786878,24.3446906 L66.1603667,24.6547011 L66.1497597,24.7201052 L66.1145639,24.7526874 L66.0926268,24.7649058 L66.089734,24.7948527 L66.0960018,24.8485176 L66.0841895,24.912005 L66.0002982,24.9572848 L65.8481849,24.9649512 L65.8050339,24.9908253 L65.794668,25.0219701 L65.765981,25.1477472 L65.737053,25.1848814 L65.6840182,25.1791316 L65.593377,25.153497 L65.568306,25.1599655 L65.5181641,25.1959018 L65.4740488,25.2153074 L65.4236658,25.2107555 L65.3458012,25.1858397 L65.3224176,25.1836835 L65.2047769,25.2407024 L65.1245016,25.3734272 L65.0172268,25.6954165 L65.0700205,25.746446 L65.0618242,25.8099335 L65.0201196,25.855932 L64.9911915,25.8973785 L64.9817899,25.9572724 L64.9911915,26.1029342 L64.9798614,26.151568 L64.9359872,26.2605748 L64.9538261,26.3734148 L65.0097537,26.4857756 L65.0717079,26.5641168 L65.1408942,26.6110735 L65.3026502,26.6755193 L65.363399,26.7251114 L65.5299764,26.7751827 L65.6594294,26.8607111 L65.773213,26.8822729 L65.8860324,26.820702 L65.995959,26.701633 L66.2167764,26.3628735 L66.2782485,26.323104 L66.3235691,26.3837165 L66.344783,26.4522351 L66.3727467,26.458464 L66.4137281,26.396414 L66.4841197,26.2018788 L66.636233,25.9898546 L66.657929,25.8959411 L66.6883035,25.8029858 L66.7485703,25.7191344 L66.8469256,25.6098881 L66.8290866,25.5840139 L66.7830428,25.5746705 L66.7133745,25.5710769 L66.5378777,25.5102247 L66.9378079,25.4500913 L66.9720394,25.4256546 L66.9843338,25.4012179 L67.0826892,25.2608268 L67.1140279,25.2282445 L67.1523575,25.2035683 L67.1926157,25.1915895 L67.4197009,25.185121 L67.4512807,25.1741005 L67.5313149,25.1094151 L67.5713321,25.0950406 L67.679089,25.0811452 L67.7263382,25.0504796 L67.8456663,24.9144008 L67.894844,24.8868496 L68.0606981,24.830789 L68.1344647,24.8185706 L68.2299272,24.834143 L68.5910456,25.0298761 L68.714472,25.1228314 L68.8212647,25.2351922 L68.9962793,25.5068707 L69.0259306,25.5864097 L69.0379839,25.6846356 L69.0541354,25.7433316 L69.1698476,26.0056666 L69.3549871,27.2622394 L69.4584048,27.6002802 L69.5271089,28.3748274 L69.6879007,29.1347605 L69.7095967,29.1733321 L69.7382837,29.2092684 L69.8296481,29.408116 L69.8515852,29.4728013 L69.8614689,29.4847801 L69.8790668,29.4819052 L69.8879863,29.6711697 L69.8344694,29.8170711 L69.761185,29.9588997 L69.7247839,30.1098322 L69.7153823,30.1924857 L69.6671689,30.32545 L69.6601779,30.3839064 L69.7054985,30.5101627 L69.7045343,30.5578381 L69.6857311,30.643127 L69.6654814,30.8247251 L69.5625458,31.175703 L69.5249393,31.2660229 L69.4444229,31.4021017 L69.3494425,31.4912238 L69.236141,31.5400972 L69.1300715,31.5532738 L69.0878848,31.5954391 L69.0842688,31.4976923 L69.1252502,31.452173 L69.1741868,31.4265384 L69.1037952,31.3474786 L69.1452588,31.2679395 L69.1377857,31.2418258 L69.1078934,31.2102019 L69.0842688,31.1689949 L69.1018667,31.0959244 L69.1279019,31.0331557 L69.1279019,31.0156667 L69.0840277,31.0123126 L68.9473427,30.9533771 L68.91962,30.9334923 L68.8615228,30.975418 L68.80439,31.0319578 L68.7284538,31.084904 L68.649866,31.10407 L68.5965902,31.1323399 L68.5977955,31.1948691 L68.6440804,31.272731 L68.7342394,31.3290313 L68.7113381,31.4193512 L68.6725263,31.4492981 L68.6313038,31.4512147 L68.5944206,31.4603186 L68.4613516,31.5168583 L68.4350753,31.5429721 L68.4037365,31.6196362 L68.3808352,31.7140289 L68.3755317,31.7892555 L68.3830048,31.8263897 L68.4143435,31.8941896 L68.419647,31.9430629 L68.4100043,31.9996027 L68.3798709,32.0889643 L68.3750496,32.1375981 L68.3480501,32.2147414 L68.2969438,32.2825412 L68.2357128,32.3433934 L68.1793031,32.3857982 L68.1477233,32.3972978 L68.0397253,32.4167034 L67.8478359,32.493128 L67.7897388,32.5479907 L67.5898942,32.7971491 L67.5248061,32.947842 L67.499253,33.0625986 L67.5344488,33.024027 L67.5411987,33.3491308 L67.5267347,33.4931156 L67.4638162,33.5930185 L67.3900496,33.5106046 L67.3929424,33.4693976 L67.3825766,33.4916781 L67.3939067,33.531208 L67.380648,33.5714567 L67.3628091,33.6081117 L67.3560592,33.6567455 L67.3603984,33.6672868 L67.3902907,33.7130457 L67.4001745,33.7422739 L67.4105403,33.83475 L67.4213884,33.858468 L67.4787623,33.9957447 L67.3309882,33.8486454 L67.2803641,33.9835263 L67.2162403,34.0345559 L67.1607949,34.041264 L67.1677858,34.0542011 L67.1834552,34.1133762 L67.1776696,34.1830926 L67.1458487,34.2659857 L67.0429131,34.2192685 L66.9908426,34.2449031 L66.9438346,34.321088 L66.9076745,34.4626771 L66.8360776,34.4504587 L66.7934087,34.4916657 L66.6627504,34.7015337 L66.6393669,34.769094 L66.6306885,34.8500704 L66.6285189,34.9904616 L66.564154,34.9904616 L66.5357081,34.9684207 L66.5229315,34.9712956 L66.5048515,34.9918991 L66.4949677,35.0371788 L66.499548,35.0999475 L66.5082264,35.1167178 L66.7461596,35.1926632 L66.7864178,35.1969756 L66.8370419,35.1900279 L66.9122548,35.1627163 L66.9691466,35.1706223 L67.0443595,35.2185374 L67.2005709,35.3840839 L67.2810873,35.4403841 L67.4765927,35.5232772 L67.5816979,35.5496305 L67.6723391,35.5486722 L67.7637036,35.6337215 L67.9269059,35.8368814 L68.0151365,35.8768905 L68.0621445,35.8847965 L68.1754461,35.9276804 L68.2299272,35.929597 L68.3345503,35.9061187 L68.3740853,35.8867131 L68.4085579,35.856287 L68.4210934,35.824663 L68.4350753,35.7693211 L68.4411019,35.7240414 L68.4227808,35.6492939 L68.542109,35.6962506 L68.5867064,35.751353 L68.6245539,35.8244235 L68.6361252,35.8364022 L68.6624015,35.8682657 L68.7091685,35.8440686 L68.7434,35.840475 L68.8849063,35.8601202 L68.9251645,35.8859943 L68.948307,35.934149 L68.9820564,36.0462702 L68.7233914,36.0563324 L68.6274468,36.0810087 L68.5474125,36.1464128 L68.4613516,36.1020913 L68.3977099,36.1056849 L68.2518643,36.1399442 L68.1648391,36.1459336 L68.1371164,36.1526417 L68.1207238,36.1607873 L68.1016795,36.1842657 L68.0840816,36.2269101 L68.0356272,36.263086 L68.0192346,36.2511072 L68.0332165,36.3004597 L68.052984,36.2911163 L68.099751,36.2451178 L68.2144989,36.3457395 L68.3492554,36.2911163 L68.5153506,36.1871406 L68.6604729,36.1627039 L68.7528016,36.2211603 L68.7863099,36.2242747 L68.8137916,36.2197228 L68.8663442,36.1993589 L68.9099773,36.1955257 L69.0001364,36.21565 L69.0001364,36.2151709 L68.9290216,36.0575303 L69.0428053,36.1037683 L69.0659477,36.1303612 L69.0912597,36.1713286 L69.1168128,36.2036713 L69.1351339,36.2158896 L69.1888919,36.2400867 L69.2226413,36.2609298 L69.4511728,36.4463611 L69.5743581,36.5084111 L69.7124895,36.5163171 L69.7701045,36.4945158 L69.9075127,36.4044354 L69.9489763,36.3639472 L70.0145465,36.3232194 L70.2440423,36.3136364 L70.3778345,36.2762626 L70.6213122,36.1387463 L71.055474,36.015365 L71.2049355,36.0098548 L71.5976337,36.1044871 L71.6687485,36.1071224 L71.699364,36.097779 L71.7656575,36.0414787 L71.8121834,36.0187191 L71.850272,36.0275834 L71.9536898,36.0800504 L72.0144386,36.0731027 L72.1253295,36.0053029 L72.2376667,35.9696061 L73.2846209,35.0803024 L74.331334,34.5788711 L74.5482943,34.5383829 L74.6358016,34.4851972 L74.7435586,34.4629166 L74.7568173,34.451417 L74.7929773,34.4049394 L74.8344409,34.3730759 L74.8939844,34.3553473 L75.0152411,34.3376187 L75.1198642,34.2631108 L76,33.9677144 L76,39.7436369 L75.9327423,39.7620842 L75.777013,39.8732472 L75.7131302,39.836113 L75.6451493,39.8380296 L75.5706596,39.8629454 L75.5226873,39.8993609 L75.496411,39.966442 L75.5152142,40.0244192 L75.6193551,40.1660083 L75.6936038,40.3114305 L75.7237372,40.3888134 L75.7377191,40.4602068 L75.7208444,40.5603493 L75.654792,40.7270938 L75.651176,40.7924979 L75.6552741,40.7934562 L75.6933627,40.8123826 L75.7138534,40.8344235 L75.7174694,40.8648496 L75.7133713,40.9161187 L75.7152998,40.931212 L75.7353084,41.0215319 L75.7413351,41.0912483 L75.7244604,41.120237 L75.6897467,41.2567949 L75.6663632,41.2879397 L75.579097,41.3595728 L75.5549902,41.3861656 L75.4891789,41.5457228 L75.4600098,41.6403551 L75.4373495,41.7850586 L75.4086626,41.8662747 L75.338271,42.0157697 L75.3042805,42.115433 L75.2936736,42.1906597 L75.2965664,42.3588416 L75.2837898,42.4654527 L75.2594421,42.5234299 L75.2288265,42.5773343 L75.2095412,42.6365095 L75.2136393,42.6568734 L75.2264159,42.693768 L75.2312372,42.7424018 L75.19797,42.8049309 L75.1321587,42.8133161 L75.0841863,42.7876815 L75.0776775,42.8188263 L75.0849095,42.8559605 L75.1015431,42.8995632 L75.1164893,42.9549051 L75.1008199,43.0088096 L75.0405532,43.0833175 L75.0229553,43.1144623 L75.003911,43.1595025 L74.9942683,43.1983137 L74.9814918,43.2780923 L74.9590725,43.3363091 L74.8848239,43.383745 L74.8718063,43.4017132 L74.8826543,43.4314205 L74.9299034,43.485325 L74.9708848,43.5478542 L74.9826971,43.609425 L74.9619653,43.7050156 L74.8963951,43.7613158 L74.8954308,43.7677843 L74.899529,43.8106683 L74.8978415,43.8365425 L74.8592708,43.9572885 L74.8517977,44.0092763 L74.6169984,44.1443968 L74.2621477,44.4247 L74.1616228,44.5382587 L74.0912312,44.669546 L74.0345804,44.7433352 L73.9031989,44.7917295 L73.8499231,44.8370092 L73.7612104,44.9352351 L73.7060061,44.9728484 L73.6363377,45.0030349 L73.562089,45.0243572 L73.4938671,45.0322631 L73.4372163,45.0547832 L73.3219863,45.1625921 L73.224113,45.1757688 L73.1421503,45.1127605 L73.0999635,45.035138 L73.0695891,44.9642237 L73.051509,44.9450577 L72.9341094,44.9445786 L72.8938512,44.9639842 L72.6597751,45.189185 L72.6359095,45.2567453 L72.6093921,45.4246876 L72.5522592,45.5020704 L72.5025994,45.4608635 L72.4989834,45.4623009 L72.4517343,45.50231 L72.4240115,45.4637384 L72.3651912,45.484821 L72.2894961,45.4869772 L72.2432113,45.500633 L72.1925872,45.6357535 L72.040956,45.8127997 L72.01926,45.8690999 L72.0154029,45.9160567 L72.0243224,46.0653121 L72.012028,46.1783917 L71.9814125,46.223911 L71.8136298,46.2926691 L71.8232725,46.3281263 L71.8336384,46.3484902 L71.8690752,46.3861035 L71.8849856,46.3932908 L71.9435649,46.4364144 L71.9505559,46.5233802 L71.9348865,46.671917 L71.9539308,46.7344461 L71.9852695,46.8063187 L71.9874391,46.8769935 L71.8914945,46.9059821 L71.8365312,46.880108 L71.7837375,46.8245265 L71.7654164,46.8175788 L71.7526398,46.8252452 L71.7364884,46.8650147 L71.7094888,46.9699487 L71.6701949,47.0286447 L71.5969105,47.1048296 L71.5125371,47.1486719 L71.4291279,47.1060275 L71.3961017,47.0411026 L71.4105657,47.0008539 L71.4233423,46.9831254 L71.4353956,46.9258668 L71.447449,46.9050238 L71.4749306,46.8925659 L71.4775824,46.8841807 L71.4746895,46.8628585 L71.4587791,46.8278805 L71.4409402,46.7567266 L71.4149049,46.7013847 L71.3787449,46.6604173 L71.274845,46.6146584 L71.2251852,46.5681808 L71.1764896,46.5365569 L71.1193567,46.5358381 L71.0284745,46.6045963 L70.9219228,46.7437896 L70.8317638,46.8999927 L70.7830682,47.0231344 L70.760649,47.1927538 L70.7444975,47.2303671 L70.7011054,47.306073 L70.6625347,47.4054967 L70.5938306,47.4534118 L70.5509207,47.4927022 L70.5429654,47.5710433 L70.5644204,47.6357287 L70.5921431,47.6874769 L70.6201069,47.7655785 L70.631196,47.8760228 L70.6087767,47.9409477 L70.6051607,47.968978 L70.631437,48.0329446 L70.6463832,48.0894844 L70.6550616,48.1481804 L70.6516867,48.2044806 L70.5904556,48.288332 L70.5015019,48.3053418 L70.3556564,48.2840196 L70.3264872,48.3084563 L70.2934611,48.3901515 L70.2264444,48.7449626 L70.1975164,48.8283348 L70.1449638,48.9076343 L70.070233,48.9359042 L69.8318177,48.9555494 L69.563269,49.0525774 L69.4070576,49.0695872 L69.2749528,49.0087351 L69.2354178,48.9502787 L69.1799724,48.8125229 L69.1483926,48.7583788 L68.9210664,48.5281469 L68.8024614,48.4543577 L68.6585444,48.4050052 L68.505949,48.3199559 L68.4047008,48.1486595 L68.3265951,47.8767415 L68.3157471,47.792411 L68.315506,47.7068825 L68.3077919,47.6642381 L68.2897118,47.6510615 L68.2229363,47.6616028 L68.0218863,47.7617453 L67.9396825,47.7744428 L67.8844781,47.7926505 L67.8389165,47.836972 L67.7957655,47.891116 L67.7374272,47.9443017 L67.6552234,47.9754465 L67.6378666,47.9893419 L67.6229204,48.0154556 L67.5910996,48.0978695 L67.5539752,48.1532115 L67.4891282,48.1941788 L67.4131921,48.198012 L67.2627662,48.1704609 L67.1981603,48.1759711 L67.1562146,48.2020848 L67.1077601,48.2380211 L66.9811999,48.2677285 L66.9373257,48.245448 L66.8977907,48.2011265 L66.7989533,48.0473191 L66.76207,48.0212054 L66.6743216,47.9826338 L66.6379205,47.9740091 L66.5197976,47.976884 L66.4756824,47.9512494 L66.4224065,47.8983033 L66.3659969,47.8599712 L66.309105,47.8376907 L66.2483561,47.8317013 L66.0311547,47.9026156 L66.0080123,47.9191463 L65.9913787,47.9941334 L65.9453349,48.0679226 L65.8783182,48.123025 L65.805516,48.145545 L65.647376,48.1086504 L65.5196105,48.021445 L65.2963824,47.7972025 L65.2438298,47.7270069 L65.1989913,47.6508219 L65.1575278,47.6021881 L65.0297623,47.5655331 L64.8983807,47.5044414 L64.8320873,47.4948583 L64.5437711,47.5511586 L64.4675939,47.5418151 L64.0929758,47.4009448 L64.0153522,47.3432071 L63.9796742,47.2533664 L63.9762993,47.1549009 L63.9654513,47.0732057 L63.9456838,47.0032497 L63.9184432,46.9435954 L63.8873456,46.90718 L63.8463642,46.8710041 L63.7993561,46.8108707 L63.7824814,46.7528934 L63.7750083,46.6755106 L63.755964,46.6038776 L63.7267949,46.5439837 L63.6848493,46.498704 L63.5532267,46.4289875 L63.4780137,46.4021551 L63.4109971,46.3896972 L63.3610962,46.3401051 L63.3268647,46.2648784 L63.2873297,46.1980369 L63.2338128,46.1673712 L63.1072526,46.1930058 L62.8288202,46.3211786 L62.6726088,46.3060854 L62.5031386,46.1333515 L62.4587823,46.1086753 L62.4317828,46.0847177 L62.3951406,46.029855 L62.3838104,46.0241052 L62.3616323,46.029855 L62.3372845,46.0497397 L62.281598,46.1079565 L62.0427006,46.2560141 L61.9561575,46.3523234 L61.9626663,46.4618094 L62.0448702,46.5490148 L62.1000745,46.6251998 L62.1191188,46.7052179 L62.0762089,46.7948191 L61.9617021,46.9086174 L61.9489255,46.9268251 L61.9703805,46.9548555 L62.0101565,46.9742611 L62.1533504,46.9840837 L62.2444737,47.0176242 L62.2338667,47.1136939 L62.1911979,47.1846082 L62.1475647,47.2382731 L62.1287615,47.3041564 L62.177216,47.4550888 L62.1048959,47.4953375 L61.8308027,47.4658697 L61.731242,47.4807234 L61.5292278,47.5645748 L61.0533615,47.8580546 L60.9101676,47.889439 L60.8294102,47.8374511 L60.7230996,47.7150281 L60.6780201,47.6927476 L60.4788987,47.6834042 L60.1182624,47.7183822 L60.0784864,47.7409022 L60.077281,47.7967233 L60.1021109,47.8776998 L60.1266998,47.9404685 L60.1541814,48.1891478 L60.2238498,48.3534965 L60.2016716,48.4507641 L60.1500833,48.5178452 L59.9782025,48.6450597 L59.9386675,48.6917769 L59.8849095,48.7674827 L59.8284998,48.8098875 L59.68169,48.8242621 L59.6296195,48.8381574 L59.5445229,48.9440497 L59.4668993,49.3058085 L59.3885525,49.455064 L59.2738046,49.5446652 L59.2060647,49.5827577 L59.0729957,49.6242042 L59.0124879,49.6222876 L58.9903097,49.5746121 L58.9828367,49.5676644 L58.9486051,49.5532899 L58.9093112,49.5444256 L58.8972579,49.5449048 L58.865437,49.5801223 L58.7923937,49.7518979 L58.7518944,49.795261 L58.7048864,49.820656 L58.6658335,49.8855809 L58.6383519,49.970151 L58.624611,50.0499296 L58.5947187,50.4368439 L58.5609693,50.5487256 L58.538309,50.5906512 L58.5103453,50.6270667 L58.4768369,50.6591698 L58.4238022,50.6912729 L58.2668676,50.7193032 L58.2087704,50.7415837 L58.1759853,50.8081857 L58.1263255,50.8572986 L58.0352021,50.7859052 L57.9158739,50.6579719 L57.851509,50.6412016 L57.6813157,50.6261084 L57.6179151,50.5892138 L57.5617465,50.5453715 L57.4380791,50.4797279 L57.3749195,50.4229485 L57.3411701,50.3525133 L57.3363488,50.2892654 L57.3467147,50.1230001 L57.3255008,50.0880221 L57.1625395,49.958891 L57.114085,49.9366105 L57.0629788,49.9315794 L57.056711,49.9363709 L57.0805767,49.9828485 L57.1384327,50.0183057 L57.2061726,50.0389092 L57.2560735,50.0940115 L57.1709768,50.186248 L57.0256134,50.246621 L56.9436506,50.254527 L56.8853124,50.2360797 L56.8655449,50.1900812 L56.8563843,50.1814565 L56.8279384,50.1663633 L56.8182957,50.1656445 L56.8144386,50.1747484 L56.8219117,50.2015808 L56.8807321,50.2696203 L56.9017049,50.3218477 L56.8860356,50.42774 L56.8113048,50.4919462 L56.7372972,50.5154246 L56.6714859,50.521414 L56.6437632,50.5446528 L56.6300224,50.6210773 L56.6408704,50.8817353 L56.6290581,50.958639 L56.5753001,51.0115852 L56.4104103,51.0470423 L56.3973927,51.0870514 L56.3981159,51.16683 L56.3672593,51.2636185 L56.283609,51.3184812 L56.1859769,51.3168042 L56.1151032,51.2569103 L56.1464419,51.1670696 L56.1700665,51.114363 L56.1493347,51.1086132 L56.0078283,51.1366435 L55.8757236,51.1076549 L55.7703773,51.0197307 L55.6966108,50.9009013 L55.6712987,50.799561 L55.636103,50.7497293 L55.5459439,50.7851864 L55.4254104,50.8767042 L55.3470636,50.9521705 L55.2928235,50.9773259 L55.1100947,50.9967315 L55.0565778,51.0197307 L55.0204177,51.0448861 L54.9847398,51.0868118 L54.9507494,51.1481431 L54.8642063,51.3992181 L54.7998414,51.5089436 L54.6819596,51.5880035 L54.6301302,51.5539838 L54.5987915,51.5273909 L54.5416586,51.4519247 L54.5247839,51.4088011 L54.5156234,51.3568133 L54.5079092,51.338366 L54.4859721,51.3297413 L54.4310088,51.3254289 L54.3794205,51.3127314 L54.3401266,51.2938049 L54.2222448,51.2142659 L54.0093826,51.1304145 L53.9454998,51.0877701 L53.8845099,51.034824 L53.8148415,50.990263 L53.7427624,50.9567224 L53.6865938,50.9425875 L53.557864,50.9756489 L53.4238307,51.0489589 L53.2825655,51.0789058 L53.1526303,50.9548058 L53.1393716,50.9018596 L53.1425055,50.8383722 L53.1343092,50.8239977 L53.1275594,50.8208832 L53.1174345,50.8225602 L53.1056223,50.8350181 L53.0981492,50.8723919 L53.1099615,50.9533684 L53.169505,51.0745935 L53.1868618,51.1656321 L53.1446751,51.2950028 L53.0509,51.394187 L52.9395271,51.4377897 L52.8406896,51.3726252 L52.8310469,51.2921279 L52.8645552,51.1594032 L52.8604571,51.1215503 L52.8375557,51.1035821 L52.8018778,51.1066966 L52.7608964,51.1280188 L52.7264238,51.1622781 L52.6859245,51.1663509 L52.5649089,51.2085161 L52.489696,51.2197762 L52.4041172,51.2013289 L52.3445736,51.1692258 L52.2874407,51.1181962 L52.2370577,51.0551879 L52.1854694,51.0123039 L52.1355685,51.0036792 L52.0989263,51.0250014 L52.0813284,51.0916033 L52.0924175,51.1385601 L52.1953531,51.3917913 L52.0338382,51.5726707 L52.0094904,51.6141172 L51.9190903,51.589441 L51.8041013,51.5163705 L51.7604682,51.4996002 L51.7146654,51.5060687 L51.705746,51.5400884 L51.7035764,51.6239398 L51.6640414,51.7245615 L51.6143816,51.7791846 L51.4318938,51.9344295 L51.3974212,51.9859382 L51.3583684,52.0709874 L51.3400473,52.1541201 L51.3600558,52.2245553 L51.4126084,52.3297288 L51.4263493,52.347697 L51.5256689,52.4559851 L51.6003997,52.6392602 L51.569302,52.7746203 L51.4446704,52.8536802 L50.8562257,52.9595725 L50.6715684,53.0647461 L50.6019,53.0834329 L50.4565366,53.0817559 L50.3994037,53.0906202 L50.3545652,53.1136194 L50.3147891,53.153389 L50.285379,53.2027415 L50.2275229,53.3630174 L50.2132999,53.5134707 L50.2412637,53.6517057 L50.3087625,53.781316 L50.403984,53.9197906 L50.4664203,54.0580255 L50.4681078,54.1924273 L50.3914485,54.3711505 L50.2880307,54.4727305 L50.15231,54.4947714 L50.0095983,54.4516479 L49.7774507,54.2987988 L48.9002078,53.8790627 L48.7524337,53.8500741 L48.6118916,53.8668444 L48.4850903,53.9226655 L48.3766102,54.0129854 L48.3484053,54.0510779 L48.2406483,54.2508837 L48.1266236,54.3814523 L48.0641873,54.4923757 L48.070455,54.5819769 L48.1259004,54.6742134 L48.2406483,54.8110109 L48.2567998,54.8869563 L48.2560766,54.8919874 L48.2351038,55.0661587 L48.2401662,55.1885817 L48.2302825,55.2456006 L48.2131667,55.2721935 L48.1801405,55.3105256 L48.1555517,55.3457431 L48.1456679,55.3812003 L48.1572391,55.4595414 L48.2059347,55.6023284 L48.2112382,55.6962419 L48.185444,55.8064466 L48.0545446,56.0891455 L47.9757157,56.3167421 L47.9007438,56.4379672 L47.7953975,56.4933092 L47.6707659,56.4485086 L47.5859103,56.3692091 L47.5065992,56.2745768 L47.4477789,56.2218703 L47.4347612,56.2290575 L47.4212615,56.2443903 L47.3918513,56.3095548 L47.3467718,56.456175 L47.3388166,56.5122356 L47.2869871,56.7024585 L47.2551663,56.7819975 L47.182123,56.8713591 L47.1206509,56.9302946 L47.0683393,56.9583249 L46.952145,56.926701 L46.9439487,56.8406934 L46.9981888,56.6782613 L46.962752,56.5402659 L46.87645,56.4988194 L46.7985853,56.5328391 L46.7768893,56.6463978 L46.8000317,56.6868861 L46.8443881,56.7395926 L46.8757268,56.8081112 L46.8501737,56.8929209 L46.8465577,56.9405964 L46.9171903,57.1075804 L46.9285205,57.204848 L46.8880212,57.3073863 L46.8077459,57.3572179 L46.7320508,57.3668009 L46.6515344,57.3668009 L46.614169,57.3857274 L46.6192314,57.4317259 L46.6616592,57.5043172 L46.714694,57.554628 L46.7993085,57.5843354 L46.8463166,57.6233862 L46.8253438,57.6950192 L46.7744786,57.7319138 L46.7354258,57.741976 L46.4324045,57.7544339 L46.416253,57.7599441 L46.5690895,57.9841867 L46.6623824,58.1609933 L46.6226064,58.2604171 L46.556554,58.2767082 L46.5013497,58.306176 L46.4577165,58.3389978 L46.441324,58.3677468 L46.4254135,58.4372237 L46.3292278,58.5977392 L46.2995765,58.7525049 L46.2600416,58.7525049 L46.2516042,58.7220788 L46.2523274,58.7520257 L44.1743295,58.8095238 L44.1359999,58.7970659 L44.1237055,58.7584943 L44.1232233,58.7362137 L44.1345535,58.6940485 L44.251471,58.4666915 L44.2849793,58.4226096 L44.3363266,58.3356437 L44.377549,58.2874891 L44.4110574,58.2417302 L44.4315481,58.2254391 L44.4551726,58.214179 L44.5383408,58.1907006 L44.5617243,58.1748887 L44.574983,58.1502124 L44.5853488,58.1133178 L44.5945094,58.0579759 L44.6041521,58.0344975 L44.6176518,58.0126961 L44.6335622,57.9942488 L44.6716508,57.9678955 L44.693829,57.9573542 L44.7389085,57.9436984 L44.8078537,57.9142307 L44.9165749,57.8500245 L44.9305568,57.8260669 L44.9361014,57.8090571 L44.9476726,57.7350283 L44.959967,57.7029252 L44.9782881,57.6825613 L45.0016716,57.6684263 L45.0949646,57.6363232 L45.1166606,57.6161989 L45.1318478,57.589606 L45.1405262,57.5577425 L45.1400441,57.5424097 L45.1258211,57.4293301 L45.1275086,57.3984249 L45.1508921,57.2779185 L45.1460708,57.2436592 L45.1328121,57.2168268 L45.1118392,57.1943067 L45.0980984,57.1835258 L44.9874487,57.1133302 L44.9749132,57.0984765 L44.9621366,57.0759564 L44.9508065,57.0232499 L44.9438155,56.9408359 L44.9025931,56.9058579 L44.8936736,56.8922021 L44.8587189,56.7966116 L44.8425674,56.7671438 L30.4525526,56.7671438 L30.4535169,54.7662103 L6.50784578,54.7662103 L6.46855185,38.2556343 L0.00891948044,38.2544364 L0.0139818883,36.0913104 L0.0115712179,35.5558595 L0.0120533519,35.0189711 L0.0115712179,34.4808848 L0.0127765531,33.4020769 L0.0115712179,31.7753602 L0.0127765531,31.2308054 L0.00409813966,25.7279987 L0.00650881005,24.6137337 L0.00241067039,22.9333521 L0.00289280447,21.8126185 L0,20.6456469 L0.0571328882,20.6466052 L0.0585792904,20.619054 L0.0291691117,1.86365679 L28.6737189,1.86341721 L28.6879419,1.85742783 L28.7002363,1.84041797 L28.7072273,1.7944195 L28.702647,0 L28.9249108,0.0915177905 L29.3113413,0.0804973235 L29.5051592,0.13703711 L29.7438155,0.281740632 L29.7970913,0.330374432 L29.8380727,0.418298592 L29.8662776,0.633916423 L29.8923128,0.724475912 L29.9062947,0.820545634 L29.8908664,1.03951752 L29.9137678,1.13367064 L29.9499278,1.22806333 L30.212932,2.27476812 L30.2061821,2.71942 L30.2153426,2.79656327 L30.2399315,2.86699843 L30.2787433,2.91826755 L30.5805592,3.16526976 L30.8110193,3.26852674 L30.9308296,3.28577617 L31.4729894,3.22156997 L31.5474791,3.23474661 L31.5846034,3.2553501 L31.6111208,3.27619315 L31.651379,3.32171247 L31.6754857,3.36651307 L31.6817534,3.39382466 L31.69453,3.50546678 L31.7355114,3.52271621 L32.892151,3.59985947 L33.0343806,3.70383518 L33.1202005,4.06439611 L33.2081899,4.1676531 L33.2631532,4.17867356 L33.7192521,4.10680095 L33.7674655,4.12836274 L33.873776,4.07397913 L34.1064057,4.05529225 L34.1946363,3.99276308 L34.2141627,3.93310881 L34.2100645,3.86986091 L34.2204304,3.79846745 L34.2387515,3.78864486 L34.3489192,3.75606261 L34.4542655,3.70335603 L34.8667312,3.62812937 L35.7921875,3.69521047 L35.8645076,3.72084504 L36.0908696,3.874892 L36.5980746,4.02486618 L36.8552932,4.08715577 L36.9261669,4.18370465 L36.9384613,4.29462804 L36.8555342,4.32912689 L36.7075191,4.36721938 L36.6636449,4.39165607 L36.6431542,4.4779032 L36.6769036,4.5274953 L36.7511522,4.54163025 L36.8121422,4.55744222 L37.0980477,4.51743313 L37.2441343,4.5255787 L37.3702124,4.5907432 L37.426622,4.70909343 L37.4519341,4.79989249 L37.4560322,5.01407287 L37.4680856,5.10559066 L37.5015939,5.1820152 L37.6054938,5.3240834 L37.7151793,5.56437749 L37.7443484,5.59767847 L37.7834013,5.59672016 L37.8617481,5.56701282 L37.9304522,5.52484755 L37.9610677,5.48771337 L37.9581749,5.40314327 L37.9292468,5.30899015 L37.9222559,5.1937544 L38.0078347,5.07516459 L38.0900385,5.03443678 L38.4268092,4.98388637 L38.7129558,5.00041707 L38.8149271,5.06869605 L38.8609709,5.1800986 L38.8908632,5.30899015 L38.9378713,5.43045486 L38.9802991,5.4884321 L39.0311643,5.53946165 L39.0849222,5.57563753 L39.4156662,5.72680959 L39.7037413,5.77137061 L39.7775078,5.81377545 L39.8310247,5.86791948 L39.9484243,6.03466394 L39.8833362,6.15301417 L39.9358889,6.19949179 L40.1661079,6.23758427 L40.1711703,6.23686555 L40.2350531,6.23303234 L40.2733827,6.24836516 L40.3114713,6.29747812 L40.3170158,6.36024686 L40.2955609,6.42804669 L40.3088196,6.43523395 L40.3095428,6.43523395 L40.5884573,6.41007854 L40.6817503,6.44242121 L40.7338208,6.47668049 L40.7740789,6.48961756 L40.9744057,6.38995421 L41.2542845,6.35761153 L41.3716841,6.27591633 L41.4770304,6.16020143 L41.910469,5.85234708 L42.0529396,5.78263065 L42.1134474,5.73926751 L42.3983887,5.57707498 L42.5697873,5.53946165 L42.6982761,5.62187558 L42.7108115,5.68823796 L42.7057491,5.70117503 L42.6746515,5.75220458 L42.6724819,5.78263065 L42.6893566,5.83006657 L42.7086419,5.847316 L42.7462484,5.86744033 L42.7898815,5.91200135 L42.8224256,5.98650929 L42.8424341,6.13073366 L42.8699158,6.19541901 L42.971405,6.26393756 L43.1155631,6.26154181 L43.4205129,6.16954487 L43.499824,6.16355548 L43.5506891,6.20404372 L43.5870902,6.24549026 L43.6384375,6.26465629 L43.6594103,6.26226054 L43.7613817,6.21458504 L43.802122,6.20404372 L43.8428624,6.22033485 L43.8679333,6.23518852 L44.8030324,6.10869273 L45.0072162,6.11611956 L45.1709007,6.19278368 L45.2101946,6.24165705 L45.3902717,6.54783437 L45.4228157,6.58928091 L45.4656123,6.62476318 L45.4900258,6.57097199 L45.5159261,6.54842392 L45.4846103,6.55053121 L45.4285714,6.46834665 L45.739375,6.25424532 L46.1865083,6.03382211 L46.3028242,5.95437703 L46.3706359,5.96533497 L46.4431567,5.94384055 L46.5121457,5.90380191 L46.5773673,5.84016156 L46.6666056,5.84290104 L46.8026999,5.77673193 L46.9475061,5.67916411 L47.0946669,5.54345421 L47.0946669,5.61236281 L47.3009274,5.46084819 L47.3451934,5.4829748 L47.4452627,5.44251471 L47.4928251,5.46169111 L47.5450966,5.41954518 L47.7845566,5.29690052 L47.8177561,5.33988937 L47.7478253,5.39320397 L47.7774929,5.38519624 L47.809986,5.36812714 L48,5.14285714 L47.8813295,5.37908508 L47.8648475,5.40331899 L47.8219943,5.45178681 L47.7339333,5.52680657 L47.5053043,5.65535166 L47.4419663,5.73205725 L47.4426727,5.74385811 L47.4657475,5.86039161 L47.4422018,5.89242251 L47.314113,5.99799807 L47.1483511,6.09388006 L46.3334336,6.40533848 L46.3214253,6.43273334 L46.1973393,6.50543507 L46.4471595,6.50543507 L46.4471595,6.58256212 L46.2611482,6.61016771 L46.2419742,6.6184541 L46.2865589,6.64246664 L46.3113888,6.64965391 L46.4217975,6.62521722 L46.4926712,6.62881085 L46.704087,6.68487148 L46.7108369,6.68391318 L46.8022013,6.68582979 L46.7180689,6.77303522 L46.6414096,6.76584796 L46.5580004,6.73518231 L46.5389561,6.74476533 L46.4842339,6.83532482 L46.3928695,6.88036498 L46.294032,6.99679861 L46.2318367,7.05070307 L45.1222051,7.62592353 L44.4684313,7.83459367 L44.3392194,7.91676803 L44.2775062,7.93832981 L44.1102057,7.96037074 L43.6733922,8.10387639 L42.8479787,8.55379893 L42.3328184,9.05067824 L42.1351435,9.13884198 L40.522405,10.8961273 L40.3008644,11.011363 L40.2716952,11.0566428 L40.2536152,11.1179741 L40.1986519,11.1555874 L40.1550188,11.1706807 L40.1335638,11.1836177 L40.1212694,11.2032629 L40.0896896,11.2715419 L40.0624491,11.3103531 L39.8785149,11.4529005 L39.7697937,11.502253 L39.598395,11.7030171 L39.393488,11.8434083 L39.2770526,11.8843757 L39.0909489,12.0501618 L38.7925079,12.2461345 L38.6478677,12.3805363 L38.5948329,12.5094278 L38.6213503,12.5638114 L38.6864384,12.6450275 L38.7609281,12.7164209 L38.8098647,12.7437325 L38.8542211,12.7576279 L39.0567174,12.8637598 L39.1280732,12.867593 L39.5935737,12.7921268 L40.3076142,12.521167 L40.5703773,12.4811579 L40.8251852,12.3738282 L40.8615863,12.4054521 L40.997307,12.2741648 L41.2540434,12.1062225 L41.4244778,11.9574462 L41.5642967,11.9215099 L41.5346455,12.0513597 L41.5466988,12.0590261 L41.5985282,12.0384227 L41.7084548,11.9224682 L41.7156868,12.0357873 L41.7132761,12.0482452 L41.7412399,12.066453 L41.7605253,12.0504014 L41.8130779,11.9416342 L41.8497201,11.9205516 L41.8909425,11.9066562 L41.9598877,11.9001877 L41.9647091,11.8867714 L41.9712179,11.8515539 L41.993396,11.8129822 L42.036306,11.7784834 L42.1710624,11.7140376 L42.180223,11.7051733 L42.1901067,11.6893613 L42.2202401,11.659654 L42.2655607,11.6476752 L42.2942477,11.6529459 L42.3448718,11.6740285 L42.3684963,11.6776221 L42.4294863,11.6718723 L42.4748069,11.6555812 L42.4793872,11.6462378 L42.4875835,11.6162909 L42.5061456,11.5714903 L42.5454396,11.545137 L42.6295719,11.5549596 L42.6572947,11.5662196 L42.7009278,11.5904167 L42.7103294,11.6213219 L42.7180436,11.6764243 L42.81664,11.6680391 L42.8588267,11.7073295 L42.9087276,11.632582 L42.9217452,11.6026351 L42.9465751,11.5269292 L43.0099757,11.573886 L43.0700014,11.6028746 L43.0974831,11.6285092 L43.1473839,11.7176312 L43.154857,11.7789625 L43.1064026,11.8259193 L43.0191363,11.8752718 L42.9704407,11.8077116 L42.8679872,11.7231415 L42.8800406,11.8072324 L42.9000492,11.8326274 L42.9453698,11.8709595 L42.960557,11.9404363 L42.8906476,11.9763726 L42.9092097,12.0343499 L42.8487019,12.1078995 L42.7674623,12.3232778 L42.7057491,12.3738282 L42.6507858,12.4071291 L42.6170365,12.4840328 L42.5987154,12.5786651 L42.5931708,12.6495794 L42.6049831,12.6912655 L42.6276434,12.7305559 L42.6471698,12.7916476 L42.6220989,12.8642389 L42.4145401,13.1174701 L42.3619875,13.2058734 L42.3366755,13.2688817 L42.3870585,13.2964329 L42.4709498,13.2779856 L42.8477376,13.1177097 L42.9251201,13.0585346 L42.9511554,13.0197234 L42.8658176,13.0197234 L42.8658176,12.9449758 L42.9082454,12.9169455 L42.9453698,12.9004148 L42.9648962,12.8968212 L42.9407895,12.8673534 L42.9227095,12.8534581 L42.9583874,12.8048243 L43.0241987,12.8477082 L43.2683996,13.0880023 L43.5564747,13.2559447 L43.7939257,13.317276 L43.9262715,13.3944192 L43.9699047,13.3963358 L44.1174377,13.2923601 L44.2025344,13.2501949 L44.2953452,13.2262373 L44.4074414,13.2168939 L44.4368515,13.209467 L44.6092145,13.1002207 L45.1819898,12.9131123 L45.3112017,12.8362086 L45.9022981,12.2830291 L46.0440455,12.2106773 L47.3178437,12.0539951 L47.602785,11.9167184 L47.8600035,11.7195478 L48.0916689,11.459369 L48.1753192,11.3862985 L48.2567998,11.3795904 L48.412047,11.416485 L48.4424215,11.4097769 L48.5651246,11.356112 L48.6728815,11.3374251 L48.6940954,11.3292796 L48.7430321,11.2760938 L48.854164,11.085871 L48.8855027,11.0219044 L48.9570996,10.8779196 L48.9795188,10.8599514 L49.0744992,10.8108385 L49.6101502,10.3455831 L49.7044074,10.2919182 L49.8075841,10.297668 L49.8319319,10.3798424 L49.8603778,10.297668 L49.9240195,10.2315452 L50.0604634,10.1460168 L50.1154267,10.0887583 L50.4271264,9.66207458 L50.5346423,9.58373343 L50.7947536,9.45100868 L50.8771985,9.37314669 L50.9155282,9.34799127 L50.972179,9.35853259 L51.0090622,9.37793819 L51.0271422,9.38320885 L51.0469097,9.37170923 L51.0919893,9.31828393 L51.1491222,9.27492078 L51.3829572,9.18004894 L51.6613896,9.12662363 L52.4267775,9.12854024 L52.4906602,9.14818542 L52.6179436,9.22389123 L52.6717016,9.27587909 L52.737754,9.38296928 L52.7869316,9.43088435 L52.7869316,9.50299653 L52.6938798,9.51162125 L52.5757569,9.58397301 L52.5046421,9.60361819 L52.4260543,9.59331645 L52.2898514,9.5470784 L52.227174,9.53797454 L52.1647376,9.54588053 L51.9892408,9.60337861 L51.8431542,9.59643093 L51.7973514,9.60481607 L51.788673,9.61655526 L51.8429131,9.63069021 L51.9709197,9.68746957 L52.043963,9.7718001 L51.8192885,9.95986676 L51.7385311,10.0077818 L51.6758536,10.0228751 L51.6650056,10.0322185 L51.6107655,10.1450585 L51.5695431,10.1721305 L51.4887856,10.2049524 L51.4603397,10.2284307 L51.3311278,10.3858318 L51.281709,10.4287158 L51.2306028,10.434226 L51.1886572,10.4318302 L51.1599702,10.4411737 L51.1206763,10.4871721 L51.0842751,10.5669507 L51.0739093,10.6412191 L51.1083818,10.7003942 L51.1083818,10.7703502 L51.0162942,10.7703502 L50.9719379,10.7770583 L50.9456616,10.7986201 L50.9316797,10.8597118 L50.896725,10.9306262 L50.7725755,10.9936345 L50.7491919,11.0298104 L50.6505955,11.2823228 L50.5821325,11.4100165 L50.5286156,11.4823682 L50.4570187,11.5183045 L50.4345995,11.4814099 L50.4440011,11.5271688 L50.4336352,11.6328216 L50.407841,11.7509322 L50.3714399,11.8628139 L50.3347977,11.9351657 L50.3499849,11.9766122 L50.3526367,12.0250064 L50.3413065,12.0731611 L50.3181641,12.122274 L50.3099678,12.1562937 L50.3188873,12.1948654 L50.3827701,12.3268714 L50.3931359,12.3570579 L50.5522402,12.1287426 L50.5020982,12.06813 L50.5683917,12.0132672 L50.6814521,11.9986531 L50.7226746,11.9787684 L50.8239227,11.8680846 L50.9196263,11.8247214 L51.0567935,11.6862469 L51.2089068,11.573886 L51.2713432,11.5456161 L51.4150191,11.5559179 L51.3598148,11.6857677 L51.2578434,11.7851915 L51.0857215,11.8747927 L51.0266601,11.9814037 L50.97242,12.1083787 L50.9278226,12.1721057 L50.9396349,12.1685121 L51.0206334,12.0940041 L51.0849983,12.0008093 L51.1199531,11.8973128 L51.1790145,11.8316691 L51.443465,11.7545258 L51.6273992,11.7370368 L52.1529253,11.7839936 L52.5140437,11.8860527 L52.5649089,11.939478 L52.5714177,11.9576858 L52.5837121,11.9593628 L52.6198722,11.9545713 L52.6668802,11.9715811 L52.698219,12.023569 L52.7300398,12.1067016 L52.7510126,12.1280238 L52.7724676,12.1311383 L52.8537072,12.1043059 L52.9036081,12.1158055 L52.9424199,12.2485302 L52.9523036,12.24302 L53.0453555,12.2106773 L53.1073097,12.3242361 L53.1608266,12.5297917 L53.2006027,12.5889668 L53.345725,12.7494823 L53.3847779,12.8060221 L53.4047864,12.8812488 L53.4551695,12.9581525 L53.5166416,13.0214004 L53.5846225,13.0721904 L53.5788369,13.1445421 L53.6002918,13.1735307 L53.7620478,13.2485178 L53.8073684,13.2763086 L53.8256895,13.3270986 L53.8415999,13.5563722 L53.8806528,13.6387861 L53.949839,13.676639 L54.3283143,13.7413244 L54.467651,13.6713684 L54.6265142,13.7025132 L54.6894327,13.6972425 L54.7089591,13.6775973 L54.75886,13.5997353 L54.7909219,13.5673926 L54.8873487,13.5755382 L54.9160357,13.5721842 L54.9389371,13.5561326 L54.9767846,13.5178005 L55.0348818,13.5031864 L55.0946664,13.5154048 L55.1423977,13.5405602 L55.1860308,13.5832046 L55.2000127,13.6160264 L55.2038698,13.6450151 L55.2185748,13.6826284 L55.308975,13.8155927 L55.3253675,13.8246966 L55.3617687,13.8234987 L55.416732,13.8359566 L55.4379459,13.8905798 L55.46374,13.9425677 L55.5199086,13.9502341 L55.5977733,13.9298702 L55.6546651,13.8960901 L55.7607346,13.7763024 L55.8434206,13.7434805 L55.9265887,13.8160719 L55.988543,13.9020794 L56.0369974,13.9380157 L56.0996749,13.9516715 L56.2255119,13.9528694 L56.2038158,14.0316897 L56.2556453,14.0173152 L56.3236262,13.9485571 L56.3033765,13.9567026 L56.1907982,13.9456822 L56.1980302,13.911902 L56.1927268,13.9016003 L56.1842894,13.9432864 L56.1322189,13.9502341 L56.0791842,13.9178914 L56.0755682,13.8857883 L56.0782199,13.8517686 L56.0652023,13.795708 L56.0114443,13.6893365 L55.9984267,13.6323176 L56.0083105,13.5170818 L56.0500151,13.4464071 L56.1300493,13.4171789 L56.2257529,13.4500007 L56.2657701,13.4840204 L56.2877072,13.5197171 L56.3289296,13.6332759 L56.272761,13.7238354 L56.2575738,13.7571363 L56.2575738,13.7688755 L56.2614309,13.770313 L56.305064,13.7614487 L56.3713574,13.7724692 L56.3930535,13.8565601 L56.5010515,13.6931697 L56.54589,13.6407027 L56.7025835,13.5060614 L56.7534487,13.4854579 L56.8674734,13.4648544 L56.9974085,13.3544101 L57.3643126,13.1881448 L57.8180007,12.8570517 L57.9178025,12.92006 L57.9956671,12.9344345 L58.5156487,12.8254277 L58.62437,12.7581071 L58.6518516,12.7966787 L58.7379125,12.7791897 L58.7427339,12.7796688 L59.8311516,12.8949046 L59.9714526,12.8702283 L60.5560402,12.5681238 L60.8602668,12.4687 L61.1155568,12.4464195 L61.3894089,12.4804392 L61.4542559,12.4713353 L61.5832268,12.4284513 L61.7124387,12.4092853 L61.6673592,12.5441663 L61.6109495,12.5937584 L61.5559862,12.6316113 L61.5178976,12.6809638 L61.5017462,12.7442117 L61.4458186,13.2830167 L61.4899339,13.4437718 L61.4489525,13.5405602 L61.3696414,13.6361508 L61.3886857,13.6914927 L61.4130335,13.7410848 L61.4448543,13.7727087 L61.4933088,13.7899582 L61.5321206,13.7834896 L61.6427704,13.730783 L61.6970105,13.7219188 L61.7469113,13.7583342 L61.7893391,13.8189468 L61.8021157,13.8270923 L61.9274705,13.8584767 L62.058611,13.9432864 L62.1000745,13.9521507 L62.2018048,13.9413698 L62.3158295,13.9095063 L62.4173188,13.8589559 L62.5098885,13.7753441 L62.6292167,13.7413244 L62.7726516,13.840269 L62.8582304,13.9753895 L62.831713,14.0606783 L62.9090955,14.1078747 L63.0231202,14.0815214 L63.1303951,14.0156382 L63.1270201,13.970598 L63.1347343,13.9612546 L63.1776442,13.918131 L63.2166971,13.8668619 L63.2759996,13.8093638 L63.3579623,13.7041902 L63.4818708,13.6589104 L63.6127702,13.6464525 L63.7581336,13.7408452 L63.946407,13.6339946 L64.0990024,13.5360083 L64.280767,13.5647573 L64.4227555,13.6464525 L64.2609995,14.0954168 L64.2949899,14.242516 L64.3641762,14.3704493 L64.4350499,14.4873621 L64.4242019,14.5237775 L64.3972024,14.5278503 L64.3938274,14.5273711 L64.3897293,14.5491725 L64.356221,14.61266 L64.266303,14.5412665 L64.2532853,14.5367146 L64.3089718,14.5990042 L64.3757474,14.7111255 L64.4249251,14.8498396 L64.402988,14.9713043 L64.2793206,15.0391041 L64.2014559,14.9636379 L64.101172,14.9725022 L63.9948615,15.0704885 L63.9403803,15.0884567 L63.939416,15.1107372 L63.9953436,15.2053694 L64.0464498,15.2571177 L64.0618781,15.2456181 L64.1038238,15.196026 L64.205313,15.1878804 L64.3089718,15.2034528 L64.3875597,15.2295665 L64.4244429,15.3241988 L64.4299875,15.3251571 L64.4765134,15.3186886 L64.5141199,15.3261154 L64.5857168,15.3711556 L64.6119931,15.3816969 L64.70167,15.3816969 L64.6483942,15.4827977 L64.6139216,15.5309524 L64.5960827,15.5709614 L64.5943952,15.6258242 L64.6095824,15.6574482 L64.7226429,15.8074223 L64.7672403,15.8539 L64.8091859,15.8692328 L64.8549887,15.8745034 L64.9335765,15.8987006 L64.9762454,15.9286475 L65.0191553,15.9756042 L65.0536279,16.0048324 L65.1134125,16.0223214 L65.1625902,15.9444594 L65.2655258,15.9825519 L65.3330246,16.0520288 L65.3728007,16.0762259 L65.3867825,16.0692782 L65.438612,15.9820728 L65.4682632,15.9571569 L65.5239497,15.950928 L65.5589044,15.9375118 L65.6336352,15.8970235 L65.7134284,15.8642017 L65.7356066,15.8479106 L65.7498295,15.8186824 L65.7488652,15.7614239 L65.7317495,15.7484868 L65.679679,15.7350706 L65.6271264,15.6955406 L65.6314656,15.5874921 L65.748142,15.5608993 L65.970888,15.5776696 L66.1213138,15.6655937 L66.1844734,15.7432161 L66.2348564,15.9461365 L66.2900607,15.9777604 L66.373711,15.9947703 L66.4551917,16.0656846 L66.442174,16.1342031 L66.3247744,16.397736 L66.2531775,16.4504426 L66.1519293,16.4640984 L66.0528508,16.4528384 L65.9692005,16.4226519 L65.837819,16.3390401 L65.7879181,16.3380818 L65.7143927,16.405642 L65.6729291,16.4236102 L65.6237514,16.3979756 L65.5859039,16.368987 L65.5632436,16.359404 L65.4472904,16.362758 L65.4060679,16.3876739 L65.3566492,16.3939028 L65.3498993,16.3562895 L65.3359174,16.3203532 L65.2585349,16.26573 L65.237321,16.2398559 L65.2153839,16.205357 L65.19417,16.1792433 L65.183322,16.2192524 L65.1380014,16.2135026 L65.1030466,16.1996072 L65.089788,16.1749309 L65.0847255,16.19242 L65.0774935,16.284896 L64.9969771,16.2422516 L64.8328105,16.2666883 L64.8062931,16.2767505 L64.7790525,16.2985518 L64.7349373,16.3251447 L64.6794919,16.308614 L64.6587601,16.2951978 L64.0165575,16.1619939 L63.8075524,16.1708582 L63.7603032,16.1548066 L63.698349,16.1143184 L63.6706263,16.1080894 L63.6576087,16.1126414 L63.6224129,16.1457028 L63.6166273,16.1802016 L63.5498517,16.1567232 L63.5469589,16.1665458 L63.5534677,16.1655875 L63.6106006,16.1936178 L63.6455553,16.2376997 L63.68051,16.3328111 L63.493201,16.3237073 L63.4348627,16.3047808 L63.3155346,16.2417725 L63.3625426,16.205357 L63.3179452,16.1964927 L63.3179452,16.1267763 L63.3504893,16.0999439 L63.3695336,16.0802987 L63.2950439,16.0709552 L63.2870886,16.0838923 L63.2562321,16.2348248 L63.1412431,16.1128809 L63.1402788,16.1131205 L63.0703694,16.1698999 L63.0139597,16.1749309 L62.990094,16.1250993 L62.9859959,16.063768 L62.968398,15.9890205 L62.9278988,15.9327203 L62.885712,15.91595 L62.8177311,15.958834 L62.7053939,15.8876801 L62.6321095,15.8737847 L62.5841372,15.9152313 L62.5494235,16.1586398 L62.5122992,16.1905033 L62.4773445,16.1962532 L62.4457647,16.2221273 L62.4206937,16.2733964 L62.418042,16.314843 L62.4313007,16.345269 L62.4819247,16.3907884 L62.4211758,16.4700878 L62.4122564,16.55346 L62.4320239,16.6246139 L62.5132634,16.6732477 L62.382123,16.7925562 L62.2078315,16.7621302 L62.0576467,16.6710915 L61.9920765,16.5774176 L61.9679698,16.5029096 L61.9151761,16.4585882 L61.8435792,16.4305579 L61.7772858,16.423131 L61.7310009,16.37857 L61.66302,16.2508763 L61.6362616,16.2245231 L61.594798,16.1936178 L61.4793269,16.0537058 L61.432801,16.0124989 L61.1194138,15.9133146 L60.9533186,15.8093389 L60.8853377,15.7901729 L60.663315,15.7825065 L60.5864146,15.75232 L60.4731131,15.6485839 L60.4253818,15.6306157 L60.3631865,15.6763746 L60.3156963,15.6945823 L60.2648312,15.6560107 L60.2224034,15.6136059 L60.2021537,15.6011479 L60.1884129,15.6035437 L60.0852362,15.6629584 L59.8282588,15.6382821 L59.7757062,15.6706248 L59.5698349,15.941345 L59.5073985,16.0810174 L59.4574977,16.1629522 L59.3878293,16.2022425 L58.9654798,16.19242 L58.6306377,16.2427308 L58.5857992,16.2695632 L58.5679603,16.3215511 L58.5877278,16.4839832 L58.3437679,16.3344881 L58.1434412,16.2654904 L58.0320683,16.2537512 L57.4899085,16.3399984 L57.3512949,16.4597861 L57.3232749,16.5117664 L57.3426637,16.5451619 L57.3391809,16.5947686 L57.3151886,16.6882751 L57.3298936,16.7475398 L57.3817478,16.8616792 L57.3832957,16.9374063 L57.2772654,17.0405707 L57.0969365,17.1112493 L56.8941632,17.1428571 L56.8673348,17.1389751 L56.858795,17.1480861 L56.7158422,17.213011 L56.6377365,17.2185213 L56.6182101,17.2237919 L56.6114602,17.236729 L56.6102549,17.28129 L56.5996479,17.339986 L56.5781929,17.3831095 L56.4721235,17.4219207 L56.4316242,17.4751065 L56.3653308,17.6466424 L56.3315814,17.6641314 L56.305064,17.6612565 L56.3019301,17.6729957 L56.3053051,17.6940784 L56.319528,17.7292959 L56.3325456,17.775534 L56.3474918,17.8349487 L56.3470097,17.899634 L56.2867429,17.9377265 L56.2322617,17.9173626 L56.1980302,17.8905302 L56.1416205,17.8339904 L56.0384438,17.7532535 L56.0042123,17.7043801 L55.959856,17.6071125 L55.9738379,17.5373961 L55.998615,17.5135894 L55.9689796,17.4940924 L55.7142857,17.2035446 L55.78,17.1466165 L55.8461224,17.1428571 L55.8914286,17.165145 L56.0012245,17.2344253 L56.095102,17.3219656 L56.1131764,17.3573338 L56.1408973,17.2578116 L56.1628344,17.2338541 L56.2016462,17.2252294 L56.2153871,17.1624606 L56.2300921,17.1248473 L56.2264761,17.1061604 L56.2382884,17.0663909 L56.290841,17.0601619 L56.3725628,17.0599224 L56.4079996,17.0673492 L56.4446418,17.0853173 L56.4398205,17.0783697 L56.4333117,17.0716616 L56.4229458,17.0100907 L56.4255975,17.003143 L56.5263635,16.7122985 L56.4962302,16.6588732 L56.4750163,16.6344365 L56.4506685,16.6289263 L56.3911249,16.6447382 L56.3315814,16.6703728 L56.2838501,16.7039134 L56.2406991,16.7479952 L56.1888697,16.8155555 L56.1054605,16.8617935 L56.0133729,16.823701 L55.8971786,16.7391309 L55.8477598,16.7391309 L55.7913501,16.750391 L55.7677256,16.7762651 L55.7964125,16.8668246 L55.7749576,16.9300725 L55.7494045,16.9772689 L55.7151729,17.0153613 L55.6826289,17.0388397 L55.6826289,17.100171 L55.5941573,17.2364894 L55.5727023,17.3047684 L55.5488367,17.3584333 L55.4953198,17.3970049 L55.4352941,17.4233582 L55.3444118,17.438691 L55.2340031,17.4767835 L55.2173695,17.4966683 L55.1951913,17.5718949 L55.1240766,17.5373961 L55.085988,17.4662422 L55.0712829,17.3886198 L55.0978003,17.1634189 L55.0924968,17.0965774 L55.0739346,17.0491415 L55.0491047,16.9957162 L55.0259623,16.9183333 L55.0254802,16.8306487 L55.0454887,16.7726715 L55.114675,16.6607898 L55.1382995,16.6040104 L55.1445673,16.5632826 L55.1460137,16.5096177 L55.1366121,16.4856602 L55.1190142,16.4856602 L55.0929789,16.5307004 L55.0339175,16.7626093 L54.996311,16.8308883 L54.9488208,16.8656267 L54.9085626,16.9521134 L54.8627599,17.1286805 L54.8420281,17.3375902 L54.8319033,17.3498086 L54.783931,17.4997827 L54.7118519,17.5551246 L54.5766133,17.6018418 L54.5276767,17.6437675 L54.3984648,17.9147273 L54.3225287,17.9942663 L54.2133253,18.1650835 L54.1795759,18.2336021 L54.1197913,18.4573655 L54.0925507,18.4952184 L54.0310786,18.5644557 L54.0163735,18.6027877 L53.9973292,18.7089196 L53.978526,18.7630636 L53.2697889,19.8356426 L53.1437108,19.9072756 L53.1347914,19.9880125 L53.1637194,20.189735 L53.144434,20.2460352 L53.0610249,20.3749267 L53.0513822,20.4046341 L53.0496947,20.4515908 L53.0530696,20.5467023 L53.0345075,20.6597818 L52.9882226,20.7309357 L52.9315719,20.7721427 L52.8573232,20.8061624 L52.5620161,20.8734831 L52.4265364,20.9314603 L52.3474664,21.0347173 L52.3821801,21.1614527 L52.3161277,21.3006459 L52.1382202,21.5085974 L52.1206223,21.5462107 L52.0998906,21.5981985 L52.0847033,21.6528217 L52.0791588,21.6990598 L52.0567396,21.7639847 L52.0213027,21.8049521 L51.9477773,21.8727519 L51.9176439,21.9182712 L51.9017335,21.9544471 L51.8810017,22.0560271 L51.8829302,22.0751931 L51.9031799,22.1477844 L51.8812428,22.1889914 L51.8643681,22.2021681 L51.8366454,22.2548746 L51.8132619,22.2886548 L51.8000032,22.3193204 L51.7879498,22.4146714 L51.756129,22.5615311 L51.7353972,22.5783014 L51.7546826,22.6108836 L51.8168779,22.6700587 L51.864127,22.7024014 L51.9316258,22.7186925 L52.0056334,22.7141406 L52.0603556,22.6774856 L52.0859087,22.581895 L52.1227919,22.492773 L52.1919782,22.4173067 L52.3399933,22.3059042 L52.5694892,22.2043242 L52.5998636,22.1731794 L52.6261399,22.1235873 L52.6825496,22.0512356 L52.7083438,21.9949354 L52.6794157,21.9256981 L52.7888602,21.6945078 L52.9072241,21.5076391 L52.9650802,21.4391205 L53.0496947,21.3593419 L53.1533535,21.2987293 L53.2782263,21.3071145 L53.2717174,21.3353844 L53.3932152,21.2033783 L53.4691513,21.2544079 L53.5176058,21.2132009 L53.6135505,21.1554633 L53.7352894,21.2606369 L53.8290644,21.4166004 L53.881376,21.4712236 L53.9286251,21.4879939 L53.8290644,21.391445 L53.7451731,21.2117635 L53.7217896,21.0265717 L53.7649406,20.8298803 L53.8459391,20.6616984 L54.0448194,20.4096651 L54.0751939,20.4008009 L54.1002649,20.4060715 L54.0956846,20.362948 L54.1031577,20.3289283 L54.1465497,20.2594514 L54.1586031,20.224713 L54.1730671,20.0783324 L54.1966917,19.9868146 L54.2403248,19.9008071 L54.2943238,19.8473818 L54.3521799,19.856246 L54.4131699,19.8792453 L54.4399283,19.8814015 L54.4541513,19.8514545 L54.4847668,19.798748 L54.593488,19.7573014 L54.6096395,19.7285524 L54.6175947,19.6703356 L54.6776204,19.4532803 L54.7183607,19.4329164 L54.7574136,19.4259687 L54.7610296,19.4180627 L54.7619939,19.3814077 L54.7685027,19.341159 L54.7829667,19.3037853 L54.8299748,19.2352667 L54.8948218,19.3037853 L54.9181897,19.3152942 Z M59.8166311,16.4619976 L59.8281701,16.5451651 L59.8572683,16.586152 L60,16.6601671 L59.9390443,16.7982491 L59.8755801,17.017111 L59.8206447,17.1022682 L59.7659601,17.1313172 L59.6892011,17.1428571 L59.6136962,17.1337047 L59.5391948,17.0962992 L59.4845102,17.0350179 L59.3718801,16.821727 L59.2153518,16.5972941 L59.1428571,16.4608038 L59.260755,16.3434142 L59.3620971,16.3537604 L59.5988963,16.4512535 L59.6756553,16.5252686 L59.6834316,16.4962197 L59.6932146,16.385197 L59.7336009,16.2857143 L59.8166311,16.4619976 Z M41.9237358,11.3265688 L41.8768997,11.3628838 L41.8578337,11.4040053 L41.9104725,11.5714286 L41.7193976,11.4632844 L41.64189,11.4411215 L41.5511191,11.435514 L41.2336281,11.4523364 L41.1428571,11.3911883 L41.2676154,11.271028 L41.3558994,11.2373832 L41.6327715,11.1957276 L41.8557613,11.1428571 L42,11.1607477 L41.9979276,11.2814419 L41.9237358,11.3265688 Z M41.5714286,10.2857143 L41.5685106,10.3462585 L41.5389666,10.3825397 L41.5615805,10.5371882 L41.4233435,10.6333333 L41.1428571,10.7142857 L41.1687538,10.5201814 L41.2355015,10.3761905 L41.3525836,10.2857143 L41.5714286,10.2857143 Z" id="Combined-Shape"></path>
                                    </g>
                                    <path d="M39.6426667,34.3536 C38.7738667,35.3557333 37.3525333,35.3557333 36.4837333,34.3536 C36.4837333,34.3536 25,21.1018667 25,13.0634667 C25,5.8496 30.8485333,0 38.0634667,0 C45.2778667,0 51.1269333,5.84906667 51.1269333,13.0634667 C51.1269333,21.1018667 39.6426667,34.3536 39.6426667,34.3536 Z M33.6657922,17.7013946 L33.2872779,20.8301898 C34.4845375,21.4695979 35.6221404,21.7332405 36.5154978,21.8321682 L36.5077262,23.7288042 L39.089699,23.7132077 L39.098123,21.6906565 C41.0913922,21.1161521 42.2783507,19.4208129 42.287242,17.3356535 C42.2969048,14.9594804 40.3509131,13.6372979 38.0969307,12.7965635 C37.2653816,12.5097435 36.5552686,12.1389524 36.4776954,11.3059958 C36.419734,10.4721274 36.8897409,9.69794124 37.9278299,9.62960444 C38.3749127,9.60549701 39.2900248,9.57960516 40.8929793,10.2368911 L41.2706312,7.35765052 C40.3980004,7.04996173 39.7069082,6.88771309 39.1592421,6.80788318 L39.1668176,4.93160769 L36.5848046,4.94741109 L36.576818,6.94836041 C34.745398,7.52233145 33.5384652,9.2182972 33.5297804,11.3238954 C33.5194649,13.8249101 35.5472097,15.0006535 37.8210859,15.8411752 C38.6327009,16.1284148 39.2616679,16.499537 39.3177419,17.3538665 C39.3972026,18.1663619 38.6614506,18.7961324 37.8087693,18.8642207 C37.1364616,18.931082 35.3274388,18.8995948 33.6657922,17.7013946 Z" id="Combined-Shape" fill="#FF4489" fill-rule="nonzero"></path>
                                </g>
                            </g>
                        </g>
                    </g>
                </g>
            </g>
        </g>
    </g>
</svg>