<?xml version="1.0" encoding="UTF-8"?>
<svg width="64px" height="56px" viewBox="0 0 64 56" version="1.1" xmlns="http://www.w3.org/2000/svg" xmlns:xlink="http://www.w3.org/1999/xlink">
    <!-- Generator: Sketch 46.2 (44496) - http://www.bohemiancoding.com/sketch -->
    <title>Group 12</title>
    <desc>Created with Sketch.</desc>
    <defs></defs>
    <g id="Index" stroke="none" stroke-width="1" fill="none" fill-rule="evenodd">
        <g id="AVCO_Vacations_by_State_1440" transform="translate(-584.000000, -1371.000000)">
            <g id="Content" transform="translate(110.000000, 92.000000)">
                <g id="Anchors" transform="translate(213.000000, 1163.000000)">
                    <g id="Group-11" transform="translate(0.000000, 72.000000)">
                        <g id="Anchor2" transform="translate(210.000000, 0.000000)">
                            <g id="Name-of-City/Ranking/Titile" transform="translate(37.000000, 44.000000)">
                                <g id="raiting_icon_1" transform="translate(13.582524, 0.000000)">
                                    <g id="Group-12">
                                        <g id="Northeast_Icon" transform="translate(0.417476, 1.000000)" fill="#FFD43A">
                                            <path d="M20.1085,22.8100309 L20.1491501,22.8145191 L20.1258438,22.9334855 L20.0600992,23.0966295 L19.9905283,23.1835932 L19.7595526,23.3693477 L19.7386813,23.0667139 L19.7565889,23.0267202 L19.7391094,23.0078108 L19.7292985,22.9305611 L19.7587312,22.8463206 L19.7422629,22.7938887 L19.6742874,22.728174 L19.5887924,22.6998608 L19.5099548,22.6435839 L19.479471,22.4730055 L19.5295766,22.3580049 L19.5393875,22.3513635 L20.3550937,21.7543391 L20.9654718,21.4736538 L21.1298044,21.3285922 L21.0765452,21.3408263 L21.0155775,21.2426039 L21.0222349,21.1562661 L21.0204829,21.1265547 L20.9567121,21.1048828 L20.9567121,20.9881345 L21.0288923,20.973104 L21.0660336,20.9724049 L21.0740925,20.9738031 L21.096167,20.9416449 L21.1459223,20.9091371 L21.2058389,20.8913103 L21.2853772,20.8913103 L21.3407387,20.8007779 L21.4518121,20.7123428 L21.4724851,20.7934374 L21.5096264,20.7511424 L21.5783027,20.7161878 L21.6886753,20.7091969 L21.6837698,20.8025256 L21.6760613,20.8193038 L21.8971569,20.7273733 L21.9073182,20.7084978 L21.9290423,20.5952449 L22.2366841,20.3900615 L22.2752269,20.3205018 L22.2657664,20.2180849 L22.2370345,20.1104247 L22.1638031,19.9936764 L22.1883304,19.9688586 L22.3593203,19.7675202 L22.6144037,19.4151779 L24.6343978,17.5510496 L25.3120506,17.1357891 L25.565382,17.0676276 L25.638263,17.0333721 L25.834481,16.8739792 L25.9164721,16.8274896 L26.1967835,16.7229753 L26.3684742,16.6072756 L26.4613274,16.5772147 L26.5461216,16.572321 L27.1494919,16.6474734 L27.2763328,16.6443275 L27.3625286,16.6527166 L42.2785994,16.5489015 L42.2708908,16.4408918 L42.2821033,16.316803 L42.317843,16.2262706 L42.5119586,15.9242629 L42.5333324,15.8616942 L42.5767806,15.6722403 L42.7123813,15.4331509 L42.735507,15.3370258 L42.6811966,15.2783021 L42.5088051,15.1888183 L42.6216305,15.0926932 L42.8234547,15.0353677 L42.871458,14.9885285 L43.0252789,14.7917342 L43.1083212,14.7267187 L43.2250008,14.68722 L43.3374757,14.7071441 L43.7418249,14.9595162 L43.8367804,14.9941213 L43.9310351,15.0081031 L43.994806,14.9762944 L44.1321586,14.755731 L44.2239606,14.6477213 L44.2803732,14.6222044 L44.3749783,14.6043776 L44.4089661,14.5879489 L44.4867525,14.5072038 L44.523193,14.4411396 L44.5883654,14.3673855 L44.7204621,14.329984 L44.8613186,14.3565495 L44.9576757,14.4649088 L45.1651061,15.0276777 L45.1987435,15.0661277 L45.2404398,15.0294254 L45.252353,14.9860817 L45.2439437,14.8623425 L45.2635655,14.778801 L45.3231317,14.71029 L45.3960126,14.6554113 L45.4198391,14.6141649 L45.4338547,14.4977661 L45.4173864,14.2086916 L45.4271973,14.0601346 L45.4699448,13.9328999 L45.5459792,13.8329298 L45.6412851,13.7808474 L45.7817912,13.788887 L45.8823529,13.8479602 L46.0400281,14.0104991 L46.1237711,14.0594355 L46.2012072,14.0587364 L46.2853006,14.0227332 L46.3238434,13.964359 L46.291958,13.8685834 L46.2211793,13.8032184 L46.0274141,13.6773818 L45.9485765,13.5676244 L45.9023251,13.4218638 L45.9152895,13.2886868 L46.1262239,12.8461617 L46.5817299,12.3172987 L46.676335,12.2362041 L46.9415797,12.1086198 L47.0883928,11.9859292 L47.1616241,11.9555187 L47.2611347,11.9544701 L47.3000279,11.9436341 L47.3799166,11.8807159 L47.4303727,11.7873871 L47.4492937,11.6821738 L47.4408844,11.5486473 L47.4244161,11.4937685 L47.4023415,11.4581149 L47.3799166,11.394148 L47.394633,11.3011688 L47.4195106,11.2585242 L47.5197219,11.1540099 L47.8869299,10.8642364 L48.0141212,10.7212721 L48.1083759,10.5087482 L48.1336039,10.3608903 L48.1185372,10.3378202 L48.0421523,10.3196438 L47.9226696,10.2514824 L47.8529421,10.1354332 L47.8497886,10.0158885 L47.9058509,9.74918492 L47.9251223,9.71807534 L47.9654171,9.67473164 L47.9629644,9.65760389 L47.9531535,9.63907796 L47.935634,9.62020248 L47.8778198,9.54120511 L47.8687097,9.45801318 L47.9457953,9.37027716 L48.1090767,9.25772338 L48.1689932,9.17592963 L48.1910678,9.05673448 L48.1686429,8.92355749 L48.111179,8.8033137 L47.9969521,8.73689997 L48.0232313,8.5596802 L48.1518242,8.29157849 L48.2359176,8.03640997 L48.3035427,7.93958576 L48.3939432,7.91092299 L48.4013013,7.87107476 L48.4167185,7.70783682 L48.4584148,7.55893026 L48.5705393,7.48412744 L48.6381645,7.45161967 L48.9934592,7.14646609 L49.0484703,6.98252906 L49.2254169,5.5224758 L49.3070576,5.21068085 L49.391151,5.09043706 L52.7780136,0.156946113 L52.8691148,0.0545291617 L52.9525074,0.00699091816 L53.033097,-1.57772181e-30 L53.0401047,0.00209727545 L53.7682136,0.19819253 L53.8596652,0.314940863 L53.8586141,0.531659326 L53.8029022,0.948667595 L53.814465,1.2045352 L53.8417954,1.34260583 L53.9136252,1.46809281 L54.5215505,1.86028332 L54.5751601,1.85818605 L55.165566,1.54324518 L55.3880632,1.48102601 L55.6249263,1.49395921 L55.7202322,1.48312329 L55.7980186,1.42195275 L55.8744035,1.3279249 L55.9861777,1.23494569 L56.2072733,1.11050735 L56.3155436,1.07345548 L56.450093,1.05143409 L56.594103,1.0720573 L56.7272509,1.16154105 L56.7626403,1.1535015 L56.8158994,1.12658646 L56.9164611,1.09512733 L56.9098037,1.03675316 L56.9322287,0.929792116 L57.1021674,0.705733188 L57.3516446,0.634425823 L57.6249482,0.691751352 L57.8569059,0.824229251 L57.9252318,0.887497061 L58.0580293,1.06996002 L58.1039303,1.1017687 L58.2356767,1.16119151 L58.3071561,1.20628293 L58.6046366,1.49395921 L58.8250314,1.64950714 L58.968691,1.82532873 L59.0191471,1.92075476 L59.0356154,2.00884033 L59.0587411,2.05323266 L59.2689746,2.23534608 L59.4000202,2.44577272 L59.4693973,2.50694325 L59.6670168,2.61774931 L59.6999534,2.69569804 L59.7167721,2.9641493 L59.8134795,10.2759506 L59.8204873,10.3269843 L59.8450146,10.3706775 L59.8818054,10.4098267 L59.9298088,10.4828818 L59.9403205,10.5576846 L59.8790023,10.6747825 L59.7780902,10.7974731 L59.7479568,10.8502545 L59.7721336,10.9393887 L59.8523728,11.070818 L59.8698922,11.1707881 L59.8639356,11.1833718 L59.8324006,11.2630683 L59.7612715,11.3808652 L59.7066108,11.4941181 L59.6883906,11.5808055 L59.6908433,11.6161096 L59.6547532,11.672037 L59.6337299,11.7807457 L59.571711,11.8073112 L59.4452204,11.782843 L59.4693973,11.8426154 L59.5643528,11.9705492 L59.7560157,12.1502158 L60.0328232,12.3075114 L60.0808265,12.3508551 L60.1057042,12.3609919 L60.1869945,12.3022682 L60.3523782,12.5266767 L60.4203537,12.5756131 L60.6277842,12.6095191 L60.8282068,12.6762824 L60.9144026,12.688866 L61.3516884,12.6276955 L61.3713102,12.6028777 L61.411605,12.6308414 L61.4659153,12.6839724 L61.5125171,12.9006908 L61.4925449,13.1572575 L61.4014437,13.2435954 L61.1838519,13.4225629 L61.2287018,13.6420777 L61.482734,14.1048765 L61.449447,14.3789205 L61.3268108,14.6120676 L61.2914214,14.6973568 L61.2654926,14.8116583 L61.2791578,14.8958989 L61.4813324,15.0923437 L61.6551255,15.380719 L61.8047417,15.5481515 L61.9480509,15.6138662 L62.0776949,15.5296256 L62.0938129,15.4880296 L62.1081788,15.3695336 L62.1712489,15.3024208 L62.25324,15.2783021 L62.3355814,15.3034694 L62.4396471,15.3695336 L62.4946582,15.3859622 L62.8916492,15.5859025 L62.5535236,15.5327715 L62.518835,15.5404615 L62.5107761,15.5544434 L62.5265436,15.6016321 L62.5339018,15.6002339 L62.6148417,15.5953402 L62.6723055,15.6222553 L62.6975335,15.6729394 L62.7129507,15.727119 L62.7476392,15.8117092 L62.7658595,15.874977 L62.7914379,15.8858129 L62.8299807,15.9176216 L62.8800864,15.9725003 L62.9785457,16.130495 L63.0279506,16.2231247 L62.9743411,16.3318335 L62.9974668,16.4104813 L63.0545802,16.4772446 L63.1187014,16.5115001 L63.1505869,16.5660292 L63.2423888,16.7694649 L63.3149194,16.8589487 L63.2784789,16.9106815 L63.3475056,17.0281289 L63.418985,17.0997858 L63.3839461,17.0438585 L63.3380451,16.9288579 L63.3243799,16.8072159 L63.3895523,16.7247231 L63.4655868,16.643978 L63.5577392,16.5181414 L63.6540962,16.4548736 L63.7816379,16.4849346 L63.7732286,16.6083243 L63.7469494,16.6957108 L63.7325834,16.8142068 L63.6568993,16.9631134 L63.5545857,17.1938137 L63.5335623,17.2336619 L63.5608927,17.2686165 L63.5321608,17.4077358 L63.3639739,17.3888603 L63.3306869,17.3165043 L63.192984,17.1833273 L63.1936847,17.15816 L63.1898305,17.1693455 L63.0468716,17.2277196 L62.9746915,17.1567618 L62.9259873,17.0816094 L62.8983066,17.1634032 L62.9606759,17.2210783 L62.9680341,17.329787 L62.904964,17.4171735 L62.7945914,17.4535263 L62.7171553,17.4087844 L62.5552755,17.2724615 L62.5430119,17.3063675 L62.5864602,17.3738298 L62.6719551,17.4643622 L62.727667,17.5555937 L62.7364268,17.6013842 L62.7458873,17.5489523 L62.8583622,17.5290282 L62.9039128,17.5996365 L62.9522665,17.5699251 L62.923885,17.5017636 L62.8727282,17.4346508 L63.053529,17.3689362 L63.1411264,17.5279796 L63.1772164,17.7020534 L63.1796692,17.7730112 L63.2017437,17.756233 L63.2077003,17.6499711 L63.1060874,17.2955315 L63.2697192,17.3458661 L63.3282342,17.4203194 L63.4196858,17.5870528 L63.4764489,17.5832078 L63.518846,17.6052292 L63.4764489,17.4982682 L63.6067937,17.4573713 L63.6197581,17.4042403 L63.6183565,17.3378266 L63.6579505,17.2277196 L63.6894855,17.1560627 L63.7217214,17.0445576 L63.7882953,16.9924752 L63.9382619,16.8946024 L63.9431674,17.1067767 L63.9999304,17.1861237 L63.9915211,17.3161547 L63.9445689,17.4444381 L63.8713376,17.5213382 L63.8250862,17.557691 L63.8650306,17.6688466 L63.8737903,17.8065676 L63.7122608,17.7859444 L63.6323721,17.7342116 L63.5325112,17.6282992 L63.5304088,17.7076462 L63.5983843,17.9114314 L63.5531841,17.9991674 L63.3916547,18.1970104 L63.3138683,18.2627251 L63.2486959,18.2707646 L63.1498861,18.2553846 L63.1418271,18.2571323 L63.1046859,18.3749293 L63.048974,18.4843372 L63.0188405,18.4430907 L62.9564712,18.5759182 L62.664597,18.8985491 L62.6344635,18.9146282 L62.5563267,18.9422423 L62.5454646,18.9530782 L62.5920664,19.073322 L62.3786793,19.0698266 L62.3397861,19.0530484 L62.2518384,18.9869842 L62.2304647,18.985586 L62.2304647,19.0062092 L62.3082511,19.1743408 L62.1509263,19.1600094 L62.2304647,19.2159368 L62.1880676,19.3354815 L62.0296916,19.3910593 L61.8905871,19.3260437 L61.9196694,19.2131404 L62.0128729,19.1037325 L62.0854035,19.1320457 L62.0388017,19.0939452 L61.9767828,19.0278811 L61.8720164,18.9695069 L61.8720164,18.8821204 L61.9448974,18.7681684 L61.9347361,18.6828792 L61.8884847,18.6510706 L61.8432845,18.6744901 L61.8947918,18.7069979 L61.7700532,18.8020744 L61.6912156,18.7989285 L61.7195971,18.8422722 L61.7539353,18.9418928 L61.7080343,19.0624861 L61.7795137,19.1288998 L61.7423724,19.2134899 L61.666338,19.225724 L61.6603813,19.2232772 L61.6109765,19.2736118 L61.5903035,19.3029737 L61.5352924,19.4616675 L61.4504982,19.2858459 L61.3233069,19.3333842 L61.2318553,19.3438706 L61.1449587,19.3312869 L61.0244248,19.2830496 L61.0598141,19.1670003 L61.0468497,19.1393862 L61.0055038,19.2078972 L60.913001,19.2078972 L60.8863715,19.0680788 L60.8699032,19.0712247 L60.7802035,19.1600094 L60.7861601,19.1593103 L60.8387185,19.2432013 L60.8334627,19.4592207 L60.8211991,19.5186435 L60.8015773,19.5801636 L60.7973726,19.6200118 L60.8145417,19.666851 L60.8285572,19.7465474 L60.7322002,19.7919884 L60.6642247,19.8143593 L60.6572169,19.8182044 L60.7497196,19.846168 L60.7623337,19.8776272 L60.7798531,20.0198923 L60.8366162,20.0992393 L60.8366162,20.2474467 L60.699614,20.4246665 L60.6249811,20.2775077 L60.5163604,19.9471868 L60.5254705,19.8514112 L60.5363326,19.8472167 L60.5307264,19.8475662 L60.4799199,19.8342835 L60.417901,19.7996784 L60.4049366,19.7420033 L60.4080901,19.7224288 L60.4017831,19.6193127 L60.3884683,19.575969 L60.3769055,19.5791149 L60.3408154,19.6077777 L60.2759934,19.6888724 L60.2700368,19.7056506 L60.1239244,20.0226887 L60.006544,19.9894818 L59.9389189,19.9293599 L59.8933683,19.8388276 L59.8772504,19.7262738 L59.8786519,19.719982 L59.9221002,19.4560748 L59.8106764,19.7028542 L59.8211881,19.7269729 L59.7861492,19.9034936 L59.6477454,19.7171856 L59.6740246,19.6004373 L59.7251815,19.4945248 L59.7493583,19.4088861 L59.7479568,19.3983997 L59.7377955,19.4165761 L59.6799812,19.5651331 L59.5958878,19.4693575 L59.5811715,19.4686584 L59.5626008,19.488233 L59.5198533,19.666851 L59.4364607,19.7175351 L59.394414,19.7252251 L59.4014218,19.7633256 L59.4939245,19.9080376 L59.5188022,19.9950746 L59.4900703,20.1233579 L59.400721,20.1586621 L59.334147,20.1383884 L59.3425564,20.1953644 L59.2724785,20.4973721 L59.2535575,20.7511424 L59.0962327,20.588254 L59.0804652,20.6511722 L58.9795531,20.5735731 L58.9189358,20.515898 L58.9269947,20.5316275 L58.9378568,20.5452598 L58.9378568,20.565883 L58.9333017,20.6120231 L58.9203373,20.6724946 L58.8895031,20.7424037 L58.8495587,20.7836501 L58.7546032,20.7836501 L58.736383,20.7371605 L58.707651,20.8021761 L58.4809492,21.1740929 L58.3786355,21.0583932 L58.3740805,21.0451105 L58.356561,20.9650645 L58.3737301,20.8664925 L58.3246756,20.9021462 L58.2609047,20.7417046 L58.2129014,20.5403662 L58.1876734,20.3613987 L58.207996,20.215638 L58.1967835,20.1408352 L58.0758992,20.0967924 L58.0531239,20.0751206 L58.0510216,20.0828106 L58.0391083,20.1195129 L58.0398091,20.1415343 L58.0545255,20.1792853 L58.0650371,20.261079 L57.9851484,20.2918391 L57.892996,20.2883436 L57.8411384,20.249544 L57.8267724,20.1866257 L57.8236189,19.9936764 L57.8145088,19.9122322 L57.7819226,19.9838891 L57.7717613,20.074072 L57.7752652,20.1674007 L57.7332185,20.284149 L57.5306935,20.0443606 L57.5450595,20.0674306 L57.4711273,20.1915194 L57.4767336,20.1992094 L57.5604766,20.3344837 L57.494253,20.3358818 L57.6519282,20.4477365 L57.6666445,20.5819622 L57.93259,20.9042435 L57.9781406,21.1125728 L57.8442919,21.2698685 L57.6323064,21.3656441 L57.4140139,21.3810241 L57.32046,21.292589 L57.3032909,21.3778782 L57.3463888,21.4551278 L57.4122619,21.5232893 L57.4133131,21.6267549 L57.345688,21.7183359 L57.2510829,21.810616 L57.1273955,21.8371815 L57.1000651,21.7403573 L57.0636246,21.7581841 L57.026133,21.7805551 L56.9945979,21.7490959 L56.9451931,21.669749 L56.7833132,21.5886544 L56.7142865,21.429611 L56.8088916,21.3908114 L56.7994311,21.3778782 L56.7244478,21.3520118 L56.6746925,21.304124 L56.6809996,21.2041539 L56.7058772,21.1073297 L56.7948761,20.8780275 L56.8498872,20.7829511 L56.9062998,20.7424037 L56.9609606,20.7270237 L56.9967003,20.6966132 L57.0026569,20.6749414 L56.9448427,20.6137708 L56.8453321,20.6459291 L56.7496758,20.6410354 L56.7332076,20.6078286 L56.7142865,20.5228889 L56.7146369,20.5176457 L56.7293533,20.1743916 L56.6988694,20.0950447 L56.6382521,20.0621874 L56.5818394,20.0628865 L56.6459606,20.2208812 L56.6561219,20.3149091 L56.6421063,20.3732833 L56.6263388,20.4033442 L56.6343978,20.4236179 L56.6760941,20.4620679 L56.693964,20.5019161 L56.6880073,20.576719 L56.665232,20.6361418 L56.6172287,20.7207319 L56.5275291,20.8179056 L56.4721676,20.7280723 L56.4669117,20.5190439 L56.4133022,20.5840594 L56.3029295,20.6392877 L56.1673289,20.6357922 L56.2146314,20.7668719 L56.2552766,20.8493648 L56.2587805,20.8808239 L56.3288583,20.7312183 L56.4133022,20.7144401 L56.4721676,20.7623278 L56.4935413,20.8539089 L56.516667,21.041615 L56.5846425,21.1244574 L56.5001987,21.2579839 L56.4062944,21.1929684 L56.3645981,21.1796857 L56.287162,21.1796857 L56.230399,21.0989406 L56.2339029,20.9972227 L56.1883523,21.1199133 L56.1767894,21.1664029 L56.1901042,21.216388 L56.2142811,21.2289716 L56.269993,21.2412057 L56.2822566,21.2506435 L56.3323622,21.2974826 L56.3603934,21.4152796 L56.3449763,21.5152497 L56.2885636,21.5414657 L56.2892644,21.5428639 L56.3278072,21.5732744 L56.4521954,21.6417854 L56.2118283,21.7473482 L55.7699875,21.3530604 L55.6364892,21.3425741 L55.5450376,21.3712368 L55.4311611,21.2883944 L55.2997651,21.1387888 L55.2198763,21.110126 L55.06115,21.2219807 L54.8565227,21.2391085 L54.9090811,20.9412954 L54.9514782,20.8067202 L55.046784,20.7364615 L55.1263224,20.7616288 L55.1764281,20.8252461 L55.1809831,20.8224497 L55.1785304,20.7864465 L55.1130076,20.6427831 L55.0513391,20.7207319 L54.9521789,20.7399569 L54.8863058,20.6291509 L54.8957663,20.5110043 L54.9318564,20.3956542 L54.9998319,20.2775077 L55.0495872,20.2460485 L55.0650043,20.2271731 L55.0741144,20.1957139 L55.0905827,20.0565947 L55.2307384,19.7262738 L55.2174236,19.6500728 L55.0975905,19.6154677 L55.0387251,19.6140695 L55.0177017,19.7577329 L54.931506,20.081762 L54.9896706,20.1135706 L55.0618508,20.1313975 L54.910833,20.2715654 L54.7997596,20.3260946 L54.6816784,20.2942859 L54.7230244,20.1859266 L54.7195205,20.184878 L54.6539977,20.2250758 L54.53907,20.3435719 L54.4595316,20.4029947 L54.2503493,20.4631166 L54.1858776,20.5092566 L54.1900823,20.5190439 L54.2032506,20.5329718 L54.2125678,20.5206244 L54.3287513,20.6291552 L54.3802339,20.8121269 L54.3334108,20.8861868 L54.3673793,20.9451404 L54.4083748,21.079366 L54.3603715,21.2020566 L54.2629633,21.2712667 L54.2011797,21.2996315 L54.1701295,21.3572156 L54.0810786,21.632021 L54.0077589,21.642256 L54.004376,21.6519222 L53.9399044,21.7452509 L53.8607164,22.0490063 L53.7916897,22.2237793 L53.7373794,22.327944 L53.6988366,22.3705886 L53.6988366,22.3908622 L53.7254661,22.4925801 L53.6939311,22.6065321 L53.6981358,22.6303012 L53.8848933,22.6103771 L53.8043037,22.8183569 L53.7408833,22.9354548 L53.657841,22.9987226 L53.5404606,23.0165494 L53.520138,23.0546499 L53.4935085,23.1895746 L53.4188755,23.3077212 L53.3078021,23.2573865 L53.3028967,23.2794079 L53.2748656,23.3353353 L53.2145986,23.352463 L53.1911225,23.344773 L53.1739534,23.3758826 L53.1585363,23.4388009 L53.1655441,23.4824941 L53.2394762,23.5614915 L53.0281915,23.6999117 L52.9679246,23.7268267 L52.8554496,23.7568876 L52.7867733,23.7243799 L52.8137533,23.5104578 L52.9570625,23.2783593 L52.9738812,23.2364138 L52.9735308,23.2364138 L52.7033807,23.5915524 L52.5856499,23.7138935 L52.5534141,23.5373728 L52.5968623,23.3839222 L52.5895042,23.3790285 L52.5471071,23.3912626 L52.4244708,23.4657159 L52.2660949,23.4629195 L52.3820737,23.2315201 L52.3936366,23.1969151 L52.3866288,23.1927205 L52.2965787,23.1766414 L52.2885198,23.0889054 L52.3281138,23.0403185 L52.2324575,23.089255 L52.2657445,23.2427056 L52.1672851,23.3220525 L52.0772351,23.3419767 L52.0695265,23.3395298 L52.0379915,23.3874176 L52.0110115,23.4678132 L51.8666511,24.0309316 L51.7853608,24.2375133 L51.6262841,24.4290644 L51.6140205,24.1889264 L51.5817846,24.0994426 L51.5513008,24.0351262 L51.5446434,24.1053849 L51.5449938,24.4675145 L51.4093931,24.2595347 L51.4125466,24.2913433 L51.3820628,24.4213744 L51.2797491,24.597196 L51.229293,24.4444444 L51.2331473,24.3221034 L51.2278915,24.3262979 L51.1311841,24.3367843 L51.0779249,24.3063738 L51.0688148,24.4507363 L51.0505945,24.6408892 L50.9349661,24.6590656 L50.8140818,24.4748549 L50.7969127,24.3678939 L50.7965623,24.3717389 L50.6844377,24.711148 L50.5992932,24.8541122 L50.47946,24.844325 L50.4286536,24.6255092 L50.4363622,24.5562991 L50.4629917,24.5101591 L50.4598382,24.4961772 L50.4244489,24.4877881 L50.4009728,24.4773018 L50.3666347,24.1382422 L50.3519183,24.0735762 L50.3368516,24.0361748 L50.3508672,24.1431359 L50.3571742,24.3766325 L50.3981697,24.5916033 L50.4409172,24.7010111 L50.4545824,24.7786103 L50.414638,24.9677147 L50.3918627,25.0096602 L50.3280919,25.0337788 L50.2828917,25.0813171 L50.2496047,25.1449344 L50.1998494,25.2941905 L50.0901776,25.1442354 L50.0789651,24.9491887 L50.0274579,24.89431 L50.0018795,24.8492186 L50.0008283,24.7314216 L50.0169462,24.5636396 L50.0376192,24.50946 L50.0733589,24.4738063 L50.0796659,24.4269671 L50.0702054,24.391663 L50.0081865,24.3360852 L50.0022299,24.4622713 L49.9629863,24.5636396 L49.8995658,24.6489288 L49.7923467,24.6765429 L49.7800831,24.6359956 L49.6329196,24.8341881 L49.5898217,24.8656473 L49.5579363,24.87893 L49.5386649,24.9834442 L49.5060787,25.0337788 L49.4566738,25.0617425 L49.3413957,25.076773 L49.4223356,24.9023496 L49.3575136,24.9638697 L49.1756616,24.9809974 L49.2961955,24.7370144 L49.5148384,24.3864198 L49.5481254,24.2745651 L49.5242989,24.277711 L49.3624191,24.4115871 L49.2124525,24.3881676 L49.1732089,24.4199762 L49.0498718,24.4860404 L48.9815459,24.5108582 L48.9286372,24.5188977 L48.8957006,24.5335787 L48.6486761,24.7946894 L48.5565238,24.8506168 L48.4363403,25.1187185 L48.3031923,25.2106491 L48.3045939,25.2714701 L48.3259676,25.3525647 L48.3361289,25.4322612 L48.2628976,25.5248908 L48.3014404,25.522444 L48.4251278,25.5766236 L48.4948553,25.7741171 L48.4938041,25.8447254 L48.4566628,26.1138757 L48.4265294,26.1292557 L48.361357,26.1414898 L48.2464293,26.1984658 L48.0852502,26.2358672 L48.1006673,26.1995144 L48.0323414,26.2945909 L47.8984927,26.3851233 L47.8823748,26.2082531 L47.8659065,26.2065054 L47.7989822,26.25684 L47.7446719,26.3309437 L47.6973693,26.473908 L47.6847553,26.5742277 L47.7096329,26.7626329 L47.7460734,26.7388638 L47.812297,26.7112497 L47.9146106,26.6962192 L47.9146106,26.8136666 L47.8336707,26.8563112 L47.7828643,26.9031504 L47.699822,27.0129078 L47.6879088,27.0422696 L47.6707397,27.1223156 L47.6514683,27.170553 L47.6031146,27.2076048 L47.5389934,27.2152949 L47.5123638,27.227529 L47.4275696,27.3058272 L47.361346,27.3904174 L47.2670913,27.4826975 L47.1370969,27.5379257 L46.9654061,27.5536553 L46.9219579,27.5956008 L46.7719913,27.7979879 L46.7390547,27.8112706 L46.6956064,27.9381558 L46.6896498,28.0751778 L46.7625308,28.2296771 L46.6749334,28.3537659 L46.6381426,28.4254228 L46.7355508,28.487642 L46.5950447,28.559998 L46.5463406,28.6103326 L46.459444,28.7711237 L46.3143829,29.1206696 L46.2344941,29.1989679 L46.1199169,29.1248642 L46.0386265,28.9955322 L46.0084931,28.9574317 L45.9934263,28.9595289 L45.9923752,28.971064 L45.9068802,29.2520989 L45.9335098,29.2451079 L46.0754174,29.2286793 L46.1192161,29.3013848 L46.1195665,29.3248044 L46.1002951,29.4125404 L46.062453,29.5034224 L46.0424808,29.538377 L46.00569,29.6345021 L45.7506066,30.041024 L45.652848,30.2608884 L45.6143051,30.3877735 L45.60064,30.5199019 L45.638482,30.7467572 L45.624116,30.8348427 L45.5480816,30.8614082 L45.4412129,30.8540678 L45.4461183,30.8575632 L45.5351172,30.8981105 L45.5691049,30.8914692 L45.611502,30.9040528 L45.6412851,30.9449497 L45.6703674,31.0131111 L45.6531984,31.0921085 L45.7937044,31.5108645 L45.7320359,31.5926583 L45.9986822,31.7216407 L45.8294442,31.8072795 L45.8518691,31.8376899 L46.1328813,31.8639059 L46.1391883,31.9596815 L46.1570581,31.9708669 L46.1482984,31.7985408 L46.2036599,31.7181452 L46.2625253,31.6720052 L46.4689046,31.5653937 L46.4527866,31.7286316 L46.461196,31.7537989 L46.4787155,31.7632367 L46.5459902,31.7702276 L46.6237766,31.8020363 L46.6017021,31.9285719 L46.6234262,31.9844992 L46.6234262,32.0673416 L46.5316242,32.0673416 L46.5169079,32.0834207 L46.4958845,32.1306094 L46.4520859,32.1889836 L46.3532761,32.2595919 L46.225384,32.2410659 L46.2159235,32.2172968 L46.1913963,32.2337255 L46.1440937,32.3046833 L46.1248223,32.3438324 L46.0792717,32.3973129 L45.5908291,32.5214017 L45.3623753,32.618226 L45.3241828,32.6468887 L45.3557179,32.6870865 L45.3984654,32.6563265 L45.4324531,32.7695793 L45.4808068,32.835294 L45.5018302,32.9086986 L45.3904064,32.9488964 L45.3721862,32.9649755 L45.3438046,33.0009787 L45.2211684,33.1103866 L45.2071528,33.1152802 L45.1640549,33.1240189 L45.0995833,33.1173775 L45.0953787,33.1205234 L45.0862685,33.1684112 L45.1107958,33.2128035 L45.1668581,33.2603418 L45.2986044,33.3466796 L45.0669971,33.4204338 L44.9447113,33.2711777 L44.8960072,33.3008891 L44.8574643,33.3662542 L44.855362,33.4015583 L44.8893498,33.4945376 L44.9177313,33.6909824 L44.9955177,33.8231107 L44.8199727,33.8014389 L44.6503843,33.8297521 L44.6332152,33.8164693 L44.6864744,33.9363636 L44.5648893,33.9482481 L44.5295,33.9720173 L44.5179372,34.0062728 L44.5456179,34.0684919 L44.5803064,34.0989024 L44.5953732,34.0996015 L44.7775756,33.9905432 L44.7442886,34.2187967 L44.7751229,34.2296326 L44.8897002,34.225438 L44.9608292,34.3477791 L44.9306957,34.4176883 L44.8974087,34.4505456 L44.9051173,34.4561383 L44.9173809,34.4369133 L44.9625811,34.441807 L45.0224977,34.4180378 L45.0925755,34.3774905 L45.1773697,34.3082804 L45.2358847,34.4023083 L45.2435933,34.3988128 L45.2695221,34.3544205 L45.2152118,34.3156209 L45.1545944,34.2166994 L45.1185043,34.1090393 L45.1262129,33.9202845 L45.3988158,34.2170489 L45.500779,34.297095 L45.7267801,34.3631591 L45.8315465,34.4292233 L45.9307067,34.5190566 L46.062453,34.6903341 L46.0761182,34.7441642 L46.0775198,34.9122958 L46.1528534,34.9808068 L46.2355453,35.1059442 L46.3529257,35.3247599 L46.4689046,35.4415083 L46.4419246,35.5596548 L46.4769635,35.6501872 L46.6101114,35.8627111 L46.643048,35.8962675 L46.6546109,35.9280762 L46.6455007,35.9532435 L46.6090603,36.0046267 L46.552998,36.0504172 L46.481869,36.0626513 L46.4100392,36.0388822 L46.3056232,35.9668758 L46.2954619,36.0392318 L46.1980537,35.9867999 L46.1777311,35.9815567 L46.1570581,35.9867999 L46.09574,36.0283958 L46.3276977,36.2657375 L46.4587433,36.2772725 L46.5442382,36.2926525 L46.7408066,36.2734275 L46.8655452,36.3978659 L46.9370246,36.6124871 L46.9671581,36.8680051 L46.929316,37.042079 L46.9240602,37.1784019 L47.0449445,37.3252112 L47.3455785,37.5349387 L47.5102614,37.5968083 L48.2832201,37.6688148 L48.021129,37.7677363 L47.8595995,37.769484 L47.9114571,37.7824172 L48.0834983,37.7834658 L48.2208509,37.7303349 L48.470328,37.5852733 L48.8949998,37.4664277 L49.0365571,37.4202876 L49.2492433,37.3178707 L49.3340375,37.1822469 L49.3179196,37.0085226 L49.3266794,36.7918041 L49.202992,36.5789306 L49.3196716,36.5799793 L49.3582144,36.5684443 L49.3343879,36.5656479 L49.266062,36.5125169 L49.2212122,36.46393 L49.2043935,36.4551914 L49.1777639,36.4719696 L49.1525359,36.6575785 L49.0228919,36.8278073 L48.9622745,36.0727882 L48.9444047,35.9731676 L48.8771299,35.831951 L48.7120966,35.7166009 L48.6125861,35.6847922 L48.5291934,35.7574978 L48.5530199,35.7581969 L48.6153892,35.7505068 L48.6241489,35.8836838 L48.4931033,35.9791099 L48.4675249,35.9616326 L48.3935928,35.8973161 L48.267803,35.7148532 L48.1707452,35.6753545 L48.2001779,35.5781807 L48.2359176,35.5330893 L48.2877752,35.4897456 L48.3641601,35.4614324 L48.4745327,35.4526937 L48.7282145,35.4935906 L48.8406895,35.5316911 L49.0204392,35.6323603 L49.1756616,35.7627409 L49.3498051,36.0203563 L49.5022244,36.3094307 L49.685478,36.9137956 L49.7863901,37.0557113 L49.7464457,37.1102404 L49.7163122,37.129815 L49.6994935,37.1354077 L49.652191,37.1399518 L49.5768573,37.0770336 L49.5561843,37.0703922 L49.5530308,37.0731886 L49.5379641,37.2224447 L49.5723022,37.2011224 L49.6823245,37.2144051 L49.7317293,37.3384939 L49.7397883,37.6642707 L49.7068517,38.1393036 L49.4808506,38.0809294 L49.2587438,38.1205336 L49.2631795,38.1700541 L49.1760266,38.3081525 L49.0502571,38.6869665 L48.8529231,38.7280134 L49.0765052,38.1530288 L48.745734,38.2120091 L48.5214848,38.2127082 L48.3697663,38.2889092 L48.3175583,38.3004442 L48.280417,38.3144261 L48.2474804,38.3532257 L48.169694,38.4804604 L48.0435539,38.5891692 L48.0645772,38.4119494 L48.0919076,38.3165234 L47.9492992,38.3769948 L47.8851779,38.3881803 L47.7317075,38.3721012 L47.6847553,38.3832866 L47.6122247,38.4441076 L47.5253282,38.4850045 L47.4475418,38.3507789 L47.4328254,38.3469338 L47.4023415,38.3787425 L47.25693,38.6328624 L47.1504117,38.7496107 L47.0242715,38.8181217 L46.8907732,38.8464349 L46.7309957,38.8534259 L46.6024029,38.8824382 L46.2940603,39.0900684 L46.0915353,38.994992 L46.2362461,38.8366477 L46.2772416,38.6748079 L46.2782928,38.2085137 L46.2555175,38.1172822 L46.2485097,38.0103211 L46.2923084,37.9285274 L46.348721,37.8732991 L46.3669413,37.8470832 L46.3588823,37.8282077 L46.2779424,37.8282077 L46.1188657,37.7083135 L46.0452839,37.6691643 L46.0312684,37.8393932 L46.0368746,37.9002142 L46.1108067,38.051218 L45.9335098,38.0302453 L45.9065298,38.0686953 L45.8676366,38.1812491 L45.742898,38.3343502 L45.671769,38.218301 L45.6623085,38.2196991 L45.644789,38.2434683 L45.6496945,38.2934533 L45.6276199,38.3186206 L45.5519359,38.3661589 L45.4461183,38.4115998 L45.4660905,38.5213573 L45.4569804,38.6356588 L45.3424031,38.6461451 L45.2905455,38.5772846 L45.2432429,38.4297762 L45.2173141,38.4049585 L45.1731651,38.3755966 L45.1616022,38.477664 L45.084867,38.6129383 L45.0561351,38.6772547 L45.0883709,38.8736995 L44.9646835,38.9792624 L44.8798893,39.0226061 L44.7849338,39.0250529 L44.6290105,39.1393544 L44.4986657,39.1750081 L44.255846,39.0659498 L44.1402175,39.1302662 L43.8027927,39.4427603 L43.7102899,39.2155554 L43.6973255,39.1536858 L43.7260574,39.0799316 L43.7281598,39.0467248 L43.6770029,38.8195199 L43.6587827,38.5370868 L43.6615858,38.4479526 L43.6416136,38.5227554 L43.6311019,39.0589589 L43.6195391,39.1215276 L43.6177871,39.1673181 L43.6591331,39.3060878 L43.4587104,39.246665 L43.3777705,39.3183219 L43.2856181,39.4312253 L43.191013,39.4154957 L43.1391554,39.4679276 L43.0641721,39.5056785 L42.9877873,39.4605871 L42.9671143,39.3347506 L42.9636104,39.3403433 L42.9229652,39.391377 L42.8612967,39.4448575 L42.7887662,39.4668789 L42.7649397,39.3714529 L42.79227,39.2309354 L42.7708963,39.1369076 L42.8287105,39.0813298 L42.8332656,39.0708434 L42.7898173,39.0222565 L42.8048841,38.9013137 L42.8900286,38.6335615 L42.9909408,38.6636224 L43.0312355,38.7041698 L43.0494558,38.7531062 L43.0561132,38.8093831 L43.0589163,38.9443078 L43.0431488,39.0872721 L43.0112633,39.2340814 L42.9898896,39.2969996 L42.9751732,39.3218174 L43.0252789,39.2718323 L43.1664858,39.208215 L43.1829541,39.1945827 L43.140557,39.1316644 L43.1188328,39.0491716 L43.1430097,38.9586392 L43.19732,38.8740491 L43.2008239,38.8373468 L43.1980208,38.7387748 L43.2144891,38.7153552 L43.1258406,38.7552035 L43.0641721,38.6748079 L43.0662744,38.5828773 L43.0943056,38.4808099 L43.0781877,38.416843 L42.9783267,38.3839857 L42.9601065,38.2857633 L42.9814802,38.1529359 L43.0894001,38.0246525 L43.180151,38.2371764 L43.2316582,38.3105811 L43.3122477,38.3595175 L43.3027872,38.5356886 L43.2572366,38.6727106 L43.3147004,38.6360083 L43.3402788,38.5640019 L43.3634045,38.4102017 L43.4019474,38.3147756 L43.4478484,38.2668878 L43.3409796,38.2186505 L43.2470753,38.2186505 L43.1969696,38.1127381 L43.2078317,38.0134671 L43.2537327,37.8306545 L43.2253512,37.8250618 L43.1692889,37.800244 L43.0855459,37.7471131 L42.9828818,37.6506384 L42.9390831,37.5499692 L42.9313746,37.4381145 L42.911052,37.3552721 L42.8791666,37.293752 L42.8753123,37.4021113 L42.8812689,37.5475224 L42.896686,37.6387538 L42.9166582,37.6667175 L42.9751732,37.7167026 L43.0070587,37.7523563 L43.0277316,37.8470832 L43.0119641,37.910351 L42.9457405,38.0442271 L42.8987884,38.1885896 L42.7919197,38.0190598 L42.767042,38.0033302 L42.7334046,38.0001843 L42.695913,38.0159139 L42.656319,38.0477225 L42.7383101,38.0896681 L42.7926204,38.2116596 L42.8094391,38.3364475 L42.7957739,38.4867522 L42.7327039,38.6157347 L42.6713857,38.6800511 L42.6615748,38.7048689 L42.7155348,38.8142767 L42.7425148,38.9296269 L42.7484714,39.2571514 L42.735507,39.3735502 L42.5925482,39.7856648 L42.4965415,39.9055591 L42.4590499,39.9454073 L42.4362746,40.0100733 L42.3630432,40.0544656 L42.2982212,40.0383865 L42.194506,39.988751 L42.0869365,39.9978392 L41.8917696,40.0429306 L41.1682158,40.2690868 L40.8129211,40.3571724 L40.5844673,40.4609875 L40.5154406,40.335151 L40.6188055,40.2645427 L40.6096953,40.2439195 L40.5708021,40.2089649 L40.52385,40.1844967 L40.46989,40.1740103 L40.1794173,40.1813508 L40.1433272,40.1900894 L40.0621566,40.2340804 L40.1533839,40.2395456 L40.0765079,40.3855755 L39.954063,40.4339979 L39.8709256,40.4484866 L39.7335229,40.6025233 L39.6044687,40.5887973 L39.4764581,40.6395074 L39.4997644,40.4648816 L39.5512469,40.4214157 L39.5773361,40.3310526 L39.6827361,40.3409658 L39.6893453,40.3516416 L39.7074338,40.2959749 L39.7474962,40.2906252 L39.6040782,40.1530376 L39.5942673,40.1593294 L39.5630826,40.3043909 L39.5045676,40.3966711 L39.348294,40.3861847 L39.2021817,40.324315 L39.1254464,40.3190719 L39.0942618,40.5109726 L38.9355355,40.4057592 L38.6531217,40.5763376 L38.4705689,40.4920971 L38.4421874,40.4655316 L38.3728103,40.4330238 L38.3458303,40.4103033 L38.341976,40.4221879 L38.3745622,40.4445588 L38.4302741,40.4728721 L38.2827603,40.6116418 L38.1527658,40.5997572 L37.9628549,40.5281003 L37.8840173,40.5392858 L37.7887114,40.579134 L37.7095234,40.6371586 L37.6222765,40.7633447 L37.5234667,40.6563837 L37.4719595,40.6979796 L37.2512143,40.5934654 L37.1629162,40.5672495 L36.9179941,40.6221282 L36.8833056,40.655335 L36.8416092,40.7035724 L36.7936059,40.7360801 L36.6993512,40.7294388 L36.654151,40.7042715 L36.5718095,40.6479946 L36.5210031,40.6378577 L36.3545682,40.6500918 L36.3181277,40.663025 L36.228428,40.7325847 L36.1853301,40.7179037 L36.1275159,40.7360801 L36.0668986,40.7262928 L36.0083836,40.8042416 L35.7799298,40.807737 L35.7557529,40.7014751 L35.7582056,40.6438 L35.7217652,40.5672495 L35.7137062,40.4749693 L35.6699075,40.5532676 L35.4947129,40.7234965 L35.3801356,40.8877831 L35.3338842,40.9367195 L35.2722157,41.043331 L35.1201468,41.0555651 L35.0658365,41.0237564 L35.0311479,41.0527687 L34.9284839,41.1013556 L34.9015039,41.1254743 L34.8485951,41.214958 L34.8363315,41.2806727 L34.8506975,41.401266 L34.6688454,41.4162965 L34.4908477,41.2722836 L34.4876942,41.3152777 L34.323712,41.3589709 L34.303039,41.3439405 L34.304791,41.3638646 L34.2827165,41.4148983 L34.2497799,41.4624365 L34.1867098,41.5281512 L34.1040179,41.5770876 L34.0132671,41.6102944 L33.978929,41.5274521 L33.9638622,41.5522698 L33.9155085,41.5994585 L33.7616876,41.6218295 L33.6730391,41.6658722 L33.6187288,41.6700668 L33.5791348,41.6941855 L33.5490013,41.7036232 L33.3485787,41.8388975 L33.2760481,41.8717548 L33.0903418,41.9885031 L33.0528502,41.9933968 L32.978918,42.0507223 L32.8650415,42.2178052 L32.7809481,42.1405556 L32.7672829,42.1447501 L32.6709259,42.2101152 L32.52166,42.2419239 L32.4988847,42.2024252 L32.4771606,42.2482157 L32.4228503,42.2705867 L32.3562763,42.2821217 L32.3138792,42.3195231 L32.3187847,42.3293104 L32.2883008,42.4114537 L32.1635622,42.6085976 L32.0342686,42.6085976 L31.9974777,42.6162876 L31.9603364,42.6466981 L31.7595634,42.8693588 L31.7063042,42.9570948 L31.6796746,43.0748918 L31.6320217,43.1248769 L31.556688,43.1196337 L31.5346135,43.1227796 L31.5219995,43.1510928 L31.5111374,43.266443 L31.5759594,43.3436926 L31.6344744,43.4793164 L31.4592798,43.4960946 L31.6814266,43.5303501 L31.7392408,43.6051529 L31.7455478,43.5820829 L31.6793243,43.4663832 L31.7336346,43.2800752 L31.8264877,43.2685402 L31.8454088,43.1612296 L31.9098804,43.0696486 L32.0107925,43.0661532 L32.183184,43.1385092 L32.2248803,43.2528107 L32.202105,43.0965636 L32.312828,42.8700579 L32.6474498,42.772185 L32.8955254,42.7484159 L32.95369,42.8714561 L32.9421272,42.9008179 L33.0388346,42.9154989 L33.0398858,42.9340248 L33.0686177,42.9186448 L33.0612595,42.9032648 L32.9442295,42.7445709 L33.0080003,42.5600107 L33.1572662,42.6365612 L33.3415709,42.661379 L33.3611927,42.5893725 L33.4011371,42.5240074 L33.4705142,42.5240074 L33.5654696,42.5834303 L33.5899969,42.6452999 L33.6779446,42.6718654 L33.7855141,42.6792058 L33.9558033,42.7120631 L34.0949078,42.7809237 L34.2143906,42.8116837 L34.2546853,42.8088874 L34.4516041,42.7470177 L34.5290401,42.6879445 L34.5696853,42.6148894 L34.5441069,42.4918492 L34.657633,42.440466 L34.7813204,42.4034141 L34.8867875,42.4415146 L34.8965984,42.4348732 L34.9533615,42.4111041 L35.0896629,42.4687792 L35.2627552,42.4453596 L35.7799298,42.4680801 L36.1029887,42.432776 L36.3338952,42.4572442 L36.7249296,42.3600704 L37.0451854,42.3429427 L37.1418928,42.3062403 L37.4369206,42.1014064 L37.7582275,41.9049616 L37.8367147,41.7973015 L37.8829661,41.7158573 L37.926064,41.7057205 L38.044846,41.686845 L38.1762419,41.5749903 L38.2841618,41.443561 L38.3619482,41.378196 L38.6373542,41.241174 L38.7084832,41.2310371 L38.8016868,41.2481649 L38.8745677,41.2869645 L38.9141617,41.3715546 L38.8742173,41.4746706 L38.8121984,41.5389871 L38.729857,41.5949144 L38.6240394,41.6344131 L38.5578158,41.5260539 L38.4491952,41.5910694 L38.4926434,41.5847776 L38.5234777,41.6711154 L38.5900516,41.7231978 L38.7354632,41.7626965 L38.7189949,41.854627 L38.7400182,41.9220894 L38.7231996,41.9815122 L38.7519315,42.0283514 L38.7519315,42.1430024 L38.629996,42.1063001 L38.6159804,42.0944155 L38.629996,42.147197 L38.6394565,42.2094161 L38.7056801,42.2209511 L38.7302073,42.1569842 L38.7557858,42.1464979 L38.8030883,42.1370601 L38.8398792,42.0224091 L38.884729,41.9675304 L38.9166144,41.9696276 L39.0252351,42.0003877 L39.0963641,42.1063001 L39.1145844,41.9720745 L39.204284,41.8864357 L39.2981883,41.9042626 L39.4656744,42.1629265 L39.4835443,42.2160575 L39.4996622,42.2289907 L39.5784997,42.2122125 L39.7428323,42.1381088 L39.9176766,41.9902508 L40.0340058,41.9280317 L40.1198512,41.9696276 L40.150335,41.9626367 L40.1538389,41.8221193 L40.2621092,41.7801738 L40.2551014,41.7696874 L40.457276,41.7134105 L40.6005852,41.7738819 L40.7361859,41.8133806 L40.6720646,41.9217398 L40.5627432,42.0426827 L40.3409468,42.0926678 L39.9789947,42.2775776 L39.6075821,42.4275328 L39.270858,42.600558 L38.9887946,42.7365314 L38.1131719,43.1773088 L37.9421819,43.2244974 L37.7529717,43.255607 L37.8545846,43.0874755 L37.8566869,43.0549677 L37.8311085,43.0367913 L37.7333499,43.0263049 L37.7053188,43.0367913 L37.6979606,43.0563659 L37.7053188,43.1014573 L37.7393065,43.1734637 L37.7438616,43.2514125 L37.6608193,43.3227198 L37.4828216,43.4331764 L37.1779829,43.5551679 L36.60825,43.7491659 L36.5518373,43.7530109 L36.4940231,43.7047735 L36.4922711,43.803695 L36.2361366,43.8687106 L35.7350799,44.1001099 L35.0917653,44.3650657 L34.6331057,44.5255073 L34.1695407,44.6516934 L33.8955363,44.6614807 L33.8328167,44.5824833 L33.8173995,44.5838815 L33.4988957,44.6946875 L32.5461873,44.9771206 L32.5773719,44.8956764 L31.9946746,44.9065124 L31.7788348,44.8890351 L31.7049027,44.8656155 L31.5079839,44.9002205 L31.1215046,45.0756926 L30.8611653,45.1791582 L30.8611653,45.0005402 L31.086816,44.9162996 L31.0770051,44.9026674 L30.988707,44.9009196 L30.9680341,44.9292328 L30.9011097,44.956847 L30.6828172,44.9883061 L30.5787516,44.979917 L30.4985124,44.8617705 L30.5819051,44.8278645 L30.5692911,44.808989 L30.4491076,44.7569067 L30.3881398,44.6422557 L30.4116159,44.4975436 L30.4764379,44.4251876 L30.5156815,44.3507344 L30.5023667,44.2636974 L30.5787516,44.173165 L30.579102,44.1728155 L30.4897527,44.2140619 L30.5058706,44.0794867 L30.4182733,44.1738641 L30.3194635,44.2500651 L30.2409763,44.3507344 L30.2210042,44.4091085 L30.2360709,44.4080599 L30.2872277,44.4160994 L30.3219163,44.4751727 L30.3327783,44.5311001 L30.3173612,44.5555683 L30.324369,44.5926201 L30.3716715,44.6467997 L30.420726,44.7450221 L30.1772055,45.063808 L30.0002589,45.2239 L29.9561099,45.2025777 L29.9389408,45.2025777 L29.8001867,45.2878669 L29.7378174,45.3427457 L29.6540743,45.3563779 L29.5692801,45.3979739 L29.4802813,45.4220926 L29.4088018,45.3976244 L29.3965382,45.3539311 L29.3835738,45.3763021 L29.3551923,45.3983235 L29.3933847,45.4514544 L29.4511989,45.5828837 L29.606071,45.6328688 L29.6757985,45.6839025 L29.6999753,45.6912429 L29.9354369,45.6499965 L30.0640298,45.6660756 L30.4844969,45.8132344 L30.6127393,45.8943291 L30.5994246,45.8576268 L30.5864602,45.745073 L30.4519107,45.3937794 L30.7041909,45.5381418 L30.7620052,45.6783097 L30.7788239,45.8016994 L30.800548,46.015272 L30.794241,46.4319307 L30.7585013,46.7283456 L30.7017382,47.0572683 L30.5745469,47.6057059 L30.5437127,47.7671961 L30.5216381,47.9580481 L30.4456037,48.4603456 L30.381132,48.7812287 L30.3257705,49.2034802 L30.2255592,49.8235746 L30.2308151,49.8193801 L30.2164491,49.8791524 L30.2125948,49.9043198 L30.2111933,49.9022225 L30.1617884,50.11195 L30.048963,50.2825284 L29.9680231,50.4891101 L29.7949308,50.7995068 L29.3646528,51.5150273 L29.3853258,51.2609074 L29.3835738,51.1948432 L29.3867273,51.1766669 L29.468368,50.9802221 L29.8327729,50.332863 L29.8443357,50.3164344 L29.7980843,50.347544 L29.7273057,50.4321341 L29.6656372,50.5995666 L29.5083124,50.6460562 L29.4865883,50.6866035 L29.5069108,50.7453272 L29.4960488,50.7680477 L29.4462935,50.8400541 L29.3383736,50.8722124 L29.2756539,50.8823492 L29.2118831,50.9372279 L29.1239354,51.0354503 L29.1200811,51.086484 L29.2357096,51.2056792 L29.3075394,51.3364093 L29.259536,51.4657413 L29.1390021,51.4881123 L29.0945027,51.398279 L29.0797863,51.3280202 L28.9364771,51.2270015 L28.8786629,51.2609074 L28.7844082,51.2472751 L28.7567274,51.2297978 L28.7591802,51.3570325 L28.778802,51.440574 L28.8233014,51.4762277 L28.8853203,51.5415928 L28.8656985,51.6579916 L28.9666106,51.6160461 L29.2682958,51.6583411 L29.2171389,51.7583112 L29.1645805,51.7939649 L29.1018609,51.9565038 L28.9546974,52.1162463 L28.7823058,52.1969914 L28.6614216,52.1746204 L28.6820945,52.217265 L28.7378064,52.3693175 L28.5538521,52.445868 L28.2861547,52.6174951 L28.0909878,52.689152 L28.0955429,52.5731028 L28.1375896,52.4878136 L28.1999589,52.4021748 L28.2935128,52.3067488 L28.2402537,52.2717942 L28.1120112,52.4318862 L28.0643583,52.5192727 L28.0829289,52.5923278 L28.0829289,52.6723738 L27.7437521,52.6597901 L27.634781,52.689152 L27.6144584,52.7136202 L27.6263717,52.7174652 L27.70591,52.7566144 L27.7458544,52.7821312 L27.7826453,52.7947149 L28.0829289,52.6933466 L28.0829289,52.818484 L27.9368166,52.9170559 L27.7304373,53.1928477 L27.6351314,53.24493 L27.5885296,53.3120428 L27.346761,53.8202826 L27.2661715,53.7535193 L27.2402427,53.7510725 L27.2265775,53.7587625 L27.2808879,53.7664525 L27.2910492,53.7751911 L27.3330959,53.8283221 L27.3446587,53.9220004 L27.3110213,53.9747819 L27.2016999,54.1002688 L27.1536966,54.2051326 L27.0916777,54.2537195 L27.0594419,54.2718959 L26.9648368,54.29951 L26.964136,54.3075496 L26.9942695,54.4159088 L26.8838968,54.6071104 L26.7290248,54.752871 L26.5405154,54.8713671 L26.2612551,54.9839209 L26.1925788,55 L26.1140916,54.9755318 L26.0419114,54.908419 L26.0310494,54.821382 L26.0674899,54.67667 L26.1112885,54.4477175 L26.1533352,54.3337655 L26.3842417,53.8395076 L26.415076,53.62209 L26.335888,53.446618 L26.2766722,53.4036238 L26.212551,53.3833502 L26.0296478,53.3791556 L26.0026678,53.3843988 L25.9269838,53.4085175 L25.8667168,53.4169066 L25.78858,53.3941861 L25.7784187,53.3330156 L25.7798203,53.2854773 L25.7724621,53.2648541 L25.7356712,53.2515714 L25.6473731,53.2568146 L25.5159772,53.2900214 L25.4557102,53.3298697 L25.4112108,53.370417 L25.3285189,53.4130616 L25.187312,53.4183048 L25.2009772,53.3658729 L25.1473677,53.3267237 L25.1056713,53.2561155 L25.0948093,53.2008872 L25.1102264,53.1225889 L25.1074233,53.1075585 L25.0744867,53.0698075 L24.9115557,52.9404755 L24.9094534,52.9408251 L24.855143,52.9188037 L24.7962776,52.8789554 L24.7591364,52.761508 L24.7468727,52.7524198 L24.5639695,52.7478757 L24.4749707,52.7031338 L24.4234634,52.6031637 L24.3880741,52.5084368 L24.353736,52.4647435 L24.3418228,52.4629958 L24.2777015,52.5007468 L24.2395091,52.5045918 L24.2181353,52.4958531 L24.1743367,52.4591508 L24.1315892,52.3930866 L23.6592645,51.8677191 L23.522963,51.7743904 L23.3964725,51.6240856 L23.2692812,51.1085054 L23.43922,51.4199508 L23.4423735,51.3902394 L23.4935304,51.1179431 L23.4819675,51.0532772 L23.3320009,50.8966806 L23.2685804,50.8023032 L23.2752378,50.7250535 L23.3982245,50.599217 L23.4991366,50.530706 L23.510349,50.4849155 L23.5240142,50.3891399 L23.5425848,50.3115407 L23.6098596,50.2573611 L23.6256271,50.222057 L23.6673234,50.1601874 L23.7153268,50.138166 L23.7279408,49.9504598 L23.8365614,49.7662491 L23.936072,49.6680267 L23.8800097,49.6236344 L23.7086694,49.5421902 L23.5944425,49.495351 L23.4423735,49.4694846 L23.2426516,49.4649405 L23.1193146,49.4698342 L22.8866562,49.5439379 L22.7717285,49.6037103 L22.664159,49.6820086 L22.5317118,49.7973587 L22.4101268,49.9752776 L22.3214783,50.1654305 L22.3074627,50.1822087 L22.2328298,50.1794124 L0.00343432162,50.1787133 L-6.95709899e-05,36.1045968 L0.256765757,36.0179095 L0.324741274,35.9602344 L0.414090535,35.9085016 L0.705264011,35.8483797 L1.47331727,35.4177391 L1.61662648,35.2971458 L1.65236618,35.2863099 L1.68600355,35.2635894 L1.7462705,35.1181783 L1.87521375,35.0346368 L1.95335056,34.9538917 L2.06021928,34.8902744 L2.23716586,34.9664754 L2.20422927,35.0084209 L2.37031378,34.9462017 L2.59105901,34.7640883 L2.7774661,34.7032673 L2.97718798,34.5550598 L3.62435694,34.2845113 L3.71475737,34.210058 L3.8542123,34.1411975 L4.20985739,33.8584148 L4.52205423,33.7385206 L4.5980887,33.6696601 L4.68078056,33.5763313 L4.93481277,33.433367 L5.16501852,33.1278639 L5.29746566,33.0604015 L5.34056354,33.0139119 L5.37525208,32.9597323 L5.42220424,32.9055527 L5.47020757,32.8758413 L5.71022421,32.7755216 L5.94148112,32.6210223 L6.04309401,32.4791067 L6.36685368,32.3812338 L6.41380584,32.3543188 L6.4348292,32.332647 L6.48493486,32.2473578 L6.55991817,32.0795757 L6.60231527,32.0316879 L6.69166453,31.990092 L6.76034082,31.8894227 L6.86090254,31.6524306 L7.00281019,31.4797549 L7.17800482,31.3710462 L7.54941744,31.2015164 L7.6356132,31.1399963 L7.69517937,31.0704367 L7.73582452,30.9697675 L7.75089126,30.8222591 L7.75054087,30.6782462 L7.74213153,30.6289602 L7.71760428,30.5545069 L7.62124724,30.3692476 L7.59286571,30.2951439 L7.557126,30.0116621 L7.54451199,29.9892912 L7.4495565,29.8938652 L7.42502925,29.8243055 L7.44500144,29.7578918 L7.3612584,29.8921174 L7.23722061,29.866251 L7.15067446,29.7802627 L7.08199816,29.690779 L7.02838861,29.6474353 L7.02032965,29.5799729 L7.08269894,29.3622058 L7.07218726,29.2335729 L7.20253207,29.2251838 L7.26700369,29.2070074 L7.02628627,29.1748492 L6.8230605,29.0385263 L6.8230605,28.9095439 L6.84338308,28.8438292 L6.87386694,28.7854551 L6.88963446,28.7375673 L6.90189808,28.5970498 L6.87702045,28.0251927 L6.84723736,27.8759366 L6.89068563,27.8654502 L7.20918947,27.8095229 L7.80380004,27.5718317 L8.31221486,27.4809497 L8.62265974,27.3302955 L10.0792279,27.105887 L10.0855349,27.1065861 L10.7982267,27.2100517 L11.3634045,27.1188202 L11.3707627,27.1202184 L13.0599893,27.4421502 L13.2004954,27.5106612 L13.2022474,27.5725308 L13.2758291,27.5928044 L13.3164743,27.6137772 L13.6472417,27.9157849 L13.8273418,28.0000254 L14.0218079,28.0017732 L14.6027533,27.7868024 L14.8291047,27.7389146 L14.8343606,27.7389146 L16.6924748,27.8287479 L16.6469242,27.9542349 L16.6619909,27.9762563 L16.6875694,27.9986272 L16.7131478,28.0063172 L16.7625527,27.9975786 L16.7622023,27.9902381 L16.7860287,27.9245235 L16.7818241,27.8923653 L16.7884815,27.8196597 L16.8291266,27.7480028 L16.8708229,27.7207382 L17.3547105,27.6186708 L17.6399274,27.4854938 L17.6528918,27.4711625 L17.6938873,27.3708428 L17.8109173,27.4040496 L17.8834479,27.4550834 L18.0789651,27.0849142 L18.2415457,26.9202781 L18.4265513,26.7846543 L18.9234032,26.5438172 L19.0039928,26.4770539 L19.2541707,26.2215358 L19.3638425,26.2016117 L19.5698714,26.2823568 L19.6746378,26.3012323 L19.9822796,26.2362168 L20.0586644,26.1984658 L20.2352606,25.9799996 L20.2920237,25.92582 L20.1837534,25.845774 L20.2187923,25.659466 L20.2366622,25.6329005 L20.1837534,25.3850725 L20.164482,25.2249805 L20.1742929,25.0585966 L20.2117845,24.9481401 L20.1865565,24.882775 L20.1424075,24.6999625 L20.0793374,24.5692323 L20.0614675,24.437104 L20.0428969,24.4129853 L19.9903385,24.3727875 L19.9581027,24.3367843 L19.8929303,24.2759633 L19.8175966,24.2410087 L19.7699437,24.1627104 L19.843175,24.0267371 L19.9171072,23.957527 L20.2426188,23.7995322 L20.158175,24.0449135 L20.2152884,24.0858103 L20.2524297,24.0246398 L20.4567066,23.8509155 L20.5176744,23.7642281 L20.5351938,23.6922217 L20.5411504,23.6079811 L20.5852995,23.4936796 L20.6578301,23.420974 L20.8183083,23.3926608 L20.8750714,23.3629494 L20.9174685,23.3010798 L20.9244763,23.2545902 L20.9087088,23.2290733 L20.8600047,23.2161401 L20.8063951,23.2353651 L20.667641,23.3612017 L20.5667289,23.3919617 L20.2552328,23.3919617 L20.1925131,23.3147121 L20.2597879,23.2133438 L20.3561449,23.1221123 L20.4731749,23.0619904 L20.5341427,23.0001208 L20.5835475,22.9186766 L20.5817956,22.9197252 L20.5474574,22.9448925 L20.4059002,23.0951972 L20.4679191,22.8407278 L20.490344,22.8085696 L20.469671,22.7868977 L20.2738034,22.822901 L20.2377133,22.7449522 L20.1085,22.8100309 Z M55.5674252,22.5188076 L55.5992395,22.6656024 L55.6140369,22.8304856 L55.5596566,23.0131095 L55.4057642,23.0538085 L55.2633398,23.1202488 L55.2037805,23.0106745 L55.2182079,22.9129273 L55.2515019,22.7821338 L55.2688888,22.6864737 L55.3203096,22.6022928 L55.412423,22.4916749 L55.5674252,22.5188076 Z M54.7059652,22.5413834 L54.7706663,22.5667768 L54.7786669,22.602258 L54.7703184,22.7473135 L54.6927468,22.8287116 L54.6398728,22.8596707 L54.6061309,22.918806 L54.5501262,22.9709843 L54.4276813,22.9410687 L54.2328825,22.8370601 L54.2829736,22.7080059 L54.2568845,22.642957 L54.1845307,22.5869524 L54.0415623,22.5386005 L54.1052197,22.3472803 L54.2151419,22.3490196 L54.1445274,22.3100598 L54.0860877,22.3507589 L53.9545986,22.5448619 L53.8996375,22.371978 L53.9152909,22.3093641 L53.9848619,22.1757878 L54.1667901,22.0321237 L54.3334126,21.9114181 L54.538647,21.9322894 L54.6009131,22.0185574 L54.6009131,22.1966591 L54.5129058,22.2331839 L54.4495961,22.2676215 L54.3925479,22.3570203 L54.3149763,22.4039807 L54.2895829,22.3900665 L54.4057664,22.4725081 L54.497948,22.5079893 L54.7059652,22.5413834 Z M56.3905572,21.893921 L56.4980444,21.9673184 L56.5596147,22.0629785 L56.5526576,22.1996855 L56.4806516,22.2988241 L56.2983756,22.3454367 L56.2381967,22.2212525 L56.2075855,22.1972505 L56.1901927,22.200729 L56.0486158,22.2699522 L55.9546949,22.1916848 L55.9286058,22.076197 L56.0301795,21.9854068 L56.086532,21.9975817 L56.0934891,21.958622 L56.1849749,21.8820939 L56.2962885,21.9210537 L56.3136813,21.951317 L56.3265519,21.9492299 L56.3905572,21.893921 Z M55.4780989,22.0455857 L55.2725166,22.1562036 L55.1521588,22.1875105 L54.9667521,22.0768927 L54.9316188,22.0167138 L54.9792749,21.8932253 L54.9709264,21.8396556 L54.8909197,21.6584232 L55.0036247,21.6702502 L55.058238,21.6643367 L55.0516287,21.6278119 L55.0467587,21.5815472 L55.0568465,21.4883221 L55.0864142,21.4149247 L55.1525066,21.3387445 L55.2370354,21.3335266 L55.3657417,21.4051848 L55.4690547,21.4820607 L55.5045359,21.577373 L55.5160151,21.6671195 L55.5560184,21.7704325 L55.4676632,21.817045 L55.3361741,21.8594833 L55.3413919,21.8716583 L55.3664374,21.8973995 L55.4780989,21.9523606 L55.4780989,22.0455857 Z M49.0374949,39.9419228 L49.1769847,40.1902913 L49.2653399,40.3704801 L49.2121181,40.5711924 L49.0225372,40.6459812 L48.8173027,40.6195443 L48.56963,40.6289364 L48.3612649,40.5917159 L47.8001749,40.3019527 L47.6610329,40.1746378 L47.7424309,40.1085453 L47.8547881,40.1328952 L47.9187934,40.1791599 L48.0196713,40.1989876 L48.2763883,40.2257725 L48.2823018,40.224381 L48.4388365,40.2073362 L48.5400623,40.2122061 L48.5710214,40.2337731 L48.7762558,39.8928753 L48.8026928,39.7812138 L48.7233819,39.6573775 L48.7491232,39.5756316 L48.859741,39.6003293 L48.9279206,39.6737267 L48.9762724,39.7812138 L49.0141886,39.8810482 L49.0242764,39.8772218 L49.0194065,39.8939188 L49.0374949,39.9419228 Z M45.2022908,40.4315271 L45.2675216,40.4015784 L45.3163421,40.4479373 L45.3750087,40.4774758 L45.3750087,40.6247578 L45.2597267,40.6222963 L45.1735728,40.5923476 L45.0968549,40.5258861 L45.1304959,40.4335784 L45.2022908,40.4315271 Z M46.9176321,39.3510216 L46.9899859,39.520427 L46.9948559,39.7155736 L46.9812895,39.8286265 L46.9374598,39.9075895 L46.8379733,39.8929796 L46.7551838,39.8286265 L46.6904828,39.745837 L46.7085712,39.8686298 L46.5788213,39.9027196 L45.9234626,39.9152424 L45.7912777,39.9482886 L45.6684849,40.0004668 L45.5689984,40.0689942 L45.4319436,40.2411824 L45.3571548,40.2429217 L45.3383706,40.2366603 L45.2444498,40.1771771 L45.1971415,40.127086 L45.1084385,40.0091632 L45.0392153,39.9583764 L45.0392153,39.8467149 L45.3651554,39.8460192 L45.481339,39.7430542 L45.5324737,39.6731353 L45.6653542,39.4442468 L45.723446,39.3993735 L45.7850163,39.3649358 L45.9335504,39.2139668 L46.2013987,39.0998704 L46.318278,39.1290902 L46.3144516,39.1409172 L46.3554985,39.0918697 L46.4664642,39.1454393 L46.5252517,39.2602315 L46.5224688,39.3478909 L46.4535936,39.4160705 L46.4115031,39.4407682 L46.4229823,39.4512039 L46.4748127,39.4713794 L46.6508273,39.479728 L46.6696115,39.6059993 L46.7263118,39.556256 L46.8042314,39.4445946 L46.9176321,39.3510216 Z M45.126353,39.3950253 L45.0609563,39.4639006 L44.9444249,39.5087738 L44.8028479,39.5098174 L44.721102,39.5320801 L44.6619666,39.5859976 L44.5332603,39.534863 L44.6101363,39.4475514 L44.6957086,39.3828504 L44.7652796,39.3776325 L44.8379812,39.3362378 L44.9454684,39.323715 L45.0324322,39.2238806 L45.056782,39.2791896 L45.1524421,39.20614 L45.1750527,39.2075315 L45.2206217,39.2162278 L45.3507194,39.0857822 L45.7034444,38.8175861 L45.8081487,38.8398488 L45.9514649,38.9198554 L45.7848424,39.0078627 L45.7034444,39.0687373 L45.5371697,39.1602232 L45.5409961,39.1957044 L45.4682944,39.2722325 L45.3479366,39.3421513 L45.2661907,39.3564134 L45.1253094,39.3901553 L45.0619998,39.2913645 L45.0748705,39.3202365 L45.126353,39.3950253 Z M41.7972768,40.9226651 L41.8320623,40.9682341 L41.8776313,41.0711991 L41.8442372,41.1807734 L41.7113566,41.198514 L41.5624747,41.2263424 L41.4647274,41.1407701 L41.4709888,41.042675 L41.4974258,40.9407535 L41.5499519,40.8937931 L41.5829981,40.8308314 L41.6132615,40.7991766 L41.6282193,40.6708181 L41.6466556,40.6499468 L41.7068345,40.610987 L41.8393672,40.7421284 L41.7979725,40.8635297 L41.7809276,40.8875317 L41.7972768,40.9226651 Z M39.3913559,41.5094964 L39.363512,41.5366291 L39.363512,41.5578482 L39.3839543,41.6218535 L39.3539958,41.6795974 L39.2789231,41.7735183 L39.2020881,41.8639606 L39.2003258,41.6632483 L39.1932767,41.5891552 L39.1791786,41.5588918 L39.1333596,41.5484561 L39.061459,41.5505433 L38.9874436,41.4795808 L39.0244513,41.4486218 L39.0593442,41.4754066 L39.0276234,41.4461868 L39.0695654,41.3960957 L39.0371396,41.2270382 L39.2285221,41.3818336 L39.3053571,41.4103577 L39.3977,41.4274026 L39.3913559,41.5094964 Z M20.3793953,21.4629983 L20.3126072,21.4191685 L20.2993887,21.3402055 L20.308085,21.2744609 L20.339392,21.202107 L20.4051366,21.147146 L20.5174937,21.1095776 L20.5905433,21.0452245 L20.6503743,21.0862713 L20.6722892,21.0786185 L20.7126403,21.051138 L20.7801242,21.0598344 L20.8277803,21.1596687 L20.8298675,21.2135863 L20.696639,21.2859401 L20.5098409,21.4296042 L20.3793953,21.4629983 Z" id="Combined-Shape"></path>
                                        </g>
                                        <path d="M34.0601424,34.3536 C33.1913424,35.3557333 31.7700091,35.3557333 30.9012091,34.3536 C30.9012091,34.3536 19.4174757,21.1018667 19.4174757,13.0634667 C19.4174757,5.8496 25.2660091,0 32.4809424,0 C39.6953424,0 45.5444091,5.84906667 45.5444091,13.0634667 C45.5444091,21.1018667 34.0601424,34.3536 34.0601424,34.3536 Z M28.083268,17.7013946 L27.7047536,20.8301898 C28.9020132,21.4695979 30.0396161,21.7332405 30.9329735,21.8321682 L30.9252019,23.7288042 L33.5071747,23.7132077 L33.5155988,21.6906565 C35.5088679,21.1161521 36.6958264,19.4208129 36.7047178,17.3356535 C36.7143805,14.9594804 34.7683888,13.6372979 32.5144064,12.7965635 C31.6828574,12.5097435 30.9727443,12.1389524 30.8951711,11.3059958 C30.8372097,10.4721274 31.3072166,9.69794124 32.3453056,9.62960444 C32.7923884,9.60549701 33.7075006,9.57960516 35.3104551,10.2368911 L35.6881069,7.35765052 C34.8154761,7.04996173 34.1243839,6.88771309 33.5767179,6.80788318 L33.5842933,4.93160769 L31.0022803,4.94741109 L30.9942937,6.94836041 C29.1628737,7.52233145 27.9559409,9.2182972 27.9472561,11.3238954 C27.9369406,13.8249101 29.9646854,15.0006535 32.2385617,15.8411752 C33.0501766,16.1284148 33.6791437,16.499537 33.7352176,17.3538665 C33.8146783,18.1663619 33.0789263,18.7961324 32.226245,18.8642207 C31.5539373,18.931082 29.7449146,18.8995948 28.083268,17.7013946 Z" id="Combined-Shape" fill="#FF4489" fill-rule="nonzero"></path>
                                    </g>
                                </g>
                            </g>
                        </g>
                    </g>
                </g>
            </g>
        </g>
    </g>
</svg>