<?xml version="1.0" encoding="UTF-8"?>
<svg width="62px" height="71px" viewBox="0 0 62 71" version="1.1" xmlns="http://www.w3.org/2000/svg" xmlns:xlink="http://www.w3.org/1999/xlink">
    <!-- Generator: Sketch 46.2 (44496) - http://www.bohemiancoding.com/sketch -->
    <title>Group 16</title>
    <desc>Created with Sketch.</desc>
    <defs></defs>
    <g id="Index" stroke="none" stroke-width="1" fill="none" fill-rule="evenodd">
        <g id="AVCO_Vacations_by_State_1440" transform="translate(-1004.000000, -1362.000000)">
            <g id="Content" transform="translate(110.000000, 92.000000)">
                <g id="Anchors" transform="translate(213.000000, 1163.000000)">
                    <g id="Group-11" transform="translate(0.000000, 72.000000)">
                        <g id="Anchor4" transform="translate(630.000000, 0.000000)">
                            <g id="Name-of-City/Ranking/Titile" transform="translate(51.000000, 35.000000)">
                                <g id="Titile">
                                    <g id="Group">
                                        <g id="Group-16">
                                            <g id="West_Icon" fill="#FFD43A">
                                                <path d="M21.0758935,67.0866932 L21.0740251,67.1299873 L21.1217438,67.2343865 L21.1203163,67.2595651 L21.1148103,67.2632498 L21.1109357,67.2597698 L21.0919706,67.1854622 L21.0593424,67.1105404 L21.0468987,67.0893008 L20.7780102,67.113483 L20.770261,67.0506387 L20.7561901,66.9720323 L20.742935,66.8156381 L20.7092872,66.7218835 L20.6691138,66.655764 L20.6191519,66.6197361 L20.5212675,66.6133902 L20.5237146,66.6934296 L20.4498934,66.6326324 L20.4203242,66.5710164 L20.4142064,66.5376496 L20.4237909,66.3302841 L20.4146143,66.2719433 L20.3581268,66.1493254 L20.3407931,66.0860718 L20.3866764,66.0109453 L20.4089043,66.0248652 L20.4241988,65.9352047 L20.3670995,65.5857743 L20.3389577,65.4948856 L20.3040864,65.4498506 L20.239238,65.2152594 L20.1323808,65.0306161 L19.7349292,64.4813943 L19.4991909,64.302278 L19.3376816,64.130531 L19.2960807,64.0988018 L19.1151984,63.9876474 L19.0026313,63.8412838 L18.8613107,63.7299246 L18.725496,63.6380123 L18.6766356,63.6202766 L18.7664734,63.6977444 L18.8531892,63.7626566 L18.9383237,63.8446115 L19,63.924812 L18.8935161,63.9426065 L18.8231418,63.9132832 L18.7904586,63.9233083 L18.7814971,63.9511278 L18.733263,63.973183 L18.688719,64 L18.6447022,63.9924812 L18.6125461,63.9378446 L18.5777543,63.9313283 L18.4878756,63.8508772 L18.4370058,63.8260652 L18.3927254,63.7954887 L18.3597786,63.7210526 L18.3550343,63.6877193 L18.3160253,63.6506266 L18.2788614,63.5874687 L18.2606747,63.5794486 L18.2179758,63.5052632 L18.2137586,63.4340852 L18.2050606,63.4115288 L18.183184,63.3847118 L18.1191355,63.3170426 L18.1022667,63.2333333 L18.0793358,63.1756892 L18.0661571,63.1533835 L18,63.1511278 L18.0026073,63.1028871 L17.9846332,63.0934987 L17.9426245,63.0832635 L17.9179494,63.0975928 L17.9287575,63.1244091 L17.9363028,63.1804981 L17.8773682,63.1862298 L17.8433125,63.1540912 L17.831077,63.1628935 L17.8037509,63.1065998 L17.803547,63.105781 L17.7782602,63.1137644 L17.7984488,63.187458 L17.7639854,63.2007638 L17.784174,63.2468223 L17.7003605,63.2337212 L17.7019919,63.2410906 L17.734824,63.2685209 L17.6483594,63.2638127 L17.6161391,63.2855114 L17.5794324,63.2548058 L17.5390551,63.2427282 L17.4962307,63.2212342 L17.4281194,63.1993309 L17.4091543,63.1706723 L17.3767301,63.1657594 L17.3626592,63.1600276 L17.3473648,63.1667829 L17.3051521,63.1757899 L17.2914891,63.1540912 L17.2664062,63.147336 L17.2555981,63.0949316 L17.2376526,63.0683201 L17.2182797,63.0200099 L17.2415272,62.9704714 L17.2713004,62.9497963 L17.2727279,62.9307587 L17.2827202,62.9207282 L17.310862,62.8992343 L17.3188151,62.8699616 L17.319223,62.823289 L17.3041325,62.7964727 L17.2974029,62.7725223 L17.1752513,62.4505223 L17.0710452,62.2904435 L16.9929415,62.2206393 L16.9215675,62.1723291 L16.8891432,62.1751949 L16.8573308,62.1657785 L16.823683,62.1811314 L16.796153,62.1713056 L16.7729055,62.1721244 L16.7569993,62.1825643 L16.6664562,62.1790843 L16.5910036,62.1713056 L16.5854976,62.1751949 L16.5695914,62.2022159 L16.5218727,62.1950513 L16.4847582,62.2032394 L16.4150155,62.1921854 L16.3781049,62.1970983 L16.3605673,62.2138841 L16.2847069,62.2261663 L16.2822598,62.2390627 L16.2726752,62.2495026 L16.2696164,62.2656743 L16.2426981,62.2781612 L16.240251,62.2873729 L16.2247527,62.2974035 L16.2057875,62.3168504 L16.1911049,62.2935141 L16.1309467,62.2251428 L16.0767025,62.1880913 L16.0556981,62.1860443 L16.0155247,62.1747855 L15.970661,62.1729432 L15.9433349,62.1668021 L15.9406839,62.1670068 L15.9076479,62.1657785 L15.8886828,62.1520634 L15.8774668,62.1496069 L15.857686,62.1590233 L15.8011986,62.1408046 L15.7318638,62.099659 L15.6855726,62.0828733 L15.6527405,62.0812356 L15.5699466,62.0226902 L15.5038746,62.0134785 L15.4263827,61.9655777 L15.3990567,61.990961 L15.3121842,61.9590271 L15.1433336,61.8292446 L15.1074426,61.817167 L15.1066269,61.8177811 L15.0748145,61.8188047 L15.0587043,61.7811391 L15.0440217,61.7604639 L15.0136367,61.7015091 L14.9954873,61.6589305 L14.9485844,61.5627195 L14.9373684,61.5211645 L14.941447,61.5137952 L14.9243172,61.4407157 L14.897399,61.4028454 L14.8796574,61.3917914 L14.8484567,61.4012078 L14.7379289,61.3271048 L14.7103989,61.2853451 L14.6594174,61.2401054 L14.630256,61.2474748 L14.5988514,61.2439948 L14.586412,61.2206585 L14.5703018,61.1977316 L14.5248263,61.160066 L14.4887314,61.1232192 L14.4603857,61.1279274 L14.4269419,61.0708149 L14.4149103,61.0593515 L14.4069572,61.0575091 L14.3943138,61.0671302 L14.3663759,61.0654926 L14.3343595,61.0323305 L14.3259986,61.0276223 L14.3107041,61.0270082 L14.2584991,61.0163636 L14.2458557,61.0003966 L14.2303573,60.9913896 L14.2069059,60.9887285 L14.1406299,60.9279313 L14.10739,60.9353006 L14.0837346,60.9297736 L14.0498829,60.9119643 L14.005631,60.9076655 L13.9964543,60.9144208 L13.9717793,60.9150349 L13.9442493,60.9248607 L13.8859265,60.9205619 L13.8398392,60.9264983 L13.8233212,60.9342771 L13.8290312,60.9543381 L13.7902852,60.9668251 L13.7884499,60.9721474 L13.7580649,60.9901614 L13.7189112,60.9905708 L13.6695611,60.9797215 L13.6459057,60.9653922 L13.6179678,60.9584322 L13.5373584,60.922065 L13.5334969,60.9317223 L13.5280982,61 L13.4397546,60.9758343 L13.4100166,60.9286821 L13.3995632,60.9514723 L13.3854923,60.9713286 L13.3430757,60.9455358 L13.3118751,60.9436935 L13.3016788,60.9475829 L13.2821019,60.9594557 L13.265176,60.9432841 L13.2392774,60.9097126 L13.210116,60.9021385 L13.1577071,60.8624259 L13.1273221,60.8564894 L13.0893919,60.8616071 L13.0585991,60.8536236 L13.0398379,60.8358143 L12.9925271,60.8092027 L12.9756013,60.8102263 L12.9229884,60.7752218 L12.8921956,60.7852523 L12.849779,60.7658054 L12.7007091,60.7803394 L12.5861028,60.7336668 L12.4874026,60.7426738 L12.1541877,60.747382 L11.7975213,60.8040851 L11.7524537,60.8046992 L11.7202334,60.8386802 L11.6435573,60.8008099 L11.5884973,60.6548557 L11.54241,60.5637622 L11.476338,60.5215931 L11.4163838,60.5007133 L11.3672377,60.4636618 L11.3291035,60.4605912 L11.2491646,60.4691888 L11.1943085,60.4208786 L11.1704492,60.3768671 L11.1594372,60.3316275 L11.1771787,60.2736961 L11.2089912,60.1819886 L11.2544666,60.0767705 L11.2758789,60.0122887 L11.2819966,59.9410515 L11.2183718,59.8174101 L11.1781983,59.7598882 L11.2108265,59.6694089 L11.2393761,59.5480192 L11.2477371,59.4299047 L11.2377447,59.4129143 L11.2079715,59.3957191 L11.1816651,59.359077 L11.1718766,59.3158844 L11.1608646,59.3076962 L11.1180402,59.3177268 L11.0931612,59.2673695 L11.0925495,59.2534496 L11.1109028,59.1723867 L11.176363,58.9400472 L11.1996106,58.8272551 L11.2069519,58.7036137 L11.1936967,58.5893886 L11.1714688,58.4982952 L11.1514841,58.4823283 L11.1439388,58.472093 L11.1172245,58.4725024 L11.0825571,58.455512 L11.0173008,58.3918489 L10.9181928,58.3828419 L10.917581,58.3836608 L10.9181928,58.4121147 L10.8908668,58.4452768 L10.8478384,58.4325851 L10.7809507,58.3719926 L10.6171982,58.2890873 L10.5437849,58.2188737 L10.5154392,58.1826411 L10.4779168,58.1195921 L10.4872974,58.021334 L10.5107489,57.9795743 L10.5615264,57.8340295 L10.5743738,57.7415032 L10.5668285,57.7449831 L10.551534,57.5973913 L10.5117685,57.5140766 L10.466293,57.4731358 L10.3639222,57.4792769 L10.3137564,57.4422254 L10.2633867,57.4326043 L10.1983344,57.4301478 L10.0190835,57.2295376 L9.9236462,57.1161313 L9.84839754,56.9531867 L9.81597332,56.9390621 L9.76845858,56.8567709 L9.74765814,56.8332299 L9.72930481,56.8270888 L9.73073229,56.8344581 L9.68913141,56.8582038 L9.62102016,56.7976114 L9.5284378,56.766701 L9.48377802,56.7447976 L9.41260788,56.7421365 L9.41179218,56.6672147 L9.387525,56.6186997 L9.34164167,56.562406 L9.31819019,56.3884073 L9.28372671,56.3220831 L9.19807783,56.2414296 L9.14811599,56.2041734 L9.08449111,56.1204493 L9.07633407,56.0958848 L9.04717267,56.0833978 L9.00210504,56.0467558 L8.93460557,55.9779751 L8.93603305,55.9190202 L8.91115409,55.8838111 L8.89443217,55.8228092 L8.86282365,55.6537234 L8.82407773,55.5929262 L8.78655536,55.5730699 L8.73985633,55.5581264 L8.66318019,55.5392936 L8.61546153,55.4782917 L8.58181376,55.4160616 L8.57793916,55.3806478 L8.54898169,55.3573115 L8.51329465,55.3067495 L8.48250184,55.2148372 L8.45232081,55.1835175 L8.40786496,55.1149415 L8.35688349,55.0518926 L8.31161194,55.0185257 L8.28347016,54.9827025 L8.21902958,54.933164 L8.04039049,54.8164825 L8.00837412,54.8236472 L7.95412983,54.7902804 L7.9200742,54.7481113 L7.89213635,54.6699142 L7.88255184,54.6572225 L7.85277865,54.6437121 L7.81872303,54.6142346 L7.80363251,54.5898748 L7.73674482,54.5685856 L7.75428244,54.5161812 L7.75,54.4645957 L7.75999237,54.4496523 L7.7601963,54.4428971 L7.74959215,54.4244737 L7.733482,54.3610153 L7.7263446,54.3082016 L7.73021919,54.2813853 L7.727976,54.2750395 L7.72206215,54.2498609 L7.70411667,54.2212023 L7.69392038,54.1733014 L7.69983423,54.1485322 L7.6941243,54.1315417 L7.66394327,54.0670599 L7.65802942,54.0236625 L7.64028786,54.0011451 L7.6145932,53.9086187 L7.62621698,53.8906047 L7.62193453,53.8695202 L7.62275024,53.8607179 L7.58359646,53.8386098 L7.59664772,53.7853867 L7.63845253,53.7796549 L7.6594569,53.7825208 L7.6657786,53.781702 L7.6649629,53.7778126 L7.6586412,53.7765844 L7.64253105,53.73114 L7.65089201,53.7202907 L7.64620172,53.7229518 L7.63784075,53.7033002 L7.62723661,53.7182436 L7.56218424,53.6721852 L7.53281891,53.6449595 L7.51405773,53.5776117 L7.56075676,53.5733129 L7.56116461,53.569833 L7.58257683,53.4916359 L7.6137775,53.4627726 L7.61969135,53.4676855 L7.62744053,53.448648 L7.63355831,53.4130294 L7.6531352,53.3827332 L7.70187349,53.3935825 L7.73429771,53.4152812 L7.73633696,53.4324763 L7.74490185,53.4390269 L7.77977318,53.4531515 L7.81586807,53.5112875 L7.8168877,53.5110828 L7.83891169,53.4955253 L7.8799008,53.4549938 L7.91558783,53.4099589 L7.97737738,53.2545883 L7.98879723,53.1364738 L8.00653879,53.0445616 L8.00490738,53.0435381 L8.0208136,52.9266519 L8.04222582,52.8419043 L8.00572308,52.7473308 L7.85441006,52.4365896 L7.78344385,52.3465197 L7.73939585,52.3043506 L7.66924534,52.2789673 L7.64151142,52.2953436 L7.60602831,52.3383315 L7.58114935,52.3504091 L7.57340017,52.3583926 L7.47143722,52.3301434 L7.46674692,52.3303481 L7.45491922,52.3301434 L7.44696611,52.3759971 L7.40332597,52.364329 L7.37314493,52.3798865 L7.31584175,52.375383 L7.27036628,52.367809 L7.19246658,52.3495903 L7.15147748,52.3252305 L7.11395511,52.3168376 L7.10457452,52.3061929 L7.09131933,52.2836755 L7.06399326,52.2781484 L6.99527023,52.2134619 L6.91329202,52.130966 L6.86802047,52.1111097 L6.85068677,52.0525642 L6.78033233,51.9858306 L6.70059731,51.8525681 L6.66613383,51.813879 L6.6477805,51.8022108 L6.63391354,51.8040531 L6.5974108,51.8181777 L6.54275866,51.7825592 L6.5470411,51.7236043 L6.489534,51.6718141 L6.48525155,51.6265745 L6.46771392,51.5958688 L6.44099963,51.5760125 L6.39939875,51.5776501 L6.36615883,51.5115306 L6.3502526,51.406722 L6.33373461,51.3815433 L6.32761683,51.3053933 L6.35086438,51.2464385 L6.37594727,50.9518689 L6.35698216,50.9391772 L6.34698979,50.8920952 L6.30049468,50.7856489 L6.25685454,50.6732663 L6.24441506,50.5434837 L6.21260262,50.4865759 L6.18180981,50.4714277 L6.1691664,50.4718372 L6.16692322,50.4857571 L6.11451426,50.5234227 L6.10411404,50.4632396 L6.07352516,50.4284398 L6.04885012,50.3484004 L6.06414456,50.2470718 L6.0502776,50.2026509 L6.05272471,50.1533172 L6.02764183,50.1193362 L6.07005841,50.1054163 L6.08535286,50.0912917 L6.09860804,50.0917012 L6.11696137,50.0092053 L6.11655352,50.0044971 L6.11961241,49.8831074 L6.10044337,49.7557813 L6.08270182,49.6831113 L6.06842701,49.5864908 L6.06312493,49.470014 L6.10554152,49.4391037 L6.13103226,49.4368519 L6.14918167,49.4296873 L6.17711951,49.3549702 L6.16855463,49.3549702 L6.12205952,49.3744171 L6.09554915,49.3598831 L6.08372145,49.3635677 L6.05150116,49.4020522 L6.00786101,49.3369562 L5.98338991,49.3164857 L5.91507473,49.2448392 L5.86980318,49.2223217 L5.83962215,49.1852702 L5.78721319,49.1707362 L5.71971371,49.0964285 L5.65853594,49.0739111 L5.63243343,49.0802569 L5.61326439,49.0927439 L5.59409536,49.1392118 L5.53740396,49.0925392 L5.48907352,49.0814851 L5.46868093,49.0133186 L5.43768419,48.9789282 L5.38935375,48.9592766 L5.34245079,48.9136276 L5.30207347,48.8235576 L5.26190006,48.7887579 L5.23518577,48.74925 L5.19113777,48.7224337 L5.00923587,48.6348202 L4.97354884,48.6258132 L4.98089017,48.6413708 L4.94051284,48.6413708 L4.90747684,48.6454648 L4.87933507,48.6569283 L4.84425981,48.6890669 L4.83773419,48.7081044 L4.84976581,48.7113796 L4.94418351,48.7629651 L4.83610278,48.7830262 L4.76819545,48.7691063 L4.71802968,48.7707439 L4.6442085,48.7617369 L4.69417035,48.6954127 L4.70518235,48.6950033 L4.76799153,48.5437268 L4.87790759,48.2176327 L4.87627618,48.1545838 L4.86546811,48.1240828 L4.83610278,48.0991089 L4.83651063,48.0395399 L4.81713767,48.0135425 L4.79021945,47.9691216 L4.76065019,47.9351407 L4.74107331,47.8278756 L4.82590648,47.8786423 L4.82651826,47.8526448 L4.8126513,47.8080193 L4.78185849,47.7717866 L4.74086938,47.7126271 L4.67663272,47.6594039 L4.65420087,47.6604274 L4.64951058,47.6680015 L4.64502421,47.7019824 L4.62850621,47.7091471 L4.58058362,47.7224529 L4.53184533,47.6008585 L4.55325755,47.5144732 L4.54775155,47.4766029 L4.52797074,47.4383232 L4.55019866,47.4254268 L4.52511578,47.4307492 L4.50696637,47.3752743 L4.48269919,47.3588979 L4.46495764,47.2989195 L4.43579623,47.2684186 L4.40377987,47.2096684 L4.39215609,47.1695464 L4.28509499,47.0727212 L4.05710583,46.9574727 L4.00265761,46.8936049 L3.91884407,46.8266666 L3.88988659,46.7973939 L3.82340675,46.7591141 L3.80994764,46.6876723 L3.78017446,46.6592184 L3.74550705,46.6436609 L3.73102831,46.593713 L3.64782654,46.4876762 L3.6151984,46.4102979 L3.56136196,46.3679241 L3.55646774,46.332715 L3.40719398,46.1707938 L3.31807836,46.1325141 L3.27810888,46.0406018 L3.2208057,46.0031409 L3.20122882,45.9617907 L3.12455268,45.9214639 L3.06357883,45.8457233 L2.97344358,45.762818 L2.93510552,45.6862586 L2.84374671,45.5904569 L2.80785575,45.5452173 L2.75932139,45.5263845 L2.75585465,45.4637449 L2.70262999,45.3634398 L2.76910983,45.3401035 L2.82233449,45.2440972 L2.85924508,45.1220934 L2.84354278,45.0166706 L2.77380013,44.767136 L2.72526576,44.7284469 L2.73219924,44.667445 L2.64573466,44.5438035 L2.61820466,44.4441125 L2.58496474,44.2819867 L2.54540312,44.2451399 L2.56130934,44.1777921 L2.53948926,44.1552747 L2.54050889,44.0834234 L2.48850779,44.0009276 L2.50094727,43.7874209 L2.51216319,43.6494502 L2.56192111,43.4791361 L2.62880881,43.322742 L2.63961688,43.2899893 L2.64022866,43.2308298 L2.59291785,43.1086213 L2.59393748,42.9043263 L2.58394511,42.8674795 L2.58272156,42.8261292 L2.56905852,42.7772049 L2.53989712,42.71825 L2.49890801,42.6975749 L2.47504868,42.647627 L2.4736212,42.5931757 L2.45445216,42.5219386 L2.45526787,42.4457885 L2.41346306,42.2832533 L2.34535181,42.2449735 L2.26480107,42.1602259 L2.20443901,42.0150905 L2.13469635,41.9514275 L2.07331465,41.8191885 L2.01641932,41.7682171 L1.95381407,41.6775331 L1.9256723,41.6435521 L1.8981423,41.6243099 L1.8753026,41.6130512 L1.84124697,41.622877 L1.80535602,41.583369 L1.79169298,41.5440658 L1.79148905,41.4607511 L1.77476713,41.4050716 L1.70359699,41.3074276 L1.64772129,41.278769 L1.5147616,41.2286164 L1.41259473,41.0943303 L1.32225555,41.0312814 L1.14178113,40.877139 L1.12485528,40.8415204 L1.08182691,40.8198218 L1.01779418,40.74142 L1.02839833,40.6585147 L1.05898721,40.5305745 L1.01555099,40.4360011 L1.01188033,40.3250513 L0.925823598,40.1866712 L0.892583675,40.0763355 L0.932757078,39.9897456 L0.957432112,39.9064309 L0.963345964,39.8755206 L0.957228187,39.8386738 L1.00351937,39.7328416 L1.06000684,39.5817698 L1.13321624,39.4444132 L1.14178113,39.4004017 L1.16339727,39.3707196 L1.16849542,39.367649 L1.15707557,39.3506586 L1.2147866,39.2272218 L1.27208978,39.1303967 L1.32429481,39.0178093 L1.37568414,38.8906879 L1.38078229,38.8976478 L1.42299495,38.8286624 L1.53189138,38.6084006 L1.64772129,38.2898806 L1.71032654,38.0069791 L1.70726766,37.9244833 L1.70176166,37.9158857 L1.69054573,37.9140434 L1.66321966,37.9216174 L1.62304626,37.8847706 L1.61040285,37.8524273 L1.60408115,37.7983854 L1.58919456,37.7623574 L1.57267656,37.7107719 L1.57369619,37.6548876 L1.56329597,37.5879493 L1.56839412,37.5474178 L1.60469293,37.5234674 L1.62304626,37.5271521 L1.67361988,37.3975743 L1.70257736,37.2579659 L1.76355121,37.0088407 L1.78700268,36.8205127 L1.82636038,36.6102813 L1.84104305,36.4815222 L1.80392853,36.2872578 L1.78618698,36.161774 L1.81473661,36.1124403 L1.80943453,36.1097791 L1.77864172,36.0858287 L1.75233528,36.0536901 L1.72969951,36.0035375 L1.72745632,35.9687378 L1.73051521,35.875802 L1.7013538,35.8279012 L1.62916404,35.6481708 L1.63324255,35.5867595 L1.61366567,35.4944378 L1.58042574,35.3961797 L1.52434612,35.3685446 L1.51741264,35.3718199 L1.49049442,35.4074384 L1.38445295,35.3022204 L1.29146274,35.2453126 L1.30247474,35.1703908 L1.34122066,35.1493062 L1.37568414,35.0850291 L1.41483791,34.9544277 L1.43563835,34.8072453 L1.45929376,34.5530024 L1.45521524,34.5182027 L1.43217161,34.4369351 L1.43176376,34.4369351 L1.42217924,34.4017259 L1.37446058,34.3652885 L1.30736896,34.3038772 L1.27433296,34.2668257 L1.22253579,34.2627317 L1.10201558,34.0911894 L1.06021077,34.0658061 L1.02860225,33.9953878 L1.04328492,33.925993 L1.01126855,33.8604876 L1.01779418,33.7671424 L0.984350332,33.6854654 L0.977212925,33.6041977 L0.939078781,33.5427864 L0.883203084,33.5012314 L0.891767972,33.4492365 L0.893603305,33.3204775 L0.861179086,33.2523109 L0.847923903,33.2437133 L0.829366646,33.1962219 L0.835688349,33.1153637 L0.848127829,33.0682817 L0.844865014,32.9436167 L0.850778865,32.8621444 L0.805507315,32.7823097 L0.855877013,32.7194655 L0.859343753,32.6791387 L0.864441901,32.5833371 L0.905838859,32.4644038 L0.93418456,32.3108756 L0.924600042,32.2445513 L0.909713451,32.2093422 L0.919297969,32.1295075 L0.881163825,31.9663581 L0.857304494,31.9405654 L0.82018998,31.9182526 L0.774306652,31.8760835 L0.737396064,31.8089405 L0.722917324,31.717847 L0.689473476,31.7000377 L0.643182297,31.7057695 L0.606067782,31.6384217 L0.559572677,31.4322844 L0.543666456,31.3940047 L0.520011051,31.3649367 L0.446801652,31.3166265 L0.521030681,31.2552152 L0.669488738,30.9448834 L0.798369908,30.5721167 L0.817742869,30.477748 L0.82467635,30.4095814 L0.854245606,30.2337404 L0.874230344,30.21327 L0.868724345,30.1590233 L0.869540048,30.1553386 L0.955596779,29.7053984 L0.933572782,29.5739782 L0.912568414,29.5271009 L0.993730923,29.3919961 L1.0438967,29.3833985 L1.09834491,29.3416388 L1.15870698,29.3633374 L1.16462083,29.3866737 L1.17298179,29.3453235 L1.20153142,29.3060202 L1.23110067,29.284731 L1.24435586,29.2456324 L1.15789127,29.3619045 L1.08610936,29.3342694 L1.20051179,29.1107323 L1.36691532,28.6126866 L1.40199058,28.4790146 L1.4399208,28.2088048 L1.47295679,28.1742098 L1.54188375,28.1385913 L1.56125671,28.1066574 L1.5257736,28.1379771 L1.4470582,28.1719581 L1.53148353,27.8127019 L1.59918693,27.3623523 L1.63956426,26.9365672 L1.67606699,26.9136403 L1.68340833,26.8919417 L1.64710951,26.7942977 L1.64649774,26.7476251 L1.70013025,26.1867352 L1.6997224,25.9656544 L1.71868751,25.8197002 L1.71664825,25.8068039 L1.70114988,25.7666818 L1.69992632,25.7451878 L1.70114988,25.7347479 L1.71114225,25.7054752 L1.73867225,25.6569603 L1.78129276,25.3357791 L1.78904194,25.1470417 L1.78088491,25.0125509 L1.83879986,24.5793965 L1.81636801,24.5454156 L1.82758394,24.4905548 L1.8414509,24.453708 L1.85021971,24.4107201 L1.85287075,24.3785815 L1.8477726,24.366504 L1.82187401,24.3632287 L1.78679876,24.3317042 L1.81697979,24.301408 L1.83105068,24.2551448 L1.85205505,24.1290469 L1.84899616,24.0565816 L1.83370172,23.9943514 L1.81004631,23.9374436 L1.82982712,23.8226045 L1.83614883,23.7462498 L1.86775734,23.6868855 L1.88488712,23.6164672 L1.91731134,23.5392936 L1.92506052,23.431005 L1.95238659,23.405417 L1.96258289,23.3902689 L1.96176718,23.3632479 L1.94035496,23.3300858 L1.94443348,23.2903731 L1.97114777,23.1929339 L1.98012051,23.08137 L1.99725029,22.913103 L1.96788496,22.8711386 L1.97420666,22.8164825 L2.00132881,22.7454501 L2.05536917,22.6580414 L2.07739317,22.5538468 L2.0902405,22.4742168 L2.09554257,22.2832277 L2.07474213,22.2371692 L2.10635065,22.0646034 L2.11919798,21.9116893 L2.09166798,21.8050383 L2.06332228,21.7923466 L2.00622303,21.785182 L2.00622303,21.7178342 L2.07005184,21.6953167 L2.08616198,21.660517 L2.09921324,21.5481343 L2.12776287,21.4517186 L2.13795916,21.4253117 L2.19546627,21.454175 L2.18200716,21.4920453 L2.17813256,21.5264356 L2.19995264,21.4861089 L2.22136486,21.457655 L2.13816309,21.4044318 L2.09003658,21.3233689 L2.09119384,21.2587505 L2.09033917,21.2583369 L2.06525629,21.2120737 L2.02263578,21.1946738 L2.00774918,21.1101309 L2,21 L2.03160851,21.0288633 L2.08707636,21.012487 L2.07973503,21.0622301 L2.09013525,21.1293732 L2.09595439,21.134284 L2.12450005,21.0601191 L2.13795916,20.9291083 L2.16039101,20.8777275 L2.1232765,20.8382196 L2.14244553,20.7659589 L2.16283812,20.6494822 L2.17058731,20.5358712 L2.18384249,20.5231796 L2.17690901,20.4758929 L2.18200716,20.3485667 L2.17099516,20.2468287 L2.15937138,20.2214453 L2.11430376,20.1901256 L2.09411509,20.1412012 L2.09513472,20.1336272 L2.06597332,20.1444765 L2.05903984,20.0740582 L2.06454584,20.0650512 L2.09819361,20.0165363 L2.10227213,19.9667931 L2.12348042,19.8849114 L2.1295982,19.6642401 L2.12123724,19.5727372 L2.09635828,19.4984295 L2.03212162,19.4124537 L2.06984791,19.3498142 L2.09003658,19.3352802 L2.11389591,19.2781676 L2.19505841,19.2292433 L2.20749789,19.1876883 L2.2201413,19.1105148 L2.18384249,18.8460367 L2.14672798,18.6980355 L2.03966688,18.3854519 L1.94280207,18.2525988 L1.97481844,18.2120673 L2.03803547,18.1979427 L2.10166035,18.2679516 L2.08187954,18.2955867 L2.0910562,18.3090972 L2.12653931,18.307869 L2.1807836,18.3320241 L2.26684033,18.3999859 L2.27907589,18.4225034 L2.28131907,18.4218893 L2.3208807,18.4341716 L2.33107699,18.4804347 L2.40367461,18.5080698 L2.44833439,18.5025428 L2.43100068,18.4867806 L2.39816861,18.4701995 L2.3673758,18.416567 L2.43711846,18.3920025 L2.48218609,18.3891366 L2.52297127,18.3907742 L2.57803126,18.377059 L2.62778918,18.3477863 L2.68019814,18.3297723 L2.72363435,18.3739885 L2.79276524,18.4665148 L2.83844464,18.4654913 L3.05807283,18.4104258 L3.04869224,18.4071506 L3.04583728,18.340417 L3.10436401,18.3131913 L3.17084386,18.322403 L3.2073466,18.2906738 L3.26668903,18.2540317 L3.28483844,18.2169802 L3.34927902,18.2098156 L3.41310783,18.2202555 L3.43431612,18.2270107 L3.42330413,18.1807476 L3.4332965,18.1242492 L3.49182323,18.1344844 L3.53668693,18.1782911 L3.55891485,18.2038791 L3.53118093,18.1602771 L3.50589412,18.1299809 L3.45450479,18.101527 L3.11884275,18.1635524 L2.93979581,18.1191315 L2.92164641,18.0824895 L2.90186559,18.0171888 L2.86842175,17.9870972 L2.85740975,17.9903725 L2.81234212,18.0018359 L2.8066322,18.0366357 L2.76217635,18.0532167 L2.73627776,18.0458474 L2.70935954,18.0923153 L2.68835517,18.1117622 L2.63288733,18.1066446 L2.59658852,18.0718448 L2.57721556,18.0712307 L2.56028971,18.0998893 L2.55029734,18.1287526 L2.5027826,18.1287526 L2.48483712,18.1545454 L2.46322098,18.1598677 L2.45547179,18.1854558 L2.42936928,18.2022415 L2.39307047,18.2440012 L2.33291233,18.233766 L2.27989159,18.2155473 L2.22075308,18.1872981 L2.18119145,18.136122 L2.15406931,18.110534 L2.10369961,18.0135041 L2.06332228,17.9660127 L2.00479555,17.9506599 L1.98542259,17.9490222 L1.96176718,17.976862 L1.94259815,17.983822 L1.92771156,18.003883 L1.92424482,18.0227158 L1.94749237,18.0378639 L1.96074755,18.0743013 L1.93709215,18.1140139 L1.88345964,18.1068493 L1.87203979,18.101527 L1.82778786,18.1414443 L1.7910812,18.0998893 L1.80005394,17.9977419 L1.82350542,17.8839262 L1.83696453,17.7535296 L1.84165483,17.6300928 L1.84512157,17.4233414 L1.84043127,16.8024731 L1.8122895,16.612098 L1.85980423,16.5220281 L1.91669956,16.5875335 L1.97094385,16.6640929 L1.94402563,16.6982786 L1.95666903,16.7496594 L1.98909325,16.8106613 L2.01336044,16.9095335 L2.00643095,17.0027554 L2.01672192,17.0071647 L2.0188522,17.0092313 L2.02508289,17.0122823 L2.04364014,17.0296821 L2.06321703,17.0431926 L2.07749184,17.049129 L2.08136644,17.0849523 L2.0897274,17.1138156 L2.13866961,17.146773 L2.09441769,17.1295779 L2.07137407,17.0931405 L2.06321703,17.0835194 L2.0118277,17.074103 L2.0046903,17.1224132 L2.00225703,17.0589069 L1.99052073,17.2167947 L2.00194059,17.5031761 L2.02049784,17.6221094 L2.05618488,17.634801 L2.09860146,17.625794 L2.13367672,17.6366434 L2.15386538,17.5723662 L2.11879013,17.602253 L2.08269524,17.4366472 L2.01417614,17.37933 L2.03660799,17.2853707 L2.03762762,17.2229358 L2.0839188,17.1557928 L2.13061783,17.1991901 L2.13816309,17.2317381 L2.15264183,17.2450439 L2.18649353,17.2943777 L2.18832886,17.1938678 L2.23237686,17.1551787 L2.27173455,17.131433 L2.28580544,17.1171037 L2.29457426,17.0937674 L2.298041,17.05733 L2.29437033,17.0131139 L2.27703663,16.9774953 L2.23074545,16.8735055 L2.16630486,16.776885 L2.10940954,16.6550859 L2.21973345,16.6866104 L2.26337359,16.7199772 L2.24094174,16.6767846 L2.22218056,16.5543714 L2.22401589,16.5474114 L2.25888722,16.4399417 L2.36146195,16.3951114 L2.46607594,16.3738222 L2.4909549,16.3830338 L2.45363646,16.3326766 L2.3847095,16.2772017 L2.33739869,16.2565266 L2.30844122,16.2307338 L2.30130381,16.2362608 L2.29865277,16.2991051 L2.15916746,16.3146626 L2.1177705,16.2743358 L2.11246842,16.3015615 L2.1240922,16.3234649 L2.18098753,16.3523282 L2.11613909,16.4121019 L2.06515761,16.3899938 L2.02294495,16.3869232 L1.98562651,16.3672716 L1.94953163,16.3580599 L1.93546074,16.3248978 L1.76008446,16.2317573 L1.73663299,16.1416874 L1.73459373,15.95295 L1.70033418,15.7961464 L1.65424692,15.6442558 L1.66994922,15.5773175 L1.72745632,15.4999392 L1.81657194,15.5771128 L1.79760683,15.6694344 L1.85042364,15.746608 L1.85307468,15.7592997 L1.86143564,15.6804885 L1.8871303,15.6061808 L1.9366843,15.5695387 L2.01193295,15.5644211 L2.04823177,15.5482495 L2.12368435,15.4933887 L2.34943032,15.3959494 L2.44221661,15.3615591 L2.39082728,15.3329005 L2.16243027,15.3378134 L2.09941717,15.2747644 L1.98481081,15.2766068 L1.95666903,15.210692 L1.97420666,15.1505089 L1.94320993,15.0925775 L1.84940401,15.0588013 L1.7855752,15.045905 L1.72215425,15.038945 L1.67504736,15.0618719 L1.65893722,15.0913493 L1.66281181,15.1110009 L1.68911825,15.1728217 L1.6840201,15.2786538 L1.68911825,15.3105877 L1.71399721,15.3713849 L1.74030365,15.3670861 L1.77660246,15.3953353 L1.77089254,15.4999392 L1.69197321,15.4442596 L1.65954899,15.4344338 L1.64731344,15.4379138 L1.64323492,15.4428267 L1.64323492,15.4831535 L1.60102226,15.5001439 L1.51741264,15.5165203 L1.53168745,15.4422126 L1.52964819,15.4178528 L1.53189138,15.3693378 L1.54106805,15.2579787 L1.54188375,15.0166322 L1.52189901,14.7574765 L1.4619448,14.4152108 L1.43380302,14.2780589 L1.38649221,14.1208459 L1.34978555,14.0258631 L1.32959688,13.9949528 L1.26311704,13.9902446 L1.24639512,13.9329273 L1.19296653,13.7894296 L1.18582912,13.7886108 L1.14545179,13.7591333 L1.05980292,13.1718365 L1.05368514,12.9779815 L0.988836701,12.736635 L0.964773445,12.6199536 L0.89136012,12.4111551 L0.876269603,12.2527139 L0.862198716,12.2044037 L0.83262946,12.1937591 L0.794903168,12.1614158 L0.770024208,12.1149479 L0.7117014,12.0465766 L0.693551995,11.9106529 L0.539384012,11.8257006 L0.46780602,11.682817 L0.41458136,11.6621418 L0.359521366,11.6691018 L0.270201821,11.5131171 L0.221055678,11.3243796 L0.178027313,11.1749455 L0.14682665,11.0208031 L0.117257394,10.824901 L0.128677245,10.7231629 L0.0401734028,10.5248044 L0,10.4195864 L0.0566914009,10.3868337 L0.103186507,10.3301306 L0.129289022,10.2502959 L0.128677245,10.2382183 L0.117257394,10.2159055 L0.0842213977,10.1203086 L0.096253026,10.0830524 L0.136834281,10.0719984 L0.148458057,10.0433398 L0.146418798,9.95777333 L0.159673982,9.90987251 L0.198623829,9.84661886 L0.202906273,9.82758135 L0.180066572,9.81018148 L0.182105831,9.77927112 L0.137446058,9.76043832 L0.0540403642,9.67384838 L0.0171297758,9.60793357 L0.0277339227,9.51397427 L0.136222503,9.49616499 L0.308132039,9.53219296 L0.36033707,9.59155722 L0.371552994,9.5952419 L0.411522471,9.55982805 L0.482488685,9.58684902 L0.599542153,9.67118722 L0.800817019,9.80711092 L0.960083149,9.90229845 L1.09854884,9.9516322 L1.1415772,9.97803906 L1.24027734,10.0337186 L1.28779207,10.0476385 L1.35060125,10.0236881 L1.42217924,10.0439539 L1.61305389,10.1528566 L1.7517235,10.2249125 L1.7839438,10.2900085 L1.90895037,10.3780314 L2.05414562,10.397683 L2.12082939,10.4251134 L2.18955242,10.4253181 L2.26296574,10.4390333 L2.39001158,10.4418991 L2.41958083,10.4615508 L2.53520682,10.4441509 L2.61514577,10.4750613 L2.73525813,10.4488591 L2.85659404,10.4269557 L3.03237817,10.4887764 L3.05256684,10.5268515 L3.16207504,10.5469125 L3.20795837,10.5039246 L3.25914377,10.480793 L3.3262354,10.5180492 L3.35152221,10.5528489 L3.39149169,10.5608324 L3.46306968,10.5565336 L3.57645248,10.5203009 L3.6325321,10.5221433 L3.76753105,10.5720911 L3.60561388,10.5925616 L3.57420929,10.6032062 L3.6198887,10.6210155 L3.81688112,10.6259284 L3.88580807,10.6341165 L3.98063362,10.6191731 L4.08810257,10.6306366 L4.14010367,10.6083238 L4.28081255,10.439238 L4.34402958,10.3798737 L4.60097621,10.3176436 L4.42335675,10.4384192 L4.38216372,10.4850918 L4.47454215,10.4940988 L4.54020629,10.583964 L4.61382354,10.6300225 L4.68173087,10.7767955 L4.66888354,10.8781241 L4.70171561,10.9239779 L4.74474397,10.9436295 L4.72435138,10.8050447 L4.74882249,10.7315558 L4.87831544,10.705149 L4.93011262,10.7028972 L4.9827255,10.7188641 L5.0047495,10.7735202 L5.01168298,10.8281763 L5.01780076,10.8330892 L5.04166009,10.8328845 L5.05695453,10.8380021 L5.09101016,10.8525361 L5.13424245,10.9104674 L5.18094148,11.0052455 L5.18828281,11.0619487 L5.21601674,10.987641 L5.18869066,10.9376931 L5.07673534,10.8095482 L5.06286838,10.7546874 L5.07673534,10.6809938 L5.10569282,10.6230625 L5.15096437,10.5946086 L5.23967214,10.5675876 L5.3259328,10.5252138 L5.40831886,10.5256232 L5.48010078,10.6562246 L5.43707241,10.6900008 L5.37140827,10.7274617 L5.36080413,10.741791 L5.35937664,10.7841648 L5.37691427,10.8187599 L5.40179323,10.8494655 L5.41423271,10.8766912 L5.43278997,10.9397402 L5.54576492,11.1430116 L5.56269077,11.1624585 L5.61713899,11.1997147 L5.64140617,11.2334909 L5.6487475,11.2656295 L5.65792417,11.3561088 L5.66710083,11.3802639 L5.81229607,11.5792366 L5.83289259,11.639215 L5.78986422,11.6721724 L5.68851305,11.6801558 L5.67281076,11.7041062 L5.65323387,11.7773904 L5.62917061,11.8259053 L5.50559152,11.9855747 L5.47031234,12.0617248 L5.42157404,12.2078837 L5.40383249,12.2903795 L5.39812257,12.3468779 L5.38405168,12.4019434 L5.35448242,12.4394043 L5.3157365,12.4615124 L5.2763788,12.4690864 L5.20928718,12.4402231 L5.20663614,12.3743083 L5.23885644,12.2918125 L5.2873908,12.0349085 L5.2873908,12.0267203 L5.28922613,11.9192505 L5.28698295,11.9008271 L5.28698295,11.903693 L5.27719451,11.9904876 L5.18991422,12.0674565 L5.23600147,12.1714463 L5.16421956,12.2340858 L5.12506578,12.3307063 L5.09549653,12.4185245 L5.05226424,12.4744088 L5.03533839,12.5702104 L4.99781602,12.6031678 L4.96947032,12.6129936 L4.94234817,12.6381722 L4.72863383,12.9163655 L4.69886065,12.9759344 L4.60913325,13.208888 L4.56671666,13.2678429 L4.50737422,13.3261836 L4.46353015,13.3830914 L4.42661957,13.5286362 L4.35850831,13.692195 L4.35300232,13.7355923 L4.41805468,13.7859496 L4.55713214,13.7714156 L5.01474187,13.5691677 L5.10263393,13.5110316 L5.15443111,13.4578085 L5.12975608,13.4522815 L5.03044416,13.4989541 L4.84527944,13.6297602 L4.62891406,13.7314982 L4.50084859,13.7296559 L4.42967845,13.6142026 L4.44171008,13.5400997 L4.47209504,13.4801213 L4.55081044,13.366101 L4.57099911,13.330073 L4.68071124,13.0643667 L4.8913667,12.7513738 L4.92868514,12.7280375 L5.09773971,12.6131983 L5.30737554,12.5274272 L5.36284338,12.4942651 L5.3889459,12.46663 L5.40485212,12.4183198 L5.44319019,12.2396129 L5.46888485,12.1718557 L5.74153379,11.7706352 L5.78293074,11.7311272 L5.81943348,11.7147509 L5.89243895,11.7337884 L5.89978029,11.7855786 L5.89264288,11.8191501 L5.8975371,11.8312277 L5.91711399,11.8355264 L5.92323177,11.8058443 L5.91058836,11.7178214 L5.86490896,11.5264229 L5.85512051,11.4994019 L5.80271156,11.3954121 L5.78843674,11.2996104 L5.99848042,11.4318494 L6.07658404,11.5022677 L6.106969,11.6091234 L6.11125145,11.6748335 L6.12776945,11.8076866 L6.14122855,11.8422817 L6.17242922,11.883632 L6.18507262,11.9354222 L6.1573387,11.9820948 L6.19057862,12.0015417 L6.22096358,12.0326567 L6.24013262,12.0746211 L6.24278365,12.1284584 L6.22687743,12.1683757 L6.1958807,12.2252835 L6.16489617,12.2334758 L6.16334465,12.240937 L6.16742317,12.3050095 L6.18251368,12.3541385 L6.19740027,12.3809548 L6.19434139,12.4137075 L6.17435665,12.4728671 L6.11229044,12.2283619 L6.01826124,12.2060413 L6.00072361,12.2099307 L6.0045982,12.2406364 L5.99786865,12.2578315 L6.04273234,12.2735938 L6.07332123,12.2959066 L6.10329834,12.3272263 L6.12613804,12.3687813 L6.14020893,12.501225 L6.15448374,12.5507635 L6.19098648,12.5919091 L6.1408207,12.6561862 L6.15611515,12.6735861 L6.15489159,12.7077717 L6.16406826,12.7268092 L6.17344885,12.7749148 L6.17895485,12.7835123 L6.22789706,12.8074628 L6.1793627,12.8551589 L6.14591885,12.9061303 L6.05863856,12.8901633 L6.00582176,12.8115568 L6.03824597,12.8950762 L6.04232449,12.9957908 L6.05761893,13.0361175 L6.13572256,13.0678467 L6.13294959,13.1027143 L6.21289864,13.0614113 L6.1865922,13.0219034 L6.20249842,13 L6.22574597,13.0253833 L6.26979397,13.0163763 L6.28141775,13.0190375 L6.17517235,13.0888417 L6.1306577,13.1315329 L6.12797337,13.165286 L6.11282307,13.2016986 L6.12888117,13.2216948 L6.11827702,13.2221042 L6.10703763,13.2156035 L6.09228634,13.2510571 L6.06434849,13.3601645 L6.05109331,13.4254652 L6.01357094,13.5247468 L6.0037825,13.5994639 L6.04538338,13.6702916 L6.05721108,13.6461365 L6.0786233,13.3376471 L6.09575308,13.2903603 L6.13939322,13.2232173 L6.19853173,13.1611919 L6.29335728,13.114724 L6.26154484,13.2191232 L6.26705084,13.2314055 L6.29315335,13.2541277 L6.31619698,13.2983438 L6.32231476,13.3409223 L6.32516972,13.426284 L6.33189927,13.4596509 L6.36248816,13.5198339 L6.40225371,13.5505396 L6.44936059,13.5736712 L6.56559836,13.6608752 L6.47954163,13.6653787 L6.37003342,13.7120513 L6.28703558,13.8010977 L6.20383381,13.8725395 L6.1903747,13.8367163 L6.17834307,13.7943425 L6.17752737,13.8015071 L6.15856226,13.8473609 L6.13082833,13.8762242 L6.09045101,13.8713113 L6.06271708,13.8440856 L6.03172035,13.7963895 L6.02437901,13.7687544 L5.99460583,13.8090812 L5.95116961,13.8387633 L5.93200058,13.8451092 L5.99032339,13.9673177 L6.00012779,14.0336589 L6.00040785,14.0212893 L6.00416153,14.0138748 L6.00255894,13.854935 L6.09208241,13.9353838 L6.18425692,13.9945433 L6.28418061,14.0815427 L6.31171061,14.0909591 L6.3384249,14.0784721 L6.36228423,14.0559547 L6.34107594,14.0410112 L6.30436928,14.0023221 L6.29662009,13.9531931 L6.32476187,13.895057 L6.35922534,13.8582102 L6.41265393,13.8197258 L6.46852963,13.791886 L6.55315888,13.766298 L6.57518288,13.7349782 L6.58660273,13.6813457 L6.58232028,13.6148168 L6.56111199,13.5658924 L6.48586333,13.4586273 L6.46873355,13.4013101 L6.46914141,13.2264926 L6.46078044,13.1880082 L6.43223082,13.1384697 L6.41183823,13.0930253 L6.35861357,12.9061303 L6.35269972,12.8584341 L6.3706452,12.8226109 L6.41448926,12.7646795 L6.4738317,12.7472797 L6.5242014,12.8211779 L6.53643695,12.8461519 L6.53990369,12.8105333 L6.54173903,12.7683642 L6.52991133,12.7245575 L6.49850674,12.6856637 L6.38206505,12.6324405 L6.34597016,12.6064431 L6.31150668,12.5507635 L6.29682402,12.513712 L6.31742053,12.4770699 L6.34719372,12.46663 L6.35473897,12.448616 L6.36228423,12.4111551 L6.37982186,12.3757413 L6.42162667,12.3083935 L6.42937586,12.2711373 L6.41326571,12.1509759 L6.38430823,12.1067597 L6.36106068,12.0408449 L6.36840201,11.9444292 L6.38002579,11.8850649 L6.40164193,11.8257006 L6.43549363,11.7683834 L6.51257762,11.7012404 L6.54296258,11.6426949 L6.56009236,11.4850726 L6.58395169,11.4265271 L6.5855831,11.3907039 L6.60271287,11.3487395 L6.62412509,11.3274502 L6.68346753,11.2801635 L6.69611094,11.2654248 L6.73342938,11.2379944 L6.82356462,11.2177287 L6.84191796,11.1997147 L6.89147195,11.1681902 L6.89962899,11.1260211 L6.90472713,11.0596969 L6.9414338,11.018756 L6.92654721,11.009749 L6.91777839,11.0007421 L6.90085254,10.9997185 L6.84762788,11.0572405 L6.63901168,10.8813994 L6.54377829,10.7712685 L6.48117303,10.6300225 L6.46628644,10.4775177 L6.47138459,10.3510104 L6.44915667,10.2734275 L6.34719372,10.2275737 L6.32904431,10.214882 L6.3045732,10.1950257 L6.30355357,10.1954351 L6.29580439,10.218362 L6.30416535,10.3096601 L6.29580439,10.3182577 L6.24563862,10.356128 L6.23972477,10.4034147 L6.24951321,10.4736283 L6.26868224,10.5291032 L6.29315335,10.5649265 L6.33495816,10.6103708 L6.37737475,10.6466035 L6.41428534,10.6625704 L6.46852963,10.700236 L6.50951873,10.7647179 L6.58435954,10.9317567 L6.48749474,10.9346225 L6.44344674,10.8959334 L6.39164956,10.8087294 L6.37023734,10.7878495 L6.14347174,10.6154884 L6.07903115,10.5356537 L6.03620672,10.4388286 L6.0147945,10.3299259 L6.01499842,10.3131401 L6.01989264,10.225936 L6.01132775,10.086123 L6.03457531,10.0793677 L6.13021656,10.0664713 L6.21810862,10.0382221 L6.27949032,10.0322857 L6.33414246,10.0425209 L6.37574334,10.08469 L6.40184586,10.1287015 L6.3943006,10.1049558 L6.40633223,10.0502997 L6.44242711,9.97742495 L6.43467793,9.95941096 L6.42794837,9.91458071 L6.41836386,9.89144911 L6.40490475,9.87159279 L6.31701268,9.79196279 L6.23421877,9.73976318 L6.17242922,9.67098252 L6.14367567,9.65337794 L6.10635723,9.6421192 L6.05904642,9.63843452 L6.01581412,9.60117833 L5.96360909,9.49534617 L5.92221214,9.45542882 L5.92221214,9.40343392 L5.95545206,9.36822477 L5.9542285,9.36699654 L5.9077334,9.3559425 L5.89998421,9.36208363 L5.85858725,9.43250194 L5.82595911,9.46791579 L5.7786483,9.48879563 L5.72950216,9.49616499 L5.67648142,9.48285921 L5.63324913,9.43864307 L5.60266025,9.36126482 L5.62529602,9.30681346 L5.64813572,9.28429598 L5.65833202,9.2570703 L5.64568861,9.19995778 L5.62080965,9.1821485 L5.58063625,9.1729368 L5.54433744,9.13854647 L5.55555336,9.05912118 L5.61285654,9.04745303 L5.6550692,9.0507283 L5.68321098,9.0368084 L5.77191875,8.97007478 L5.84512814,9.06116822 L5.88448584,9.15635575 L5.88428192,9.12176071 L5.94525576,9.08552804 L6.01193953,9.13342886 L6.07678797,9.22083762 L6.10391011,9.2429457 L6.12593411,9.24949624 L6.14245211,9.24007983 L6.1581544,9.21305886 L6.15917403,9.19791074 L6.14591885,9.13301945 L6.13511078,9.01449563 L6.12165167,8.9569737 L6.09758841,8.90190823 L6.06822308,8.85196036 L5.95810309,8.77171625 L5.9022274,8.70416381 L6.00500605,8.67857577 L6.07903115,8.70907672 L6.1848687,8.80344543 L6.21668114,8.81818414 L6.25175639,8.79832782 L6.26766261,8.7365071 L6.25787417,8.6517595 L6.22443032,8.57642829 L6.20811625,8.56128017 L6.15264841,8.52852747 L6.12634196,8.48635837 L6.11390248,8.44357516 L6.10708965,8.39820526 L6.0572549,8.35596264 L6.03764706,8.34734195 L6,8.22701149 L6.0508699,8.19340719 L6.10594937,8.07879199 L6.08576071,8.02741119 L6.03416746,7.97971508 L5.97217398,7.94655297 L5.93036917,7.93672716 L5.89264288,7.95576467 L5.85206163,8.01492423 L5.76845201,8.16906661 L5.71930586,8.19874874 L5.67097542,8.16169726 L5.64895143,8.11563877 L5.63997869,8.06262034 L5.65629276,8.02679708 L5.69483475,7.97951037 L5.67648142,7.93549893 L5.63039417,7.87511115 L5.60735054,7.86139596 L5.52700374,8.03682759 L5.5573887,7.77808128 L5.54984344,7.72322051 L5.52618803,7.68596432 L5.40158931,7.56825931 L5.37365146,7.52588551 L5.36080413,7.46774947 L5.37732212,7.40797579 L5.43136249,7.3377622 L5.40831886,7.28822374 L5.2692414,7.29436487 L5.24742132,7.18935153 L5.29513999,7.12834964 L5.37365146,7.11565796 L5.45991211,7.1316249 L5.44849226,7.10030514 L5.3991422,7.00061411 L21.012525,7.00040941 L23.7145432,7.00040941 L56.5196953,7 L56.5443703,23.0263045 L56.5413114,23.1010216 L56.4948163,23.1002028 L56.4972634,24.5196228 L56.4968556,25.0029298 L56.5003223,26.9150733 L56.4982831,27.3908062 L56.5058283,32.0928654 L56.5046048,32.5579537 L56.5058283,34.4090953 L56.5046048,34.8696801 L56.5052166,35.3292414 L56.5046048,35.7879839 L56.5064401,36.2454981 L56.5025655,38.0434165 L61.9665562,38.0438259 L62,52.2024078 L59.3766972,52.2024078 L59.3783286,53.910461 L59.2645379,53.9123034 L59.2651497,53.9475125 L59.1996895,68.8287008 L49.384328,68.8336137 L49.3849397,68.8561312 L49.4399997,68.9676951 L49.4565177,69.0424122 L49.4644708,69.1187669 L49.4824163,69.166463 L49.5586846,69.2790504 L49.5368645,69.3044338 L49.5482844,69.3267465 L49.5666377,69.3461935 L49.590701,69.3603181 L49.6337293,69.3695298 L49.6700282,69.3934802 L49.80258,69.5326791 L49.7813717,69.555606 L49.7744382,69.5738247 L49.7489475,69.5639989 L45.1451163,69.5519213 L45.1455242,70.9987718 L45.0037957,70.9997953 L42.8474832,70.9997953 L40.2233646,71 L37.5011578,71 L37.3323071,70.9793249 L36.1277168,70.5240624 L29.425896,68.0757982 L27.0415943,67.1976165 L27.0984896,67.139071 L27.1345845,67.0121543 L27.1370316,66.9517665 L27.1117448,66.8799153 L27.1806718,66.753408 L27.2606107,66.6776674 L27.2899761,66.6262866 L27.3109804,66.5728588 L27.3219924,66.5249579 L21.0758935,67.0866932 Z M1.00776301,29.0210401 L1,29.0317292 L1.00486285,29.0131798 L1,29 L1.0074038,29.0077552 L1.02304363,29 L1.01308755,29.0137087 L1.02019665,29.0211552 L1.02651037,29.0081882 L1.05404036,29 L1.0503697,29.0421691 L1.02749309,29.0455981 L1.04445585,29.1338767 L1.09095095,29.177274 L1.03262814,29.1606929 L1.01509052,29.15926 L1.00693348,29.1359237 L1.00611778,29.0806535 L1.00723305,29.0486349 L1.00530207,29.0489243 L1,29.0501526 L1.00734137,29.0455253 L1.00815704,29.0221081 L1.00776301,29.0210401 Z M5.37571734,14.5229301 L5.35625855,14.5519068 L5.35347236,14.5607516 L5.36039627,14.5714002 L5.38384775,14.6201199 L5.40362857,14.6514396 L5.47153589,14.6846018 L5.50946611,14.7241097 L5.54025892,14.7861351 L5.60714662,14.7451942 L5.6936112,14.655329 L5.9140551,14.3286209 L5.97033865,14.1992477 L6.0045982,14.0571829 L6.00432936,14.03052 L6.00074006,14.0378018 L6.00133539,14.0418301 L5.96095806,14.1476622 L5.89223503,14.1443869 L5.68076387,14.04879 L5.59409536,13.9820564 L5.60653484,13.9218733 L5.64691217,13.8831842 L5.66791654,13.8346692 L5.69116409,13.762818 L5.73154142,13.7061149 L5.74928297,13.6639458 L5.72318045,13.6899433 L5.63243343,13.73723 L5.61428402,13.7574957 L5.59796995,13.7834932 L5.56636144,13.8176788 L5.53760788,13.8326222 L5.53087833,13.8952617 L5.51639959,13.9398873 L5.47459478,14.0119432 L5.46602989,14.0520653 L5.47846937,14.0991473 L5.54760025,14.2199229 L5.54229818,14.2604543 L5.52007026,14.285633 L5.48642248,14.3564607 L5.49417167,14.3861428 L5.49254026,14.425446 L5.37936138,14.5296406 L5.37571734,14.5229301 Z M5.29373722,14.3719649 L5.29065362,14.3662865 L5.27963679,14.3199518 L5.2259499,14.2789548 L5.2045169,14.3442978 L5.20296548,14.4186908 L5.16625881,14.4889044 L5.17869829,14.4782598 L5.20826755,14.5566615 L5.20480081,14.6070188 L5.19949874,14.620734 L5.21622066,14.6121364 L5.22764051,14.60272 L5.22417377,14.5339393 L5.25782155,14.4835821 L5.27553214,14.4954041 L5.27978634,14.4809322 L5.29373722,14.3719649 Z M5.24619371,14.1417481 L5.24538207,14.0643475 L5.25909457,14.0577289 L5.26795864,14 L5.28577943,14.0448489 L5.3039088,14.0360983 L5.32328176,13.9865599 L5.33001131,13.9128663 L5.32858383,13.804373 L5.32470924,13.7763285 L5.31186191,13.7271995 L5.2975871,13.704682 L5.27331991,13.683188 L5.2370211,13.8436762 L5.20459688,13.9304709 L5.17910615,13.9562636 L5.2306994,13.9181886 L5.19011815,14.0514512 L5.15381933,14.0782674 L5.1511683,14.106926 L5.15137222,14.1562598 L5.14810941,14.2004759 L5.20561651,14.2915694 L5.20547271,14.2984649 L5.24063256,14.1779661 L5.24619371,14.1417481 Z M6.21903494,2.01657231 L6.18744395,2 L6.07533632,2.04805856 L6.01659193,2.1298536 L6,2.23806493 L6.06679368,2.38485533 L6.02235577,2.47475669 L6,2.6006691 L6.01947115,2.73053528 L6.08173077,2.7843674 L6.16033654,2.80778589 L6.18653846,2.82877129 L6.16322115,2.94860097 L6.41057692,3 L6.46875,2.92487835 L6.5,2.8120438 L6.49230769,2.70529197 L6.42572115,2.55352798 L6.36057692,2.65632603 L6.35024038,2.65389294 L6.33028846,2.60705596 L6.32019231,2.51976886 L6.32155509,2.48977677 L6.32959641,2.48822406 L6.40313901,2.44748568 L6.41748879,2.37651178 L6.44843049,2.33831954 L6.5,2.28866964 L6.367713,2.15849777 L6.35022422,2.11712285 L6.31121076,2.0649268 L6.27277479,2.04476368 L6.25865385,2 L6.21903494,2.01657231 Z M6.19247956,4 L6.15073273,3.91633389 L6.14113747,3.90523035 L6.12212142,3.89802279 L6.08600837,3.87367293 L6.0542568,3.8446479 L6.02878576,3.80899971 L6,3.71062628 L6.01343336,3.61829161 L6.20655967,3.17570858 L6.23866015,3.07441317 L6.30879274,3.07636116 L6.33321703,3.06194604 L6.36287509,3.02512905 L6.40457083,3 L6.43911375,3.07265998 L6.44521982,3.10577579 L6.45498953,3.11941171 L6.45690858,3.12934645 L6.45952547,3.19888965 L6.60450105,3.33583325 L6.59996511,3.4659589 L6.55931612,3.51816499 L6.51046755,3.53102172 L6.46074669,3.50667186 L6.41817865,3.45115418 L6.40038381,3.43401188 L6.38311235,3.45115418 L6.35851361,3.51348982 L6.32519191,3.62958995 L6.29588276,3.55537158 L6.29431263,3.58089023 L6.28646197,3.64205708 L6.2367411,3.68315964 L6.13468248,3.70809389 L6.14113747,3.71783384 L6.15980461,3.72075582 L6.23394976,3.69582156 L6.27634334,3.70965228 L6.32885555,3.74607967 L6.352582,3.75387163 L6.41189812,3.78445505 L6.45219819,3.8627642 L6.47470342,3.94964449 L6.50401256,4.12769066 L6.51395673,4.34644979 L6.53175157,4.53033992 L6.54256804,4.54826142 L6.54972087,4.54300185 L6.57240056,4.46858868 L6.54431263,4.38365637 L6.54134682,4.28917892 L6.5807746,4.21476575 L6.6530007,4.28002338 L6.69068388,4.33612545 L6.72854152,4.3799552 L6.91939986,4.53735268 L6.95498953,4.60222071 L6.96946964,4.69202299 L7,4.79935716 L6.9867411,4.83266777 L6.9752268,4.84571929 L6.90980461,4.9824681 L6.89200977,5 L6.8517097,4.99824681 L6.8431612,4.95149508 L6.81018842,4.96863738 L6.76151431,4.98090971 L6.73534543,4.94350833 L6.73011165,4.85234246 L6.71545708,4.76760495 L6.69347523,4.7060485 L6.66939986,4.68267264 L6.65806001,4.68539982 L6.6102582,4.74247589 L6.58339149,4.76195578 L6.53977669,4.75572222 L6.51430565,4.73254115 L6.4909968,4.69963639 L6.5,4.79396752 L6.43528904,5 L6.26229508,4.99257541 L6.14624676,4.82923434 L6.06125971,4.63016241 L6.0271786,4.50672854 L6,4.31693735 L6.01984469,4.18700696 L6.1078516,4.17958237 L6.04314064,4.10116009 L6.16307161,4 L6.19247956,4 Z M6.27057328,4.01361525 L6.33433995,4.08027842 L6.35617732,4.14327685 L6.36339846,4.09788643 L6.34909281,4.0178241 L6.32519191,3.99347424 L6.29030007,3.99873381 L6.27057328,4.01361525 Z M5.10516129,2.62743528 L5.05032258,2.45796637 L5,2.14091273 L5.10129032,2.03656258 L5.25709677,2 L5.39870968,2.07179077 L5.43774194,2.13931145 L5.5083871,2.20923405 L5.58451613,2.26474513 L5.73064516,2.31945556 L5.8183871,2.44542301 L5.95193548,2.49639712 L5.92806452,2.567921 L5.86419355,2.63864425 L5.80193548,2.67253803 L5.76903226,2.66026154 L5.76451613,2.67840939 L5.76677419,2.68081132 L5.84516129,2.8115826 L5.87387097,2.83400053 L5.90612903,2.85321591 L6,2.88684281 L6,3 L5.88935484,2.95302909 L5.8583871,2.95489725 L5.81548387,2.96797438 L5.73580645,2.97945023 L5.65806452,2.96290366 L5.61419355,2.92634107 L5.58225806,2.88737657 L5.54677419,2.85401655 L5.49806452,2.82519349 L5.41064516,2.83186549 L5.35741935,2.82305845 L5.29032258,2.79983987 L5.22709677,2.76754737 L5.17903226,2.73071791 L5.13096774,2.67227115 L5.10516129,2.62743528 Z M5,0.0005 L5.5,0 L5.35004359,0.2035 L5.02484743,0.363 L5.01089799,0.0735 L5,0.0005 Z M5.00049603,1.58990193 L5.02306548,1.53505267 L5.11061508,1.38757719 L5.15104167,1.3505267 L5.17286706,1.33563385 L5.3343254,1.03523429 L5.38963294,1.0054486 L5.46031746,1 L5.60689484,1.03196513 L6,1.37740647 L5.96875,1.49872866 L5.94791667,1.53287323 L5.80357143,1.69051943 L5.79811508,1.70795496 L5.79340278,1.76462041 L5.77579365,1.82600799 L5.7093254,1.85252452 L5.65550595,1.80639303 L5.62152778,1.74609517 L5.53720238,1.52851435 L5.48412698,1.28369052 L5.47867063,1.23029422 L5.46949405,1.19397021 L5.46056548,1.18670541 L5.45634921,1.18888485 L5.44816468,1.22847802 L5.45262897,1.3007628 L5.46031746,1.33454413 L5.46354167,1.39120959 L5.45064484,1.44315292 L5.61607143,1.86632764 L5.54811508,1.95859063 L5.49355159,1.98982928 L5.3891369,2 L5.31845238,1.96040683 L5.28621032,1.8732292 L5.26860119,1.77878678 L5.25396825,1.72321104 L5.19766865,1.6476571 L5.1937004,1.74936433 L5.17906746,1.86196876 L5.13368056,1.96294951 L5.06498016,1.86342172 L5.01909722,1.76026153 L5,1.67526335 L5.00049603,1.58990193 Z M6.15235294,1.54698139 L6.07676471,1.39945529 L6.02,1.32864276 L6,1.20789832 L6.03235294,1 L6.14882353,1.07217431 L6.29117647,1.41625057 L6.34647059,1.47616886 L6.39794118,1.54925102 L6.44264706,1.65138448 L6.45941176,1.69950068 L6.485,1.79618702 L6.5,1.94371312 L6.42823529,2 L6.34117647,1.90467544 L6.26941176,1.80344984 L6.23823529,1.74625511 L6.15235294,1.54698139 Z M15.9357338,62.2793079 L15.9986326,62.3495763 L16,62.4184322 L15.9389243,62.470339 L15.8801276,62.4749294 L15.8172288,62.4943503 L15.7411121,62.4925847 L15.7092069,62.5 L15.6016408,62.4809322 L15.556062,62.4865819 L15.5082042,62.4646893 L15.4270738,62.4579802 L15.3746582,62.4240819 L15.2470374,62.404661 L15.077484,62.2930791 L15.0770283,62.2620056 L15.0273473,62.2224576 L15.0391978,62.1800847 L15,62.1137006 L15.0305378,62.0303672 L15.1549681,62.0808616 L15.2123974,62.0434322 L15.26299,62.0434322 L15.3450319,62 L15.4963537,62.0741525 L15.5720146,62.1211158 L15.6257976,62.1154661 L15.6773017,62.1423023 L15.8113036,62.1889124 L15.9357338,62.2793079 Z M1.033036,39 L1.03752237,39.0182187 L1.03201637,39.0337762 L1.01427481,39.0409409 L1,39.0517902 L1.033036,39 Z M1.00387459,39 L1.00570993,39.0022517 L1,39.0071647 L1.00387459,39 Z M1.01325518,39.132239 L1,39.1242555 L1.02875355,39.0442161 L1.05363251,39 L1.06097384,39.0208798 L1.0503697,39.0564984 L1.07361725,39.1033757 L1.0732094,39.1127921 L1.06484844,39.1150439 L1.04669903,39.1367425 L1.01325518,39.132239 Z" id="Combined-Shape"></path>
                                            </g>
                                            <path d="M33.6426667,43.3536 C32.7738667,44.3557333 31.3525333,44.3557333 30.4837333,43.3536 C30.4837333,43.3536 19,30.1018667 19,22.0634667 C19,14.8496 24.8485333,9 32.0634667,9 C39.2778667,9 45.1269333,14.8490667 45.1269333,22.0634667 C45.1269333,30.1018667 33.6426667,43.3536 33.6426667,43.3536 Z M27.6657922,26.7013946 L27.2872779,29.8301898 C28.4845375,30.4695979 29.6221404,30.7332405 30.5154978,30.8321682 L30.5077262,32.7288042 L33.089699,32.7132077 L33.098123,30.6906565 C35.0913922,30.1161521 36.2783507,28.4208129 36.287242,26.3356535 C36.2969048,23.9594804 34.3509131,22.6372979 32.0969307,21.7965635 C31.2653816,21.5097435 30.5552686,21.1389524 30.4776954,20.3059958 C30.419734,19.4721274 30.8897409,18.6979412 31.9278299,18.6296044 C32.3749127,18.605497 33.2900248,18.5796052 34.8929793,19.2368911 L35.2706312,16.3576505 C34.3980004,16.0499617 33.7069082,15.8877131 33.1592421,15.8078832 L33.1668176,13.9316077 L30.5848046,13.9474111 L30.576818,15.9483604 C28.745398,16.5223314 27.5384652,18.2182972 27.5297804,20.3238954 C27.5194649,22.8249101 29.5472097,24.0006535 31.8210859,24.8411752 C32.6327009,25.1284148 33.2616679,25.499537 33.3177419,26.3538665 C33.3972026,27.1663619 32.6614506,27.7961324 31.8087693,27.8642207 C31.1364616,27.931082 29.3274388,27.8995948 27.6657922,26.7013946 Z" id="Combined-Shape" fill="#FF4489" fill-rule="nonzero"></path>
                                        </g>
                                    </g>
                                </g>
                            </g>
                        </g>
                    </g>
                </g>
            </g>
        </g>
    </g>
</svg>